<svg width="312" height="312" viewBox="0 0 312 312" fill="none" xmlns="http://www.w3.org/2000/svg">
<rect y="0.0530396" width="312" height="311" rx="17" fill="white"/>
<g clip-path="url(#clip0_1998_8215)">
<rect x="8.37695" y="8.05304" width="295" height="189" rx="10" fill="#BABABA"/>
<path d="M128.261 66.3446C140.714 44.775 171.848 44.775 184.301 66.3446L248.459 177.47C260.913 199.04 245.346 226.002 220.44 226.002H92.1225C67.216 226.002 51.6495 199.04 64.1027 177.47L128.261 66.3446Z" fill="#939393"/>
<rect x="100" y="84.053" width="47" height="28" rx="14" fill="#F9FFFF"/>
<rect x="131.377" y="90.053" width="10" height="10" rx="5" fill="#262626"/>
<rect x="165" y="84.053" width="47" height="28" rx="14" fill="#F9FFFF"/>
<rect x="196.377" y="90.053" width="10" height="10" rx="5" fill="#262626"/>
<path d="M253.27 46.6273H243.643L236.414 60.66H246.903L239.372 78.0899L261.197 54.565H247.505L253.27 46.6273Z" fill="white"/>
</g>
<path d="M20.5767 226.289H18.3367L18.3527 217.681L15.1687 217.665V215.729H23.7767V217.665L20.5927 217.681L20.5767 226.289ZM27.6447 226.289H25.3087V215.729H27.5647V220.097C27.9807 218.753 29.3567 218.033 30.7007 218.017C32.8927 218.001 34.5727 219.585 34.5727 222.273V226.289H32.3327V222.257C32.3327 220.721 31.2927 219.841 29.9967 219.857C28.7167 219.873 27.6447 220.753 27.6447 222.257V226.289ZM37.321 217.425C36.697 217.425 36.105 217.073 36.105 216.513C36.105 215.969 36.697 215.617 37.321 215.617C37.929 215.617 38.521 215.969 38.521 216.513C38.521 217.073 37.929 217.425 37.321 217.425ZM38.425 226.289H36.185V218.177H38.425V226.289ZM43.6095 226.449C41.6895 226.401 40.0735 225.313 40.0575 223.489H42.1055C42.1855 224.385 42.8415 224.785 43.6415 224.817C44.2975 224.833 44.8895 224.513 44.9055 223.953C44.9215 223.361 44.5215 223.089 43.5455 222.929C41.4815 222.673 40.1055 222.193 40.0735 220.529C40.0415 219.009 41.4335 218.017 43.3855 218.017C45.4015 218.017 46.9535 219.009 47.0175 220.945H44.9695C44.9215 220.193 44.3295 219.681 43.4655 219.665C42.7295 219.649 42.2495 220.049 42.2495 220.609C42.2655 221.153 42.6655 221.473 43.7215 221.665C46.0095 222.065 47.0655 222.417 47.0495 224.097C47.0495 225.681 45.5775 226.497 43.6095 226.449ZM54.4597 217.425C53.8357 217.425 53.2437 217.073 53.2437 216.513C53.2437 215.969 53.8357 215.617 54.4597 215.617C55.0677 215.617 55.6597 215.969 55.6597 216.513C55.6597 217.073 55.0677 217.425 54.4597 217.425ZM55.5637 226.289H53.3237V218.177H55.5637V226.289ZM60.7482 226.449C58.8282 226.401 57.2122 225.313 57.1962 223.489H59.2442C59.3242 224.385 59.9802 224.785 60.7802 224.817C61.4362 224.833 62.0282 224.513 62.0442 223.953C62.0602 223.361 61.6602 223.089 60.6842 222.929C58.6202 222.673 57.2442 222.193 57.2122 220.529C57.1802 219.009 58.5722 218.017 60.5242 218.017C62.5402 218.017 64.0922 219.009 64.1562 220.945H62.1082C62.0602 220.193 61.4682 219.681 60.6042 219.665C59.8682 219.649 59.3882 220.049 59.3882 220.609C59.4042 221.153 59.8042 221.473 60.8602 221.665C63.1482 222.065 64.2042 222.417 64.1882 224.097C64.1882 225.681 62.7162 226.497 60.7482 226.449ZM71.5985 217.425C70.9745 217.425 70.3825 217.073 70.3825 216.513C70.3825 215.969 70.9745 215.617 71.5985 215.617C72.2065 215.617 72.7985 215.969 72.7985 216.513C72.7985 217.073 72.2065 217.425 71.5985 217.425ZM72.7025 226.289H70.4625V218.177H72.7025V226.289ZM76.671 226.289H74.335V218.177H76.591V220.097C77.007 218.753 78.383 218.033 79.727 218.017C81.919 218.001 83.599 219.585 83.599 222.273V226.289H81.359V222.257C81.359 220.721 80.319 219.841 79.023 219.857C77.743 219.873 76.671 220.753 76.671 222.257V226.289ZM88.7152 226.289H86.4752V221.457H85.1312V219.617H86.4752V218.865C86.4752 215.921 89.4192 215.041 91.5792 215.905L91.2272 217.841C89.9632 217.329 88.7152 217.601 88.7152 218.929V219.617H90.8912V221.457H88.7312L88.7152 226.289ZM96.784 226.449C94.336 226.449 92.256 224.769 92.24 222.273C92.224 219.665 94.24 218.017 96.784 218.017C99.376 218.017 101.376 219.665 101.36 222.273C101.344 224.737 99.44 226.449 96.784 226.449ZM96.768 224.609C98.08 224.609 99.104 223.633 99.104 222.257C99.104 220.881 98.112 219.857 96.784 219.857C95.488 219.857 94.48 220.833 94.48 222.257C94.48 223.585 95.488 224.609 96.768 224.609ZM105.248 226.289H102.896V218.177H105.152V220.241C105.6 218.497 107.712 217.697 109.376 218.465L108.192 220.305C107.12 219.633 105.248 220.529 105.248 222.257V226.289ZM113.247 226.289H110.911V218.177H113.151V220.097C113.439 218.817 114.719 218.033 115.919 218.017C117.375 218.001 118.463 218.753 118.959 220.129C119.471 218.801 120.767 218.001 122.079 218.017C124.143 218.049 125.615 219.489 125.615 222.065V226.289H123.359V222.065C123.359 220.721 122.607 219.841 121.375 219.857C120.143 219.873 119.439 220.737 119.439 222.081V226.289H117.199V222.065C117.199 220.705 116.431 219.825 115.215 219.857C114.047 219.889 113.263 220.849 113.263 222.049L113.247 226.289ZM131.144 226.449C128.84 226.465 127.144 224.609 127.144 222.273C127.144 219.585 128.824 218.001 131.032 218.017C132.376 218.033 133.752 218.753 134.168 220.097V218.177H136.408V226.289H134.168V224.337C133.784 225.601 132.472 226.433 131.144 226.449ZM131.736 224.577C132.984 224.561 134.072 223.633 134.072 222.257C134.072 220.769 133 219.873 131.736 219.857C130.44 219.841 129.384 220.721 129.384 222.257C129.384 223.649 130.456 224.609 131.736 224.577ZM143.829 224.161L144.181 226.081C142.037 226.961 139.173 226.065 139.173 223.137V220.017H137.941V218.081C139.349 218.065 139.173 217.265 139.173 215.729H141.413L141.429 218.081H143.605V220.017H141.413V222.849C141.413 224.193 142.565 224.657 143.829 224.161ZM146.953 217.425C146.329 217.425 145.737 217.073 145.737 216.513C145.737 215.969 146.329 215.617 146.953 215.617C147.561 215.617 148.153 215.969 148.153 216.513C148.153 217.073 147.561 217.425 146.953 217.425ZM148.057 226.289H145.817V218.177H148.057V226.289ZM154.233 226.449C151.785 226.449 149.705 224.769 149.689 222.273C149.673 219.665 151.689 218.017 154.233 218.017C156.825 218.017 158.825 219.665 158.809 222.273C158.793 224.737 156.889 226.449 154.233 226.449ZM154.217 224.609C155.529 224.609 156.553 223.633 156.553 222.257C156.553 220.881 155.561 219.857 154.233 219.857C152.937 219.857 151.929 220.833 151.929 222.257C151.929 223.585 152.937 224.609 154.217 224.609ZM162.681 226.289H160.345V218.177H162.601V220.097C163.017 218.753 164.393 218.033 165.737 218.017C167.929 218.001 169.609 219.585 169.609 222.273V226.289H167.369V222.257C167.369 220.721 166.329 219.841 165.033 219.857C163.753 219.873 162.681 220.753 162.681 222.257V226.289ZM179.781 226.449C177.477 226.465 175.781 224.609 175.781 222.273C175.781 219.585 177.461 218.001 179.669 218.017C181.013 218.033 182.389 218.753 182.805 220.097V218.177H185.045V226.289H182.805V224.337C182.421 225.601 181.109 226.433 179.781 226.449ZM180.373 224.577C181.621 224.561 182.709 223.633 182.709 222.257C182.709 220.769 181.637 219.873 180.373 219.857C179.077 219.841 178.021 220.721 178.021 222.257C178.021 223.649 179.093 224.609 180.373 224.577ZM191.841 226.449C190.513 226.433 189.217 225.601 188.817 224.337V226.289H186.577V215.729H188.833V220.097C189.249 218.753 190.625 218.033 191.969 218.017C194.161 218.001 195.841 219.585 195.841 222.273C195.841 224.609 194.161 226.465 191.841 226.449ZM191.265 224.577C192.529 224.609 193.601 223.649 193.601 222.257C193.601 220.721 192.561 219.841 191.265 219.857C189.985 219.873 188.913 220.753 188.913 222.257C188.913 223.633 190.001 224.561 191.265 224.577ZM201.918 226.449C199.47 226.449 197.39 224.769 197.374 222.273C197.358 219.665 199.374 218.017 201.918 218.017C204.51 218.017 206.51 219.665 206.494 222.273C206.478 224.737 204.574 226.449 201.918 226.449ZM201.902 224.609C203.214 224.609 204.238 223.633 204.238 222.257C204.238 220.881 203.246 219.857 201.918 219.857C200.622 219.857 199.614 220.833 199.614 222.257C199.614 223.585 200.622 224.609 201.902 224.609ZM211.645 226.449C209.517 226.465 208.029 224.977 208.029 222.401V218.177H210.285V222.401C210.285 223.761 211.053 224.625 212.333 224.609C213.645 224.577 214.429 223.585 214.429 222.161V218.177H216.765V226.289H214.509V224.289C214.189 225.761 212.845 226.433 211.645 226.449ZM224.182 224.161L224.534 226.081C222.39 226.961 219.526 226.065 219.526 223.137V220.017H218.294V218.081C219.702 218.065 219.526 217.265 219.526 215.729H221.766L221.782 218.081H223.958V220.017H221.766V222.849C221.766 224.193 222.918 224.657 224.182 224.161ZM19.7127 242.449C17.2647 242.449 15.1847 240.769 15.1687 238.273C15.1527 235.665 17.1687 234.017 19.7127 234.017C22.3047 234.017 24.3047 235.665 24.2887 238.273C24.2727 240.737 22.3687 242.449 19.7127 242.449ZM19.6967 240.609C21.0087 240.609 22.0327 239.633 22.0327 238.257C22.0327 236.881 21.0407 235.857 19.7127 235.857C18.4167 235.857 17.4087 236.833 17.4087 238.257C17.4087 239.585 18.4167 240.609 19.6967 240.609ZM29.4403 242.449C27.3123 242.465 25.8243 240.977 25.8243 238.401V234.177H28.0803V238.401C28.0803 239.761 28.8483 240.625 30.1283 240.609C31.4403 240.577 32.2243 239.585 32.2243 238.161V234.177H34.5603V242.289H32.3043V240.289C31.9843 241.761 30.6403 242.433 29.4403 242.449ZM38.4413 242.289H36.0893V234.177H38.3453V236.241C38.7933 234.497 40.9053 233.697 42.5693 234.465L41.3853 236.305C40.3133 235.633 38.4413 236.529 38.4413 238.257V242.289ZM53.2883 242.449C50.8403 242.449 48.7603 240.785 48.7443 238.273C48.7283 235.665 50.7443 234.017 53.2883 234.017C55.2243 234.017 56.8563 234.977 57.4963 236.465L55.4163 237.233C55.0483 236.401 54.2323 235.857 53.2883 235.857C51.9923 235.857 50.9843 236.865 50.9843 238.257C50.9843 239.601 51.9923 240.609 53.2723 240.609C54.2643 240.609 55.0643 240.033 55.4323 239.217L57.5123 239.985C56.8403 241.473 55.2723 242.449 53.2883 242.449ZM63.5846 242.449C61.1366 242.449 59.0566 240.769 59.0406 238.273C59.0246 235.665 61.0406 234.017 63.5846 234.017C66.1766 234.017 68.1766 235.665 68.1606 238.273C68.1446 240.737 66.2406 242.449 63.5846 242.449ZM63.5686 240.609C64.8806 240.609 65.9046 239.633 65.9046 238.257C65.9046 236.881 64.9126 235.857 63.5846 235.857C62.2886 235.857 61.2806 236.833 61.2806 238.257C61.2806 239.585 62.2886 240.609 63.5686 240.609ZM73.3122 242.449C71.1842 242.465 69.6962 240.977 69.6962 238.401V234.177H71.9522V238.401C71.9522 239.761 72.7202 240.625 74.0002 240.609C75.3122 240.577 76.0962 239.585 76.0962 238.161V234.177H78.4322V242.289H76.1762V240.289C75.8562 241.761 74.5122 242.433 73.3122 242.449ZM82.3132 242.289H79.9612V234.177H82.2172V236.241C82.6652 234.497 84.7772 233.697 86.4412 234.465L85.2572 236.305C84.1852 235.633 82.3132 236.529 82.3132 238.257V242.289ZM90.9032 242.449C88.9832 242.401 87.3672 241.313 87.3512 239.489H89.3992C89.4792 240.385 90.1352 240.785 90.9352 240.817C91.5912 240.833 92.1832 240.513 92.1992 239.953C92.2152 239.361 91.8152 239.089 90.8392 238.929C88.7752 238.673 87.3992 238.193 87.3672 236.529C87.3352 235.009 88.7272 234.017 90.6792 234.017C92.6952 234.017 94.2472 235.009 94.3112 236.945H92.2632C92.2152 236.193 91.6232 235.681 90.7592 235.665C90.0232 235.649 89.5432 236.049 89.5432 236.609C89.5592 237.153 89.9592 237.473 91.0152 237.665C93.3032 238.065 94.3592 238.417 94.3432 240.097C94.3432 241.681 92.8712 242.497 90.9032 242.449ZM100.265 242.449C97.9935 242.449 95.8975 240.817 95.8975 238.257C95.8975 235.457 97.9935 234.017 100.265 234.017C102.505 234.017 104.281 235.441 104.521 237.873C104.553 238.129 104.553 238.449 104.521 238.721H98.0255C98.1855 239.873 99.2095 240.609 100.265 240.609C101.113 240.625 101.913 240.257 102.313 239.569L103.993 240.417C103.257 241.681 101.865 242.449 100.265 242.449ZM98.1855 237.489L102.409 237.473C102.201 236.449 101.241 235.809 100.265 235.825C99.3215 235.825 98.3935 236.449 98.1855 237.489ZM109.621 242.449C107.701 242.401 106.085 241.313 106.069 239.489H108.117C108.197 240.385 108.853 240.785 109.653 240.817C110.309 240.833 110.901 240.513 110.917 239.953C110.933 239.361 110.533 239.089 109.557 238.929C107.493 238.673 106.117 238.193 106.085 236.529C106.053 235.009 107.445 234.017 109.397 234.017C111.413 234.017 112.965 235.009 113.029 236.945H110.981C110.933 236.193 110.341 235.681 109.477 235.665C108.741 235.649 108.261 236.049 108.261 236.609C108.277 237.153 108.677 237.473 109.733 237.665C112.021 238.065 113.077 238.417 113.061 240.097C113.061 241.681 111.589 242.497 109.621 242.449Z" fill="#36373A"/>
<path d="M17.7324 268.393H16.7244V259.153H17.8724L21.1624 266.657L24.5364 259.153H25.6704V268.393H24.6764V260.959L21.4844 268.393H20.8264L17.7324 260.959V268.393ZM30.9022 268.533C28.8022 268.533 27.1082 266.965 27.0942 264.879C27.0942 262.611 28.7602 261.155 30.9022 261.155C33.0862 261.155 34.7522 262.611 34.7522 264.879C34.7382 266.965 33.1002 268.533 30.9022 268.533ZM30.8882 267.679C32.3862 267.679 33.7582 266.573 33.7582 264.879C33.7582 263.129 32.4702 261.995 30.9022 261.995C29.4042 261.995 28.0882 263.059 28.0882 264.879C28.0882 266.489 29.4182 267.679 30.8882 267.679ZM37.2149 268.393H36.1789V261.295H37.1729V263.367C37.5789 262.009 39.1329 261.141 40.5189 261.393L40.0569 262.233C38.7969 262.051 37.2149 263.115 37.2149 264.893V268.393ZM44.3248 268.533C42.3648 268.533 40.6288 266.993 40.6288 264.865C40.6288 262.513 42.3648 261.155 44.3248 261.155C46.2148 261.155 47.8388 262.387 48.0068 264.683V265.117L41.5808 265.131C41.6928 266.643 43.0508 267.679 44.3248 267.693C45.2768 267.693 46.2708 267.231 46.7748 266.321L47.5448 266.727C46.9148 267.875 45.6828 268.533 44.3248 268.533ZM41.6508 264.487H47.0548C46.9008 262.919 45.6268 261.981 44.3248 261.981C43.0368 261.981 41.7768 262.919 41.6508 264.487ZM56.8461 268.533C54.7881 268.547 53.2201 266.937 53.2201 264.879C53.2201 262.555 54.7741 261.141 56.8041 261.155C58.1901 261.155 59.4361 261.939 59.9261 263.101V259.153H60.9341V268.393H59.9401V266.545C59.4641 267.707 58.2041 268.533 56.8461 268.533ZM57.0421 267.679C58.5261 267.665 59.8981 266.517 59.8981 264.879C59.8981 263.045 58.5121 262.009 57.0421 261.995C55.5581 261.995 54.2141 262.961 54.2141 264.879C54.2141 266.531 55.5721 267.679 57.0421 267.679ZM66.0555 268.533C64.0955 268.533 62.3595 266.993 62.3595 264.865C62.3595 262.513 64.0955 261.155 66.0555 261.155C67.9455 261.155 69.5695 262.387 69.7375 264.683V265.117L63.3115 265.131C63.4235 266.643 64.7815 267.679 66.0555 267.693C67.0075 267.693 68.0015 267.231 68.5055 266.321L69.2755 266.727C68.6455 267.875 67.4135 268.533 66.0555 268.533ZM63.3815 264.487H68.7855C68.6315 262.919 67.3575 261.981 66.0555 261.981C64.7675 261.981 63.5075 262.919 63.3815 264.487ZM75.0863 267.315L75.3103 268.169C73.7283 268.883 71.4043 268.197 71.4043 265.831V262.135H70.1863V261.253C71.5863 261.253 71.4043 260.413 71.4043 259.153H72.3983L72.4123 261.253H74.7643V262.135H72.3983V265.747C72.3983 267.301 73.8823 267.875 75.0863 267.315ZM79.5611 268.533C77.5031 268.547 75.9351 266.937 75.9351 264.879C75.9351 262.555 77.4891 261.141 79.5191 261.155C80.9051 261.155 82.1511 261.939 82.6411 263.101V261.295H83.6491V268.393H82.6551V266.545C82.1791 267.707 80.9191 268.533 79.5611 268.533ZM79.7571 267.679C81.2411 267.665 82.6131 266.517 82.6131 264.879C82.6131 263.073 81.2271 262.009 79.7571 261.995C78.2731 261.995 76.9291 262.961 76.9291 264.879C76.9291 266.531 78.2871 267.679 79.7571 267.679ZM85.7185 260.175C85.3825 260.175 85.0745 259.951 85.0745 259.643C85.0745 259.321 85.3825 259.111 85.7185 259.111C86.0545 259.111 86.3485 259.321 86.3485 259.643C86.3485 259.951 86.0545 260.175 85.7185 260.175ZM86.2085 268.393H85.2145V261.295H86.2085V268.393ZM88.7824 268.393H87.7744V259.153H88.7824V268.393ZM93.9105 268.533C91.9505 268.533 90.2145 266.993 90.2145 264.865C90.2145 262.513 91.9505 261.155 93.9105 261.155C95.8005 261.155 97.4245 262.387 97.5925 264.683V265.117L91.1665 265.131C91.2785 266.643 92.6365 267.679 93.9105 267.693C94.8625 267.693 95.8565 267.231 96.3605 266.321L97.1305 266.727C96.5005 267.875 95.2685 268.533 93.9105 268.533ZM91.2365 264.487H96.6405C96.4865 262.919 95.2125 261.981 93.9105 261.981C92.6225 261.981 91.3625 262.919 91.2365 264.487ZM102.652 268.533C100.594 268.547 99.0258 266.937 99.0258 264.879C99.0258 262.555 100.58 261.141 102.61 261.155C103.996 261.155 105.242 261.939 105.732 263.101V259.153H106.74V268.393H105.746V266.545C105.27 267.707 104.01 268.533 102.652 268.533ZM102.848 267.679C104.332 267.665 105.704 266.517 105.704 264.879C105.704 263.045 104.318 262.009 102.848 261.995C101.364 261.995 100.02 262.961 100.02 264.879C100.02 266.531 101.378 267.679 102.848 267.679ZM112.589 260.175C112.253 260.175 111.945 259.951 111.945 259.643C111.945 259.321 112.253 259.111 112.589 259.111C112.925 259.111 113.219 259.321 113.219 259.643C113.219 259.951 112.925 260.175 112.589 260.175ZM113.079 268.393H112.085V261.295H113.079V268.393ZM115.681 268.393H114.645V261.295H115.653V263.101C116.143 261.939 117.389 261.155 118.775 261.155C120.805 261.141 122.359 262.555 122.359 264.879V268.393H121.351L121.365 264.879C121.379 262.961 120.021 261.995 118.537 261.995C117.067 262.009 115.681 263.045 115.681 264.879V268.393ZM126.038 268.393H125.044V263.465H123.784V262.625H125.044V261.631C125.044 259.265 127.396 258.579 128.978 259.293L128.754 260.147C127.55 259.587 126.038 260.091 126.038 261.645V262.625H128.404V263.465H126.052L126.038 268.393ZM133.232 268.533C131.132 268.533 129.438 266.965 129.424 264.879C129.424 262.611 131.09 261.155 133.232 261.155C135.416 261.155 137.082 262.611 137.082 264.879C137.068 266.965 135.43 268.533 133.232 268.533ZM133.218 267.679C134.716 267.679 136.088 266.573 136.088 264.879C136.088 263.129 134.8 261.995 133.232 261.995C131.734 261.995 130.418 263.059 130.418 264.879C130.418 266.489 131.748 267.679 133.218 267.679ZM139.545 268.393H138.509V261.295H139.503V263.367C139.909 262.009 141.463 261.141 142.849 261.393L142.387 262.233C141.127 262.051 139.545 263.115 139.545 264.893V268.393ZM145.307 268.393H144.285V261.295H145.279V263.101C145.531 262.051 146.609 261.169 147.743 261.155C149.073 261.141 150.095 261.869 150.445 263.171C150.795 261.953 151.859 261.141 153.091 261.155C154.897 261.169 156.059 262.387 156.059 264.515V268.393H155.051V264.529C155.051 262.961 154.225 261.995 152.839 261.995C151.551 262.009 150.697 263.017 150.697 264.543V268.393H149.717V264.529C149.717 262.947 148.863 261.967 147.505 261.995C146.217 262.023 145.335 263.227 145.335 264.501L145.307 268.393ZM161.111 268.533C159.053 268.547 157.485 266.937 157.485 264.879C157.485 262.555 159.039 261.141 161.069 261.155C162.455 261.155 163.701 261.939 164.191 263.101V261.295H165.199V268.393H164.205V266.545C163.729 267.707 162.469 268.533 161.111 268.533ZM161.307 267.679C162.791 267.665 164.163 266.517 164.163 264.879C164.163 263.073 162.777 262.009 161.307 261.995C159.823 261.995 158.479 262.961 158.479 264.879C158.479 266.531 159.837 267.679 161.307 267.679ZM171.524 267.315L171.748 268.169C170.166 268.883 167.842 268.197 167.842 265.831V262.135H166.624V261.253C168.024 261.253 167.842 260.413 167.842 259.153H168.836L168.85 261.253H171.202V262.135H168.836V265.747C168.836 267.301 170.32 267.875 171.524 267.315ZM173.823 260.175C173.487 260.175 173.179 259.951 173.179 259.643C173.179 259.321 173.487 259.111 173.823 259.111C174.159 259.111 174.453 259.321 174.453 259.643C174.453 259.951 174.159 260.175 173.823 260.175ZM174.313 268.393H173.319V261.295H174.313V268.393ZM179.687 268.533C177.587 268.533 175.893 266.965 175.879 264.879C175.879 262.611 177.545 261.155 179.687 261.155C181.871 261.155 183.537 262.611 183.537 264.879C183.523 266.965 181.885 268.533 179.687 268.533ZM179.673 267.679C181.171 267.679 182.543 266.573 182.543 264.879C182.543 263.129 181.255 261.995 179.687 261.995C178.189 261.995 176.873 263.059 176.873 264.879C176.873 266.489 178.203 267.679 179.673 267.679ZM186 268.393H184.964V261.295H185.972V263.101C186.462 261.939 187.708 261.155 189.094 261.155C191.124 261.141 192.678 262.555 192.678 264.879V268.393H191.67L191.684 264.879C191.698 262.961 190.34 261.995 188.856 261.995C187.386 262.009 186 263.045 186 264.879V268.393ZM194.747 269.597L194.103 269.149C194.551 268.519 194.719 268.015 194.635 267.077H195.601C195.601 268.211 195.433 268.771 194.747 269.597ZM201.852 268.393H200.816V261.295H201.81V263.367C202.216 262.009 203.77 261.141 205.156 261.393L204.694 262.233C203.434 262.051 201.852 263.115 201.852 264.893V268.393ZM208.962 268.533C207.002 268.533 205.266 266.993 205.266 264.865C205.266 262.513 207.002 261.155 208.962 261.155C210.852 261.155 212.476 262.387 212.644 264.683V265.117L206.218 265.131C206.33 266.643 207.688 267.679 208.962 267.693C209.914 267.693 210.908 267.231 211.412 266.321L212.182 266.727C211.552 267.875 210.32 268.533 208.962 268.533ZM206.288 264.487H211.692C211.538 262.919 210.264 261.981 208.962 261.981C207.674 261.981 206.414 262.919 206.288 264.487ZM217.703 268.533C215.645 268.547 214.077 266.937 214.077 264.879C214.077 262.555 215.631 261.141 217.661 261.155C219.047 261.155 220.293 261.939 220.783 263.101V261.295H221.791V268.393H220.797V266.545C220.321 267.707 219.061 268.533 217.703 268.533ZM217.899 267.679C219.383 267.665 220.755 266.517 220.755 264.879C220.755 263.073 219.369 262.009 217.899 261.995C216.415 261.995 215.071 262.961 215.071 264.879C215.071 266.531 216.429 267.679 217.899 267.679ZM226.842 268.533C224.784 268.547 223.216 266.937 223.216 264.879C223.216 262.555 224.77 261.141 226.8 261.155C228.186 261.155 229.432 261.939 229.922 263.101V259.153H230.93V268.393H229.936V266.545C229.46 267.707 228.2 268.533 226.842 268.533ZM227.038 267.679C228.522 267.665 229.894 266.517 229.894 264.879C229.894 263.045 228.508 262.009 227.038 261.995C225.554 261.995 224.21 262.961 224.21 264.879C224.21 266.531 225.568 267.679 227.038 267.679ZM236.78 260.175C236.444 260.175 236.136 259.951 236.136 259.643C236.136 259.321 236.444 259.111 236.78 259.111C237.116 259.111 237.41 259.321 237.41 259.643C237.41 259.951 237.116 260.175 236.78 260.175ZM237.27 268.393H236.276V261.295H237.27V268.393ZM243.735 267.315L243.959 268.169C242.377 268.883 240.053 268.197 240.053 265.831V262.135H238.835V261.253C240.235 261.253 240.053 260.413 240.053 259.153H241.047L241.061 261.253H243.413V262.135H241.047V265.747C241.047 267.301 242.531 267.875 243.735 267.315ZM252.797 268.533C250.739 268.547 249.171 266.937 249.171 264.879C249.171 262.555 250.725 261.141 252.755 261.155C254.141 261.155 255.387 261.939 255.877 263.101V261.295H256.885V268.393H255.891V266.545C255.415 267.707 254.155 268.533 252.797 268.533ZM252.993 267.679C254.477 267.665 255.849 266.517 255.849 264.879C255.849 263.073 254.463 262.009 252.993 261.995C251.509 261.995 250.165 262.961 250.165 264.879C250.165 266.531 251.523 267.679 252.993 267.679ZM259.346 268.393H258.31V261.295H259.318V263.101C259.808 261.939 261.054 261.155 262.44 261.155C264.47 261.141 266.024 262.555 266.024 264.879V268.393H265.016L265.03 264.879C265.044 262.961 263.686 261.995 262.202 261.995C260.732 262.009 259.346 263.045 259.346 264.879V268.393ZM271.076 268.533C269.018 268.547 267.45 266.937 267.45 264.879C267.45 262.555 269.004 261.141 271.034 261.155C272.42 261.155 273.666 261.939 274.156 263.101V259.153H275.164V268.393H274.17V266.545C273.694 267.707 272.434 268.533 271.076 268.533ZM271.272 267.679C272.756 267.665 274.128 266.517 274.128 264.879C274.128 263.045 272.742 262.009 271.272 261.995C269.788 261.995 268.444 262.961 268.444 264.879C268.444 266.531 269.802 267.679 271.272 267.679ZM16.7244 287.233L17.3124 286.673C17.7044 287.205 18.7964 287.345 19.2584 286.407L19.6784 285.497L16.9204 279.295H17.9144L20.1824 284.671L22.7164 279.295H23.7104L20.0424 286.659C19.2444 288.269 17.5924 288.143 16.7244 287.233ZM27.8261 286.533C25.7261 286.533 24.0321 284.965 24.0181 282.879C24.0181 280.611 25.6841 279.155 27.8261 279.155C30.0101 279.155 31.6761 280.611 31.6761 282.879C31.6621 284.965 30.0241 286.533 27.8261 286.533ZM27.8121 285.679C29.3101 285.679 30.6821 284.573 30.6821 282.879C30.6821 281.129 29.3941 279.995 27.8261 279.995C26.3281 279.995 25.0121 281.059 25.0121 282.879C25.0121 284.489 26.3421 285.679 27.8121 285.679ZM36.2107 286.533C34.3067 286.547 33.1027 285.301 33.1027 283.173V279.295H34.1107V283.159C34.1107 284.741 34.9647 285.693 36.4347 285.679C37.9747 285.679 38.8427 284.419 38.8427 282.739V279.295H39.8787V286.393H38.8847V284.461C38.5347 285.833 37.3587 286.533 36.2107 286.533ZM48.3124 286.393H47.3884L45.0924 279.295H46.1004L47.9624 285.091L49.9784 279.295H50.9024L52.9324 285.091L54.9484 279.295H55.9424L53.5204 286.393H52.5824L50.4404 280.597L48.3124 286.393ZM58.0203 278.175C57.6843 278.175 57.3763 277.951 57.3763 277.643C57.3763 277.321 57.6843 277.111 58.0203 277.111C58.3563 277.111 58.6503 277.321 58.6503 277.643C58.6503 277.951 58.3563 278.175 58.0203 278.175ZM58.5103 286.393H57.5163V279.295H58.5103V286.393ZM61.0843 286.393H60.0763V277.153H61.0843V286.393ZM63.5244 286.393H62.5164V277.153H63.5244V286.393ZM71.8446 286.533C69.9406 286.547 68.7366 285.301 68.7366 283.173V279.295H69.7446V283.159C69.7446 284.741 70.5986 285.693 72.0686 285.679C73.6086 285.679 74.4766 284.419 74.4766 282.739V279.295H75.5126V286.393H74.5186V284.461C74.1686 285.833 72.9926 286.533 71.8446 286.533ZM77.9823 286.393H76.9463V279.295H77.9543V281.101C78.4443 279.939 79.6903 279.155 81.0763 279.155C83.1063 279.141 84.6603 280.555 84.6603 282.879V286.393H83.6523L83.6663 282.879C83.6803 280.961 82.3223 279.995 80.8383 279.995C79.3683 280.009 77.9823 281.045 77.9823 282.879V286.393ZM89.7116 286.533C87.6536 286.547 86.0856 284.937 86.0856 282.879C86.0856 280.555 87.6396 279.141 89.6696 279.155C91.0556 279.155 92.3016 279.939 92.7916 281.101V277.153H93.7996V286.393H92.8056V284.545C92.3296 285.707 91.0696 286.533 89.7116 286.533ZM89.9076 285.679C91.3916 285.665 92.7636 284.517 92.7636 282.879C92.7636 281.045 91.3776 280.009 89.9076 279.995C88.4236 279.995 87.0796 280.961 87.0796 282.879C87.0796 284.531 88.4376 285.679 89.9076 285.679ZM98.921 286.533C96.961 286.533 95.225 284.993 95.225 282.865C95.225 280.513 96.961 279.155 98.921 279.155C100.811 279.155 102.435 280.387 102.603 282.683V283.117L96.177 283.131C96.289 284.643 97.647 285.679 98.921 285.693C99.873 285.693 100.867 285.231 101.371 284.321L102.141 284.727C101.511 285.875 100.279 286.533 98.921 286.533ZM96.247 282.487H101.651C101.497 280.919 100.223 279.981 98.921 279.981C97.633 279.981 96.373 280.919 96.247 282.487ZM105.072 286.393H104.036V279.295H105.03V281.367C105.436 280.009 106.99 279.141 108.376 279.393L107.914 280.233C106.654 280.051 105.072 281.115 105.072 282.893V286.393ZM112.314 286.533C110.62 286.491 109.444 285.595 109.416 284.097H110.354C110.438 285.329 111.306 285.707 112.314 285.763C113.168 285.805 114.036 285.329 114.064 284.559C114.092 283.719 113.532 283.425 112.216 283.215C110.536 282.949 109.472 282.543 109.444 281.213C109.416 279.967 110.494 279.155 112.076 279.155C113.798 279.155 114.904 279.967 115.03 281.507H114.106C114.008 280.555 113.28 279.939 112.104 279.925C111.11 279.911 110.41 280.485 110.41 281.241C110.424 282.011 110.984 282.333 112.3 282.557C114.204 282.893 115.044 283.285 115.03 284.601C115.002 285.847 113.882 286.575 112.314 286.533ZM120.967 285.315L121.191 286.169C119.609 286.883 117.285 286.197 117.285 283.831V280.135H116.067V279.253C117.467 279.253 117.285 278.413 117.285 277.153H118.279L118.293 279.253H120.645V280.135H118.279V283.747C118.279 285.301 119.763 285.875 120.967 285.315ZM125.442 286.533C123.384 286.547 121.816 284.937 121.816 282.879C121.816 280.555 123.37 279.141 125.4 279.155C126.786 279.155 128.032 279.939 128.522 281.101V279.295H129.53V286.393H128.536V284.545C128.06 285.707 126.8 286.533 125.442 286.533ZM125.638 285.679C127.122 285.665 128.494 284.517 128.494 282.879C128.494 281.073 127.108 280.009 125.638 279.995C124.154 279.995 122.81 280.961 122.81 282.879C122.81 284.531 124.168 285.679 125.638 285.679ZM131.991 286.393H130.955V279.295H131.963V281.101C132.453 279.939 133.699 279.155 135.085 279.155C137.115 279.141 138.669 280.555 138.669 282.879V286.393H137.661L137.675 282.879C137.689 280.961 136.331 279.995 134.847 279.995C133.377 280.009 131.991 281.045 131.991 282.879V286.393ZM143.72 286.533C141.662 286.547 140.094 284.937 140.094 282.879C140.094 280.555 141.648 279.141 143.678 279.155C145.064 279.155 146.31 279.939 146.8 281.101V277.153H147.808V286.393H146.814V284.545C146.338 285.707 145.078 286.533 143.72 286.533ZM143.916 285.679C145.4 285.665 146.772 284.517 146.772 282.879C146.772 281.045 145.386 280.009 143.916 279.995C142.432 279.995 141.088 280.961 141.088 282.879C141.088 284.531 142.446 285.679 143.916 285.679Z" fill="#68696E"/>
<rect x="20.377" y="18.053" width="54.7422" height="23.9823" rx="10.4271" fill="#FFE500"/>
<path d="M36.8044 33.3783C35.4378 33.3482 34.2019 32.474 34.1114 31.0069H35.8197C35.9 31.6399 36.4025 31.9314 36.8345 31.9414C37.2968 31.9514 37.7188 31.7505 37.7288 31.3084C37.7288 30.8361 37.2365 30.7255 36.6436 30.6552C35.1866 30.5045 34.021 29.9016 34.021 28.535C34.031 27.2689 35.267 26.5454 36.5934 26.5454C37.96 26.5454 39.2662 27.3694 39.3265 28.8365H37.6083C37.5279 28.2034 37.1259 27.9823 36.5934 27.9823C36.1513 27.9823 35.8197 28.2436 35.8197 28.5752C35.8096 28.9168 36.1211 29.1178 36.8446 29.2183C38.5327 29.4394 39.5677 30.0523 39.5175 31.4892C39.4672 32.8257 38.1207 33.4085 36.8044 33.3783ZM43.657 33.3783C41.7679 33.3783 40.0798 32.0519 40.0999 29.9719C40.13 27.8115 41.8081 26.5454 43.657 26.5454C45.5561 26.5454 47.1538 27.8618 47.1337 29.9719C47.1136 32.0017 45.5963 33.3783 43.657 33.3783ZM43.6469 31.7605C44.6116 31.7605 45.2446 31.037 45.2547 29.9719C45.2446 28.8766 44.6116 28.1632 43.6469 28.1632C42.6823 28.1632 41.989 28.8867 41.9789 29.9719C41.989 31.027 42.6823 31.7605 43.6469 31.7605ZM51.2765 33.3783C49.3874 33.3783 47.6993 32.0519 47.7194 29.9719C47.7495 27.8115 49.4276 26.5454 51.2765 26.5454C53.1756 26.5454 54.7733 27.8618 54.7532 29.9719C54.7331 32.0017 53.2158 33.3783 51.2765 33.3783ZM51.2664 31.7605C52.2311 31.7605 52.8641 31.037 52.8742 29.9719C52.8641 28.8766 52.2311 28.1632 51.2664 28.1632C50.3018 28.1632 49.6084 28.8867 49.5984 29.9719C49.6084 31.027 50.3018 31.7605 51.2664 31.7605ZM57.2179 33.2778H55.3388V26.6459H56.9365L59.1974 30.1025V26.6459H61.0765V33.2778H59.5089L57.2179 29.9518V33.2778Z" fill="#816039"/>
<defs>
<clipPath id="clip0_1998_8215">
<rect x="8.37695" y="8.05304" width="295" height="189" rx="10" fill="white"/>
</clipPath>
</defs>
</svg>
