<svg width="312" height="311" viewBox="0 0 312 311" fill="none" xmlns="http://www.w3.org/2000/svg">
<rect width="312" height="311" rx="17" fill="white"/>
<g clip-path="url(#clip0_1998_8202)">
<rect x="8.37695" y="8" width="295" height="189" rx="10" fill="#C8C8C8"/>
<path d="M14.7874 -57.1564L-16.0321 -41.6567C-2.9511 -16.9481 27.6194 -7.16025 52.7954 -19.8217L113.911 -50.5581C128.472 -57.8809 140.059 -52.0103 143.074 -46.0153C146.089 -40.0204 143.893 -27.218 129.332 -19.8952L74.2883 7.78754C48.1437 20.9362 31.1588 52.2029 45.188 80.0984C59.2172 107.994 94.4452 113.002 120.59 99.8532L175.634 72.1704C190.195 64.8477 201.782 70.7183 204.797 76.7132C207.812 82.7082 205.615 95.5106 191.055 102.833L136.011 130.516C109.866 143.665 92.8813 174.931 106.91 202.827C120.94 230.723 156.168 235.73 182.312 222.582L237.356 194.899C251.917 187.576 263.504 193.447 266.519 199.442C269.534 205.437 267.338 218.239 252.777 225.562L197.733 253.245C171.589 266.393 154.604 297.66 168.633 325.556C168.837 325.961 169.045 326.361 169.257 326.756L200.128 311.231C199.86 310.846 199.628 310.456 199.432 310.066C196.417 304.071 198.613 291.269 213.174 283.946L268.218 256.263C294.362 243.115 311.347 211.848 297.318 183.952C283.289 156.057 248.061 151.049 221.916 164.198L166.872 191.88C152.311 199.203 140.724 193.333 137.709 187.338C134.694 181.343 136.891 168.54 151.451 161.217L206.495 133.535C232.64 120.386 249.625 89.1194 235.596 61.2239C221.566 33.3283 186.338 28.3205 160.194 41.4691L105.15 69.1518C90.589 76.4746 79.0019 70.6041 75.9869 64.609C72.9719 58.614 75.168 45.8116 89.7286 38.4889L144.773 10.8061C170.917 -2.34248 187.902 -33.6091 173.873 -61.5047C159.844 -89.4003 124.616 -94.4081 98.4712 -81.2595L37.3551 -50.5231C29.1906 -46.417 19.3227 -49.3997 14.7874 -57.1564Z" fill="white" fill-opacity="0.22"/>
<path d="M238.936 59.4065L240.016 60.2419L241.376 60.1254L255.4 58.9241L260.141 72.2457L260.597 73.5264L261.798 74.1637L274.256 80.7755L271.071 94.57L270.766 95.8898L271.429 97.0709L278.355 109.407L268.252 119.28L267.282 120.228L267.204 121.583L266.391 135.714L252.591 138.531L251.256 138.804L250.456 139.907L242.175 151.342L229.059 146.222L227.787 145.725L226.514 146.222L213.398 151.342L205.117 139.907L204.317 138.804L202.982 138.531L189.182 135.714L188.369 121.583L188.291 120.228L187.321 119.28L177.218 109.407L184.144 97.0709L184.807 95.8898L184.502 94.57L181.317 80.7755L193.775 74.1637L194.976 73.5264L195.432 72.2457L200.173 58.9241L214.197 60.1254L215.558 60.2419L216.637 59.4065L227.787 50.7823L238.936 59.4065Z" fill="#CFCFCF" stroke="#939393" stroke-width="7"/>
<path d="M98.9787 59.4065L100.059 60.2419L101.419 60.1254L115.443 58.9241L120.184 72.2457L120.64 73.5264L121.841 74.1637L134.299 80.7755L131.114 94.57L130.809 95.8898L131.472 97.0709L138.398 109.407L128.295 119.28L127.325 120.228L127.247 121.583L126.434 135.714L112.634 138.531L111.299 138.804L110.499 139.907L102.218 151.342L89.1023 146.222L87.8296 145.725L86.5569 146.222L73.4411 151.342L65.1597 139.907L64.3603 138.804L63.0251 138.531L49.2253 135.714L48.4123 121.583L48.3344 120.228L47.3644 119.28L37.261 109.407L44.187 97.0709L44.8502 95.8898L44.5455 94.57L41.3604 80.7755L53.8182 74.1637L55.019 73.5264L55.4748 72.2457L60.2162 58.9241L74.2402 60.1254L75.6005 60.2419L76.6804 59.4065L87.8296 50.7823L98.9787 59.4065Z" fill="#E6E6E6" stroke="#8C8C8C" stroke-width="7"/>
<path d="M99.994 118.732H75.983V112.977L83.226 107.222C89.2784 102.41 92.6022 100.029 92.8007 97.1517C92.9495 94.2247 91.2132 92.4388 87.7901 92.4884C85.0616 92.538 82.978 94.5224 82.8787 97.7966H75.1397C74.7428 89.9087 80.1502 85.8903 87.2444 85.4934C94.9339 85.0966 100.639 89.611 100.54 95.8122C100.391 101.567 97.2159 103.998 90.6178 109.504L88.0381 111.737H99.994V118.732Z" fill="#8C8C8C"/>
<path d="M227.438 118.96C221.587 118.96 215.488 116.233 215.488 107.406H222.182C222.182 111.522 224.364 112.365 227.438 112.365C230.661 112.365 232.447 111.026 232.447 108.596C232.447 105.82 230.265 104.877 226.347 104.877H220.744V99.3733H226.248C230.314 99.3733 232.347 98.6295 232.347 95.6047C232.347 92.927 230.612 91.8361 227.339 91.8361C223.918 91.8361 222.232 93.3237 222.083 96.7452H215.389C215.438 88.4146 221.835 85.241 227.686 85.241C234.975 85.241 240.083 88.4146 240.083 95.3568C240.083 98.7287 238.397 101.307 236.215 101.952C238.298 102.795 240.182 105.175 240.182 108.795C240.182 115.687 233.934 118.96 227.438 118.96Z" fill="#939393"/>
<path d="M172.792 42.2286L173.868 43.0568L175.222 42.9415L195.705 41.1972L202.624 60.5236L203.082 61.8045L204.286 62.4394L222.457 72.0276L217.815 92.0168L217.506 93.3437L218.176 94.5297L228.27 112.403L213.542 126.713L212.565 127.662L212.486 129.021L211.301 149.509L191.158 153.597L189.826 153.867L189.025 154.966L176.932 171.565L157.77 164.129L156.504 163.637L155.238 164.129L136.076 171.565L123.983 154.966L123.182 153.867L121.85 153.597L101.707 149.509L100.522 129.021L100.443 127.662L99.4664 126.713L84.738 112.403L94.8318 94.5297L95.5016 93.3437L95.1935 92.0168L90.5512 72.0276L108.722 62.4394L109.926 61.8045L110.384 60.5236L117.303 41.1972L137.786 42.9415L139.14 43.0568L140.216 42.2286L156.504 29.7027L172.792 42.2286Z" fill="#D9D9D9" stroke="#868686" stroke-width="7"/>
<path d="M167.368 134.515H152.234V87.6565H145.637V74.6563C148.741 74.6563 152.04 73.007 152.137 70.4846H167.174L167.368 134.515Z" fill="#878787"/>
</g>
<path d="M20.5767 226.235H18.3367L18.3527 217.627L15.1687 217.611V215.675H23.7767V217.611L20.5927 217.627L20.5767 226.235ZM27.6447 226.235H25.3087V215.675H27.5647V220.043C27.9807 218.699 29.3567 217.979 30.7007 217.963C32.8927 217.947 34.5727 219.531 34.5727 222.219V226.235H32.3327V222.203C32.3327 220.667 31.2927 219.787 29.9967 219.803C28.7167 219.819 27.6447 220.699 27.6447 222.203V226.235ZM37.321 217.371C36.697 217.371 36.105 217.019 36.105 216.459C36.105 215.915 36.697 215.563 37.321 215.563C37.929 215.563 38.521 215.915 38.521 216.459C38.521 217.019 37.929 217.371 37.321 217.371ZM38.425 226.235H36.185V218.123H38.425V226.235ZM43.6095 226.395C41.6895 226.347 40.0735 225.259 40.0575 223.435H42.1055C42.1855 224.331 42.8415 224.731 43.6415 224.763C44.2975 224.779 44.8895 224.459 44.9055 223.899C44.9215 223.307 44.5215 223.035 43.5455 222.875C41.4815 222.619 40.1055 222.139 40.0735 220.475C40.0415 218.955 41.4335 217.963 43.3855 217.963C45.4015 217.963 46.9535 218.955 47.0175 220.891H44.9695C44.9215 220.139 44.3295 219.627 43.4655 219.611C42.7295 219.595 42.2495 219.995 42.2495 220.555C42.2655 221.099 42.6655 221.419 43.7215 221.611C46.0095 222.011 47.0655 222.363 47.0495 224.043C47.0495 225.627 45.5775 226.443 43.6095 226.395ZM54.4597 217.371C53.8357 217.371 53.2437 217.019 53.2437 216.459C53.2437 215.915 53.8357 215.563 54.4597 215.563C55.0677 215.563 55.6597 215.915 55.6597 216.459C55.6597 217.019 55.0677 217.371 54.4597 217.371ZM55.5637 226.235H53.3237V218.123H55.5637V226.235ZM60.7482 226.395C58.8282 226.347 57.2122 225.259 57.1962 223.435H59.2442C59.3242 224.331 59.9802 224.731 60.7802 224.763C61.4362 224.779 62.0282 224.459 62.0442 223.899C62.0602 223.307 61.6602 223.035 60.6842 222.875C58.6202 222.619 57.2442 222.139 57.2122 220.475C57.1802 218.955 58.5722 217.963 60.5242 217.963C62.5402 217.963 64.0922 218.955 64.1562 220.891H62.1082C62.0602 220.139 61.4682 219.627 60.6042 219.611C59.8682 219.595 59.3882 219.995 59.3882 220.555C59.4042 221.099 59.8042 221.419 60.8602 221.611C63.1482 222.011 64.2042 222.363 64.1882 224.043C64.1882 225.627 62.7162 226.443 60.7482 226.395ZM71.5985 217.371C70.9745 217.371 70.3825 217.019 70.3825 216.459C70.3825 215.915 70.9745 215.563 71.5985 215.563C72.2065 215.563 72.7985 215.915 72.7985 216.459C72.7985 217.019 72.2065 217.371 71.5985 217.371ZM72.7025 226.235H70.4625V218.123H72.7025V226.235ZM76.671 226.235H74.335V218.123H76.591V220.043C77.007 218.699 78.383 217.979 79.727 217.963C81.919 217.947 83.599 219.531 83.599 222.219V226.235H81.359V222.203C81.359 220.667 80.319 219.787 79.023 219.803C77.743 219.819 76.671 220.699 76.671 222.203V226.235ZM88.7152 226.235H86.4752V221.403H85.1312V219.563H86.4752V218.811C86.4752 215.867 89.4192 214.987 91.5792 215.851L91.2272 217.787C89.9632 217.275 88.7152 217.547 88.7152 218.875V219.563H90.8912V221.403H88.7312L88.7152 226.235ZM96.784 226.395C94.336 226.395 92.256 224.715 92.24 222.219C92.224 219.611 94.24 217.963 96.784 217.963C99.376 217.963 101.376 219.611 101.36 222.219C101.344 224.683 99.44 226.395 96.784 226.395ZM96.768 224.555C98.08 224.555 99.104 223.579 99.104 222.203C99.104 220.827 98.112 219.803 96.784 219.803C95.488 219.803 94.48 220.779 94.48 222.203C94.48 223.531 95.488 224.555 96.768 224.555ZM105.248 226.235H102.896V218.123H105.152V220.187C105.6 218.443 107.712 217.643 109.376 218.411L108.192 220.251C107.12 219.579 105.248 220.475 105.248 222.203V226.235ZM113.247 226.235H110.911V218.123H113.151V220.043C113.439 218.763 114.719 217.979 115.919 217.963C117.375 217.947 118.463 218.699 118.959 220.075C119.471 218.747 120.767 217.947 122.079 217.963C124.143 217.995 125.615 219.435 125.615 222.011V226.235H123.359V222.011C123.359 220.667 122.607 219.787 121.375 219.803C120.143 219.819 119.439 220.683 119.439 222.027V226.235H117.199V222.011C117.199 220.651 116.431 219.771 115.215 219.803C114.047 219.835 113.263 220.795 113.263 221.995L113.247 226.235ZM131.144 226.395C128.84 226.411 127.144 224.555 127.144 222.219C127.144 219.531 128.824 217.947 131.032 217.963C132.376 217.979 133.752 218.699 134.168 220.043V218.123H136.408V226.235H134.168V224.283C133.784 225.547 132.472 226.379 131.144 226.395ZM131.736 224.523C132.984 224.507 134.072 223.579 134.072 222.203C134.072 220.715 133 219.819 131.736 219.803C130.44 219.787 129.384 220.667 129.384 222.203C129.384 223.595 130.456 224.555 131.736 224.523ZM143.829 224.107L144.181 226.027C142.037 226.907 139.173 226.011 139.173 223.083V219.963H137.941V218.027C139.349 218.011 139.173 217.211 139.173 215.675H141.413L141.429 218.027H143.605V219.963H141.413V222.795C141.413 224.139 142.565 224.603 143.829 224.107ZM146.953 217.371C146.329 217.371 145.737 217.019 145.737 216.459C145.737 215.915 146.329 215.563 146.953 215.563C147.561 215.563 148.153 215.915 148.153 216.459C148.153 217.019 147.561 217.371 146.953 217.371ZM148.057 226.235H145.817V218.123H148.057V226.235ZM154.233 226.395C151.785 226.395 149.705 224.715 149.689 222.219C149.673 219.611 151.689 217.963 154.233 217.963C156.825 217.963 158.825 219.611 158.809 222.219C158.793 224.683 156.889 226.395 154.233 226.395ZM154.217 224.555C155.529 224.555 156.553 223.579 156.553 222.203C156.553 220.827 155.561 219.803 154.233 219.803C152.937 219.803 151.929 220.779 151.929 222.203C151.929 223.531 152.937 224.555 154.217 224.555ZM162.681 226.235H160.345V218.123H162.601V220.043C163.017 218.699 164.393 217.979 165.737 217.963C167.929 217.947 169.609 219.531 169.609 222.219V226.235H167.369V222.203C167.369 220.667 166.329 219.787 165.033 219.803C163.753 219.819 162.681 220.699 162.681 222.203V226.235ZM179.781 226.395C177.477 226.411 175.781 224.555 175.781 222.219C175.781 219.531 177.461 217.947 179.669 217.963C181.013 217.979 182.389 218.699 182.805 220.043V218.123H185.045V226.235H182.805V224.283C182.421 225.547 181.109 226.379 179.781 226.395ZM180.373 224.523C181.621 224.507 182.709 223.579 182.709 222.203C182.709 220.715 181.637 219.819 180.373 219.803C179.077 219.787 178.021 220.667 178.021 222.203C178.021 223.595 179.093 224.555 180.373 224.523ZM191.841 226.395C190.513 226.379 189.217 225.547 188.817 224.283V226.235H186.577V215.675H188.833V220.043C189.249 218.699 190.625 217.979 191.969 217.963C194.161 217.947 195.841 219.531 195.841 222.219C195.841 224.555 194.161 226.411 191.841 226.395ZM191.265 224.523C192.529 224.555 193.601 223.595 193.601 222.203C193.601 220.667 192.561 219.787 191.265 219.803C189.985 219.819 188.913 220.699 188.913 222.203C188.913 223.579 190.001 224.507 191.265 224.523ZM201.918 226.395C199.47 226.395 197.39 224.715 197.374 222.219C197.358 219.611 199.374 217.963 201.918 217.963C204.51 217.963 206.51 219.611 206.494 222.219C206.478 224.683 204.574 226.395 201.918 226.395ZM201.902 224.555C203.214 224.555 204.238 223.579 204.238 222.203C204.238 220.827 203.246 219.803 201.918 219.803C200.622 219.803 199.614 220.779 199.614 222.203C199.614 223.531 200.622 224.555 201.902 224.555ZM211.645 226.395C209.517 226.411 208.029 224.923 208.029 222.347V218.123H210.285V222.347C210.285 223.707 211.053 224.571 212.333 224.555C213.645 224.523 214.429 223.531 214.429 222.107V218.123H216.765V226.235H214.509V224.235C214.189 225.707 212.845 226.379 211.645 226.395ZM224.182 224.107L224.534 226.027C222.39 226.907 219.526 226.011 219.526 223.083V219.963H218.294V218.027C219.702 218.011 219.526 217.211 219.526 215.675H221.766L221.782 218.027H223.958V219.963H221.766V222.795C221.766 224.139 222.918 224.603 224.182 224.107ZM19.7127 242.395C17.2647 242.395 15.1847 240.715 15.1687 238.219C15.1527 235.611 17.1687 233.963 19.7127 233.963C22.3047 233.963 24.3047 235.611 24.2887 238.219C24.2727 240.683 22.3687 242.395 19.7127 242.395ZM19.6967 240.555C21.0087 240.555 22.0327 239.579 22.0327 238.203C22.0327 236.827 21.0407 235.803 19.7127 235.803C18.4167 235.803 17.4087 236.779 17.4087 238.203C17.4087 239.531 18.4167 240.555 19.6967 240.555ZM29.4403 242.395C27.3123 242.411 25.8243 240.923 25.8243 238.347V234.123H28.0803V238.347C28.0803 239.707 28.8483 240.571 30.1283 240.555C31.4403 240.523 32.2243 239.531 32.2243 238.107V234.123H34.5603V242.235H32.3043V240.235C31.9843 241.707 30.6403 242.379 29.4403 242.395ZM38.4413 242.235H36.0893V234.123H38.3453V236.187C38.7933 234.443 40.9053 233.643 42.5693 234.411L41.3853 236.251C40.3133 235.579 38.4413 236.475 38.4413 238.203V242.235ZM53.2883 242.395C50.8403 242.395 48.7603 240.731 48.7443 238.219C48.7283 235.611 50.7443 233.963 53.2883 233.963C55.2243 233.963 56.8563 234.923 57.4963 236.411L55.4163 237.179C55.0483 236.347 54.2323 235.803 53.2883 235.803C51.9923 235.803 50.9843 236.811 50.9843 238.203C50.9843 239.547 51.9923 240.555 53.2723 240.555C54.2643 240.555 55.0643 239.979 55.4323 239.163L57.5123 239.931C56.8403 241.419 55.2723 242.395 53.2883 242.395ZM63.5846 242.395C61.1366 242.395 59.0566 240.715 59.0406 238.219C59.0246 235.611 61.0406 233.963 63.5846 233.963C66.1766 233.963 68.1766 235.611 68.1606 238.219C68.1446 240.683 66.2406 242.395 63.5846 242.395ZM63.5686 240.555C64.8806 240.555 65.9046 239.579 65.9046 238.203C65.9046 236.827 64.9126 235.803 63.5846 235.803C62.2886 235.803 61.2806 236.779 61.2806 238.203C61.2806 239.531 62.2886 240.555 63.5686 240.555ZM73.3122 242.395C71.1842 242.411 69.6962 240.923 69.6962 238.347V234.123H71.9522V238.347C71.9522 239.707 72.7202 240.571 74.0002 240.555C75.3122 240.523 76.0962 239.531 76.0962 238.107V234.123H78.4322V242.235H76.1762V240.235C75.8562 241.707 74.5122 242.379 73.3122 242.395ZM82.3132 242.235H79.9612V234.123H82.2172V236.187C82.6652 234.443 84.7772 233.643 86.4412 234.411L85.2572 236.251C84.1852 235.579 82.3132 236.475 82.3132 238.203V242.235ZM90.9032 242.395C88.9832 242.347 87.3672 241.259 87.3512 239.435H89.3992C89.4792 240.331 90.1352 240.731 90.9352 240.763C91.5912 240.779 92.1832 240.459 92.1992 239.899C92.2152 239.307 91.8152 239.035 90.8392 238.875C88.7752 238.619 87.3992 238.139 87.3672 236.475C87.3352 234.955 88.7272 233.963 90.6792 233.963C92.6952 233.963 94.2472 234.955 94.3112 236.891H92.2632C92.2152 236.139 91.6232 235.627 90.7592 235.611C90.0232 235.595 89.5432 235.995 89.5432 236.555C89.5592 237.099 89.9592 237.419 91.0152 237.611C93.3032 238.011 94.3592 238.363 94.3432 240.043C94.3432 241.627 92.8712 242.443 90.9032 242.395ZM100.265 242.395C97.9935 242.395 95.8975 240.763 95.8975 238.203C95.8975 235.403 97.9935 233.963 100.265 233.963C102.505 233.963 104.281 235.387 104.521 237.819C104.553 238.075 104.553 238.395 104.521 238.667H98.0255C98.1855 239.819 99.2095 240.555 100.265 240.555C101.113 240.571 101.913 240.203 102.313 239.515L103.993 240.363C103.257 241.627 101.865 242.395 100.265 242.395ZM98.1855 237.435L102.409 237.419C102.201 236.395 101.241 235.755 100.265 235.771C99.3215 235.771 98.3935 236.395 98.1855 237.435ZM109.621 242.395C107.701 242.347 106.085 241.259 106.069 239.435H108.117C108.197 240.331 108.853 240.731 109.653 240.763C110.309 240.779 110.901 240.459 110.917 239.899C110.933 239.307 110.533 239.035 109.557 238.875C107.493 238.619 106.117 238.139 106.085 236.475C106.053 234.955 107.445 233.963 109.397 233.963C111.413 233.963 112.965 234.955 113.029 236.891H110.981C110.933 236.139 110.341 235.627 109.477 235.611C108.741 235.595 108.261 235.995 108.261 236.555C108.277 237.099 108.677 237.419 109.733 237.611C112.021 238.011 113.077 238.363 113.061 240.043C113.061 241.627 111.589 242.443 109.621 242.395Z" fill="#36373A"/>
<path d="M17.7324 268.34H16.7244V259.1H17.8724L21.1624 266.604L24.5364 259.1H25.6704V268.34H24.6764V260.906L21.4844 268.34H20.8264L17.7324 260.906V268.34ZM30.9022 268.48C28.8022 268.48 27.1082 266.912 27.0942 264.826C27.0942 262.558 28.7602 261.102 30.9022 261.102C33.0862 261.102 34.7522 262.558 34.7522 264.826C34.7382 266.912 33.1002 268.48 30.9022 268.48ZM30.8882 267.626C32.3862 267.626 33.7582 266.52 33.7582 264.826C33.7582 263.076 32.4702 261.942 30.9022 261.942C29.4042 261.942 28.0882 263.006 28.0882 264.826C28.0882 266.436 29.4182 267.626 30.8882 267.626ZM37.2149 268.34H36.1789V261.242H37.1729V263.314C37.5789 261.956 39.1329 261.088 40.5189 261.34L40.0569 262.18C38.7969 261.998 37.2149 263.062 37.2149 264.84V268.34ZM44.3248 268.48C42.3648 268.48 40.6288 266.94 40.6288 264.812C40.6288 262.46 42.3648 261.102 44.3248 261.102C46.2148 261.102 47.8388 262.334 48.0068 264.63V265.064L41.5808 265.078C41.6928 266.59 43.0508 267.626 44.3248 267.64C45.2768 267.64 46.2708 267.178 46.7748 266.268L47.5448 266.674C46.9148 267.822 45.6828 268.48 44.3248 268.48ZM41.6508 264.434H47.0548C46.9008 262.866 45.6268 261.928 44.3248 261.928C43.0368 261.928 41.7768 262.866 41.6508 264.434ZM56.8461 268.48C54.7881 268.494 53.2201 266.884 53.2201 264.826C53.2201 262.502 54.7741 261.088 56.8041 261.102C58.1901 261.102 59.4361 261.886 59.9261 263.048V259.1H60.9341V268.34H59.9401V266.492C59.4641 267.654 58.2041 268.48 56.8461 268.48ZM57.0421 267.626C58.5261 267.612 59.8981 266.464 59.8981 264.826C59.8981 262.992 58.5121 261.956 57.0421 261.942C55.5581 261.942 54.2141 262.908 54.2141 264.826C54.2141 266.478 55.5721 267.626 57.0421 267.626ZM66.0555 268.48C64.0955 268.48 62.3595 266.94 62.3595 264.812C62.3595 262.46 64.0955 261.102 66.0555 261.102C67.9455 261.102 69.5695 262.334 69.7375 264.63V265.064L63.3115 265.078C63.4235 266.59 64.7815 267.626 66.0555 267.64C67.0075 267.64 68.0015 267.178 68.5055 266.268L69.2755 266.674C68.6455 267.822 67.4135 268.48 66.0555 268.48ZM63.3815 264.434H68.7855C68.6315 262.866 67.3575 261.928 66.0555 261.928C64.7675 261.928 63.5075 262.866 63.3815 264.434ZM75.0863 267.262L75.3103 268.116C73.7283 268.83 71.4043 268.144 71.4043 265.778V262.082H70.1863V261.2C71.5863 261.2 71.4043 260.36 71.4043 259.1H72.3983L72.4123 261.2H74.7643V262.082H72.3983V265.694C72.3983 267.248 73.8823 267.822 75.0863 267.262ZM79.5611 268.48C77.5031 268.494 75.9351 266.884 75.9351 264.826C75.9351 262.502 77.4891 261.088 79.5191 261.102C80.9051 261.102 82.1511 261.886 82.6411 263.048V261.242H83.6491V268.34H82.6551V266.492C82.1791 267.654 80.9191 268.48 79.5611 268.48ZM79.7571 267.626C81.2411 267.612 82.6131 266.464 82.6131 264.826C82.6131 263.02 81.2271 261.956 79.7571 261.942C78.2731 261.942 76.9291 262.908 76.9291 264.826C76.9291 266.478 78.2871 267.626 79.7571 267.626ZM85.7185 260.122C85.3825 260.122 85.0745 259.898 85.0745 259.59C85.0745 259.268 85.3825 259.058 85.7185 259.058C86.0545 259.058 86.3485 259.268 86.3485 259.59C86.3485 259.898 86.0545 260.122 85.7185 260.122ZM86.2085 268.34H85.2145V261.242H86.2085V268.34ZM88.7824 268.34H87.7744V259.1H88.7824V268.34ZM93.9105 268.48C91.9505 268.48 90.2145 266.94 90.2145 264.812C90.2145 262.46 91.9505 261.102 93.9105 261.102C95.8005 261.102 97.4245 262.334 97.5925 264.63V265.064L91.1665 265.078C91.2785 266.59 92.6365 267.626 93.9105 267.64C94.8625 267.64 95.8565 267.178 96.3605 266.268L97.1305 266.674C96.5005 267.822 95.2685 268.48 93.9105 268.48ZM91.2365 264.434H96.6405C96.4865 262.866 95.2125 261.928 93.9105 261.928C92.6225 261.928 91.3625 262.866 91.2365 264.434ZM102.652 268.48C100.594 268.494 99.0258 266.884 99.0258 264.826C99.0258 262.502 100.58 261.088 102.61 261.102C103.996 261.102 105.242 261.886 105.732 263.048V259.1H106.74V268.34H105.746V266.492C105.27 267.654 104.01 268.48 102.652 268.48ZM102.848 267.626C104.332 267.612 105.704 266.464 105.704 264.826C105.704 262.992 104.318 261.956 102.848 261.942C101.364 261.942 100.02 262.908 100.02 264.826C100.02 266.478 101.378 267.626 102.848 267.626ZM112.589 260.122C112.253 260.122 111.945 259.898 111.945 259.59C111.945 259.268 112.253 259.058 112.589 259.058C112.925 259.058 113.219 259.268 113.219 259.59C113.219 259.898 112.925 260.122 112.589 260.122ZM113.079 268.34H112.085V261.242H113.079V268.34ZM115.681 268.34H114.645V261.242H115.653V263.048C116.143 261.886 117.389 261.102 118.775 261.102C120.805 261.088 122.359 262.502 122.359 264.826V268.34H121.351L121.365 264.826C121.379 262.908 120.021 261.942 118.537 261.942C117.067 261.956 115.681 262.992 115.681 264.826V268.34ZM126.038 268.34H125.044V263.412H123.784V262.572H125.044V261.578C125.044 259.212 127.396 258.526 128.978 259.24L128.754 260.094C127.55 259.534 126.038 260.038 126.038 261.592V262.572H128.404V263.412H126.052L126.038 268.34ZM133.232 268.48C131.132 268.48 129.438 266.912 129.424 264.826C129.424 262.558 131.09 261.102 133.232 261.102C135.416 261.102 137.082 262.558 137.082 264.826C137.068 266.912 135.43 268.48 133.232 268.48ZM133.218 267.626C134.716 267.626 136.088 266.52 136.088 264.826C136.088 263.076 134.8 261.942 133.232 261.942C131.734 261.942 130.418 263.006 130.418 264.826C130.418 266.436 131.748 267.626 133.218 267.626ZM139.545 268.34H138.509V261.242H139.503V263.314C139.909 261.956 141.463 261.088 142.849 261.34L142.387 262.18C141.127 261.998 139.545 263.062 139.545 264.84V268.34ZM145.307 268.34H144.285V261.242H145.279V263.048C145.531 261.998 146.609 261.116 147.743 261.102C149.073 261.088 150.095 261.816 150.445 263.118C150.795 261.9 151.859 261.088 153.091 261.102C154.897 261.116 156.059 262.334 156.059 264.462V268.34H155.051V264.476C155.051 262.908 154.225 261.942 152.839 261.942C151.551 261.956 150.697 262.964 150.697 264.49V268.34H149.717V264.476C149.717 262.894 148.863 261.914 147.505 261.942C146.217 261.97 145.335 263.174 145.335 264.448L145.307 268.34ZM161.111 268.48C159.053 268.494 157.485 266.884 157.485 264.826C157.485 262.502 159.039 261.088 161.069 261.102C162.455 261.102 163.701 261.886 164.191 263.048V261.242H165.199V268.34H164.205V266.492C163.729 267.654 162.469 268.48 161.111 268.48ZM161.307 267.626C162.791 267.612 164.163 266.464 164.163 264.826C164.163 263.02 162.777 261.956 161.307 261.942C159.823 261.942 158.479 262.908 158.479 264.826C158.479 266.478 159.837 267.626 161.307 267.626ZM171.524 267.262L171.748 268.116C170.166 268.83 167.842 268.144 167.842 265.778V262.082H166.624V261.2C168.024 261.2 167.842 260.36 167.842 259.1H168.836L168.85 261.2H171.202V262.082H168.836V265.694C168.836 267.248 170.32 267.822 171.524 267.262ZM173.823 260.122C173.487 260.122 173.179 259.898 173.179 259.59C173.179 259.268 173.487 259.058 173.823 259.058C174.159 259.058 174.453 259.268 174.453 259.59C174.453 259.898 174.159 260.122 173.823 260.122ZM174.313 268.34H173.319V261.242H174.313V268.34ZM179.687 268.48C177.587 268.48 175.893 266.912 175.879 264.826C175.879 262.558 177.545 261.102 179.687 261.102C181.871 261.102 183.537 262.558 183.537 264.826C183.523 266.912 181.885 268.48 179.687 268.48ZM179.673 267.626C181.171 267.626 182.543 266.52 182.543 264.826C182.543 263.076 181.255 261.942 179.687 261.942C178.189 261.942 176.873 263.006 176.873 264.826C176.873 266.436 178.203 267.626 179.673 267.626ZM186 268.34H184.964V261.242H185.972V263.048C186.462 261.886 187.708 261.102 189.094 261.102C191.124 261.088 192.678 262.502 192.678 264.826V268.34H191.67L191.684 264.826C191.698 262.908 190.34 261.942 188.856 261.942C187.386 261.956 186 262.992 186 264.826V268.34ZM194.747 269.544L194.103 269.096C194.551 268.466 194.719 267.962 194.635 267.024H195.601C195.601 268.158 195.433 268.718 194.747 269.544ZM201.852 268.34H200.816V261.242H201.81V263.314C202.216 261.956 203.77 261.088 205.156 261.34L204.694 262.18C203.434 261.998 201.852 263.062 201.852 264.84V268.34ZM208.962 268.48C207.002 268.48 205.266 266.94 205.266 264.812C205.266 262.46 207.002 261.102 208.962 261.102C210.852 261.102 212.476 262.334 212.644 264.63V265.064L206.218 265.078C206.33 266.59 207.688 267.626 208.962 267.64C209.914 267.64 210.908 267.178 211.412 266.268L212.182 266.674C211.552 267.822 210.32 268.48 208.962 268.48ZM206.288 264.434H211.692C211.538 262.866 210.264 261.928 208.962 261.928C207.674 261.928 206.414 262.866 206.288 264.434ZM217.703 268.48C215.645 268.494 214.077 266.884 214.077 264.826C214.077 262.502 215.631 261.088 217.661 261.102C219.047 261.102 220.293 261.886 220.783 263.048V261.242H221.791V268.34H220.797V266.492C220.321 267.654 219.061 268.48 217.703 268.48ZM217.899 267.626C219.383 267.612 220.755 266.464 220.755 264.826C220.755 263.02 219.369 261.956 217.899 261.942C216.415 261.942 215.071 262.908 215.071 264.826C215.071 266.478 216.429 267.626 217.899 267.626ZM226.842 268.48C224.784 268.494 223.216 266.884 223.216 264.826C223.216 262.502 224.77 261.088 226.8 261.102C228.186 261.102 229.432 261.886 229.922 263.048V259.1H230.93V268.34H229.936V266.492C229.46 267.654 228.2 268.48 226.842 268.48ZM227.038 267.626C228.522 267.612 229.894 266.464 229.894 264.826C229.894 262.992 228.508 261.956 227.038 261.942C225.554 261.942 224.21 262.908 224.21 264.826C224.21 266.478 225.568 267.626 227.038 267.626ZM236.78 260.122C236.444 260.122 236.136 259.898 236.136 259.59C236.136 259.268 236.444 259.058 236.78 259.058C237.116 259.058 237.41 259.268 237.41 259.59C237.41 259.898 237.116 260.122 236.78 260.122ZM237.27 268.34H236.276V261.242H237.27V268.34ZM243.735 267.262L243.959 268.116C242.377 268.83 240.053 268.144 240.053 265.778V262.082H238.835V261.2C240.235 261.2 240.053 260.36 240.053 259.1H241.047L241.061 261.2H243.413V262.082H241.047V265.694C241.047 267.248 242.531 267.822 243.735 267.262ZM252.797 268.48C250.739 268.494 249.171 266.884 249.171 264.826C249.171 262.502 250.725 261.088 252.755 261.102C254.141 261.102 255.387 261.886 255.877 263.048V261.242H256.885V268.34H255.891V266.492C255.415 267.654 254.155 268.48 252.797 268.48ZM252.993 267.626C254.477 267.612 255.849 266.464 255.849 264.826C255.849 263.02 254.463 261.956 252.993 261.942C251.509 261.942 250.165 262.908 250.165 264.826C250.165 266.478 251.523 267.626 252.993 267.626ZM259.346 268.34H258.31V261.242H259.318V263.048C259.808 261.886 261.054 261.102 262.44 261.102C264.47 261.088 266.024 262.502 266.024 264.826V268.34H265.016L265.03 264.826C265.044 262.908 263.686 261.942 262.202 261.942C260.732 261.956 259.346 262.992 259.346 264.826V268.34ZM271.076 268.48C269.018 268.494 267.45 266.884 267.45 264.826C267.45 262.502 269.004 261.088 271.034 261.102C272.42 261.102 273.666 261.886 274.156 263.048V259.1H275.164V268.34H274.17V266.492C273.694 267.654 272.434 268.48 271.076 268.48ZM271.272 267.626C272.756 267.612 274.128 266.464 274.128 264.826C274.128 262.992 272.742 261.956 271.272 261.942C269.788 261.942 268.444 262.908 268.444 264.826C268.444 266.478 269.802 267.626 271.272 267.626ZM16.7244 287.18L17.3124 286.62C17.7044 287.152 18.7964 287.292 19.2584 286.354L19.6784 285.444L16.9204 279.242H17.9144L20.1824 284.618L22.7164 279.242H23.7104L20.0424 286.606C19.2444 288.216 17.5924 288.09 16.7244 287.18ZM27.8261 286.48C25.7261 286.48 24.0321 284.912 24.0181 282.826C24.0181 280.558 25.6841 279.102 27.8261 279.102C30.0101 279.102 31.6761 280.558 31.6761 282.826C31.6621 284.912 30.0241 286.48 27.8261 286.48ZM27.8121 285.626C29.3101 285.626 30.6821 284.52 30.6821 282.826C30.6821 281.076 29.3941 279.942 27.8261 279.942C26.3281 279.942 25.0121 281.006 25.0121 282.826C25.0121 284.436 26.3421 285.626 27.8121 285.626ZM36.2107 286.48C34.3067 286.494 33.1027 285.248 33.1027 283.12V279.242H34.1107V283.106C34.1107 284.688 34.9647 285.64 36.4347 285.626C37.9747 285.626 38.8427 284.366 38.8427 282.686V279.242H39.8787V286.34H38.8847V284.408C38.5347 285.78 37.3587 286.48 36.2107 286.48ZM48.3124 286.34H47.3884L45.0924 279.242H46.1004L47.9624 285.038L49.9784 279.242H50.9024L52.9324 285.038L54.9484 279.242H55.9424L53.5204 286.34H52.5824L50.4404 280.544L48.3124 286.34ZM58.0203 278.122C57.6843 278.122 57.3763 277.898 57.3763 277.59C57.3763 277.268 57.6843 277.058 58.0203 277.058C58.3563 277.058 58.6503 277.268 58.6503 277.59C58.6503 277.898 58.3563 278.122 58.0203 278.122ZM58.5103 286.34H57.5163V279.242H58.5103V286.34ZM61.0843 286.34H60.0763V277.1H61.0843V286.34ZM63.5244 286.34H62.5164V277.1H63.5244V286.34ZM71.8446 286.48C69.9406 286.494 68.7366 285.248 68.7366 283.12V279.242H69.7446V283.106C69.7446 284.688 70.5986 285.64 72.0686 285.626C73.6086 285.626 74.4766 284.366 74.4766 282.686V279.242H75.5126V286.34H74.5186V284.408C74.1686 285.78 72.9926 286.48 71.8446 286.48ZM77.9823 286.34H76.9463V279.242H77.9543V281.048C78.4443 279.886 79.6903 279.102 81.0763 279.102C83.1063 279.088 84.6603 280.502 84.6603 282.826V286.34H83.6523L83.6663 282.826C83.6803 280.908 82.3223 279.942 80.8383 279.942C79.3683 279.956 77.9823 280.992 77.9823 282.826V286.34ZM89.7116 286.48C87.6536 286.494 86.0856 284.884 86.0856 282.826C86.0856 280.502 87.6396 279.088 89.6696 279.102C91.0556 279.102 92.3016 279.886 92.7916 281.048V277.1H93.7996V286.34H92.8056V284.492C92.3296 285.654 91.0696 286.48 89.7116 286.48ZM89.9076 285.626C91.3916 285.612 92.7636 284.464 92.7636 282.826C92.7636 280.992 91.3776 279.956 89.9076 279.942C88.4236 279.942 87.0796 280.908 87.0796 282.826C87.0796 284.478 88.4376 285.626 89.9076 285.626ZM98.921 286.48C96.961 286.48 95.225 284.94 95.225 282.812C95.225 280.46 96.961 279.102 98.921 279.102C100.811 279.102 102.435 280.334 102.603 282.63V283.064L96.177 283.078C96.289 284.59 97.647 285.626 98.921 285.64C99.873 285.64 100.867 285.178 101.371 284.268L102.141 284.674C101.511 285.822 100.279 286.48 98.921 286.48ZM96.247 282.434H101.651C101.497 280.866 100.223 279.928 98.921 279.928C97.633 279.928 96.373 280.866 96.247 282.434ZM105.072 286.34H104.036V279.242H105.03V281.314C105.436 279.956 106.99 279.088 108.376 279.34L107.914 280.18C106.654 279.998 105.072 281.062 105.072 282.84V286.34ZM112.314 286.48C110.62 286.438 109.444 285.542 109.416 284.044H110.354C110.438 285.276 111.306 285.654 112.314 285.71C113.168 285.752 114.036 285.276 114.064 284.506C114.092 283.666 113.532 283.372 112.216 283.162C110.536 282.896 109.472 282.49 109.444 281.16C109.416 279.914 110.494 279.102 112.076 279.102C113.798 279.102 114.904 279.914 115.03 281.454H114.106C114.008 280.502 113.28 279.886 112.104 279.872C111.11 279.858 110.41 280.432 110.41 281.188C110.424 281.958 110.984 282.28 112.3 282.504C114.204 282.84 115.044 283.232 115.03 284.548C115.002 285.794 113.882 286.522 112.314 286.48ZM120.967 285.262L121.191 286.116C119.609 286.83 117.285 286.144 117.285 283.778V280.082H116.067V279.2C117.467 279.2 117.285 278.36 117.285 277.1H118.279L118.293 279.2H120.645V280.082H118.279V283.694C118.279 285.248 119.763 285.822 120.967 285.262ZM125.442 286.48C123.384 286.494 121.816 284.884 121.816 282.826C121.816 280.502 123.37 279.088 125.4 279.102C126.786 279.102 128.032 279.886 128.522 281.048V279.242H129.53V286.34H128.536V284.492C128.06 285.654 126.8 286.48 125.442 286.48ZM125.638 285.626C127.122 285.612 128.494 284.464 128.494 282.826C128.494 281.02 127.108 279.956 125.638 279.942C124.154 279.942 122.81 280.908 122.81 282.826C122.81 284.478 124.168 285.626 125.638 285.626ZM131.991 286.34H130.955V279.242H131.963V281.048C132.453 279.886 133.699 279.102 135.085 279.102C137.115 279.088 138.669 280.502 138.669 282.826V286.34H137.661L137.675 282.826C137.689 280.908 136.331 279.942 134.847 279.942C133.377 279.956 131.991 280.992 131.991 282.826V286.34ZM143.72 286.48C141.662 286.494 140.094 284.884 140.094 282.826C140.094 280.502 141.648 279.088 143.678 279.102C145.064 279.102 146.31 279.886 146.8 281.048V277.1H147.808V286.34H146.814V284.492C146.338 285.654 145.078 286.48 143.72 286.48ZM143.916 285.626C145.4 285.612 146.772 284.464 146.772 282.826C146.772 280.992 145.386 279.956 143.916 279.942C142.432 279.942 141.088 280.908 141.088 282.826C141.088 284.478 142.446 285.626 143.916 285.626Z" fill="#68696E"/>
<rect x="20.377" y="18" width="54.7422" height="23.9823" rx="10.4271" fill="#FFE500"/>
<path d="M36.8044 33.3253C35.4378 33.2951 34.2019 32.4209 34.1114 30.9539H35.8197C35.9 31.5869 36.4025 31.8783 36.8345 31.8884C37.2968 31.8984 37.7188 31.6974 37.7288 31.2553C37.7288 30.783 37.2365 30.6725 36.6436 30.6022C35.1866 30.4514 34.021 29.8485 34.021 28.482C34.031 27.2159 35.267 26.4924 36.5934 26.4924C37.96 26.4924 39.2662 27.3164 39.3265 28.7834H37.6083C37.5279 28.1504 37.1259 27.9293 36.5934 27.9293C36.1513 27.9293 35.8197 28.1906 35.8197 28.5222C35.8096 28.8638 36.1211 29.0648 36.8446 29.1653C38.5327 29.3863 39.5677 29.9993 39.5175 31.4362C39.4672 32.7726 38.1207 33.3554 36.8044 33.3253ZM43.657 33.3253C41.7679 33.3253 40.0798 31.9989 40.0999 29.9189C40.13 27.7585 41.8081 26.4924 43.657 26.4924C45.5561 26.4924 47.1538 27.8087 47.1337 29.9189C47.1136 31.9487 45.5963 33.3253 43.657 33.3253ZM43.6469 31.7075C44.6116 31.7075 45.2446 30.984 45.2547 29.9189C45.2446 28.8236 44.6116 28.1102 43.6469 28.1102C42.6823 28.1102 41.989 28.8337 41.9789 29.9189C41.989 30.974 42.6823 31.7075 43.6469 31.7075ZM51.2765 33.3253C49.3874 33.3253 47.6993 31.9989 47.7194 29.9189C47.7495 27.7585 49.4276 26.4924 51.2765 26.4924C53.1756 26.4924 54.7733 27.8087 54.7532 29.9189C54.7331 31.9487 53.2158 33.3253 51.2765 33.3253ZM51.2664 31.7075C52.2311 31.7075 52.8641 30.984 52.8742 29.9189C52.8641 28.8236 52.2311 28.1102 51.2664 28.1102C50.3018 28.1102 49.6084 28.8337 49.5984 29.9189C49.6084 30.974 50.3018 31.7075 51.2664 31.7075ZM57.2179 33.2248H55.3388V26.5929H56.9365L59.1974 30.0495V26.5929H61.0765V33.2248H59.5089L57.2179 29.8988V33.2248Z" fill="#816039"/>
<defs>
<clipPath id="clip0_1998_8202">
<rect x="8.37695" y="8" width="295" height="189" rx="10" fill="white"/>
</clipPath>
</defs>
</svg>
