<svg xmlns="http://www.w3.org/2000/svg" width="127" height="27" viewBox="0 0 127 27" fill="none">
  <path d="M5.12526 26.5419C4.35988 26.5413 3.60814 26.3407 2.94548 25.9602C2.28282 25.5797 1.73256 25.0327 1.34995 24.3742C0.967328 23.7156 0.765812 22.9687 0.765625 22.2083C0.765438 21.4479 0.966587 20.7008 1.34888 20.0421L11.0753 3.30633C11.6926 2.24427 12.5949 1.37366 13.6815 0.791775C14.7681 0.209891 15.9962 -0.0603362 17.2285 0.0112906C18.4608 0.0829174 19.6488 0.493577 20.6597 1.19738C21.6706 1.90118 22.4646 2.87039 22.953 3.9967L24.0162 6.44715C25.8756 6.26535 27.7458 6.66409 29.3664 7.58784C30.987 8.51159 32.2774 9.91439 33.0578 11.6009L35.9861 17.9228C36.2838 18.5637 36.4503 19.2569 36.476 19.9622C36.5018 20.6675 36.3862 21.3708 36.1361 22.0314C35.8859 22.6919 35.5062 23.2966 35.0189 23.8101C34.5316 24.3237 33.9465 24.7359 33.2975 25.023C32.6485 25.31 31.9486 25.4661 31.2383 25.4821C30.5281 25.4982 29.8218 25.3739 29.1603 25.1165C28.4988 24.8592 27.8954 24.4738 27.3851 23.9828C26.8748 23.4918 26.4678 22.905 26.1876 22.2564L21.7062 11.9254C21.6679 11.9612 21.6296 11.997 21.5936 12.0373L8.20222 25.2787C7.38565 26.0883 6.27891 26.5427 5.12526 26.5419ZM16.8294 4.27532C16.4173 4.27256 16.012 4.37944 15.6555 4.58486C15.299 4.79027 15.0044 5.08673 14.8022 5.44347L5.0757 22.1804C5.06842 22.1925 5.06611 22.2069 5.06925 22.2206C5.0724 22.2344 5.08076 22.2464 5.0926 22.2542C5.10346 22.2621 5.11681 22.2659 5.13024 22.2649C5.14368 22.2639 5.15629 22.2581 5.1658 22.2486L18.5526 9.00389C18.9792 8.583 19.447 8.20554 19.9492 7.87714L19.0031 5.68852C18.8346 5.28683 18.5544 4.94107 18.1954 4.69163C17.8365 4.44219 17.4135 4.29935 16.9759 4.27979C16.9274 4.27643 16.879 4.27532 16.8294 4.27532ZM25.8982 10.7875L30.1363 20.5657C30.1869 20.7005 30.2648 20.8235 30.3652 20.9272C30.4655 21.0309 30.5861 21.1131 30.7197 21.1686C30.8532 21.2242 30.9968 21.252 31.1416 21.2504C31.2863 21.2487 31.4292 21.2175 31.5614 21.1589C31.6936 21.1002 31.8123 21.0153 31.9102 20.9093C32.008 20.8033 32.083 20.6785 32.1305 20.5426C32.1779 20.4067 32.1969 20.2626 32.1861 20.1192C32.1753 19.9758 32.1351 19.836 32.0679 19.7086L29.1396 13.3867C28.842 12.7315 28.3937 12.1548 27.8306 11.7033C27.2676 11.2519 26.6056 10.9381 25.8982 10.7875Z" fill="#8861E0"/>
  <path d="M5.12526 26.5419C4.35988 26.5413 3.60814 26.3407 2.94548 25.9602C2.28282 25.5797 1.73256 25.0327 1.34995 24.3742C0.967328 23.7156 0.765812 22.9687 0.765625 22.2083C0.765438 21.4479 0.966587 20.7008 1.34888 20.0421L11.0753 3.30633C11.6926 2.24427 12.5949 1.37366 13.6815 0.791775C14.7681 0.209891 15.9962 -0.0603362 17.2285 0.0112906C18.4608 0.0829174 19.6488 0.493577 20.6597 1.19738C21.6706 1.90118 22.4646 2.87039 22.953 3.9967L24.0162 6.44715C25.8756 6.26535 27.7458 6.66409 29.3664 7.58784C30.987 8.51159 32.2774 9.91439 33.0578 11.6009L35.9861 17.9228C36.2838 18.5637 36.4503 19.2569 36.476 19.9622C36.5018 20.6675 36.3862 21.3708 36.1361 22.0314C35.8859 22.6919 35.5062 23.2966 35.0189 23.8101C34.5316 24.3237 33.9465 24.7359 33.2975 25.023C32.6485 25.31 31.9486 25.4661 31.2383 25.4821C30.5281 25.4982 29.8218 25.3739 29.1603 25.1165C28.4988 24.8592 27.8954 24.4738 27.3851 23.9828C26.8748 23.4918 26.4678 22.905 26.1876 22.2564L21.7062 11.9254C21.6679 11.9612 21.6296 11.997 21.5936 12.0373L8.20222 25.2787C7.38565 26.0883 6.27891 26.5427 5.12526 26.5419ZM16.8294 4.27532C16.4173 4.27256 16.012 4.37944 15.6555 4.58486C15.299 4.79027 15.0044 5.08673 14.8022 5.44347L5.0757 22.1804C5.06842 22.1925 5.06611 22.2069 5.06925 22.2206C5.0724 22.2344 5.08076 22.2464 5.0926 22.2542C5.10346 22.2621 5.11681 22.2659 5.13024 22.2649C5.14368 22.2639 5.15629 22.2581 5.1658 22.2486L18.5526 9.00389C18.9792 8.583 19.447 8.20554 19.9492 7.87714L19.0031 5.68852C18.8346 5.28683 18.5544 4.94107 18.1954 4.69163C17.8365 4.44219 17.4135 4.29935 16.9759 4.27979C16.9274 4.27643 16.879 4.27532 16.8294 4.27532ZM25.8982 10.7875L30.1363 20.5657C30.1869 20.7005 30.2648 20.8235 30.3652 20.9272C30.4655 21.0309 30.5861 21.1131 30.7197 21.1686C30.8532 21.2242 30.9968 21.252 31.1416 21.2504C31.2863 21.2487 31.4292 21.2175 31.5614 21.1589C31.6936 21.1002 31.8123 21.0153 31.9102 20.9093C32.008 20.8033 32.083 20.6785 32.1305 20.5426C32.1779 20.4067 32.1969 20.2626 32.1861 20.1192C32.1753 19.9758 32.1351 19.836 32.0679 19.7086L29.1396 13.3867C28.842 12.7315 28.3937 12.1548 27.8306 11.7033C27.2676 11.2519 26.6056 10.9381 25.8982 10.7875Z" fill="url(#paint0_linear_359_9465)"/>
  <g style="mix-blend-mode:color-burn" opacity="0.3">
    <mask id="mask0_359_9465" style="mask-type:luminance" maskUnits="userSpaceOnUse" x="21" y="10" width="7" height="6">
      <path d="M21.7129 11.9254C22.2044 11.3261 22.872 10.8941 23.6225 10.6899C24.373 10.4857 25.1689 10.5194 25.8992 10.7864C26.34 11.8001 26.7815 12.8139 27.2237 13.8276L23.2942 15.6022L21.7129 11.9254Z" fill="white"/>
    </mask>
    <g mask="url(#mask0_359_9465)">
      <path d="M23.332 15.6021L27.2177 14.0435V15.6021H23.332Z" fill="white"/>
      <path d="M23.2695 15.6023L27.2171 14.019V14.0437L23.3315 15.6023H23.2695Z" fill="white"/>
      <path d="M23.207 15.6022L27.2165 13.9932V14.0189L23.269 15.6022H23.207Z" fill="#FEFEFE"/>
      <path d="M23.1484 15.6024L27.2199 13.9688V13.9934L23.2104 15.6024H23.1484Z" fill="#FDFDFD"/>
      <path d="M23.0859 15.6021L27.2193 13.9438V13.9685L23.1479 15.6021H23.0859Z" fill="#FCFCFC"/>
      <path d="M23.0215 15.6023L27.2168 13.9194V13.944L23.0834 15.6023H23.0215Z" fill="#FBFBFB"/>
      <path d="M22.9629 15.6022L27.2202 13.8936V13.9193L23.0248 15.6022H22.9629Z" fill="#FAFAFA"/>
      <path d="M22.8965 15.6024L27.2169 13.8691V13.8938L22.9596 15.6024H22.8965Z" fill="#F9F9F9"/>
      <path d="M22.8379 15.6021L27.2202 13.8442V13.8689L22.8998 15.6021H22.8379Z" fill="#F8F8F8"/>
      <path d="M22.7754 15.6023L27.2196 13.8198V13.8444L22.8373 15.6023H22.7754Z" fill="#F7F7F7"/>
      <path d="M22.7129 15.6021L27.2191 13.7939V13.8197L22.7748 15.6021H22.7129Z" fill="#F6F6F6"/>
      <path d="M22.6504 15.6023L27.2185 13.7695V13.7941L22.7123 15.6023H22.6504Z" fill="#F5F5F5"/>
      <path d="M22.5859 15.602L27.216 13.7446V13.7692L22.6479 15.602H22.5859Z" fill="#F4F4F4"/>
      <path d="M22.5234 15.6022L27.2155 13.7202V13.7448L22.5854 15.6022H22.5234Z" fill="#F3F3F3"/>
      <path d="M22.4648 15.6021L27.2188 13.6943V13.7201L22.5268 15.6021H22.4648Z" fill="#F2F2F2"/>
      <path d="M22.3984 15.6023L27.2155 13.6699V13.6945L22.4615 15.6023H22.3984Z" fill="#F1F1F1"/>
      <path d="M22.3398 15.602L27.2188 13.645V13.6696L22.4018 15.602H22.3398Z" fill="#F0F0F0"/>
      <path d="M22.2773 15.6022L27.2183 13.6206V13.6452L22.3393 15.6022H22.2773Z" fill="#EFEFEF"/>
      <path d="M22.2129 15.6021L27.2158 13.5947V13.6205L22.2748 15.6021H22.2129Z" fill="#EEEEEE"/>
      <path d="M22.1543 15.6023L27.2191 13.5703V13.5949L22.2162 15.6023H22.1543Z" fill="#EDEDED"/>
      <path d="M22.0918 15.602L27.2186 13.5454V13.57L22.1537 15.602H22.0918Z" fill="#ECECEC"/>
      <path d="M22.0293 15.6022L27.218 13.521V13.5456L22.0912 15.6022H22.0293Z" fill="#EBEBEB"/>
      <path d="M21.9668 15.6021L27.2186 13.4951V13.5209L22.0299 15.6021H21.9668Z" fill="#EAEAEA"/>
      <path d="M21.9043 15.6023L27.218 13.4707V13.4953L21.9662 15.6023H21.9043Z" fill="#E9E9E9"/>
      <path d="M21.8438 15.602L27.2194 13.4458V13.4704L21.9057 15.602H21.8438Z" fill="#E8E8E8"/>
      <path d="M21.7812 15.6023L27.2189 13.4204V13.4461L21.8432 15.6023H21.7812Z" fill="#E7E7E7"/>
      <path d="M21.7188 15.602L27.2183 13.3955V13.4201L21.7807 15.602H21.7188Z" fill="#E6E6E6"/>
      <path d="M21.7129 15.5799L27.2181 13.3711V13.3957L21.7185 15.6022H21.7129V15.5799Z" fill="#E5E5E5"/>
      <path d="M21.7129 15.5538L27.2181 13.3462V13.3708L21.7129 15.5796V15.5538Z" fill="#E4E4E4"/>
      <path d="M21.7129 15.5296L27.2181 13.3208V13.3465L21.7129 15.5542V15.5296Z" fill="#E3E3E3"/>
      <path d="M21.7129 15.5047L27.2181 13.2959V13.3205L21.7129 15.5293V15.5047Z" fill="#E2E2E2"/>
      <path d="M21.7129 15.4802L27.2181 13.2715V13.2961L21.7129 15.5049V15.4802Z" fill="#E1E1E1"/>
      <path d="M21.7129 15.4542L27.2181 13.2466V13.2712L21.7129 15.48V15.4542Z" fill="#E0E0E0"/>
      <path d="M21.7129 15.4299L27.2181 13.2212V13.2469L21.7129 15.4546V15.4299Z" fill="#DFDFDF"/>
      <path d="M21.7129 15.405L27.2181 13.1963V13.2209L21.7129 15.4297V15.405Z" fill="#DEDEDE"/>
      <path d="M21.7129 15.3806L27.2181 13.1719V13.1965L21.7129 15.4052V15.3806Z" fill="#DDDDDD"/>
      <path d="M21.7129 15.3551L27.2181 13.1475V13.1721L21.7129 15.3808V15.3551Z" fill="#DCDCDC"/>
      <path d="M21.7129 15.3303L27.2181 13.1216V13.1473L21.7129 15.355V15.3303Z" fill="#DBDBDB"/>
      <path d="M21.7129 15.3054L27.2181 13.0967V13.1213L21.7129 15.3301V15.3054Z" fill="#DADADA"/>
      <path d="M21.7129 15.281L27.2181 13.0723V13.0969L21.7129 15.3056V15.281Z" fill="#D9D9D9"/>
      <path d="M21.7129 15.255L27.2181 13.0474V13.072L21.7129 15.2807V15.255Z" fill="#D8D8D8"/>
      <path d="M21.7129 15.2307L27.2181 13.022V13.0477L21.7129 15.2553V15.2307Z" fill="#D7D7D7"/>
      <path d="M21.7129 15.2058L27.2181 12.9971V13.0217L21.7129 15.2304V15.2058Z" fill="#D6D6D6"/>
      <path d="M21.7129 15.1814L27.2181 12.9727V12.9973L21.7129 15.206V15.1814Z" fill="#D5D5D5"/>
      <path d="M21.7129 15.1559L27.2181 12.9482V12.9729L21.7129 15.1816V15.1559Z" fill="#D4D4D4"/>
      <path d="M21.7129 15.1311L27.2181 12.9224V12.9481L21.7129 15.1557V15.1311Z" fill="#D3D3D3"/>
      <path d="M21.7129 15.1062L27.2181 12.8975V12.9221L21.7129 15.1308V15.1062Z" fill="#D2D2D2"/>
      <path d="M21.7129 15.0807L27.2181 12.873V12.8977L21.7129 15.1064V15.0807Z" fill="#D1D1D1"/>
      <path d="M21.7129 15.0563L27.2181 12.8486V12.8732L21.7129 15.0809V15.0563Z" fill="#D0D0D0"/>
      <path d="M21.7129 15.0315L27.2181 12.8228V12.8485L21.7129 15.0561V15.0315Z" fill="#CFCFCF"/>
      <path d="M21.7129 15.0071L27.2181 12.7983V12.823L21.7129 15.0317V15.0071Z" fill="#CECECE"/>
      <path d="M21.7129 14.9822L27.2181 12.7734V12.7981L21.7129 15.0068V14.9822Z" fill="#CDCDCD"/>
      <path d="M21.7129 14.9567L27.2181 12.749V12.7736L21.7129 14.9824V14.9567Z" fill="#CCCCCC"/>
      <path d="M21.7129 14.9319L27.2181 12.7231V12.7489L21.7129 14.9565V14.9319Z" fill="#CBCBCB"/>
      <path d="M21.7129 14.9075L27.2181 12.6987V12.7233L21.7129 14.9321V14.9075Z" fill="#CACACA"/>
      <path d="M21.7129 14.8815L27.2181 12.6738V12.6984L21.7129 14.9072V14.8815Z" fill="#C9C9C9"/>
      <path d="M21.7129 14.8571L27.2181 12.6494V12.674L21.7129 14.8817V14.8571Z" fill="#C8C8C8"/>
      <path d="M21.7129 14.8323L27.2181 12.6235V12.6493L21.7129 14.8569V14.8323Z" fill="#C7C7C7"/>
      <path d="M21.7129 14.8079L27.2181 12.5991V12.6237L21.7129 14.8325V14.8079Z" fill="#C6C6C6"/>
      <path d="M21.7129 14.7819L27.2181 12.5742V12.5988L21.7129 14.8076V14.7819Z" fill="#C5C5C5"/>
      <path d="M21.7129 14.7574L27.2181 12.5498V12.5744L21.7129 14.7821V14.7574Z" fill="#C4C4C4"/>
      <path d="M21.7129 14.7327L27.2181 12.5239V12.5497L21.7129 14.7573V14.7327Z" fill="#C3C3C3"/>
      <path d="M21.7129 14.7083L27.2181 12.4995V12.5241L21.7129 14.7329V14.7083Z" fill="#C2C2C2"/>
      <path d="M21.7129 14.6822L27.2181 12.4746V12.4992L21.7129 14.708V14.6822Z" fill="#C1C1C1"/>
      <path d="M21.7129 14.6578L27.2181 12.4502V12.4748L21.7129 14.6824V14.6578Z" fill="#C0C0C0"/>
      <path d="M21.7129 14.6331L27.2181 12.4243V12.4501L21.7129 14.6577V14.6331Z" fill="#BFBFBF"/>
      <path d="M21.7129 14.6087L27.2181 12.3999V12.4245L21.7129 14.6333V14.6087Z" fill="#BEBEBE"/>
      <path d="M21.7129 14.5826L27.2181 12.375V12.3996L21.7129 14.6084V14.5826Z" fill="#BDBDBD"/>
      <path d="M21.7129 14.5582L27.2181 12.3506V12.3752L21.7129 14.5828V14.5582Z" fill="#BCBCBC"/>
      <path d="M21.7129 14.5335L27.2181 12.3247V12.3504L21.7129 14.5581V14.5335Z" fill="#BBBBBB"/>
      <path d="M21.7129 14.509L27.2181 12.3003V12.3249L21.7129 14.5337V14.509Z" fill="#BABABA"/>
      <path d="M21.7129 14.483L27.2181 12.2754V12.3L21.7129 14.5088V14.483Z" fill="#B9B9B9"/>
      <path d="M21.7129 14.4588L27.2181 12.25V12.2757L21.7129 14.4834V14.4588Z" fill="#B8B8B8"/>
      <path d="M21.7129 14.4339L27.2181 12.2251V12.2497L21.7129 14.4585V14.4339Z" fill="#B7B7B7"/>
      <path d="M21.7129 14.4094L27.2181 12.2007V12.2253L21.7129 14.4341V14.4094Z" fill="#B6B6B6"/>
      <path d="M21.7129 14.3834L27.2181 12.1758V12.2004L21.7129 14.4092V14.3834Z" fill="#B5B5B5"/>
      <path d="M21.7129 14.3591L27.2181 12.1504V12.1761L21.7129 14.3838V14.3591Z" fill="#B4B4B4"/>
      <path d="M21.7129 14.3342L27.2181 12.1255V12.1501L21.7129 14.3589V14.3342Z" fill="#B3B3B3"/>
      <path d="M21.7129 14.3087L27.2181 12.1011V12.1257L21.7129 14.3344V14.3087Z" fill="#B2B2B2"/>
      <path d="M21.7129 14.2838L27.2181 12.0762V12.1008L21.7129 14.3084V14.2838Z" fill="#B1B1B1"/>
      <path d="M21.7129 14.2595L27.2181 12.0508V12.0765L21.7129 14.2842V14.2595Z" fill="#B0B0B0"/>
      <path d="M21.7129 14.2346L27.2181 12.0259V12.0505L21.7129 14.2593V14.2346Z" fill="#AFAFAF"/>
      <path d="M21.7129 14.2091L27.2181 12.0015V12.0261L21.7129 14.2348V14.2091Z" fill="#AEAEAE"/>
      <path d="M21.7129 14.1847L27.2181 11.9771V12.0017L21.7129 14.2093V14.1847Z" fill="#ADADAD"/>
      <path d="M21.7129 14.1599L27.2181 11.9512V11.9769L21.7129 14.1845V14.1599Z" fill="#ACACAC"/>
      <path d="M21.7129 14.135L27.2181 11.9263V11.9509L21.7129 14.1596V14.135Z" fill="#ABABAB"/>
      <path d="M21.7129 14.1095L27.2181 11.9019V11.9265L21.7129 14.1352V14.1095Z" fill="#AAAAAA"/>
      <path d="M21.7129 14.0851L27.2181 11.8774V11.9021L21.7129 14.1097V14.0851Z" fill="#A9A9A9"/>
      <path d="M21.7129 14.0603L27.2181 11.8516V11.8773L21.7129 14.0849V14.0603Z" fill="#A8A8A8"/>
      <path d="M21.7129 14.0354L27.2181 11.8267V11.8513L21.7129 14.06V14.0354Z" fill="#A7A7A7"/>
      <path d="M21.7129 14.0099L27.2181 11.8022V11.8269L21.7129 14.0356V14.0099Z" fill="#A6A6A6"/>
      <path d="M21.7129 13.9855L27.2181 11.7778V11.8024L21.7129 14.0101V13.9855Z" fill="#A5A5A5"/>
      <path d="M21.7129 13.9607L27.2181 11.752V11.7777L21.7129 13.9853V13.9607Z" fill="#A4A4A4"/>
      <path d="M21.7129 13.9358L27.2181 11.7271V11.7517L21.7129 13.9604V13.9358Z" fill="#A3A3A3"/>
      <path d="M21.7129 13.9103L27.2181 11.7026V11.7273L21.7129 13.936V13.9103Z" fill="#A2A2A2"/>
      <path d="M21.7129 13.8859L27.2181 11.6782V11.7028L21.7129 13.9105V13.8859Z" fill="#A1A1A1"/>
      <path d="M21.7129 13.8611L27.2181 11.6523V11.6781L21.7129 13.8857V13.8611Z" fill="#A0A0A0"/>
      <path d="M21.7129 13.8362L27.2181 11.6274V11.6521L21.7129 13.8608V13.8362Z" fill="#9F9F9F"/>
      <path d="M21.7129 13.8107L27.2181 11.603V11.6276L21.7129 13.8364V13.8107Z" fill="#9E9E9E"/>
      <path d="M21.7129 13.7859L27.2181 11.5771V11.6029L21.7129 13.8105V13.7859Z" fill="#9D9D9D"/>
      <path d="M21.7129 13.7615L27.2181 11.5527V11.5774L21.7129 13.7861V13.7615Z" fill="#9C9C9C"/>
      <path d="M21.7129 13.7371L27.2181 11.5283V11.5529L21.7129 13.7617V13.7371Z" fill="#9B9B9B"/>
      <path d="M21.7129 13.7111L27.2181 11.5034V11.528L21.7129 13.7368V13.7111Z" fill="#9A9A9A"/>
      <path d="M21.7129 13.6863L27.2181 11.4775V11.5033L21.7129 13.7109V13.6863Z" fill="#999999"/>
      <path d="M21.7129 13.6619L27.2181 11.4531V11.4777L21.7129 13.6865V13.6619Z" fill="#989898"/>
      <path d="M21.7129 13.637L27.2181 11.4282V11.4528L21.7129 13.6616V13.637Z" fill="#979797"/>
      <path d="M21.7129 13.6114L27.2181 11.4038V11.4284L21.7129 13.6372V13.6114Z" fill="#969696"/>
      <path d="M21.7129 13.5872L27.2181 11.3784V11.4042L21.7129 13.6118V13.5872Z" fill="#959595"/>
      <path d="M21.7129 13.5623L27.2181 11.3535V11.3781L21.7129 13.5869V13.5623Z" fill="#949494"/>
      <path d="M21.7129 13.5379L27.2181 11.3291V11.3537L21.7129 13.5625V13.5379Z" fill="#939393"/>
      <path d="M21.7129 13.5118L27.2181 11.3042V11.3288L21.7129 13.5376V13.5118Z" fill="#929292"/>
      <path d="M21.7129 13.4871L27.2181 11.2783V11.3041L21.7129 13.5117V13.4871Z" fill="#919191"/>
      <path d="M21.7129 13.4627L27.2181 11.2539V11.2785L21.7129 13.4873V13.4627Z" fill="#909090"/>
      <path d="M21.7129 13.4382L27.2181 11.2295V11.2541L21.7129 13.4629V13.4382Z" fill="#8F8F8F"/>
      <path d="M21.7129 13.4122L27.2181 11.2046V11.2292L21.7129 13.438V13.4122Z" fill="#8E8E8E"/>
      <path d="M21.7129 13.388L27.2181 11.1792V11.2049L21.7129 13.4126V13.388Z" fill="#8E8E8C"/>
      <path d="M21.7129 13.3631L27.2181 11.1543V11.1789L21.7129 13.3877V13.3631Z" fill="#8D8D8B"/>
      <path d="M21.7129 13.3386L27.2181 11.1299V11.1545L21.7129 13.3633V13.3386Z" fill="#8C8C8A"/>
      <path d="M21.7129 13.3126L27.2181 11.105V11.1296L21.7129 13.3384V13.3126Z" fill="#8B8B89"/>
      <path d="M21.7129 13.2883L27.2181 11.0796V11.1053L21.7129 13.313V13.2883Z" fill="#8A8A88"/>
      <path d="M21.7129 13.2634L27.2181 11.0547V11.0793L21.7129 13.2881V13.2634Z" fill="#898987"/>
      <path d="M21.7129 13.239L27.2181 11.0303V11.0549L21.7129 13.2636V13.239Z" fill="#888886"/>
      <path d="M21.7129 13.213L27.2181 11.0054V11.03L21.7129 13.2387V13.213Z" fill="#878785"/>
      <path d="M21.7129 13.1887L27.2181 10.98V11.0057L21.7129 13.2134V13.1887Z" fill="#868684"/>
      <path d="M21.7129 13.1643L27.2181 10.9556V10.9802L21.7129 13.1889V13.1643Z" fill="#858583"/>
      <path d="M21.7129 13.1383L27.2181 10.9307V10.9553L21.7129 13.164V13.1383Z" fill="#848482"/>
      <path d="M21.7129 13.1139L27.2181 10.9062V10.9309L21.7129 13.1385V13.1139Z" fill="#838381"/>
      <path d="M21.7129 13.0891L27.2181 10.8804V10.9061L21.7129 13.1137V13.0891Z" fill="#828280"/>
      <path d="M21.7129 13.0642L27.2181 10.8555V10.8801L21.7129 13.0888V13.0642Z" fill="#81817F"/>
      <path d="M21.7129 13.0387L27.2181 10.8311V10.8557L21.7129 13.0644V13.0387Z" fill="#80807E"/>
      <path d="M21.7129 13.0139L27.2181 10.8052V10.8309L21.7129 13.0385V13.0139Z" fill="#7F7F7D"/>
      <path d="M21.7129 12.9895L27.2181 10.7808V10.8054L21.7129 13.0141V12.9895Z" fill="#7E7E7C"/>
      <path d="M21.7129 12.9651L27.2181 10.7563V10.781L21.7129 12.9897V12.9651Z" fill="#7D7D7B"/>
      <path d="M21.7129 12.9391L27.2181 10.7314V10.7561L21.7129 12.9648V12.9391Z" fill="#7C7C7A"/>
      <path d="M21.7129 12.9143L27.2181 10.7056V10.7313L21.7129 12.9389V12.9143Z" fill="#7B7B79"/>
      <path d="M21.7129 12.8899L27.2181 10.6812V10.7058L21.7129 12.9145V12.8899Z" fill="#7A7A78"/>
      <path d="M21.7129 12.8655L27.2181 10.6567V10.6814L21.7129 12.8901V12.8655Z" fill="#797977"/>
      <path d="M21.7129 12.8395L27.2181 10.6318V10.6565L21.7129 12.8652V12.8395Z" fill="#787876"/>
      <path d="M21.7129 12.8151L27.2181 10.6074V10.632L21.7129 12.8397V12.8151Z" fill="#777775"/>
      <path d="M21.7129 12.7903L27.2181 10.5815V10.6073L21.7129 12.8149V12.7903Z" fill="#767674"/>
      <path d="M21.7129 12.7659L27.2181 10.5571V10.5817L21.7129 12.7905V12.7659Z" fill="#757573"/>
      <path d="M21.7129 12.7404L27.2181 10.5327V10.5573L21.7129 12.7661V12.7404Z" fill="#747472"/>
      <path d="M21.7129 12.7156L27.2181 10.5068V10.5326L21.7129 12.7402V12.7156Z" fill="#737371"/>
      <path d="M21.7129 12.6907L27.2181 10.4819V10.5066L21.7129 12.7153V12.6907Z" fill="#727270"/>
      <path d="M21.7129 12.6658L27.2181 10.457V10.4816L21.7129 12.6904V12.6658Z" fill="#71716F"/>
      <path d="M21.7129 12.6398L27.2181 10.4321V10.4567L21.7129 12.6655V12.6398Z" fill="#70706E"/>
      <path d="M21.7129 12.6155L27.2181 10.4067V10.4325L21.7129 12.6401V12.6155Z" fill="#6F6F6D"/>
      <path d="M21.7129 12.5916L27.2181 10.3828V10.4074L21.7129 12.6162V12.5916Z" fill="#6E6E6C"/>
      <path d="M21.7129 12.5654L27.1663 10.3779H27.2181V10.3824L21.7129 12.5912V12.5654Z" fill="#6D6D6B"/>
      <path d="M21.7129 12.5408L27.1043 10.3779H27.1663L21.7129 12.5654V12.5408Z" fill="#6C6C6A"/>
      <path d="M21.7129 12.5162L27.0424 10.3779H27.1043L21.7129 12.5408V12.5162Z" fill="#6B6B69"/>
      <path d="M21.7129 12.4916L26.9804 10.3779H27.0424L21.7129 12.5162V12.4916Z" fill="#6A6A68"/>
      <path d="M21.7129 12.4658L26.9185 10.3779H26.9804L21.7129 12.4916V12.4658Z" fill="#696967"/>
      <path d="M21.7129 12.4412L26.8566 10.3779H26.9185L21.7129 12.4658V12.4412Z" fill="#686866"/>
      <path d="M21.7129 12.4166L26.7946 10.3779H26.8566L21.7129 12.4412V12.4166Z" fill="#676765"/>
      <path d="M21.7129 12.392L26.7315 10.3779H26.7946L21.7129 12.4166V12.392Z" fill="#666664"/>
      <path d="M21.7129 12.3663L26.6696 10.3779H26.7315L21.7129 12.392V12.3663Z" fill="#656563"/>
      <path d="M21.7129 12.3416L26.6077 10.3779H26.6696L21.7129 12.3663V12.3416Z" fill="#646462"/>
      <path d="M21.7129 12.317L26.5457 10.3779H26.6077L21.7129 12.3416V12.317Z" fill="#636361"/>
      <path d="M21.7129 12.2924L26.4838 10.3779H26.5457L21.7129 12.317V12.2924Z" fill="#626260"/>
      <path d="M21.7129 12.2667L26.4218 10.3779H26.4838L21.7129 12.2924V12.2667Z" fill="#61615F"/>
      <path d="M21.7129 12.2421L26.3599 10.3779H26.4218L21.7129 12.2667V12.2421Z" fill="#60605E"/>
      <path d="M21.7129 12.2174L26.2979 10.3779H26.3599L21.7129 12.2421V12.2174Z" fill="#5F5F5D"/>
      <path d="M21.7129 12.1928L26.2349 10.3779H26.2979L21.7129 12.2174V12.1928Z" fill="#5E5E5C"/>
      <path d="M21.7129 12.1671L26.1729 10.3779H26.2349L21.7129 12.1928V12.1671Z" fill="#5D5D5B"/>
      <path d="M21.7129 12.1425L26.111 10.3779H26.1729L21.7129 12.1671V12.1425Z" fill="#5C5C5A"/>
      <path d="M21.7129 12.1179L26.049 10.3779H26.111L21.7129 12.1425V12.1179Z" fill="#5B5B59"/>
      <path d="M21.7129 12.0932L25.9871 10.3779H26.049L21.7129 12.1179V12.0932Z" fill="#5A5A58"/>
      <path d="M21.7129 12.0675L25.9251 10.3779H25.9871L21.7129 12.0932V12.0675Z" fill="#595957"/>
      <path d="M21.7129 12.0429L25.8632 10.3779H25.9251L21.7129 12.0675V12.0429Z" fill="#585856"/>
      <path d="M21.7129 12.0183L25.8001 10.3779H25.8632L21.7129 12.0429V12.0183Z" fill="#575755"/>
      <path d="M21.7129 11.9937L25.7382 10.3779H25.8001L21.7129 12.0183V11.9937Z" fill="#565654"/>
      <path d="M21.7129 11.9679L25.6762 10.3779H25.7382L21.7129 11.9937V11.9679Z" fill="#555553"/>
      <path d="M21.7129 11.9433L25.6143 10.3779H25.6762L21.7129 11.9679V11.9433Z" fill="#545452"/>
      <path d="M21.7129 11.9187L25.5523 10.3779H25.6143L21.7129 11.9433V11.9187Z" fill="#535351"/>
      <path d="M21.7129 11.8941L25.4904 10.3779H25.5523L21.7129 11.9187V11.8941Z" fill="#525250"/>
      <path d="M21.7129 11.8683L25.4285 10.3779H25.4904L21.7129 11.8941V11.8683Z" fill="#51514F"/>
      <path d="M21.7129 11.8437L25.3654 10.3779H25.4285L21.7129 11.8683V11.8437Z" fill="#50504E"/>
      <path d="M21.7129 11.8191L25.3034 10.3779H25.3654L21.7129 11.8437V11.8191Z" fill="#4F4F4D"/>
      <path d="M21.7129 11.7945L25.2415 10.3779H25.3034L21.7129 11.8191V11.7945Z" fill="#4E4E4C"/>
      <path d="M21.7129 11.7688L25.1795 10.3779H25.2415L21.7129 11.7945V11.7688Z" fill="#4D4D4B"/>
      <path d="M21.7129 11.7441L25.1176 10.3779H25.1795L21.7129 11.7688V11.7441Z" fill="#4C4C4A"/>
      <path d="M21.7129 11.7195L25.0557 10.3779H25.1176L21.7129 11.7441V11.7195Z" fill="#4B4B49"/>
      <path d="M21.7129 11.6949L24.9937 10.3779H25.0557L21.7129 11.7195V11.6949Z" fill="#4A4A48"/>
      <path d="M21.7129 11.6692L24.9318 10.3779H24.9937L21.7129 11.6949V11.6692Z" fill="#494947"/>
      <path d="M21.7129 11.6446L24.8687 10.3779H24.9318L21.7129 11.6692V11.6446Z" fill="#484846"/>
      <path d="M21.7129 11.6199L24.8068 10.3779H24.8687L21.7129 11.6446V11.6199Z" fill="#474745"/>
      <path d="M21.7129 11.5953L24.7448 10.3779H24.8067L21.7129 11.6199V11.5953Z" fill="#464644"/>
      <path d="M21.7129 11.5696L24.6829 10.3779H24.7448L21.7129 11.5953V11.5696Z" fill="#454543"/>
      <path d="M21.7129 11.545L24.6209 10.3779H24.6829L21.7129 11.5696V11.545Z" fill="#444442"/>
      <path d="M21.7129 11.5204L24.559 10.3779H24.6209L21.7129 11.545V11.5204Z" fill="#434341"/>
      <path d="M21.7129 11.4957L24.497 10.3779H24.559L21.7129 11.5204V11.4957Z" fill="#424240"/>
      <path d="M21.7129 11.47L24.4351 10.3779H24.497L21.7129 11.4957V11.47Z" fill="#41413F"/>
      <path d="M21.7129 11.4454L24.3731 10.3779H24.4351L21.7129 11.47V11.4454Z" fill="#40403E"/>
      <path d="M21.7129 11.4208L24.3101 10.3779H24.3731L21.7129 11.4454V11.4208Z" fill="#3F3F3D"/>
      <path d="M21.7129 11.395L24.2481 10.3779H24.3101L21.7129 11.4208V11.395Z" fill="#3E3E3C"/>
      <path d="M21.7129 11.3704L24.1862 10.3779H24.2481L21.7129 11.395V11.3704Z" fill="#3D3D3B"/>
      <path d="M21.7129 11.3458L24.1242 10.3779H24.1862L21.7129 11.3704V11.3458Z" fill="#3C3C3A"/>
      <path d="M21.7129 11.3212L24.0623 10.3779H24.1242L21.7129 11.3458V11.3212Z" fill="#3B3B39"/>
      <path d="M21.7129 11.2954L24.0003 10.3779H24.0623L21.7129 11.3212V11.2954Z" fill="#3A3A38"/>
      <path d="M21.7129 11.2708L23.9384 10.3779H24.0003L21.7129 11.2954V11.2708Z" fill="#393937"/>
      <path d="M21.7129 11.2462L23.8753 10.3779H23.9384L21.7129 11.2708V11.2462Z" fill="#383836"/>
      <path d="M21.7129 11.2216L23.8134 10.3779H23.8753L21.7129 11.2462V11.2216Z" fill="#373735"/>
      <path d="M21.7129 11.1959L23.7514 10.3779H23.8134L21.7129 11.2216V11.1959Z" fill="#363634"/>
      <path d="M21.7129 11.1712L23.6895 10.3779H23.7514L21.7129 11.1959V11.1712Z" fill="#353533"/>
      <path d="M21.7129 11.1466L23.6275 10.3779H23.6895L21.7129 11.1712V11.1466Z" fill="#343432"/>
      <path d="M21.7129 11.122L23.5656 10.3779H23.6275L21.7129 11.1466V11.122Z" fill="#333331"/>
      <path d="M21.7129 11.0963L23.5037 10.3779H23.5656L21.7129 11.122V11.0963Z" fill="#323230"/>
      <path d="M21.7129 11.0717L23.4406 10.3779H23.5037L21.7129 11.0963V11.0717Z" fill="#31312F"/>
      <path d="M21.7129 11.047L23.3786 10.3779H23.4406L21.7129 11.0717V11.047Z" fill="#30302E"/>
      <path d="M21.7129 11.0224L23.3167 10.3779H23.3786L21.7129 11.047V11.0224Z" fill="#2F2F2D"/>
      <path d="M21.7129 10.9976L23.2548 10.3779H23.3167L21.7129 11.0234V10.9976Z" fill="#2E2E2C"/>
      <path d="M21.7129 10.973L23.1928 10.3779H23.2548L21.7129 10.9976V10.973Z" fill="#2D2D2B"/>
      <path d="M21.7129 10.9483L23.1309 10.3779H23.1928L21.7129 10.973V10.9483Z" fill="#2C2C2A"/>
      <path d="M21.7129 10.9237L23.0689 10.3779H23.1309L21.7129 10.9483V10.9237Z" fill="#2B2B29"/>
      <path d="M21.7129 10.8979L23.0079 10.3779H23.0699L21.7129 10.9237V10.8979Z" fill="#2A2A28"/>
      <path d="M21.7129 10.8733L22.9448 10.3779H23.0079L21.7129 10.8979V10.8733Z" fill="#292927"/>
      <path d="M21.7129 10.8486L22.8828 10.3779H22.9448L21.7129 10.8733V10.8486Z" fill="#282826"/>
      <path d="M21.7129 10.8228L22.8208 10.3779H22.8828L21.7129 10.8486V10.8228Z" fill="#272725"/>
      <path d="M21.7129 10.7982L22.7588 10.3779H22.8208L21.7129 10.8228V10.7982Z" fill="#262624"/>
      <path d="M21.7129 10.7735L22.6968 10.3779H22.7588L21.7129 10.7982V10.7735Z" fill="#252523"/>
      <path d="M21.7129 10.7489L22.6348 10.3779H22.6968L21.7129 10.7735V10.7489Z" fill="#242422"/>
      <path d="M21.7129 10.7231L22.5728 10.3779H22.6348L21.7129 10.7489V10.7231Z" fill="#232321"/>
      <path d="M21.7129 10.6984L22.5109 10.3779H22.5728L21.7129 10.7231V10.6984Z" fill="#222220"/>
      <path d="M21.7129 10.6738L22.4477 10.3779H22.5109L21.7129 10.6984V10.6738Z" fill="#21211F"/>
      <path d="M21.7129 10.6491L22.3858 10.3779H22.4477L21.7129 10.6738V10.6491Z" fill="#20201E"/>
      <path d="M21.7129 10.6234L22.3238 10.3779H22.3858L21.7129 10.6491V10.6234Z" fill="#1F1F1D"/>
      <path d="M21.7129 10.5987L22.2618 10.3779H22.3238L21.7129 10.6234V10.5987Z" fill="#1E1E1C"/>
      <path d="M21.7129 10.574L22.1998 10.3779H22.2618L21.7129 10.5987V10.574Z" fill="white"/>
      <path d="M22.1998 10.3779L21.7129 10.574V10.3779H22.1998Z" fill="white"/>
    </g>
  </g>
  <path d="M48.6972 9.23786H46.2475L45.8421 10.4049H44.5469L46.7589 4.28662H48.1949L50.4057 10.4049H49.1015L48.6972 9.23786ZM48.3593 8.25657L47.4718 5.70542L46.582 8.26104L48.3593 8.25657Z" fill="white"/>
  <path d="M52.1413 9.39799H54.3173V10.405H50.7402V9.41254L52.8734 6.55928H50.7492V5.55225H54.2914V6.54138L52.1413 9.39799Z" fill="white"/>
  <path d="M59.5473 8.34367H55.9804C55.9918 8.65551 56.1247 8.95077 56.3509 9.1672C56.5693 9.36595 56.8568 9.47266 57.1529 9.46483C57.3564 9.47694 57.5588 9.42737 57.7334 9.32267C57.908 9.21798 58.0464 9.06309 58.1305 8.87851H59.4606C59.3227 9.3399 59.0367 9.74384 58.6463 10.0288C58.2199 10.3366 57.7022 10.4942 57.1754 10.4763C56.7338 10.4834 56.2979 10.3762 55.9106 10.1653C55.5417 9.96159 55.2401 9.65612 55.0422 9.2858C54.8272 8.88189 54.7194 8.43014 54.7291 7.9733C54.7208 7.51483 54.8285 7.06163 55.0422 6.65521C55.2374 6.28597 55.5374 5.98174 55.9049 5.78021C56.2971 5.57066 56.737 5.46507 57.1821 5.47363C57.6138 5.46719 58.04 5.56959 58.421 5.77126C58.7824 5.96398 59.0795 6.25716 59.2759 6.61493C59.4837 7.00107 59.5884 7.43369 59.58 7.87148C59.5822 8.0295 59.5713 8.18744 59.5473 8.34367ZM58.3084 7.52126C58.3109 7.37765 58.2814 7.23527 58.222 7.10431C58.1626 6.97336 58.0748 6.85706 57.9649 6.76375C57.7363 6.57236 57.4449 6.4712 57.1461 6.47954C56.8635 6.47235 56.5885 6.571 56.3757 6.75591C56.1582 6.95592 56.0219 7.2282 55.9928 7.52126H58.3084Z" fill="white"/>
  <path d="M62.1175 5.70538C62.3848 5.55479 62.6876 5.47756 62.9949 5.4816V6.76836H62.6683C62.2808 6.76836 61.9925 6.86011 61.792 7.04026C61.5915 7.22041 61.4969 7.53594 61.4969 7.98575V10.4049H60.2637V5.55209H61.4969V6.30512C61.6494 6.05631 61.863 5.84997 62.1175 5.70538Z" fill="white"/>
  <path d="M65.4942 5.69173C65.7897 5.54038 66.118 5.46353 66.4504 5.46794C66.8473 5.46389 67.2374 5.57008 67.5767 5.77453C67.9206 5.98461 68.1984 6.28617 68.3786 6.64505C68.582 7.05134 68.6832 7.50054 68.6737 7.9542C68.6823 8.41027 68.5811 8.8618 68.3786 9.27117C68.1985 9.63458 67.9211 9.94161 67.5767 10.1585C67.2392 10.3682 66.8484 10.4776 66.4504 10.474C66.1189 10.4812 65.7907 10.4078 65.4942 10.2603C65.2344 10.1273 65.0095 9.93573 64.8376 9.70084V10.4046H63.6055V3.92383H64.8444V6.26462C65.0096 6.0229 65.233 5.82599 65.4942 5.69173ZM67.2388 7.20228C67.1287 6.99718 66.9623 6.82726 66.759 6.71219C66.5649 6.60117 66.3444 6.54362 66.1204 6.54547C65.8989 6.5451 65.6813 6.60425 65.4908 6.71666C65.2898 6.83467 65.1254 7.00539 65.0156 7.21011C64.8964 7.44646 64.8343 7.70718 64.8343 7.97154C64.8343 8.2359 64.8964 8.49662 65.0156 8.73297C65.1253 8.93834 65.2897 9.10981 65.4908 9.22865C65.6816 9.34021 65.899 9.39894 66.1204 9.39873C66.3451 9.40154 66.5662 9.34227 66.759 9.22753C66.962 9.10712 67.128 8.93375 67.2388 8.72625C67.364 8.48908 67.4264 8.22417 67.4201 7.95643C67.4257 7.69376 67.3633 7.43407 67.2388 7.20228Z" fill="white"/>
  <path d="M69.3325 6.65553C69.5127 6.29506 69.7908 5.99194 70.1355 5.78053C70.4749 5.57609 70.865 5.4699 71.2618 5.47395C71.5944 5.46804 71.9231 5.54497 72.218 5.69773C72.4756 5.83064 72.6999 6.01912 72.8746 6.24936V5.55227H74.1135V10.4051H72.8746V9.6923C72.704 9.92971 72.4789 10.1234 72.218 10.2574C71.9205 10.4108 71.5891 10.4877 71.2539 10.4811C70.8558 10.4855 70.4648 10.376 70.1277 10.1656C69.7836 9.94838 69.5062 9.64145 69.3258 9.27829C69.1236 8.86883 69.0228 8.4173 69.0318 7.96132C69.025 7.50837 69.1281 7.06046 69.3325 6.65553ZM72.7023 7.215C72.5937 7.01025 72.4289 6.84031 72.227 6.72491C72.0318 6.61196 71.8098 6.55286 71.5839 6.55371C71.3573 6.55166 71.1345 6.61139 70.9397 6.72641C70.7449 6.84142 70.5856 7.00732 70.4791 7.20605C70.3535 7.43864 70.291 7.6997 70.2977 7.96356C70.2923 8.22906 70.3547 8.49159 70.4791 8.72666C70.588 8.93437 70.7524 9.10821 70.9543 9.22906C71.1438 9.34431 71.3618 9.40512 71.5839 9.40473C71.8096 9.40539 72.0315 9.34671 72.227 9.23466C72.4288 9.11862 72.5936 8.94836 72.7023 8.74345C72.826 8.50749 72.8869 8.24402 72.8791 7.9781C72.887 7.71181 72.8262 7.44793 72.7023 7.21164V7.215Z" fill="white"/>
  <path d="M75.1928 4.76891C75.1244 4.70215 75.07 4.62249 75.0328 4.53459C74.9957 4.4467 74.9766 4.35233 74.9766 4.257C74.9766 4.16168 74.9957 4.06731 75.0328 3.97942C75.07 3.89152 75.1244 3.81186 75.1928 3.7451C75.3415 3.61244 75.5342 3.53906 75.734 3.53906C75.9338 3.53906 76.1266 3.61244 76.2752 3.7451C76.3437 3.81186 76.3981 3.89152 76.4352 3.97942C76.4723 4.06731 76.4915 4.16168 76.4915 4.257C76.4915 4.35233 76.4723 4.4467 76.4352 4.53459C76.3981 4.62249 76.3437 4.70215 76.2752 4.76891C76.1266 4.90156 75.9338 4.97494 75.734 4.97494C75.5342 4.97494 75.3415 4.90156 75.1928 4.76891ZM76.3416 5.55216V10.4049H75.1027V5.55216H76.3416Z" fill="white"/>
  <path d="M78.5706 11.1969C78.5706 11.734 78.4369 12.1208 78.1696 12.3573C77.9023 12.5937 77.5194 12.712 77.0208 12.712H76.4746V11.6702H76.826C76.9676 11.684 77.1093 11.6441 77.2224 11.5583C77.2644 11.5098 77.2959 11.4534 77.3153 11.3924C77.3347 11.3315 77.3414 11.2673 77.3351 11.2036V5.55196H78.5683L78.5706 11.1969ZM77.4117 4.76871C77.3435 4.70179 77.2893 4.62208 77.2523 4.5342C77.2154 4.44633 77.1963 4.35204 77.1963 4.2568C77.1963 4.16156 77.2154 4.06727 77.2523 3.9794C77.2893 3.89152 77.3435 3.81181 77.4117 3.74489C77.4853 3.67625 77.5719 3.62272 77.6664 3.58739C77.7609 3.55206 77.8615 3.53562 77.9624 3.53901C78.0614 3.53589 78.1601 3.5525 78.2525 3.58786C78.345 3.62322 78.4294 3.67661 78.5008 3.74489C78.6358 3.88151 78.7114 4.06533 78.7114 4.2568C78.7114 4.44827 78.6358 4.63209 78.5008 4.76871C78.4296 4.83719 78.3452 4.89072 78.2527 4.9261C78.1602 4.96147 78.0615 4.97796 77.9624 4.97459C77.8615 4.97823 77.7608 4.9619 77.6662 4.92656C77.5717 4.89122 77.4852 4.83756 77.4117 4.76871Z" fill="white"/>
  <path d="M79.5451 6.65553C79.7249 6.29521 80.0027 5.9921 80.347 5.78053C80.688 5.57508 81.0802 5.46885 81.4789 5.47395C81.8115 5.46804 82.1402 5.54497 82.4351 5.69773C82.6913 5.8293 82.9148 6.01582 83.0895 6.24377V5.55227H84.3284V10.4051H83.0895V9.6923C82.9188 9.92971 82.6937 10.1234 82.4329 10.2574C82.1353 10.4108 81.8039 10.4877 81.4688 10.4811C81.0707 10.4855 80.6797 10.376 80.3425 10.1656C79.9984 9.94838 79.7211 9.64145 79.5406 9.27829C79.3384 8.86883 79.2377 8.4173 79.2466 7.96132C79.2391 7.50856 79.3415 7.06066 79.5451 6.65553ZM82.9149 7.215C82.8063 7.01025 82.6415 6.84031 82.4396 6.72491C82.2444 6.61196 82.0224 6.55286 81.7965 6.55371C81.5699 6.55166 81.3471 6.61139 81.1523 6.72641C80.9575 6.84142 80.7981 7.00732 80.6917 7.20605C80.5661 7.43864 80.5036 7.6997 80.5103 7.96356C80.5049 8.22906 80.5673 8.49159 80.6917 8.72666C80.8006 8.93437 80.965 9.10821 81.1669 9.22906C81.3564 9.34431 81.5743 9.40512 81.7965 9.40473C82.0222 9.40539 82.2441 9.34671 82.4396 9.23466C82.6414 9.11862 82.8062 8.94836 82.9149 8.74345C83.038 8.50695 83.0981 8.24309 83.0895 7.97698C83.0979 7.71126 83.0378 7.44781 82.9149 7.21164V7.215Z" fill="white"/>
  <path d="M89.4296 6.02853C89.7878 6.3933 89.9668 6.90241 89.9668 7.55586V10.4046H88.7279V7.71923C88.7279 7.33432 88.6311 7.03892 88.4374 6.8308C88.3357 6.72634 88.2128 6.64457 88.0769 6.59094C87.9409 6.53731 87.7951 6.51304 87.649 6.51974C87.5001 6.51212 87.3512 6.53589 87.2123 6.58951C87.0733 6.64312 86.9473 6.72535 86.8426 6.8308C86.6455 7.03892 86.5475 7.33432 86.5475 7.71923V10.4046H85.3086V5.55187H86.5475V6.15273C86.7146 5.9403 86.9305 5.77072 87.1771 5.65817C87.4406 5.53692 87.728 5.47575 88.0184 5.47914C88.6003 5.48063 89.0707 5.66376 89.4296 6.02853Z" fill="white"/>
  <path d="M96.5671 9.23786H94.1243L93.7132 10.4049H92.418L94.63 4.28662H96.066L98.2768 10.4049H96.9726L96.5671 9.23786ZM96.2293 8.25657L95.3429 5.70542L94.4531 8.26104L96.2293 8.25657Z" fill="white"/>
  <path d="M100.738 5.70537C101.005 5.55488 101.308 5.47764 101.615 5.48159V6.76835H101.289C100.902 6.76835 100.613 6.8601 100.413 7.04025C100.212 7.2204 100.118 7.53593 100.118 7.98574V10.4049H98.8789V5.55208H100.118V6.30512C100.27 6.0563 100.484 5.84996 100.738 5.70537Z" fill="white"/>
  <path d="M103.659 6.55892V8.90866C103.653 8.97279 103.661 9.03748 103.681 9.09858C103.702 9.15967 103.735 9.2158 103.779 9.26336C103.894 9.3483 104.037 9.38812 104.18 9.37525H104.752V10.4047H103.977C102.937 10.4047 102.417 9.90264 102.417 8.89859V6.55892H101.836V5.55188H102.417V4.35352H103.656V5.55188H104.748V6.55892H103.659Z" fill="white"/>
  <path d="M105.505 4.76865C105.437 4.70188 105.382 4.62222 105.345 4.53432C105.308 4.44643 105.289 4.35206 105.289 4.25674C105.289 4.16141 105.308 4.06705 105.345 3.97915C105.382 3.89126 105.437 3.8116 105.505 3.74483C105.654 3.61233 105.847 3.53906 106.047 3.53906C106.247 3.53906 106.44 3.61233 106.589 3.74483C106.657 3.81175 106.711 3.89146 106.748 3.97933C106.785 4.06721 106.804 4.1615 106.804 4.25674C106.804 4.35198 106.785 4.44627 106.748 4.53414C106.711 4.62201 106.657 4.70172 106.589 4.76865C106.44 4.90115 106.247 4.97441 106.047 4.97441C105.847 4.97441 105.654 4.90115 105.505 4.76865ZM106.654 5.55189V10.4047H105.415V5.55189H106.654Z" fill="white"/>
  <path d="M109.893 6.5593H109.038V10.405H107.788V6.5593H107.232V5.55227H107.788V5.30722C107.788 4.71046 107.958 4.27296 108.298 3.99472C108.638 3.71648 109.152 3.5852 109.84 3.60086V4.63363C109.541 4.62803 109.332 4.67727 109.215 4.78245C109.098 4.88763 109.038 5.07672 109.038 5.35086V5.55227H109.893V6.5593Z" fill="white"/>
  <path d="M110.556 4.76865C110.488 4.70188 110.433 4.62222 110.396 4.53432C110.359 4.44643 110.34 4.35206 110.34 4.25674C110.34 4.16141 110.359 4.06705 110.396 3.97915C110.433 3.89126 110.488 3.8116 110.556 3.74483C110.705 3.61233 110.898 3.53906 111.098 3.53906C111.298 3.53906 111.491 3.61233 111.64 3.74483C111.708 3.81175 111.762 3.89146 111.799 3.97933C111.836 4.06721 111.855 4.1615 111.855 4.25674C111.855 4.35198 111.836 4.44627 111.799 4.53414C111.762 4.62201 111.708 4.70172 111.64 4.76865C111.491 4.90115 111.298 4.97441 111.098 4.97441C110.898 4.97441 110.705 4.90115 110.556 4.76865ZM111.705 5.55189V10.4047H110.466V5.55189H111.705Z" fill="white"/>
  <path d="M112.69 6.65969C112.885 6.29302 113.182 5.98943 113.545 5.7847C113.926 5.57232 114.358 5.46493 114.795 5.47363C115.4 5.47363 115.901 5.62282 116.298 5.9212C116.704 6.23712 116.986 6.68449 117.095 7.18559H115.765C115.702 6.98706 115.577 6.81373 115.408 6.69102C115.225 6.56699 115.007 6.50426 114.786 6.512C114.626 6.50532 114.467 6.53631 114.322 6.60243C114.176 6.66855 114.049 6.76792 113.949 6.89243C113.744 7.14605 113.642 7.50635 113.642 7.97331C113.642 8.44028 113.744 8.79796 113.949 9.04636C114.049 9.17066 114.177 9.26982 114.322 9.33575C114.467 9.40167 114.626 9.43248 114.786 9.42568C115.285 9.42568 115.611 9.20413 115.765 8.76103H117.101C116.984 9.25645 116.701 9.69768 116.299 10.012C115.899 10.3223 115.4 10.4771 114.801 10.4763C114.364 10.4845 113.932 10.3772 113.551 10.1653C113.188 9.96096 112.891 9.65774 112.696 9.29141C112.481 8.88643 112.373 8.43421 112.382 7.97667C112.371 7.51884 112.477 7.06578 112.69 6.65969Z" fill="white"/>
  <path d="M117.864 4.76865C117.796 4.70172 117.741 4.62201 117.704 4.53414C117.667 4.44627 117.648 4.35198 117.648 4.25674C117.648 4.1615 117.667 4.06721 117.704 3.97933C117.741 3.89146 117.796 3.81175 117.864 3.74483C118.013 3.61233 118.206 3.53906 118.405 3.53906C118.605 3.53906 118.798 3.61233 118.947 3.74483C119.016 3.8116 119.07 3.89126 119.107 3.97915C119.144 4.06705 119.164 4.16141 119.164 4.25674C119.164 4.35206 119.144 4.44643 119.107 4.53432C119.07 4.62222 119.016 4.70188 118.947 4.76865C118.798 4.90115 118.605 4.97441 118.405 4.97441C118.206 4.97441 118.013 4.90115 117.864 4.76865ZM119.014 5.55189V10.4047H117.775V5.55189H119.014Z" fill="white"/>
  <path d="M119.99 6.65552C120.169 6.29496 120.447 5.99177 120.791 5.78052C121.131 5.57608 121.521 5.46989 121.918 5.47394C122.25 5.46812 122.579 5.54505 122.874 5.69772C123.131 5.83063 123.356 6.01911 123.531 6.24935V5.55226H124.769V10.405H123.531V9.69229C123.36 9.9297 123.135 10.1234 122.874 10.2573C122.576 10.4109 122.244 10.4878 121.909 10.4811C121.511 10.4856 121.12 10.376 120.782 10.1656C120.438 9.94872 120.161 9.6417 119.981 9.27828C119.78 8.868 119.681 8.4161 119.692 7.96019C119.685 7.5079 119.787 7.06041 119.99 6.65552ZM123.359 7.21499C123.251 7.01024 123.086 6.8403 122.884 6.7249C122.689 6.6121 122.467 6.55301 122.241 6.5537C122.019 6.54929 121.8 6.60416 121.607 6.71259C121.408 6.82835 121.244 6.99636 121.135 7.1982C121.01 7.4309 120.948 7.69196 120.955 7.95571C120.949 8.22187 121.011 8.48522 121.135 8.72106C121.245 8.92829 121.409 9.10197 121.61 9.22346C121.8 9.33869 122.018 9.39949 122.241 9.39913C122.467 9.39968 122.689 9.34101 122.884 9.22905C123.086 9.11301 123.251 8.94275 123.359 8.73784C123.483 8.5017 123.543 8.23837 123.536 7.9725C123.543 7.70814 123.482 7.44644 123.359 7.21163V7.21499Z" fill="white"/>
  <path d="M126.998 3.92383V10.4046H125.764V3.92383H126.998Z" fill="white"/>
  <path d="M46.158 14.5034V20.6127H44.9238V14.5034H46.158Z" fill="white"/>
  <path d="M51.2699 16.2401C51.6281 16.6049 51.8071 17.114 51.8071 17.7675V20.6129H50.5739V17.9342C50.5739 17.5493 50.4759 17.2539 50.2833 17.0458C50.1816 16.9413 50.0587 16.8595 49.9228 16.8059C49.7869 16.7523 49.641 16.728 49.4949 16.7347C49.346 16.7269 49.1971 16.7506 49.0581 16.8043C48.9191 16.8579 48.7931 16.9402 48.6885 17.0458C48.4914 17.2539 48.3934 17.5493 48.3934 17.9342V20.6129H47.1602V15.7635H48.3991V16.3677C48.5662 16.1553 48.782 15.9857 49.0286 15.8731C49.2921 15.7515 49.5795 15.69 49.87 15.693C50.4444 15.693 50.911 15.8754 51.2699 16.2401Z" fill="white"/>
  <path d="M54.1956 16.7705V19.1202C54.1896 19.1843 54.197 19.2488 54.2174 19.3099C54.2377 19.3709 54.2706 19.4271 54.3139 19.4749C54.4292 19.5599 54.5719 19.5997 54.7149 19.5868H55.2881V20.6196H54.5121C53.473 20.6196 52.9534 20.1176 52.9534 19.1135V16.7705H52.3711V15.7635H52.9534V14.564H54.1923V15.7635H55.2848V16.7705H54.1956Z" fill="white"/>
  <path d="M60.4548 18.5551H56.8867C56.898 18.8664 57.0305 19.1613 57.2562 19.3775C57.4743 19.5767 57.762 19.6835 58.0581 19.6752C58.2615 19.6867 58.4637 19.637 58.6383 19.5326C58.8129 19.4282 58.9518 19.2739 59.0368 19.09H60.3658C60.2299 19.5511 59.9454 19.9552 59.556 20.2402C59.1296 20.5481 58.6119 20.7056 58.0851 20.6878C57.6435 20.6948 57.2076 20.5876 56.8203 20.3767C56.4507 20.1729 56.148 19.8676 55.9486 19.4972C55.734 19.0932 55.6262 18.6415 55.6355 18.1848C55.6251 17.7269 55.7304 17.2737 55.9418 16.8667C56.1371 16.4971 56.4375 16.1928 56.8057 15.9917C57.1954 15.7917 57.6274 15.6866 58.066 15.6851C58.5046 15.6835 58.9373 15.7855 59.3285 15.9827C59.6901 16.1751 59.9873 16.4684 60.1833 16.8264C60.3912 17.2125 60.4959 17.6451 60.4874 18.0829C60.4897 18.2409 60.4787 18.3989 60.4548 18.5551ZM59.2159 17.7327C59.219 17.5895 59.1904 17.4474 59.132 17.3165C59.0736 17.1856 58.9869 17.069 58.878 16.9752C58.649 16.7838 58.3572 16.6827 58.0581 16.691C57.7753 16.6827 57.4999 16.7815 57.2877 16.9674C57.0704 17.1676 56.9342 17.4397 56.9048 17.7327H59.2159Z" fill="white"/>
  <path d="M62.4038 14.1353V20.6127H61.1641V14.1353H62.4038Z" fill="white"/>
  <path d="M64.6345 14.1353V20.6127H63.4004V14.1353H64.6345Z" fill="white"/>
  <path d="M65.7104 14.9801C65.6419 14.9133 65.5875 14.8336 65.5504 14.7458C65.5133 14.6579 65.4941 14.5635 65.4941 14.4682C65.4941 14.3728 65.5133 14.2785 65.5504 14.1906C65.5875 14.1027 65.6419 14.023 65.7104 13.9563C65.8593 13.8238 66.0522 13.7505 66.2522 13.7505C66.4521 13.7505 66.645 13.8238 66.7939 13.9563C66.8621 14.0232 66.9162 14.1029 66.9532 14.1908C66.9902 14.2786 67.0092 14.3729 67.0092 14.4682C67.0092 14.5634 66.9902 14.6577 66.9532 14.7456C66.9162 14.8334 66.8621 14.9131 66.7939 14.9801C66.645 15.1126 66.4521 15.1858 66.2522 15.1858C66.0522 15.1858 65.8593 15.1126 65.7104 14.9801ZM66.8592 15.7633V20.6127H65.6282V15.7633H66.8592Z" fill="white"/>
  <path d="M70.7306 15.8987C70.9905 16.0293 71.2141 16.2214 71.3816 16.4582V15.7667H72.6205V20.6508C72.6276 21.0679 72.5341 21.4807 72.3479 21.8547C72.1642 22.2089 71.8788 22.5009 71.528 22.6939C71.1228 22.9112 70.6671 23.0185 70.2069 23.005C69.5131 23.005 68.9447 22.8446 68.5017 22.5238C68.2871 22.3732 68.1084 22.1776 67.9782 21.9508C67.848 21.724 67.7695 21.4716 67.7482 21.2113H68.9759C69.0423 21.4345 69.1922 21.6239 69.3948 21.7406C69.6315 21.877 69.9019 21.9449 70.1753 21.9364C70.3347 21.9433 70.4938 21.9186 70.6434 21.8639C70.7931 21.8091 70.9303 21.7254 71.0471 21.6175C71.2723 21.4049 71.385 21.0827 71.385 20.6508V19.8977C71.2144 20.136 70.9899 20.331 70.7295 20.4673C70.4349 20.6208 70.1059 20.6978 69.7733 20.691C69.3753 20.6945 68.9846 20.585 68.647 20.3755C68.3005 20.1594 68.0213 19.8518 67.8406 19.4871C67.6374 19.0779 67.5362 18.6262 67.5455 18.1701C67.5364 17.7183 67.6377 17.271 67.8406 16.8666C68.02 16.5063 68.2974 16.2032 68.6414 15.9916C68.9829 15.7864 69.3753 15.6802 69.7744 15.685C70.1058 15.6784 70.4339 15.7517 70.7306 15.8987ZM71.2059 17.4215C71.096 17.2178 70.9315 17.0481 70.7306 16.9315C70.535 16.8195 70.3132 16.7608 70.0875 16.7614C69.8607 16.7591 69.6376 16.8188 69.4426 16.9338C69.2476 17.0488 69.0881 17.2148 68.9815 17.4137C68.8563 17.646 68.7942 17.9067 68.8013 18.1701C68.795 18.4366 68.857 18.7004 68.9815 18.9366C69.0911 19.1438 69.2554 19.3175 69.4568 19.439C69.6466 19.5544 69.865 19.6152 70.0875 19.6146C70.3132 19.6152 70.535 19.5565 70.7306 19.4446C70.9318 19.3278 71.0964 19.1577 71.2059 18.9534C71.3215 18.7144 71.3815 18.4526 71.3815 18.1875C71.3815 17.9223 71.3215 17.6605 71.2059 17.4215Z" fill="white"/>
  <path d="M78.1124 18.5551H74.5444C74.5561 18.8666 74.6889 19.1614 74.9149 19.3775C75.1329 19.5769 75.4207 19.6837 75.7168 19.6752C75.9203 19.6875 76.1227 19.6382 76.2973 19.5337C76.4719 19.4292 76.6104 19.2744 76.6944 19.09H78.0201C77.8834 19.5507 77.599 19.9546 77.2103 20.2402C76.7836 20.5483 76.2654 20.7059 75.7382 20.6878C75.297 20.6947 74.8615 20.5875 74.4746 20.3767C74.1044 20.1733 73.8012 19.8679 73.6017 19.4973C73.388 19.0941 73.2807 18.6437 73.2897 18.1881C73.2795 17.7289 73.3856 17.2745 73.5983 16.8667C73.7936 16.4974 74.0935 16.1932 74.4611 15.9917C74.851 15.7917 75.2831 15.6866 75.722 15.6851C76.1608 15.6835 76.5937 15.7855 76.985 15.9827C77.3464 16.1754 77.6435 16.4686 77.8399 16.8264C78.0474 17.2126 78.1518 17.6452 78.1428 18.0829C78.1458 18.2409 78.1357 18.3988 78.1124 18.5551ZM76.8735 17.7327C76.8767 17.5895 76.848 17.4474 76.7896 17.3165C76.7313 17.1856 76.6445 17.0691 76.5356 16.9752C76.3071 16.7838 76.0156 16.6827 75.7168 16.691C75.4337 16.6827 75.158 16.7815 74.9454 16.9674C74.7284 17.1678 74.5923 17.4399 74.5624 17.7327H76.8735Z" fill="white"/>
  <path d="M82.9394 16.2401C83.2975 16.6049 83.4766 17.114 83.4766 17.7675V20.6129H82.2377V17.9342C82.2377 17.5493 82.1409 17.2539 81.9471 17.0458C81.8455 16.9413 81.7226 16.8595 81.5867 16.8059C81.4507 16.7523 81.3049 16.728 81.1587 16.7347C81.0099 16.7272 80.861 16.751 80.7221 16.8046C80.5831 16.8582 80.4571 16.9404 80.3523 17.0458C80.1552 17.2539 80.0573 17.5493 80.0573 17.9342V20.6129H78.8184V15.7635H80.0573V16.3677C80.2244 16.1548 80.4408 15.9852 80.688 15.8731C80.9509 15.7514 81.2381 15.6898 81.5282 15.693C82.1116 15.693 82.582 15.8754 82.9394 16.2401Z" fill="white"/>
  <path d="M84.421 16.8711C84.6165 16.5043 84.913 16.2005 85.2759 15.995C85.6576 15.7836 86.089 15.6766 86.526 15.685C87.1319 15.685 87.6331 15.8342 88.0296 16.1326C88.4355 16.4488 88.7172 16.8961 88.8259 17.397H87.4957C87.4344 17.1999 87.3108 17.0276 87.1432 16.9058C86.9611 16.7813 86.7436 16.7181 86.5226 16.7256C86.3616 16.718 86.2011 16.7486 86.0544 16.815C85.9077 16.8814 85.779 16.9815 85.6791 17.1072C85.4733 17.3608 85.3705 17.7211 85.3705 18.1881C85.3705 18.655 85.4733 19.0123 85.6791 19.26C85.7784 19.3845 85.9061 19.4839 86.0515 19.55C86.1969 19.6161 86.3561 19.6471 86.5159 19.6404C87.0144 19.6404 87.3403 19.4189 87.4935 18.9758H88.8236C88.7072 19.4712 88.4244 19.9124 88.0217 20.2267C87.623 20.5371 87.1237 20.6918 86.5238 20.6911C86.0867 20.6991 85.6553 20.5918 85.2736 20.38C84.9108 20.175 84.6143 19.8715 84.4188 19.505C84.2165 19.0951 84.1113 18.6446 84.1113 18.1881C84.1113 17.7315 84.2165 17.281 84.4188 16.8711H84.421Z" fill="white"/>
  <path d="M94.0116 18.5551H90.4447C90.4564 18.8666 90.5893 19.1614 90.8153 19.3775C91.0332 19.5769 91.321 19.6837 91.6172 19.6752C91.8206 19.6875 92.023 19.6382 92.1976 19.5337C92.3722 19.4292 92.5107 19.2744 92.5948 19.09H93.9249C93.787 19.5514 93.501 19.9553 93.1106 20.2402C92.6839 20.5483 92.1658 20.7059 91.6386 20.6878C91.1973 20.6947 90.7619 20.5875 90.3749 20.3767C90.005 20.1732 89.7023 19.8678 89.5032 19.4973C89.2881 19.0933 89.1803 18.6416 89.1901 18.1848C89.1828 17.726 89.2916 17.2728 89.5065 16.8667C89.7018 16.4974 90.0017 16.1932 90.3693 15.9917C90.7592 15.7917 91.1914 15.6866 91.6302 15.6851C92.069 15.6835 92.5019 15.7855 92.8932 15.9827C93.2546 16.1754 93.5517 16.4686 93.7481 16.8264C93.956 17.2125 94.0607 17.6451 94.0522 18.0829C94.0518 18.2412 94.0383 18.3991 94.0116 18.5551ZM92.7727 17.7327C92.7752 17.5891 92.7457 17.4467 92.6863 17.3158C92.6269 17.1848 92.5391 17.0685 92.4292 16.9752C92.2006 16.7838 91.9092 16.6827 91.6104 16.691C91.3273 16.6827 91.0516 16.7815 90.8389 16.9674C90.6219 17.1678 90.4858 17.4399 90.456 17.7327H92.7727Z" fill="white"/>
  <path d="M97.8424 19.6404H99.8697V20.6127H96.6035V14.5034H97.8424V19.6404Z" fill="white"/>
  <path d="M100.405 16.8667C100.585 16.5064 100.862 16.2033 101.206 15.9917C101.548 15.7865 101.94 15.6803 102.339 15.6851C102.671 15.6777 103 15.7527 103.295 15.9033C103.552 16.0365 103.776 16.2249 103.951 16.4549V15.7634H105.19V20.6128H103.951V19.9034C103.78 20.1389 103.555 20.3306 103.295 20.4629C102.997 20.6162 102.666 20.6931 102.33 20.6867C101.932 20.691 101.541 20.5815 101.204 20.3711C100.86 20.1534 100.583 19.8461 100.403 19.4827C100.2 19.0735 100.099 18.6219 100.108 18.1657C100.1 17.7152 100.202 17.2696 100.405 16.8667ZM103.775 17.4261C103.665 17.2223 103.501 17.0527 103.3 16.936C103.104 16.8241 102.882 16.7654 102.657 16.766C102.43 16.7637 102.207 16.8233 102.012 16.9384C101.817 17.0534 101.657 17.2194 101.551 17.4183C101.426 17.6506 101.363 17.9113 101.371 18.1747C101.364 18.4412 101.426 18.7049 101.551 18.9411C101.66 19.1484 101.825 19.3221 102.026 19.4435C102.216 19.5589 102.434 19.6197 102.657 19.6192C102.882 19.6198 103.104 19.5611 103.3 19.4491C103.501 19.3323 103.666 19.1623 103.775 18.9579C103.891 18.7189 103.951 18.4572 103.951 18.192C103.951 17.9269 103.891 17.6651 103.775 17.4261Z" fill="white"/>
  <path d="M108.069 15.9032C108.365 15.7537 108.693 15.6788 109.025 15.685C109.424 15.6799 109.816 15.7861 110.157 15.9915C110.501 16.2016 110.779 16.5032 110.959 16.8621C111.162 17.268 111.264 17.7168 111.254 18.1701C111.263 18.6262 111.162 19.0777 110.959 19.4871C110.779 19.8508 110.502 20.1582 110.157 20.3755C109.818 20.5862 109.425 20.6957 109.025 20.691C108.694 20.6986 108.365 20.6252 108.069 20.4773C107.809 20.3446 107.584 20.153 107.412 19.9179V20.6105H106.176V14.1353H107.415V16.4727C107.582 16.2316 107.807 16.0359 108.069 15.9032ZM109.814 17.4137C109.704 17.2107 109.539 17.0425 109.337 16.9281C109.143 16.8171 108.923 16.7595 108.699 16.7614C108.477 16.7612 108.26 16.8199 108.069 16.9314C107.868 17.0496 107.703 17.2207 107.594 17.426C107.475 17.6624 107.412 17.9231 107.412 18.1874C107.412 18.4518 107.475 18.7125 107.594 18.9489C107.703 19.1544 107.868 19.326 108.069 19.4446C108.26 19.5561 108.477 19.6148 108.699 19.6146C108.924 19.6161 109.145 19.5553 109.337 19.439C109.538 19.3184 109.703 19.1464 109.814 18.941C109.939 18.7034 110.001 18.4381 109.994 18.1701C110 17.9067 109.938 17.6462 109.814 17.4137Z" fill="white"/>
  <defs>
    <linearGradient id="paint0_linear_359_9465" x1="21.6318" y1="-7.25427" x2="-9.16535" y2="7.30066" gradientUnits="userSpaceOnUse">
      <stop stop-color="#FFBBAC"/>
      <stop offset="1" stop-color="#696DD4"/>
    </linearGradient>
  </defs>
</svg>