<svg width="15" height="19" viewBox="0 0 15 19" fill="none" xmlns="http://www.w3.org/2000/svg">
<path fill-rule="evenodd" clip-rule="evenodd" d="M6.14345 1.35364C6.90957 0.646443 8.09044 0.646446 8.85656 1.35364L14.6783 6.72753C15.0841 7.10213 15.1094 7.73479 14.7348 8.14061C14.3602 8.54644 13.7275 8.57174 13.3217 8.19714L7.50001 2.82324L1.67829 8.19714C1.27246 8.57174 0.639805 8.54644 0.265202 8.14061C-0.109402 7.73479 -0.0840959 7.10213 0.321725 6.72753L6.14345 1.35364Z" fill="#727272"/>
<path fill-rule="evenodd" clip-rule="evenodd" d="M7.5 1.4624C8.05228 1.4624 8.5 1.91012 8.5 2.4624L8.5 17.4624C8.5 18.0147 8.05228 18.4624 7.5 18.4624C6.94771 18.4624 6.5 18.0147 6.5 17.4624L6.5 2.4624C6.5 1.91012 6.94772 1.4624 7.5 1.4624Z" fill="#727272"/>
</svg>
