<svg width="19" height="19" viewBox="0 0 19 19" fill="none" xmlns="http://www.w3.org/2000/svg">
<g id="Frame 29049">
<rect x="0.0214844" y="0.0888672" width="18" height="18" rx="9" fill="#E7E7E7"/>
<path id="Vector" d="M9.02204 7.66028C8.54844 7.66028 8.09424 7.84842 7.75935 8.1833C7.42447 8.51819 7.23633 8.97239 7.23633 9.44599C7.23633 9.91959 7.42447 10.3738 7.75935 10.7087C8.09424 11.0436 8.54844 11.2317 9.02204 11.2317C9.49564 11.2317 9.94985 11.0436 10.2847 10.7087C10.6196 10.3738 10.8078 9.91959 10.8078 9.44599C10.8078 8.97239 10.6196 8.51819 10.2847 8.1833C9.94985 7.84842 9.49564 7.66028 9.02204 7.66028Z" fill="white"/>
<path id="Vector_2" fill-rule="evenodd" clip-rule="evenodd" d="M7.75672 4.83692C8.59929 4.79166 9.44368 4.79166 10.2862 4.83692C10.7467 4.86168 11.1577 5.11549 11.3967 5.49883L11.7877 6.12597C11.902 6.30835 12.0948 6.43216 12.3162 6.46406C12.5001 6.48978 12.6829 6.51787 12.8648 6.54835C13.5467 6.66216 14.0215 7.2593 14.0215 7.93359V11.946C14.0215 12.3248 13.871 12.6882 13.6031 12.9561C13.3352 13.224 12.9718 13.3745 12.5929 13.3745H5.45006C5.07118 13.3745 4.70781 13.224 4.4399 12.9561C4.17199 12.6882 4.02148 12.3248 4.02148 11.946V7.93359C4.02148 7.2593 4.49625 6.66216 5.17815 6.54835C5.36006 6.51787 5.54291 6.48978 5.72625 6.46359C5.83368 6.44921 5.93667 6.41149 6.02798 6.35309C6.11929 6.29468 6.19672 6.217 6.25482 6.12549L6.64625 5.4993C6.76458 5.3079 6.92728 5.14782 7.12057 5.0326C7.31387 4.91739 7.53207 4.84995 7.75672 4.83692ZM6.52148 9.44597C6.52148 8.78293 6.78488 8.14704 7.25372 7.6782C7.72256 7.20936 8.35844 6.94597 9.02148 6.94597C9.68453 6.94597 10.3204 7.20936 10.7893 7.6782C11.2581 8.14704 11.5215 8.78293 11.5215 9.44597C11.5215 10.109 11.2581 10.7449 10.7893 11.2137C10.3204 11.6826 9.68453 11.946 9.02148 11.946C8.35844 11.946 7.72256 11.6826 7.25372 11.2137C6.78488 10.7449 6.52148 10.109 6.52148 9.44597ZM12.2358 8.73168C12.3305 8.73168 12.4213 8.69405 12.4883 8.62708C12.5553 8.5601 12.5929 8.46926 12.5929 8.37454C12.5929 8.27982 12.5553 8.18898 12.4883 8.122C12.4213 8.05502 12.3305 8.0174 12.2358 8.0174C12.1411 8.0174 12.0502 8.05502 11.9832 8.122C11.9163 8.18898 11.8786 8.27982 11.8786 8.37454C11.8786 8.46926 11.9163 8.5601 11.9832 8.62708C12.0502 8.69405 12.1411 8.73168 12.2358 8.73168Z" fill="#A4A8AB"/>
</g>
</svg>
