<svg xmlns="http://www.w3.org/2000/svg" width="19" height="20" viewBox="0 0 19 20" fill="none">
  <path d="M5.34375 3.11047V4.89172M13.6563 3.11047V4.89172M2.375 15.5792V6.67297C2.375 6.20056 2.56267 5.74749 2.89672 5.41344C3.23077 5.07939 3.68383 4.89172 4.15625 4.89172H14.8438C15.3162 4.89172 15.7692 5.07939 16.1033 5.41344C16.4373 5.74749 16.625 6.20056 16.625 6.67297V15.5792M2.375 15.5792C2.375 16.0516 2.56267 16.5047 2.89672 16.8388C3.23077 17.1728 3.68383 17.3605 4.15625 17.3605H14.8438C15.3162 17.3605 15.7692 17.1728 16.1033 16.8388C16.4373 16.5047 16.625 16.0516 16.625 15.5792M2.375 15.5792V9.64172C2.375 9.16931 2.56267 8.71624 2.89672 8.38219C3.23077 8.04814 3.68383 7.86047 4.15625 7.86047H14.8438C15.3162 7.86047 15.7692 8.04814 16.1033 8.38219C16.4373 8.71624 16.625 9.16931 16.625 9.64172V15.5792M9.5 10.8292H9.50633V10.8356H9.5V10.8292ZM9.5 12.6105H9.50633V12.6168H9.5V12.6105ZM9.5 14.3917H9.50633V14.3981H9.5V14.3917ZM7.71875 12.6105H7.72508V12.6168H7.71875V12.6105ZM7.71875 14.3917H7.72508V14.3981H7.71875V14.3917ZM5.9375 12.6105H5.94383V12.6168H5.9375V12.6105ZM5.9375 14.3917H5.94383V14.3981H5.9375V14.3917ZM11.2813 10.8292H11.2876V10.8356H11.2813V10.8292ZM11.2813 12.6105H11.2876V12.6168H11.2813V12.6105ZM11.2813 14.3917H11.2876V14.3981H11.2813V14.3917ZM13.0625 10.8292H13.0688V10.8356H13.0625V10.8292ZM13.0625 12.6105H13.0688V12.6168H13.0625V12.6105Z" stroke="black" stroke-width="1.16248" stroke-linecap="round" stroke-linejoin="round"/>
</svg>