<svg xmlns="http://www.w3.org/2000/svg" width="47" height="35" viewBox="0 0 47 35" fill="none">
  <path d="M3.18036 34.9064H10.5777V16.9314L7.85324e-06 8.99109V31.7261C-0.000921876 32.144 0.0807087 32.558 0.240207 32.9442C0.399706 33.3305 0.633931 33.6815 0.92944 33.977C1.22495 34.2725 1.57591 34.5067 1.96219 34.6662C2.34847 34.8257 2.76245 34.9074 3.18036 34.9064Z" fill="#557EBF"/>
  <path d="M35.9648 34.9064H43.3692C44.2108 34.9064 45.018 34.5721 45.6131 33.977C46.2082 33.3819 46.5425 32.5747 46.5425 31.7331V8.99109L35.9648 16.9244V34.9064Z" fill="#36A852"/>
  <path d="M35.9648 3.18036V16.9243L46.5425 8.99104V4.75997C46.5425 3.87599 46.2964 3.00946 45.8316 2.2575C45.3669 1.50554 44.7019 0.897857 43.9113 0.502529C43.1206 0.1072 42.2355 -0.0601511 41.3551 0.0192354C40.4747 0.0986219 39.6338 0.421614 38.9266 0.952003L35.9648 3.18036Z" fill="#F9BC15"/>
  <path d="M10.5781 16.9314V3.18042L23.2714 12.6933L35.9646 3.18042V16.9244L23.2714 26.4372L10.5781 16.9314Z" fill="#EA4535"/>
  <path d="M0 4.76V8.99107L10.5777 16.9243V3.18039L7.61594 0.959081C6.90923 0.42905 6.06897 0.106134 5.18918 0.0264743C4.3094 -0.053185 3.42481 0.11356 2.63439 0.508035C1.84398 0.902511 1.17893 1.50916 0.713669 2.26009C0.248413 3.01103 0.00130799 3.87661 0 4.76Z" fill="#C52627"/>
</svg>