<svg xmlns="http://www.w3.org/2000/svg" width="26" height="25" viewBox="0 0 26 25" fill="none">
<path d="M12.7396 0C9.35958 0 8.93539 0.0147798 7.60786 0.0751946C6.28293 0.135869 5.37855 0.345635 4.58721 0.653413C3.76866 0.971304 3.0743 1.39654 2.38253 2.08859C1.69024 2.78038 1.26502 3.47476 0.946102 4.29308C0.637556 5.08469 0.427537 5.98936 0.367901 7.31382C0.308526 8.64139 0.292969 9.06584 0.292969 12.446C0.292969 15.8261 0.308007 16.249 0.368161 17.5765C0.429093 18.9015 0.638852 19.8059 0.946362 20.5973C1.2645 21.4159 1.68973 22.1102 2.38175 22.802C3.07326 23.4943 3.76762 23.9206 4.58566 24.2385C5.37751 24.5463 6.28215 24.7561 7.60682 24.8167C8.93435 24.8771 9.35828 24.8919 12.738 24.8919C16.1183 24.8919 16.5412 24.8771 17.8687 24.8167C19.1937 24.7561 20.0991 24.5463 20.8909 24.2385C21.7092 23.9206 22.4025 23.4943 23.0941 22.802C23.7863 22.1102 24.2116 21.4159 24.5305 20.5975C24.8364 19.8059 25.0465 18.9013 25.1087 17.5768C25.1683 16.2492 25.1839 15.8261 25.1839 12.446C25.1839 9.06584 25.1683 8.64164 25.1087 7.31408C25.0465 5.9891 24.8364 5.08469 24.5305 4.29334C24.2116 3.47476 23.7863 2.78038 23.0941 2.08859C22.4018 1.39628 21.7095 0.971044 20.8902 0.653413C20.0967 0.345635 19.1918 0.135869 17.8669 0.0751946C16.5394 0.0147798 16.1168 0 12.7357 0H12.7396ZM11.6231 2.24287C11.9545 2.24235 12.3242 2.24287 12.7396 2.24287C16.0626 2.24287 16.4564 2.25479 17.7686 2.31443C18.9821 2.36992 19.6407 2.57268 20.0794 2.74304C20.6602 2.96862 21.0742 3.23828 21.5096 3.67389C21.9452 4.1095 22.2148 4.52437 22.4409 5.10518C22.6113 5.54338 22.8143 6.20198 22.8695 7.41546C22.9292 8.72747 22.9421 9.12159 22.9421 12.4431C22.9421 15.7646 22.9292 16.1587 22.8695 17.4708C22.814 18.6842 22.6113 19.3428 22.4409 19.781C22.2153 20.3618 21.9452 20.7754 21.5096 21.2108C21.074 21.6464 20.6604 21.916 20.0794 22.1416C19.6412 22.3128 18.9821 22.515 17.7686 22.5705C16.4567 22.6301 16.0626 22.6431 12.7396 22.6431C9.41636 22.6431 9.02251 22.6301 7.71054 22.5705C6.49709 22.5145 5.83851 22.3117 5.39955 22.1414C4.81875 21.9158 4.4039 21.6461 3.96831 21.2105C3.53271 20.7749 3.26306 20.3611 3.03696 19.78C2.86661 19.3418 2.66359 18.6832 2.60837 17.4697C2.54873 16.1577 2.5368 15.7636 2.5368 12.44C2.5368 9.11641 2.54873 8.72436 2.60837 7.41235C2.66385 6.19887 2.86661 5.54027 3.03696 5.10155C3.26254 4.52074 3.53271 4.10587 3.96831 3.67026C4.4039 3.23465 4.81875 2.96499 5.39955 2.73889C5.83825 2.56776 6.49709 2.36551 7.71054 2.30976C8.85864 2.2579 9.30357 2.24235 11.6231 2.23975V2.24287ZM19.3829 4.30941C18.5584 4.30941 17.8895 4.97761 17.8895 5.80241C17.8895 6.62695 18.5584 7.29593 19.3829 7.29593C20.2075 7.29593 20.8764 6.62695 20.8764 5.80241C20.8764 4.97786 20.2075 4.30889 19.3829 4.30889V4.30941ZM12.7396 6.05444C9.20997 6.05444 6.34826 8.91623 6.34826 12.446C6.34826 15.9757 9.20997 18.8362 12.7396 18.8362C16.2692 18.8362 19.1299 15.9757 19.1299 12.446C19.1299 8.91623 16.269 6.05444 12.7393 6.05444H12.7396ZM12.7396 8.29731C15.0306 8.29731 16.8881 10.1546 16.8881 12.446C16.8881 14.7371 15.0306 16.5946 12.7396 16.5946C10.4483 16.5946 8.59106 14.7371 8.59106 12.446C8.59106 10.1546 10.4483 8.29731 12.7396 8.29731Z" fill="#363739"/>
</svg>