<svg xmlns="http://www.w3.org/2000/svg" width="22" height="22" viewBox="0 0 22 22" fill="none">
<path d="M3.20328 5.69221C4.6035 5.69221 5.7386 4.55711 5.7386 3.1569C5.7386 1.75668 4.6035 0.621582 3.20328 0.621582C1.80307 0.621582 0.667969 1.75668 0.667969 3.1569C0.667969 4.55711 1.80307 5.69221 3.20328 5.69221Z" fill="#363739"/>
<path d="M8.06052 7.56591H12.2624V9.4908C12.2624 9.4908 13.4026 7.21034 16.505 7.21034C19.2724 7.21034 21.565 8.57367 21.565 12.7292V21.492H17.2107V13.791C17.2107 11.3396 15.902 11.07 14.9047 11.07C12.835 11.07 12.4807 12.8552 12.4807 14.1107V21.492H8.06052V7.56591Z" fill="#363739"/>
<path d="M0.993185 7.56586H5.41339V21.4919H0.993185V7.56586Z" fill="#363739"/>
</svg>