<svg width="17" height="18" viewBox="0 0 17 18" fill="none" xmlns="http://www.w3.org/2000/svg">
<g id="Frame">
<path id="Vector" fill-rule="evenodd" clip-rule="evenodd" d="M14 4.6875C14 4.23995 13.8341 3.81072 13.5387 3.49426C13.2433 3.17779 12.8427 3 12.425 3H8.575C8.15728 3 7.75668 3.17779 7.46131 3.49426C7.16594 3.81072 7 4.23995 7 4.6875V6.1875C7 6.33668 7.05531 6.47976 7.15377 6.58525C7.25223 6.69074 7.38576 6.75 7.525 6.75C7.66424 6.75 7.79777 6.69074 7.89623 6.58525C7.99469 6.47976 8.05 6.33668 8.05 6.1875V4.6875C8.05 4.53832 8.10531 4.39524 8.20377 4.28975C8.30223 4.18426 8.43576 4.125 8.575 4.125H12.425C12.5642 4.125 12.6978 4.18426 12.7962 4.28975C12.8947 4.39524 12.95 4.53832 12.95 4.6875V13.3125C12.95 13.4617 12.8947 13.6048 12.7962 13.7102C12.6978 13.8157 12.5642 13.875 12.425 13.875H8.575C8.43576 13.875 8.30223 13.8157 8.20377 13.7102C8.10531 13.6048 8.05 13.4617 8.05 13.3125V11.8125C8.05 11.6633 7.99469 11.5202 7.89623 11.4148C7.79777 11.3093 7.66424 11.25 7.525 11.25C7.38576 11.25 7.25223 11.3093 7.15377 11.4148C7.05531 11.5202 7 11.6633 7 11.8125V13.3125C7 13.7601 7.16594 14.1893 7.46131 14.5057C7.75668 14.8222 8.15728 15 8.575 15H12.425C12.8427 15 13.2433 14.8222 13.5387 14.5057C13.8341 14.1893 14 13.7601 14 13.3125V4.6875Z" fill="#7B7B7B"/>
<path id="Vector_2" fill-rule="evenodd" clip-rule="evenodd" d="M12 9C12 8.86786 11.9392 8.74112 11.831 8.64768C11.7228 8.55424 11.5761 8.50175 11.4231 8.50175H4.07985L4.88602 7.87528C4.94412 7.83193 4.99162 7.779 5.02572 7.71959C5.05983 7.66018 5.07987 7.59549 5.08465 7.52931C5.08944 7.46313 5.07888 7.39679 5.05359 7.33417C5.02831 7.27156 4.98881 7.21394 4.9374 7.16468C4.886 7.11543 4.82373 7.07552 4.75424 7.04732C4.68475 7.01911 4.60944 7.00317 4.53272 7.00043C4.45601 6.99768 4.37943 7.00819 4.30748 7.03133C4.23552 7.05448 4.16964 7.08979 4.1137 7.13521L2.19058 8.62996C2.13059 8.67668 2.08263 8.73376 2.04979 8.7975C2.01696 8.86125 2 8.93024 2 9C2 9.06976 2.01696 9.13875 2.04979 9.20249C2.08263 9.26624 2.13059 9.32332 2.19058 9.37004L4.1137 10.8648C4.16964 10.9102 4.23552 10.9455 4.30748 10.9687C4.37943 10.9918 4.45601 11.0023 4.53272 10.9996C4.60944 10.9968 4.68475 10.9809 4.75424 10.9527C4.82373 10.9245 4.886 10.8846 4.9374 10.8353C4.98881 10.7861 5.02831 10.7284 5.05359 10.6658C5.07888 10.6032 5.08944 10.5369 5.08465 10.4707C5.07987 10.4045 5.05983 10.3398 5.02572 10.2804C4.99162 10.221 4.94412 10.1681 4.88602 10.1247L4.07985 9.49825H11.4231C11.4988 9.49825 11.5739 9.48536 11.6438 9.46032C11.7138 9.43529 11.7774 9.39858 11.831 9.35232C11.8846 9.30605 11.9271 9.25112 11.9561 9.19067C11.9851 9.13022 12 9.06543 12 9Z" fill="#7B7B7B"/>
</g>
</svg>
