<svg width="586" height="321" viewBox="0 0 586 321" fill="none" xmlns="http://www.w3.org/2000/svg">
<rect width="574.825" height="866.901" rx="287.413" transform="matrix(-1 0 0 1 574.826 80.3945)" fill="#5EB1AB"/>
<rect width="87.1943" height="87.1943" rx="43.5971" transform="matrix(-1 0 0 1 399.023 183.728)" fill="#F9FFFF"/>
<rect width="28.3381" height="28.3381" rx="14.1691" transform="matrix(-1 0 0 1 382.439 187.227)" fill="#262626"/>
<rect width="87.1943" height="87.1943" rx="43.5971" transform="matrix(-1 0 0 1 557.896 183.728)" fill="#F9FFFF"/>
<rect width="28.3381" height="28.3381" rx="14.1691" transform="matrix(-1 0 0 1 541.311 187.227)" fill="#262626"/>
<path fill-rule="evenodd" clip-rule="evenodd" d="M505.957 94.7524C509.517 96.9464 513.442 98.6824 517.673 99.8579C541.885 106.584 566.966 92.4079 573.691 68.1957C580.417 43.9836 566.241 18.9035 542.029 12.1778C517.817 5.45212 492.737 19.6277 486.011 43.8399C481.988 58.3234 485.444 73.1175 494.053 84.1075L486.659 102.221L505.957 94.7524Z" fill="#F5F6F9"/>
<path d="M524.11 50.5933H518.002V48.5661C518.002 45.9335 518.98 43.681 520.935 41.8086C522.89 39.9362 525.242 39 527.991 39C530.755 39 533.114 39.9362 535.069 41.8086C537.024 43.681 538.002 45.9335 538.002 48.5661C538.002 51.2128 537.024 53.4723 535.069 55.3447C533.923 56.4428 532.585 57.2241 531.056 57.6887V61.5954H524.948V53.0218H527.991C529.211 53.0218 530.174 52.5995 530.88 51.7548C531.512 50.9805 531.828 50.0372 531.828 48.9251C531.828 47.827 531.512 46.8908 530.88 46.1165C530.174 45.2718 529.211 44.8495 527.991 44.8495C526.918 44.8495 526.006 45.2155 525.257 45.9475C524.492 46.6655 524.11 47.5384 524.11 48.5661V50.5933ZM524.948 70H531.034V64.1717H524.948V70Z" fill="#36373A"/>
</svg>
