<svg width="171" height="410" viewBox="0 0 171 410" fill="none" xmlns="http://www.w3.org/2000/svg">
<rect y="227.896" width="245.581" height="370.364" rx="122.791" transform="rotate(-60.5728 0 227.896)" fill="#5EB1AB"/>
<g clip-path="url(#clip0_561_7824)">
<rect x="71.1621" y="191.6" width="37.2518" height="37.2518" rx="18.6259" transform="rotate(-60.5728 71.1621 191.6)" fill="#F9FFFF"/>
<rect x="78" y="191.786" width="12.1068" height="12.1068" rx="6.05342" transform="rotate(-60.5728 78 191.786)" fill="#262626"/>
</g>
<rect x="105.707" y="130.359" width="37.2518" height="37.2518" rx="18.6259" transform="rotate(-60.5728 105.707 130.359)" fill="#F9FFFF"/>
<rect x="112.547" y="130.545" width="12.1068" height="12.1068" rx="6.05342" transform="rotate(-60.5728 112.547 130.545)" fill="#262626"/>
<path fill-rule="evenodd" clip-rule="evenodd" d="M175.098 356.455C174.561 357.885 174.418 359.503 174.829 360.975C175.108 361.977 175.238 363.039 175.193 364.135C175.145 365.324 174.895 366.457 174.478 367.503C173.843 369.098 173.864 370.962 174.377 372.6C174.648 373.466 174.777 374.393 174.738 375.352C174.557 379.826 170.782 383.306 166.308 383.124C161.834 382.943 158.354 379.168 158.536 374.694C158.6 373.106 158.124 371.447 157.112 370.221C155.566 368.349 154.678 365.923 154.784 363.306C154.899 360.477 156.154 357.963 158.089 356.19C158.9 355.447 159.361 354.371 159.405 353.272C159.587 348.798 163.361 345.318 167.836 345.5C172.31 345.681 175.79 349.456 175.608 353.93C175.572 354.818 175.394 355.667 175.098 356.455Z" fill="#5EB1AB"/>
<path fill-rule="evenodd" clip-rule="evenodd" d="M175.098 11.4555C174.561 12.8851 174.418 14.5034 174.829 15.9745C175.108 16.9767 175.238 18.0391 175.193 19.1347C175.145 20.3239 174.895 21.4573 174.478 22.5034C173.843 24.0975 173.864 25.9622 174.377 27.5999C174.648 28.466 174.777 29.3928 174.738 30.3517C174.557 34.826 170.782 38.3058 166.308 38.1242C161.834 37.9425 158.354 34.1682 158.536 29.694C158.6 28.1059 158.124 26.4467 157.112 25.2212C155.566 23.3493 154.678 20.9228 154.784 18.3062C154.899 15.477 156.154 12.9634 158.089 11.1905C158.9 10.4472 159.361 9.37142 159.405 8.27217C159.587 3.79796 163.361 0.318136 167.836 0.499764C172.31 0.681393 175.79 4.4557 175.608 8.92991C175.572 9.81788 175.394 10.6667 175.098 11.4555Z" fill="#5EB1AB"/>
<defs>
<clipPath id="clip0_561_7824">
<rect x="71.1621" y="191.6" width="37.2518" height="37.2518" rx="18.6259" transform="rotate(-60.5728 71.1621 191.6)" fill="white"/>
</clipPath>
</defs>
</svg>
