<svg width="238" height="410" viewBox="0 0 238 410" fill="none" xmlns="http://www.w3.org/2000/svg">
<path fill-rule="evenodd" clip-rule="evenodd" d="M89.2168 121.155C90.3778 117.138 91 112.892 91 108.5C91 83.371 70.629 63 45.5 63C20.371 63 0 83.371 0 108.5C0 133.629 20.371 154 45.5 154C60.5321 154 73.8616 146.71 82.1464 135.473L101.578 137.75L89.2168 121.155Z" fill="#F5F6F9"/>
<path d="M22.4652 113H20.3747L20.3897 104.967L17.4182 104.952V103.145H25.4515V104.952L22.4801 104.967L22.4652 113ZM29.0613 113H26.8813V103.145H28.9866V107.221C29.3749 105.967 30.659 105.295 31.9133 105.28C33.9589 105.265 35.5268 106.744 35.5268 109.252V113H33.4363V109.237C33.4363 107.804 32.4657 106.982 31.2563 106.997C30.0617 107.012 29.0613 107.834 29.0613 109.237V113ZM40.6897 113.149C38.5395 113.164 36.9567 111.432 36.9567 109.252C36.9567 106.744 38.5245 105.265 40.5851 105.28C41.8394 105.295 43.1235 105.967 43.5118 107.221V105.43H45.6022V113H43.5118V111.178C43.1534 112.358 41.929 113.134 40.6897 113.149ZM41.2421 111.402C42.4068 111.387 43.4222 110.521 43.4222 109.237C43.4222 107.849 42.4217 107.012 41.2421 106.997C40.0327 106.982 39.0472 107.804 39.0472 109.237C39.0472 110.536 40.0476 111.432 41.2421 111.402ZM49.2122 113H47.0322V105.43H49.1375V107.221C49.5258 105.967 50.8099 105.295 52.0642 105.28C54.1098 105.265 55.6777 106.744 55.6777 109.252V113H53.5872V109.237C53.5872 107.804 52.6166 106.982 51.4072 106.997C50.2126 107.012 49.2122 107.834 49.2122 109.237V113ZM59.1981 113H57.1076L57.1225 103.145H59.213V108.132L62.0351 105.519H64.3047L61.2586 108.595L64.7378 113H62.4681L59.7953 109.685L59.1981 110.238V113ZM68.3544 113.149C66.5626 113.105 65.0545 112.089 65.0395 110.387H66.9508C67.0255 111.223 67.6377 111.596 68.3843 111.626C68.9965 111.641 69.5489 111.343 69.5639 110.82C69.5788 110.267 69.2055 110.014 68.2947 109.864C66.3685 109.625 65.0843 109.177 65.0545 107.625C65.0246 106.206 66.3237 105.28 68.1453 105.28C70.0267 105.28 71.4751 106.206 71.5349 108.013H69.6236C69.5788 107.311 69.0263 106.833 68.22 106.818C67.5331 106.803 67.0852 107.177 67.0852 107.699C67.1001 108.207 67.4734 108.506 68.4589 108.685C70.5942 109.058 71.5797 109.387 71.5647 110.954C71.5647 112.433 70.191 113.194 68.3544 113.149Z" fill="#36373A"/>
<rect x="64" y="227.896" width="245.581" height="370.364" rx="122.791" transform="rotate(-60.5728 64 227.896)" fill="#5EB1AB"/>
<g clip-path="url(#clip0_2138_8490)">
<rect x="135.162" y="191.6" width="37.2518" height="37.2518" rx="18.6259" transform="rotate(-60.5728 135.162 191.6)" fill="#F9FFFF"/>
<rect x="142" y="191.786" width="12.1068" height="12.1068" rx="6.05342" transform="rotate(-60.5728 142 191.786)" fill="#262626"/>
</g>
<rect x="169.707" y="130.359" width="37.2518" height="37.2518" rx="18.6259" transform="rotate(-60.5728 169.707 130.359)" fill="#F9FFFF"/>
<rect x="176.547" y="130.545" width="12.1068" height="12.1068" rx="6.05342" transform="rotate(-60.5728 176.547 130.545)" fill="#262626"/>
<path fill-rule="evenodd" clip-rule="evenodd" d="M239.098 356.456C238.561 357.885 238.419 359.504 238.829 360.975C239.108 361.977 239.238 363.039 239.193 364.135C239.145 365.323 238.896 366.457 238.479 367.502C237.843 369.097 237.865 370.961 238.378 372.599C238.649 373.465 238.778 374.392 238.739 375.352C238.558 379.826 234.783 383.306 230.309 383.124C225.835 382.942 222.355 379.168 222.537 374.694V374.694C222.601 373.106 222.125 371.447 221.113 370.222C219.566 368.35 218.678 365.923 218.784 363.306C218.899 360.476 220.155 357.963 222.09 356.19C222.901 355.447 223.361 354.371 223.406 353.272V353.272C223.587 348.798 227.362 345.318 231.836 345.5C236.31 345.681 239.79 349.456 239.608 353.93C239.572 354.818 239.395 355.667 239.098 356.456Z" fill="#5EB1AB"/>
<path fill-rule="evenodd" clip-rule="evenodd" d="M239.098 11.4558C238.561 12.8854 238.419 14.5037 238.829 15.9748C239.108 16.9769 239.238 18.0391 239.193 19.1346C239.145 20.3234 238.896 21.4565 238.479 22.5024C237.843 24.0966 237.865 25.9613 238.378 27.599C238.649 28.4653 238.778 29.3923 238.739 30.3515C238.558 34.8258 234.783 38.3056 230.309 38.124C225.835 37.9423 222.355 34.168 222.537 29.6938V29.6938C222.601 28.106 222.125 26.4474 221.113 25.2222C219.566 23.3502 218.678 20.9232 218.784 18.3061C218.899 15.4765 220.155 12.9626 222.09 11.1897C222.901 10.4467 223.361 9.37117 223.406 8.27218V8.27218C223.587 3.79796 227.362 0.318139 231.836 0.499767C236.31 0.681396 239.79 4.4557 239.608 8.92991C239.572 9.81801 239.395 10.6669 239.098 11.4558Z" fill="#5EB1AB"/>
<defs>
<clipPath id="clip0_2138_8490">
<rect x="135.162" y="191.6" width="37.2518" height="37.2518" rx="18.6259" transform="rotate(-60.5728 135.162 191.6)" fill="white"/>
</clipPath>
</defs>
</svg>
