<svg xmlns="http://www.w3.org/2000/svg" width="25" height="24" viewBox="0 0 25 24" fill="none">
  <path d="M16.9812 4.33001C17.5809 4.69941 18.1354 5.13772 18.6332 5.63602C19.1432 6.14602 19.5772 6.70002 19.9392 7.28802M16.9812 4.33001L13.5332 8.46802M16.9812 4.33001C15.5633 3.46056 13.9324 3.00037 12.2692 3.00037C10.6059 3.00037 8.97509 3.46056 7.55718 4.33001M19.9392 7.28802L15.8012 10.736M19.9392 7.28802C20.8086 8.70593 21.2688 10.3368 21.2688 12C21.2688 13.6633 20.8086 15.2941 19.9392 16.712M13.5332 8.46802C14.0554 8.65472 14.5295 8.95532 14.9212 9.34801C15.3139 9.73963 15.6145 10.2138 15.8012 10.736M13.5332 8.46802C12.7157 8.17666 11.8227 8.17666 11.0052 8.46802M7.55718 4.33001L11.0052 8.46802M7.55718 4.33001C6.95743 4.69938 6.40299 5.1377 5.90518 5.63602C5.40687 6.13383 4.96856 6.68827 4.59918 7.28802M15.8012 10.736C16.0925 11.5535 16.0925 12.4465 15.8012 13.264M19.9392 16.712L15.8012 13.264M19.9392 16.712C19.5698 17.3117 19.1315 17.8662 18.6332 18.364C18.1232 18.874 17.5692 19.308 16.9812 19.67M15.8012 13.264C15.6202 13.77 15.3262 14.246 14.9212 14.652C14.5296 15.0447 14.0554 15.3453 13.5332 15.532M11.0052 8.46802C10.4829 8.65469 10.0088 8.95529 9.61718 9.34801C9.21218 9.75401 8.91818 10.23 8.73718 10.736M13.5332 15.532L16.9812 19.67M13.5332 15.532C12.7157 15.8234 11.8227 15.8234 11.0052 15.532M16.9812 19.67C15.5633 20.5395 13.9324 20.9997 12.2692 20.9997C10.6059 20.9997 8.97509 20.5395 7.55718 19.67M7.55718 19.67L11.0052 15.532M7.55718 19.67C6.95743 19.3006 6.40299 18.8623 5.90518 18.364C5.40689 17.8662 4.96857 17.3117 4.59918 16.712M11.0052 15.532C10.4829 15.3453 10.0088 15.0447 9.61718 14.652C9.22448 14.2604 8.92388 13.7862 8.73718 13.264M8.73718 13.264L4.59918 16.712M8.73718 13.264C8.44582 12.4465 8.44582 11.5535 8.73718 10.736M4.59918 16.712C3.72972 15.2941 3.26953 13.6633 3.26953 12C3.26953 10.3368 3.72972 8.70593 4.59918 7.28802M4.59918 7.28802L8.73718 10.736" stroke="#7B7B7B" stroke-width="1.5" stroke-linecap="round" stroke-linejoin="round"/>
</svg>