<svg width="17" height="18" viewBox="0 0 17 18" fill="none" xmlns="http://www.w3.org/2000/svg">
<g id="Frame">
<path id="Vector" d="M12.6246 13.6365C12.1429 12.9987 11.5196 12.4814 10.8039 12.1255C10.0882 11.7695 9.29966 11.5846 8.50034 11.5854C7.70102 11.5846 6.91245 11.7695 6.19676 12.1255C5.48106 12.4814 4.85778 12.9987 4.37604 13.6365M12.6246 13.6365C13.5647 12.8003 14.2277 11.6981 14.527 10.4761C14.8262 9.25407 14.747 7.96993 14.2997 6.794C13.8523 5.61806 13.0581 4.60588 12.0223 3.89169C10.9866 3.1775 9.75814 2.79504 8.5 2.79504C7.24186 2.79504 6.01344 3.1775 4.97766 3.89169C3.94187 4.60588 3.14766 5.61806 2.70034 6.794C2.25303 7.96993 2.17375 9.25407 2.47302 10.4761C2.77229 11.6981 3.43597 12.8003 4.37604 13.6365M12.6246 13.6365C11.4898 14.6487 10.021 15.2072 8.50034 15.205C6.97943 15.2073 5.51104 14.6489 4.37604 13.6365M10.5687 7.44865C10.5687 7.99721 10.3508 8.5233 9.96289 8.9112C9.575 9.29909 9.04891 9.51701 8.50034 9.51701C7.95178 9.51701 7.42568 9.29909 7.03779 8.9112C6.6499 8.5233 6.43198 7.99721 6.43198 7.44865C6.43198 6.90008 6.6499 6.37399 7.03779 5.9861C7.42568 5.5982 7.95178 5.38029 8.50034 5.38029C9.04891 5.38029 9.575 5.5982 9.96289 5.9861C10.3508 6.37399 10.5687 6.90008 10.5687 7.44865Z" stroke="#7B7B7B" stroke-linecap="round" stroke-linejoin="round"/>
</g>
</svg>
