<svg xmlns="http://www.w3.org/2000/svg" width="25" height="24" viewBox="0 0 25 24" fill="none">
  <path d="M18.252 18.7249C17.5533 17.7998 16.6493 17.0496 15.6112 16.5333C14.5731 16.0171 13.4294 15.7489 12.27 15.7499C11.1107 15.7489 9.96692 16.0171 8.92885 16.5333C7.89078 17.0496 6.98677 17.7998 6.28803 18.7249M18.252 18.7249C19.6155 17.5121 20.5771 15.9135 21.0112 14.141C21.4453 12.3686 21.3303 10.506 20.6815 8.80043C20.0327 7.09482 18.8808 5.62673 17.3784 4.59085C15.8761 3.55497 14.0944 3.00024 12.2695 3.00024C10.4447 3.00024 8.66297 3.55497 7.16064 4.59085C5.65831 5.62673 4.50636 7.09482 3.85757 8.80043C3.20877 10.506 3.09378 12.3686 3.52785 14.141C3.96192 15.9135 4.92453 17.5121 6.28803 18.7249M18.252 18.7249C16.6061 20.1931 14.4757 21.0031 12.27 20.9999C10.0641 21.0033 7.93427 20.1934 6.28803 18.7249M15.27 9.74995C15.27 10.5456 14.954 11.3087 14.3914 11.8713C13.8287 12.4339 13.0657 12.7499 12.27 12.7499C11.4744 12.7499 10.7113 12.4339 10.1487 11.8713C9.5861 11.3087 9.27003 10.5456 9.27003 9.74995C9.27003 8.9543 9.5861 8.19124 10.1487 7.62863C10.7113 7.06602 11.4744 6.74995 12.27 6.74995C13.0657 6.74995 13.8287 7.06602 14.3914 7.62863C14.954 8.19124 15.27 8.9543 15.27 9.74995Z" stroke="url(#paint0_linear_1039_9035)" stroke-width="1.5" stroke-linecap="round" stroke-linejoin="round"/>
  <defs>
    <linearGradient id="paint0_linear_1039_9035" x1="22.6791" y1="0.805055" x2="-0.700551" y2="25.5799" gradientUnits="userSpaceOnUse">
      <stop stop-color="#B6AFFF"/>
      <stop offset="1" stop-color="#1861EE"/>
    </linearGradient>
  </defs>
</svg>