<svg width="10" height="11" viewBox="0 0 10 11" fill="none" xmlns="http://www.w3.org/2000/svg">
<g id="Union">
<path d="M4.19539 1.29698C4.19539 1.03907 4.4045 0.829956 4.66241 0.829956C4.92032 0.829956 5.12943 1.03907 5.12943 1.29698V1.764C5.12943 2.02191 4.92032 2.23102 4.66241 2.23102C4.4045 2.23102 4.19539 2.02191 4.19539 1.764V1.29698Z" fill="#FFB648"/>
<path fill-rule="evenodd" clip-rule="evenodd" d="M4.66241 7.83529C5.95208 7.83529 6.99752 6.78985 6.99752 5.50018C6.99752 4.21051 5.95208 3.16507 4.66241 3.16507C3.37274 3.16507 2.3273 4.21051 2.3273 5.50018C2.3273 6.78985 3.37274 7.83529 4.66241 7.83529ZM4.66241 6.90124C5.4362 6.90124 6.06348 6.27397 6.06348 5.50018C6.06348 4.72639 5.4362 4.09911 4.66241 4.09911C3.88862 4.09911 3.26134 4.72639 3.26134 5.50018C3.26134 6.27397 3.88862 6.90124 4.66241 6.90124Z" fill="#FFB648"/>
<path d="M4.66241 8.76933C4.4045 8.76933 4.19539 8.97844 4.19539 9.23635V9.70338C4.19539 9.96129 4.4045 10.1704 4.66241 10.1704C4.92032 10.1704 5.12943 9.96129 5.12943 9.70338V9.23635C5.12943 8.97844 4.92032 8.76933 4.66241 8.76933Z" fill="#FFB648"/>
<path d="M1.36007 2.8583C1.17764 2.67587 1.17764 2.38022 1.36007 2.19779C1.54245 2.01541 1.83816 2.01541 2.02053 2.19779L2.35073 2.52804C2.53316 2.71042 2.53316 3.00612 2.35073 3.1885C2.16836 3.37087 1.87265 3.37087 1.69027 3.1885L1.36007 2.8583Z" fill="#FFB648"/>
<path d="M6.97403 7.8118C6.79166 7.99417 6.79166 8.28988 6.97403 8.47226L7.30429 8.80251C7.48666 8.98489 7.78237 8.98489 7.96474 8.80251C8.14712 8.62014 8.14712 8.32443 7.96474 8.14206L7.63449 7.8118C7.45211 7.62943 7.1564 7.62943 6.97403 7.8118Z" fill="#FFB648"/>
<path d="M0.45921 5.9672C0.201298 5.9672 -0.0078125 5.75809 -0.0078125 5.50018C-0.0078125 5.24227 0.201298 5.03316 0.45921 5.03316H0.926232C1.18414 5.03316 1.39325 5.24227 1.39325 5.50018C1.39325 5.75809 1.18414 5.9672 0.926232 5.9672H0.45921Z" fill="#FFB648"/>
<path d="M7.93156 5.50018C7.93156 5.75809 8.14067 5.9672 8.39859 5.9672H8.86561C9.12352 5.9672 9.33263 5.75809 9.33263 5.50018C9.33263 5.24227 9.12352 5.03316 8.86561 5.03316H8.39859C8.14067 5.03316 7.93156 5.24227 7.93156 5.50018Z" fill="#FFB648"/>
<path d="M1.74272 8.55965C1.54518 8.72543 1.25056 8.69967 1.08478 8.50213C0.918992 8.30453 0.94476 8.00996 1.14235 7.84412L1.50009 7.54397C1.69768 7.37819 1.99225 7.40395 2.15809 7.60149C2.32388 7.79909 2.29811 8.09366 2.10051 8.2595L1.74272 8.55965Z" fill="#FFB648"/>
<path d="M7.16672 3.39875C7.33251 3.59634 7.62708 3.62211 7.82467 3.45633L8.18241 3.15612C8.38 2.99033 8.40577 2.69576 8.23999 2.49817C8.0742 2.30057 7.77963 2.27481 7.58204 2.44065L7.22425 2.7408C7.02671 2.90659 7.00094 3.20121 7.16672 3.39875Z" fill="#FFB648"/>
<path d="M6.06348 5.50018C6.06348 6.27397 5.4362 6.90124 4.66241 6.90124C3.88862 6.90124 3.26134 6.27397 3.26134 5.50018C3.26134 4.72639 3.88862 4.09911 4.66241 4.09911C5.4362 4.09911 6.06348 4.72639 6.06348 5.50018Z" fill="#FFB648"/>
</g>
</svg>
