<svg width="102" height="91" viewBox="0 0 102 91" fill="none" xmlns="http://www.w3.org/2000/svg">
<path fill-rule="evenodd" clip-rule="evenodd" d="M89.2168 58.1554C90.3778 54.1378 91 49.8916 91 45.5C91 20.371 70.6289 0 45.5 0C20.3711 0 0 20.371 0 45.5C0 70.629 20.3711 91 45.5 91C60.5321 91 73.8616 83.7104 82.1464 72.4734L101.578 74.75L89.2168 58.1554Z" fill="#F5F6F9"/>
<path d="M22.4652 50H20.3747L20.3897 41.9667L17.4182 41.9518V40.145H25.4515V41.9518L22.4801 41.9667L22.4652 50ZM29.0613 50H26.8813V40.145H28.9866V44.2214C29.3749 42.9671 30.659 42.2952 31.9133 42.2803C33.9589 42.2653 35.5268 43.7436 35.5268 46.2521V50H33.4363V46.2372C33.4363 44.8037 32.4657 43.9825 31.2563 43.9974C30.0617 44.0124 29.0613 44.8336 29.0613 46.2372V50ZM40.6897 50.1493C38.5395 50.1642 36.9567 48.4322 36.9567 46.2521C36.9567 43.7436 38.5245 42.2653 40.5851 42.2803C41.8394 42.2952 43.1235 42.9671 43.5118 44.2214V42.4296H45.6022V50H43.5118V48.1783C43.1534 49.3579 41.929 50.1344 40.6897 50.1493ZM41.2421 48.4023C42.4068 48.3874 43.4222 47.5213 43.4222 46.2372C43.4222 44.8485 42.4217 44.0124 41.2421 43.9974C40.0327 43.9825 39.0472 44.8037 39.0472 46.2372C39.0472 47.5363 40.0476 48.4322 41.2421 48.4023ZM49.2122 50H47.0322V42.4296H49.1375V44.2214C49.5258 42.9671 50.8099 42.2952 52.0642 42.2803C54.1098 42.2653 55.6777 43.7436 55.6777 46.2521V50H53.5872V46.2372C53.5872 44.8037 52.6166 43.9825 51.4072 43.9974C50.2126 44.0124 49.2122 44.8336 49.2122 46.2372V50ZM59.1981 50H57.1076L57.1225 40.145H59.213V45.1322L62.0351 42.5192H64.3047L61.2586 45.5951L64.7378 50H62.4681L59.7953 46.6851L59.1981 47.2376V50ZM68.3544 50.1493C66.5626 50.1045 65.0545 49.0892 65.0395 47.3869H66.9508C67.0255 48.2231 67.6377 48.5964 68.3843 48.6263C68.9965 48.6412 69.5489 48.3426 69.5639 47.82C69.5788 47.2675 69.2055 47.0136 68.2947 46.8643C66.3685 46.6254 65.0843 46.1775 65.0545 44.6246C65.0246 43.206 66.3237 42.2803 68.1453 42.2803C70.0267 42.2803 71.4751 43.206 71.5349 45.0128H69.6236C69.5788 44.311 69.0263 43.8332 68.22 43.8182C67.5331 43.8033 67.0852 44.1766 67.0852 44.6992C67.1001 45.2069 67.4734 45.5055 68.4589 45.6847C70.5942 46.058 71.5797 46.3865 71.5647 47.9543C71.5647 49.4326 70.191 50.1941 68.3544 50.1493Z" fill="#36373A"/>
</svg>
