<svg xmlns="http://www.w3.org/2000/svg" width="20" height="23" viewBox="0 0 20 23" fill="none">
<path fill-rule="evenodd" clip-rule="evenodd" d="M10.219 8.46329C10.2063 17.2934 10.24 16.4434 9.87433 17.1751C9.13151 18.6618 7.40216 19.3403 5.81294 18.7687C4.88901 18.4364 4.14522 17.6712 3.82097 16.7194C3.71802 16.4172 3.70791 16.3311 3.70665 15.7456C3.70543 15.1764 3.71659 15.0704 3.8049 14.8133C4.22355 13.5946 5.20815 12.7448 6.42332 12.5532C6.8074 12.4927 7.47243 12.521 7.76422 12.6103L7.9635 12.6713V10.8573V9.04339L7.84645 9.02027C7.29632 8.91158 6.21871 8.95745 5.44631 9.12241C2.17364 9.82135 -0.133648 12.7358 0.00601336 15.9942C0.0191866 16.3019 0.0698658 16.7564 0.118657 17.0044C0.663165 19.773 2.88756 21.9231 5.7219 22.4206C6.42038 22.5432 7.45091 22.5432 8.14939 22.4206C9.14128 22.2465 10.2017 21.8056 11.0238 21.2254C11.5349 20.8647 12.2293 20.1799 12.5894 19.6813C12.9203 19.2231 13.4084 18.2725 13.5578 17.7955C13.87 16.798 13.8782 16.649 13.8785 11.9458L13.8789 7.79377L14.2129 8.03012C15.1524 8.69467 16.4281 9.23777 17.5882 9.46699C18.1701 9.58197 18.7877 9.65457 19.1843 9.65457H19.4586V7.87892V6.10328L19.0706 6.0797C16.6594 5.93323 14.5565 4.17188 14.0134 1.84394C13.9656 1.63883 13.9151 1.35914 13.9011 1.2224C13.8873 1.08566 13.866 0.89456 13.8538 0.797684L13.8318 0.621582H12.031H10.2302L10.219 8.46329Z" fill="#363739"/>
</svg>