<svg xmlns="http://www.w3.org/2000/svg" width="26" height="19" viewBox="0 0 26 19" fill="none">
<path fill-rule="evenodd" clip-rule="evenodd" d="M22.8708 0.792438C23.9703 1.08846 24.8372 1.9554 25.1333 3.05492C25.683 5.06367 25.6619 9.25032 25.6619 9.25032C25.6619 9.25032 25.6619 13.4158 25.1333 15.4246C24.8372 16.5241 23.9703 17.391 22.8708 17.6871C20.862 18.2157 12.827 18.2157 12.827 18.2157C12.827 18.2157 4.81318 18.2157 2.78329 17.6659C1.68376 17.3699 0.816831 16.503 0.520805 15.4034C-0.0078125 13.4158 -0.0078125 9.22918 -0.0078125 9.22918C-0.0078125 9.22918 -0.0078125 5.06367 0.520805 3.05492C0.816831 1.9554 1.70491 1.06732 2.78329 0.771294C4.79204 0.242676 12.827 0.242676 12.827 0.242676C12.827 0.242676 20.862 0.242676 22.8708 0.792438ZM16.9474 9.08222L10.2656 12.9306V5.23389L16.9474 9.08222Z" fill="#363739"/>
</svg>