<svg width="312" height="312" viewBox="0 0 312 312" fill="none" xmlns="http://www.w3.org/2000/svg">
<rect y="0.106049" width="312" height="311" rx="17" fill="white"/>
<g clip-path="url(#clip0_1998_8143)">
<rect x="8.37695" y="8.10605" width="295" height="189" rx="10" fill="#FFDE8A"/>
<path d="M147.901 85.3919L56.707 89.2145L71.4509 101.956L227.264 93.0371L246.377 81.9334L147.901 85.3919Z" fill="#345E5B"/>
<path fill-rule="evenodd" clip-rule="evenodd" d="M241.827 42.0942C240.93 43.5025 240.412 45.2018 240.519 46.8683C240.592 48.0035 240.491 49.1692 240.196 50.3312C239.876 51.5928 239.353 52.7492 238.671 53.7744C237.631 55.3367 237.233 57.3366 237.412 59.2047C237.507 60.1926 237.436 61.2134 237.178 62.2306C235.974 66.9768 231.15 69.8482 226.404 68.6442C221.658 67.4402 218.786 62.6166 219.99 57.8704C220.418 56.1854 220.282 54.3024 219.476 52.7625C218.245 50.4109 217.842 47.6144 218.546 44.839C219.308 41.8373 221.219 39.4309 223.69 37.9706C224.725 37.3588 225.46 36.3121 225.756 35.1465C226.96 30.4003 231.783 27.5288 236.53 28.7328C241.276 29.9369 244.147 34.7605 242.943 39.5067C242.704 40.4488 242.323 41.317 241.827 42.0942Z" fill="#5EB1AB"/>
<path d="M237.164 50.3275C294.652 60.1045 348.928 65.4946 354.288 120.246C358.185 160.052 315.901 193.104 289.324 203.394" stroke="#5EB1AB" stroke-width="23.9315"/>
<path fill-rule="evenodd" clip-rule="evenodd" d="M184.992 80.4565C173.825 77.0227 161.989 83.2918 158.555 94.459C155.121 105.626 161.39 117.463 172.557 120.896C173.29 121.121 174.025 121.305 174.76 121.448C177.696 124.822 181.58 127.444 186.17 128.855C188.629 129.612 191.116 129.966 193.56 129.957C195.577 131.338 197.834 132.442 200.293 133.198C202.939 134.012 205.616 134.361 208.238 134.292C210.369 135.822 212.78 137.038 215.426 137.851C221.358 139.676 227.451 139.165 232.716 136.842C241.794 138.113 250.708 132.647 253.488 123.605C256.269 114.563 251.966 105.032 243.743 100.983C240.692 96.1038 235.939 92.2575 230.006 90.4334C227.361 89.6199 224.683 89.2709 222.061 89.3398C219.931 87.8094 217.519 86.5935 214.874 85.78C212.414 85.0238 209.927 84.6689 207.483 84.678C205.466 83.2972 203.21 82.1935 200.75 81.4373C196.112 80.0111 191.376 80.0124 187.014 81.1907C186.36 80.915 185.685 80.6696 184.992 80.4565Z" fill="#FF97BC"/>
<path fill-rule="evenodd" clip-rule="evenodd" d="M172.009 91.361C169.57 79.9352 158.331 72.65 146.905 75.0891C135.479 77.5281 128.194 88.7677 130.633 100.193C130.793 100.943 130.991 101.674 131.224 102.386C129.706 106.593 129.308 111.262 130.31 115.958C130.848 118.475 131.749 120.821 132.948 122.952C132.724 125.385 132.859 127.894 133.396 130.409C133.974 133.116 134.973 135.625 136.31 137.881C136.011 140.487 136.123 143.186 136.701 145.893C137.997 151.962 141.41 157.035 146.001 160.502C149.311 169.05 158.427 174.174 167.679 172.199C176.929 170.224 183.158 161.827 182.691 152.674C185.468 147.633 186.513 141.607 185.217 135.537C184.639 132.83 183.64 130.321 182.303 128.065C182.603 125.459 182.49 122.76 181.912 120.053C181.375 117.536 180.474 115.19 179.275 113.059C179.499 110.626 179.364 108.117 178.827 105.602C177.814 100.856 175.506 96.7199 172.352 93.4837C172.275 92.7782 172.161 92.07 172.009 91.361Z" fill="#FF97BC"/>
<path fill-rule="evenodd" clip-rule="evenodd" d="M151.264 70.7565C141.994 77.8684 140.246 91.1478 147.357 100.417C154.469 109.686 167.749 111.435 177.018 104.323C177.626 103.857 178.201 103.364 178.744 102.848C183.195 102.41 187.583 100.764 191.393 97.8404C193.435 96.2739 195.166 94.4522 196.574 92.4544C198.868 91.6108 201.075 90.4111 203.116 88.8451C205.312 87.1601 207.148 85.1797 208.612 83.0026C211.093 82.153 213.481 80.8923 215.677 79.2074C220.601 75.4294 223.715 70.1671 224.873 64.5302C231.168 57.8682 231.877 47.436 226.119 39.9311C220.36 32.4261 210.1 30.4105 202.036 34.766C196.291 34.4252 190.402 36.0707 185.478 39.8487C183.282 41.5338 181.446 43.5141 179.983 45.6913C177.501 46.5408 175.113 47.8016 172.917 49.4864C170.876 51.0529 169.145 52.8746 167.736 54.8724C165.443 55.716 163.236 56.9156 161.195 58.4817C157.345 61.4351 154.602 65.2958 153.035 69.5333C152.431 69.9071 151.839 70.3147 151.264 70.7565Z" fill="#8D83FF"/>
<path d="M167.222 96.1873L165.329 97.8543L162.545 88.991L164.263 87.4771L172.724 91.3394L170.842 92.9979L168.653 92.0117L166.509 93.8998L167.222 96.1873ZM165.472 90.5617L165.894 91.9557L166.801 91.1563L165.472 90.5617ZM175.009 89.3264L173.291 90.8403L167.677 84.4689L169.396 82.955L175.009 89.3264ZM181.087 84.143C179.591 85.4613 177.437 85.6441 176.048 84.1069C174.652 82.5418 175.031 80.4419 176.605 79.0555C177.821 77.9839 179.345 77.6701 180.584 78.2589L179.423 80.3277C178.937 80.0873 178.351 80.1231 177.898 80.5229C177.28 81.0672 177.326 81.9179 177.845 82.5068C178.364 83.0956 179.176 83.22 179.785 82.6841C180.258 82.2674 180.367 81.6909 180.18 81.1868L182.396 80.3151C182.807 81.5991 182.352 83.0288 181.087 84.143ZM186.075 79.5767L184.193 81.2352L178.58 74.8638L180.385 73.2734L182.656 75.8509C182.126 74.8602 182.613 73.7789 183.319 73.1399C184.577 71.9979 186.395 72.0765 187.841 73.7176L189.975 76.1406L188.17 77.7311L186.027 75.2984C185.432 74.6226 184.614 74.5709 184.014 75.1346C183.424 75.6715 183.337 76.4682 183.932 77.144L186.075 79.5767ZM192.983 73.6625C191.619 74.8981 189.64 74.6361 188.398 73.2267C186.952 71.5856 187.103 69.772 188.404 68.6601C189.117 68.0489 190.261 67.6928 191.167 68.3518L190.198 67.2513L192.003 65.6608L196.315 70.5552L194.52 72.1371L193.541 71.027C194.004 71.9222 193.679 73.032 192.983 73.6625ZM192.175 71.7336C192.746 71.2136 192.834 70.3988 192.289 69.781C191.694 69.1052 190.893 69.091 190.286 69.6087C189.651 70.1337 189.599 70.9508 190.195 71.6266C190.756 72.2637 191.584 72.2887 192.175 71.7336ZM200.03 70.0088L198.225 71.5992L192.577 65.1892L194.373 63.6073L195.342 64.7078C194.879 63.8125 195.205 62.7027 195.891 62.0807C197.264 60.8367 199.235 61.1071 200.476 62.5166C201.914 64.148 201.763 65.9616 200.471 67.065C199.758 67.6762 198.614 68.0323 197.708 67.3733L200.03 70.0088ZM198.59 66.1164C199.215 65.5999 199.266 64.7828 198.671 64.107C198.11 63.4699 197.29 63.4545 196.709 64.0011C196.138 64.5211 196.05 65.3359 196.586 65.9441C197.181 66.6199 197.964 66.6329 198.59 66.1164ZM205.313 59.6958L206.934 61.0107C205.989 62.8379 203.656 63.848 202.023 61.9945L200.755 60.5561L200.08 61.1515L198.71 59.5972C199.483 58.9168 199.012 58.5771 198.161 57.6118L199.966 56.0213L201.201 57.4029L202.301 56.4333L203.671 57.9876L202.561 58.9657L203.607 60.1531C204.168 60.7902 204.82 60.5762 205.313 59.6958ZM210.124 58.5605C208.753 59.7683 206.614 60.0067 205.202 58.4042C203.671 56.6666 204.271 54.6808 205.642 53.4731C207.022 52.2569 208.822 52.1975 210.219 53.4527C210.418 53.6202 210.639 53.8712 210.789 54.0995L207.208 57.2549C207.723 57.6065 208.368 57.5014 208.84 57.1028C209.273 56.7383 209.475 56.2861 209.412 55.8446L211.33 55.3551C211.532 56.4801 211.109 57.693 210.124 58.5605ZM206.51 56.1716L208.267 54.6236C207.842 54.4326 207.288 54.5435 206.901 54.9018C206.543 55.2165 206.365 55.7339 206.51 56.1716ZM215.106 53.9996L213.205 55.6751L208.893 50.7807L210.707 49.1817L211.702 50.3112C210.968 48.9521 212.021 47.2867 213.623 47.0416L213.932 49.3584C212.921 49.2032 212.138 50.6305 212.946 51.5475L215.106 53.9996Z" fill="white"/>
<path fill-rule="evenodd" clip-rule="evenodd" d="M167.795 147.302C177.995 153 190.882 149.35 196.58 139.151C202.278 128.951 198.628 116.064 188.429 110.366C187.759 109.992 187.078 109.659 186.389 109.364C184.225 105.45 180.977 102.073 176.785 99.7312C174.539 98.4763 172.181 97.6081 169.789 97.1048C168.106 95.332 166.131 93.7798 163.885 92.5249C161.469 91.1754 158.924 90.273 156.347 89.7909C154.584 87.8479 152.481 86.1536 150.065 84.8035C144.647 81.7769 138.582 80.9996 132.947 82.1666C124.338 79.0217 114.476 82.4989 109.863 90.7574C105.25 99.0154 107.459 109.235 114.65 114.918C116.61 120.329 120.452 125.086 125.871 128.113C128.286 129.463 130.831 130.365 133.409 130.847C135.171 132.79 137.274 134.484 139.691 135.834C141.937 137.089 144.295 137.958 146.687 138.461C148.37 140.234 150.345 141.786 152.591 143.041C156.828 145.407 161.46 146.399 165.972 146.161C166.554 146.567 167.162 146.948 167.795 147.302Z" fill="#FF97BC"/>
<path fill-rule="evenodd" clip-rule="evenodd" d="M126.248 146.826C136.448 152.524 149.335 148.875 155.033 138.675C160.731 128.475 157.081 115.588 146.882 109.89C146.212 109.516 145.532 109.183 144.842 108.889C142.678 104.974 139.43 101.597 135.238 99.2554C132.992 98.0005 130.634 97.1322 128.242 96.629C126.559 94.8561 124.584 93.3039 122.338 92.0491C119.922 90.6995 117.378 89.7972 114.8 89.315C113.037 87.372 110.934 85.6777 108.518 84.3277C103.1 81.3011 97.0351 80.5238 91.4005 81.6908C82.7909 78.5459 72.9293 82.023 68.3158 90.2816C63.7027 98.5395 65.9118 108.759 73.1027 114.442C75.0631 119.853 78.9051 124.61 84.3237 127.637C86.7396 128.987 89.2841 129.889 91.8617 130.371C93.6241 132.314 95.7272 134.009 98.144 135.359C100.39 136.614 102.748 137.482 105.14 137.985C106.823 139.758 108.798 141.31 111.044 142.565C115.281 144.932 119.913 145.923 124.426 145.685C125.007 146.091 125.615 146.473 126.248 146.826Z" fill="#FF97BC"/>
<path fill-rule="evenodd" clip-rule="evenodd" d="M56.4603 88.9584C34.3159 112.9 20.7832 144.923 20.7832 180.107V316.556C20.7832 390.712 80.8982 450.827 155.054 450.827C229.209 450.827 289.324 390.712 289.324 316.556V180.107C289.324 141.29 272.853 106.32 246.517 81.806L158.435 91.6041C153.83 92.1163 149.194 92.2899 144.564 92.1236L56.4603 88.9584Z" fill="#5EB1AB"/>
<g clip-path="url(#clip1_1998_8143)">
<rect x="93.5879" y="94.1104" width="40.7345" height="40.7345" rx="20.3673" fill="#F9FFFF"/>
<rect x="112.182" y="94.1104" width="13.2387" height="13.2387" rx="6.61936" fill="#262626"/>
</g>
<rect x="170.473" y="94.1104" width="40.7345" height="40.7345" rx="20.3673" fill="#F9FFFF"/>
<rect x="189.066" y="94.1104" width="13.2387" height="13.2387" rx="6.61936" fill="#262626"/>
<rect x="74.127" y="139.93" width="141.731" height="67.7172" fill="#5EB1AB"/>
<path fill-rule="evenodd" clip-rule="evenodd" d="M-46.804 59.0474C-16.8714 84.0038 20.7149 93.7247 56.536 89.064L-10.7324 28.5901C-13.4943 26.1072 -16.4395 23.8363 -19.5431 21.7966L-94.0199 -27.1504C-89.8971 5.34395 -73.9462 36.4175 -46.804 59.0474Z" fill="#5EB1AB"/>
</g>
<path d="M20.5767 226.342H18.3367L18.3527 217.734L15.1687 217.718V215.782H23.7767V217.718L20.5927 217.734L20.5767 226.342ZM27.6447 226.342H25.3087V215.782H27.5647V220.15C27.9807 218.806 29.3567 218.086 30.7007 218.07C32.8927 218.054 34.5727 219.638 34.5727 222.326V226.342H32.3327V222.31C32.3327 220.774 31.2927 219.894 29.9967 219.91C28.7167 219.926 27.6447 220.806 27.6447 222.31V226.342ZM37.321 217.478C36.697 217.478 36.105 217.126 36.105 216.566C36.105 216.022 36.697 215.67 37.321 215.67C37.929 215.67 38.521 216.022 38.521 216.566C38.521 217.126 37.929 217.478 37.321 217.478ZM38.425 226.342H36.185V218.23H38.425V226.342ZM43.6095 226.502C41.6895 226.454 40.0735 225.366 40.0575 223.542H42.1055C42.1855 224.438 42.8415 224.838 43.6415 224.87C44.2975 224.886 44.8895 224.566 44.9055 224.006C44.9215 223.414 44.5215 223.142 43.5455 222.982C41.4815 222.726 40.1055 222.246 40.0735 220.582C40.0415 219.062 41.4335 218.07 43.3855 218.07C45.4015 218.07 46.9535 219.062 47.0175 220.998H44.9695C44.9215 220.246 44.3295 219.734 43.4655 219.718C42.7295 219.702 42.2495 220.102 42.2495 220.662C42.2655 221.206 42.6655 221.526 43.7215 221.718C46.0095 222.118 47.0655 222.47 47.0495 224.15C47.0495 225.734 45.5775 226.55 43.6095 226.502ZM54.4597 217.478C53.8357 217.478 53.2437 217.126 53.2437 216.566C53.2437 216.022 53.8357 215.67 54.4597 215.67C55.0677 215.67 55.6597 216.022 55.6597 216.566C55.6597 217.126 55.0677 217.478 54.4597 217.478ZM55.5637 226.342H53.3237V218.23H55.5637V226.342ZM60.7482 226.502C58.8282 226.454 57.2122 225.366 57.1962 223.542H59.2442C59.3242 224.438 59.9802 224.838 60.7802 224.87C61.4362 224.886 62.0282 224.566 62.0442 224.006C62.0602 223.414 61.6602 223.142 60.6842 222.982C58.6202 222.726 57.2442 222.246 57.2122 220.582C57.1802 219.062 58.5722 218.07 60.5242 218.07C62.5402 218.07 64.0922 219.062 64.1562 220.998H62.1082C62.0602 220.246 61.4682 219.734 60.6042 219.718C59.8682 219.702 59.3882 220.102 59.3882 220.662C59.4042 221.206 59.8042 221.526 60.8602 221.718C63.1482 222.118 64.2042 222.47 64.1882 224.15C64.1882 225.734 62.7162 226.55 60.7482 226.502ZM71.5985 217.478C70.9745 217.478 70.3825 217.126 70.3825 216.566C70.3825 216.022 70.9745 215.67 71.5985 215.67C72.2065 215.67 72.7985 216.022 72.7985 216.566C72.7985 217.126 72.2065 217.478 71.5985 217.478ZM72.7025 226.342H70.4625V218.23H72.7025V226.342ZM76.671 226.342H74.335V218.23H76.591V220.15C77.007 218.806 78.383 218.086 79.727 218.07C81.919 218.054 83.599 219.638 83.599 222.326V226.342H81.359V222.31C81.359 220.774 80.319 219.894 79.023 219.91C77.743 219.926 76.671 220.806 76.671 222.31V226.342ZM88.7152 226.342H86.4752V221.51H85.1312V219.67H86.4752V218.918C86.4752 215.974 89.4192 215.094 91.5792 215.958L91.2272 217.894C89.9632 217.382 88.7152 217.654 88.7152 218.982V219.67H90.8912V221.51H88.7312L88.7152 226.342ZM96.784 226.502C94.336 226.502 92.256 224.822 92.24 222.326C92.224 219.718 94.24 218.07 96.784 218.07C99.376 218.07 101.376 219.718 101.36 222.326C101.344 224.79 99.44 226.502 96.784 226.502ZM96.768 224.662C98.08 224.662 99.104 223.686 99.104 222.31C99.104 220.934 98.112 219.91 96.784 219.91C95.488 219.91 94.48 220.886 94.48 222.31C94.48 223.638 95.488 224.662 96.768 224.662ZM105.248 226.342H102.896V218.23H105.152V220.294C105.6 218.55 107.712 217.75 109.376 218.518L108.192 220.358C107.12 219.686 105.248 220.582 105.248 222.31V226.342ZM113.247 226.342H110.911V218.23H113.151V220.15C113.439 218.87 114.719 218.086 115.919 218.07C117.375 218.054 118.463 218.806 118.959 220.182C119.471 218.854 120.767 218.054 122.079 218.07C124.143 218.102 125.615 219.542 125.615 222.118V226.342H123.359V222.118C123.359 220.774 122.607 219.894 121.375 219.91C120.143 219.926 119.439 220.79 119.439 222.134V226.342H117.199V222.118C117.199 220.758 116.431 219.878 115.215 219.91C114.047 219.942 113.263 220.902 113.263 222.102L113.247 226.342ZM131.144 226.502C128.84 226.518 127.144 224.662 127.144 222.326C127.144 219.638 128.824 218.054 131.032 218.07C132.376 218.086 133.752 218.806 134.168 220.15V218.23H136.408V226.342H134.168V224.39C133.784 225.654 132.472 226.486 131.144 226.502ZM131.736 224.63C132.984 224.614 134.072 223.686 134.072 222.31C134.072 220.822 133 219.926 131.736 219.91C130.44 219.894 129.384 220.774 129.384 222.31C129.384 223.702 130.456 224.662 131.736 224.63ZM143.829 224.214L144.181 226.134C142.037 227.014 139.173 226.118 139.173 223.19V220.07H137.941V218.134C139.349 218.118 139.173 217.318 139.173 215.782H141.413L141.429 218.134H143.605V220.07H141.413V222.902C141.413 224.246 142.565 224.71 143.829 224.214ZM146.953 217.478C146.329 217.478 145.737 217.126 145.737 216.566C145.737 216.022 146.329 215.67 146.953 215.67C147.561 215.67 148.153 216.022 148.153 216.566C148.153 217.126 147.561 217.478 146.953 217.478ZM148.057 226.342H145.817V218.23H148.057V226.342ZM154.233 226.502C151.785 226.502 149.705 224.822 149.689 222.326C149.673 219.718 151.689 218.07 154.233 218.07C156.825 218.07 158.825 219.718 158.809 222.326C158.793 224.79 156.889 226.502 154.233 226.502ZM154.217 224.662C155.529 224.662 156.553 223.686 156.553 222.31C156.553 220.934 155.561 219.91 154.233 219.91C152.937 219.91 151.929 220.886 151.929 222.31C151.929 223.638 152.937 224.662 154.217 224.662ZM162.681 226.342H160.345V218.23H162.601V220.15C163.017 218.806 164.393 218.086 165.737 218.07C167.929 218.054 169.609 219.638 169.609 222.326V226.342H167.369V222.31C167.369 220.774 166.329 219.894 165.033 219.91C163.753 219.926 162.681 220.806 162.681 222.31V226.342ZM179.781 226.502C177.477 226.518 175.781 224.662 175.781 222.326C175.781 219.638 177.461 218.054 179.669 218.07C181.013 218.086 182.389 218.806 182.805 220.15V218.23H185.045V226.342H182.805V224.39C182.421 225.654 181.109 226.486 179.781 226.502ZM180.373 224.63C181.621 224.614 182.709 223.686 182.709 222.31C182.709 220.822 181.637 219.926 180.373 219.91C179.077 219.894 178.021 220.774 178.021 222.31C178.021 223.702 179.093 224.662 180.373 224.63ZM191.841 226.502C190.513 226.486 189.217 225.654 188.817 224.39V226.342H186.577V215.782H188.833V220.15C189.249 218.806 190.625 218.086 191.969 218.07C194.161 218.054 195.841 219.638 195.841 222.326C195.841 224.662 194.161 226.518 191.841 226.502ZM191.265 224.63C192.529 224.662 193.601 223.702 193.601 222.31C193.601 220.774 192.561 219.894 191.265 219.91C189.985 219.926 188.913 220.806 188.913 222.31C188.913 223.686 190.001 224.614 191.265 224.63ZM201.918 226.502C199.47 226.502 197.39 224.822 197.374 222.326C197.358 219.718 199.374 218.07 201.918 218.07C204.51 218.07 206.51 219.718 206.494 222.326C206.478 224.79 204.574 226.502 201.918 226.502ZM201.902 224.662C203.214 224.662 204.238 223.686 204.238 222.31C204.238 220.934 203.246 219.91 201.918 219.91C200.622 219.91 199.614 220.886 199.614 222.31C199.614 223.638 200.622 224.662 201.902 224.662ZM211.645 226.502C209.517 226.518 208.029 225.03 208.029 222.454V218.23H210.285V222.454C210.285 223.814 211.053 224.678 212.333 224.662C213.645 224.63 214.429 223.638 214.429 222.214V218.23H216.765V226.342H214.509V224.342C214.189 225.814 212.845 226.486 211.645 226.502ZM224.182 224.214L224.534 226.134C222.39 227.014 219.526 226.118 219.526 223.19V220.07H218.294V218.134C219.702 218.118 219.526 217.318 219.526 215.782H221.766L221.782 218.134H223.958V220.07H221.766V222.902C221.766 224.246 222.918 224.71 224.182 224.214ZM19.7127 242.502C17.2647 242.502 15.1847 240.822 15.1687 238.326C15.1527 235.718 17.1687 234.07 19.7127 234.07C22.3047 234.07 24.3047 235.718 24.2887 238.326C24.2727 240.79 22.3687 242.502 19.7127 242.502ZM19.6967 240.662C21.0087 240.662 22.0327 239.686 22.0327 238.31C22.0327 236.934 21.0407 235.91 19.7127 235.91C18.4167 235.91 17.4087 236.886 17.4087 238.31C17.4087 239.638 18.4167 240.662 19.6967 240.662ZM29.4403 242.502C27.3123 242.518 25.8243 241.03 25.8243 238.454V234.23H28.0803V238.454C28.0803 239.814 28.8483 240.678 30.1283 240.662C31.4403 240.63 32.2243 239.638 32.2243 238.214V234.23H34.5603V242.342H32.3043V240.342C31.9843 241.814 30.6403 242.486 29.4403 242.502ZM38.4413 242.342H36.0893V234.23H38.3453V236.294C38.7933 234.55 40.9053 233.75 42.5693 234.518L41.3853 236.358C40.3133 235.686 38.4413 236.582 38.4413 238.31V242.342ZM53.2883 242.502C50.8403 242.502 48.7603 240.838 48.7443 238.326C48.7283 235.718 50.7443 234.07 53.2883 234.07C55.2243 234.07 56.8563 235.03 57.4963 236.518L55.4163 237.286C55.0483 236.454 54.2323 235.91 53.2883 235.91C51.9923 235.91 50.9843 236.918 50.9843 238.31C50.9843 239.654 51.9923 240.662 53.2723 240.662C54.2643 240.662 55.0643 240.086 55.4323 239.27L57.5123 240.038C56.8403 241.526 55.2723 242.502 53.2883 242.502ZM63.5846 242.502C61.1366 242.502 59.0566 240.822 59.0406 238.326C59.0246 235.718 61.0406 234.07 63.5846 234.07C66.1766 234.07 68.1766 235.718 68.1606 238.326C68.1446 240.79 66.2406 242.502 63.5846 242.502ZM63.5686 240.662C64.8806 240.662 65.9046 239.686 65.9046 238.31C65.9046 236.934 64.9126 235.91 63.5846 235.91C62.2886 235.91 61.2806 236.886 61.2806 238.31C61.2806 239.638 62.2886 240.662 63.5686 240.662ZM73.3122 242.502C71.1842 242.518 69.6962 241.03 69.6962 238.454V234.23H71.9522V238.454C71.9522 239.814 72.7202 240.678 74.0002 240.662C75.3122 240.63 76.0962 239.638 76.0962 238.214V234.23H78.4322V242.342H76.1762V240.342C75.8562 241.814 74.5122 242.486 73.3122 242.502ZM82.3132 242.342H79.9612V234.23H82.2172V236.294C82.6652 234.55 84.7772 233.75 86.4412 234.518L85.2572 236.358C84.1852 235.686 82.3132 236.582 82.3132 238.31V242.342ZM90.9032 242.502C88.9832 242.454 87.3672 241.366 87.3512 239.542H89.3992C89.4792 240.438 90.1352 240.838 90.9352 240.87C91.5912 240.886 92.1832 240.566 92.1992 240.006C92.2152 239.414 91.8152 239.142 90.8392 238.982C88.7752 238.726 87.3992 238.246 87.3672 236.582C87.3352 235.062 88.7272 234.07 90.6792 234.07C92.6952 234.07 94.2472 235.062 94.3112 236.998H92.2632C92.2152 236.246 91.6232 235.734 90.7592 235.718C90.0232 235.702 89.5432 236.102 89.5432 236.662C89.5592 237.206 89.9592 237.526 91.0152 237.718C93.3032 238.118 94.3592 238.47 94.3432 240.15C94.3432 241.734 92.8712 242.55 90.9032 242.502ZM100.265 242.502C97.9935 242.502 95.8975 240.87 95.8975 238.31C95.8975 235.51 97.9935 234.07 100.265 234.07C102.505 234.07 104.281 235.494 104.521 237.926C104.553 238.182 104.553 238.502 104.521 238.774H98.0255C98.1855 239.926 99.2095 240.662 100.265 240.662C101.113 240.678 101.913 240.31 102.313 239.622L103.993 240.47C103.257 241.734 101.865 242.502 100.265 242.502ZM98.1855 237.542L102.409 237.526C102.201 236.502 101.241 235.862 100.265 235.878C99.3215 235.878 98.3935 236.502 98.1855 237.542ZM109.621 242.502C107.701 242.454 106.085 241.366 106.069 239.542H108.117C108.197 240.438 108.853 240.838 109.653 240.87C110.309 240.886 110.901 240.566 110.917 240.006C110.933 239.414 110.533 239.142 109.557 238.982C107.493 238.726 106.117 238.246 106.085 236.582C106.053 235.062 107.445 234.07 109.397 234.07C111.413 234.07 112.965 235.062 113.029 236.998H110.981C110.933 236.246 110.341 235.734 109.477 235.718C108.741 235.702 108.261 236.102 108.261 236.662C108.277 237.206 108.677 237.526 109.733 237.718C112.021 238.118 113.077 238.47 113.061 240.15C113.061 241.734 111.589 242.55 109.621 242.502Z" fill="#36373A"/>
<path d="M17.7324 268.446H16.7244V259.206H17.8724L21.1624 266.71L24.5364 259.206H25.6704V268.446H24.6764V261.012L21.4844 268.446H20.8264L17.7324 261.012V268.446ZM30.9022 268.586C28.8022 268.586 27.1082 267.018 27.0942 264.932C27.0942 262.664 28.7602 261.208 30.9022 261.208C33.0862 261.208 34.7522 262.664 34.7522 264.932C34.7382 267.018 33.1002 268.586 30.9022 268.586ZM30.8882 267.732C32.3862 267.732 33.7582 266.626 33.7582 264.932C33.7582 263.182 32.4702 262.048 30.9022 262.048C29.4042 262.048 28.0882 263.112 28.0882 264.932C28.0882 266.542 29.4182 267.732 30.8882 267.732ZM37.2149 268.446H36.1789V261.348H37.1729V263.42C37.5789 262.062 39.1329 261.194 40.5189 261.446L40.0569 262.286C38.7969 262.104 37.2149 263.168 37.2149 264.946V268.446ZM44.3248 268.586C42.3648 268.586 40.6288 267.046 40.6288 264.918C40.6288 262.566 42.3648 261.208 44.3248 261.208C46.2148 261.208 47.8388 262.44 48.0068 264.736V265.17L41.5808 265.184C41.6928 266.696 43.0508 267.732 44.3248 267.746C45.2768 267.746 46.2708 267.284 46.7748 266.374L47.5448 266.78C46.9148 267.928 45.6828 268.586 44.3248 268.586ZM41.6508 264.54H47.0548C46.9008 262.972 45.6268 262.034 44.3248 262.034C43.0368 262.034 41.7768 262.972 41.6508 264.54ZM56.8461 268.586C54.7881 268.6 53.2201 266.99 53.2201 264.932C53.2201 262.608 54.7741 261.194 56.8041 261.208C58.1901 261.208 59.4361 261.992 59.9261 263.154V259.206H60.9341V268.446H59.9401V266.598C59.4641 267.76 58.2041 268.586 56.8461 268.586ZM57.0421 267.732C58.5261 267.718 59.8981 266.57 59.8981 264.932C59.8981 263.098 58.5121 262.062 57.0421 262.048C55.5581 262.048 54.2141 263.014 54.2141 264.932C54.2141 266.584 55.5721 267.732 57.0421 267.732ZM66.0555 268.586C64.0955 268.586 62.3595 267.046 62.3595 264.918C62.3595 262.566 64.0955 261.208 66.0555 261.208C67.9455 261.208 69.5695 262.44 69.7375 264.736V265.17L63.3115 265.184C63.4235 266.696 64.7815 267.732 66.0555 267.746C67.0075 267.746 68.0015 267.284 68.5055 266.374L69.2755 266.78C68.6455 267.928 67.4135 268.586 66.0555 268.586ZM63.3815 264.54H68.7855C68.6315 262.972 67.3575 262.034 66.0555 262.034C64.7675 262.034 63.5075 262.972 63.3815 264.54ZM75.0863 267.368L75.3103 268.222C73.7283 268.936 71.4043 268.25 71.4043 265.884V262.188H70.1863V261.306C71.5863 261.306 71.4043 260.466 71.4043 259.206H72.3983L72.4123 261.306H74.7643V262.188H72.3983V265.8C72.3983 267.354 73.8823 267.928 75.0863 267.368ZM79.5611 268.586C77.5031 268.6 75.9351 266.99 75.9351 264.932C75.9351 262.608 77.4891 261.194 79.5191 261.208C80.9051 261.208 82.1511 261.992 82.6411 263.154V261.348H83.6491V268.446H82.6551V266.598C82.1791 267.76 80.9191 268.586 79.5611 268.586ZM79.7571 267.732C81.2411 267.718 82.6131 266.57 82.6131 264.932C82.6131 263.126 81.2271 262.062 79.7571 262.048C78.2731 262.048 76.9291 263.014 76.9291 264.932C76.9291 266.584 78.2871 267.732 79.7571 267.732ZM85.7185 260.228C85.3825 260.228 85.0745 260.004 85.0745 259.696C85.0745 259.374 85.3825 259.164 85.7185 259.164C86.0545 259.164 86.3485 259.374 86.3485 259.696C86.3485 260.004 86.0545 260.228 85.7185 260.228ZM86.2085 268.446H85.2145V261.348H86.2085V268.446ZM88.7824 268.446H87.7744V259.206H88.7824V268.446ZM93.9105 268.586C91.9505 268.586 90.2145 267.046 90.2145 264.918C90.2145 262.566 91.9505 261.208 93.9105 261.208C95.8005 261.208 97.4245 262.44 97.5925 264.736V265.17L91.1665 265.184C91.2785 266.696 92.6365 267.732 93.9105 267.746C94.8625 267.746 95.8565 267.284 96.3605 266.374L97.1305 266.78C96.5005 267.928 95.2685 268.586 93.9105 268.586ZM91.2365 264.54H96.6405C96.4865 262.972 95.2125 262.034 93.9105 262.034C92.6225 262.034 91.3625 262.972 91.2365 264.54ZM102.652 268.586C100.594 268.6 99.0258 266.99 99.0258 264.932C99.0258 262.608 100.58 261.194 102.61 261.208C103.996 261.208 105.242 261.992 105.732 263.154V259.206H106.74V268.446H105.746V266.598C105.27 267.76 104.01 268.586 102.652 268.586ZM102.848 267.732C104.332 267.718 105.704 266.57 105.704 264.932C105.704 263.098 104.318 262.062 102.848 262.048C101.364 262.048 100.02 263.014 100.02 264.932C100.02 266.584 101.378 267.732 102.848 267.732ZM112.589 260.228C112.253 260.228 111.945 260.004 111.945 259.696C111.945 259.374 112.253 259.164 112.589 259.164C112.925 259.164 113.219 259.374 113.219 259.696C113.219 260.004 112.925 260.228 112.589 260.228ZM113.079 268.446H112.085V261.348H113.079V268.446ZM115.681 268.446H114.645V261.348H115.653V263.154C116.143 261.992 117.389 261.208 118.775 261.208C120.805 261.194 122.359 262.608 122.359 264.932V268.446H121.351L121.365 264.932C121.379 263.014 120.021 262.048 118.537 262.048C117.067 262.062 115.681 263.098 115.681 264.932V268.446ZM126.038 268.446H125.044V263.518H123.784V262.678H125.044V261.684C125.044 259.318 127.396 258.632 128.978 259.346L128.754 260.2C127.55 259.64 126.038 260.144 126.038 261.698V262.678H128.404V263.518H126.052L126.038 268.446ZM133.232 268.586C131.132 268.586 129.438 267.018 129.424 264.932C129.424 262.664 131.09 261.208 133.232 261.208C135.416 261.208 137.082 262.664 137.082 264.932C137.068 267.018 135.43 268.586 133.232 268.586ZM133.218 267.732C134.716 267.732 136.088 266.626 136.088 264.932C136.088 263.182 134.8 262.048 133.232 262.048C131.734 262.048 130.418 263.112 130.418 264.932C130.418 266.542 131.748 267.732 133.218 267.732ZM139.545 268.446H138.509V261.348H139.503V263.42C139.909 262.062 141.463 261.194 142.849 261.446L142.387 262.286C141.127 262.104 139.545 263.168 139.545 264.946V268.446ZM145.307 268.446H144.285V261.348H145.279V263.154C145.531 262.104 146.609 261.222 147.743 261.208C149.073 261.194 150.095 261.922 150.445 263.224C150.795 262.006 151.859 261.194 153.091 261.208C154.897 261.222 156.059 262.44 156.059 264.568V268.446H155.051V264.582C155.051 263.014 154.225 262.048 152.839 262.048C151.551 262.062 150.697 263.07 150.697 264.596V268.446H149.717V264.582C149.717 263 148.863 262.02 147.505 262.048C146.217 262.076 145.335 263.28 145.335 264.554L145.307 268.446ZM161.111 268.586C159.053 268.6 157.485 266.99 157.485 264.932C157.485 262.608 159.039 261.194 161.069 261.208C162.455 261.208 163.701 261.992 164.191 263.154V261.348H165.199V268.446H164.205V266.598C163.729 267.76 162.469 268.586 161.111 268.586ZM161.307 267.732C162.791 267.718 164.163 266.57 164.163 264.932C164.163 263.126 162.777 262.062 161.307 262.048C159.823 262.048 158.479 263.014 158.479 264.932C158.479 266.584 159.837 267.732 161.307 267.732ZM171.524 267.368L171.748 268.222C170.166 268.936 167.842 268.25 167.842 265.884V262.188H166.624V261.306C168.024 261.306 167.842 260.466 167.842 259.206H168.836L168.85 261.306H171.202V262.188H168.836V265.8C168.836 267.354 170.32 267.928 171.524 267.368ZM173.823 260.228C173.487 260.228 173.179 260.004 173.179 259.696C173.179 259.374 173.487 259.164 173.823 259.164C174.159 259.164 174.453 259.374 174.453 259.696C174.453 260.004 174.159 260.228 173.823 260.228ZM174.313 268.446H173.319V261.348H174.313V268.446ZM179.687 268.586C177.587 268.586 175.893 267.018 175.879 264.932C175.879 262.664 177.545 261.208 179.687 261.208C181.871 261.208 183.537 262.664 183.537 264.932C183.523 267.018 181.885 268.586 179.687 268.586ZM179.673 267.732C181.171 267.732 182.543 266.626 182.543 264.932C182.543 263.182 181.255 262.048 179.687 262.048C178.189 262.048 176.873 263.112 176.873 264.932C176.873 266.542 178.203 267.732 179.673 267.732ZM186 268.446H184.964V261.348H185.972V263.154C186.462 261.992 187.708 261.208 189.094 261.208C191.124 261.194 192.678 262.608 192.678 264.932V268.446H191.67L191.684 264.932C191.698 263.014 190.34 262.048 188.856 262.048C187.386 262.062 186 263.098 186 264.932V268.446ZM194.747 269.65L194.103 269.202C194.551 268.572 194.719 268.068 194.635 267.13H195.601C195.601 268.264 195.433 268.824 194.747 269.65ZM201.852 268.446H200.816V261.348H201.81V263.42C202.216 262.062 203.77 261.194 205.156 261.446L204.694 262.286C203.434 262.104 201.852 263.168 201.852 264.946V268.446ZM208.962 268.586C207.002 268.586 205.266 267.046 205.266 264.918C205.266 262.566 207.002 261.208 208.962 261.208C210.852 261.208 212.476 262.44 212.644 264.736V265.17L206.218 265.184C206.33 266.696 207.688 267.732 208.962 267.746C209.914 267.746 210.908 267.284 211.412 266.374L212.182 266.78C211.552 267.928 210.32 268.586 208.962 268.586ZM206.288 264.54H211.692C211.538 262.972 210.264 262.034 208.962 262.034C207.674 262.034 206.414 262.972 206.288 264.54ZM217.703 268.586C215.645 268.6 214.077 266.99 214.077 264.932C214.077 262.608 215.631 261.194 217.661 261.208C219.047 261.208 220.293 261.992 220.783 263.154V261.348H221.791V268.446H220.797V266.598C220.321 267.76 219.061 268.586 217.703 268.586ZM217.899 267.732C219.383 267.718 220.755 266.57 220.755 264.932C220.755 263.126 219.369 262.062 217.899 262.048C216.415 262.048 215.071 263.014 215.071 264.932C215.071 266.584 216.429 267.732 217.899 267.732ZM226.842 268.586C224.784 268.6 223.216 266.99 223.216 264.932C223.216 262.608 224.77 261.194 226.8 261.208C228.186 261.208 229.432 261.992 229.922 263.154V259.206H230.93V268.446H229.936V266.598C229.46 267.76 228.2 268.586 226.842 268.586ZM227.038 267.732C228.522 267.718 229.894 266.57 229.894 264.932C229.894 263.098 228.508 262.062 227.038 262.048C225.554 262.048 224.21 263.014 224.21 264.932C224.21 266.584 225.568 267.732 227.038 267.732ZM236.78 260.228C236.444 260.228 236.136 260.004 236.136 259.696C236.136 259.374 236.444 259.164 236.78 259.164C237.116 259.164 237.41 259.374 237.41 259.696C237.41 260.004 237.116 260.228 236.78 260.228ZM237.27 268.446H236.276V261.348H237.27V268.446ZM243.735 267.368L243.959 268.222C242.377 268.936 240.053 268.25 240.053 265.884V262.188H238.835V261.306C240.235 261.306 240.053 260.466 240.053 259.206H241.047L241.061 261.306H243.413V262.188H241.047V265.8C241.047 267.354 242.531 267.928 243.735 267.368ZM252.797 268.586C250.739 268.6 249.171 266.99 249.171 264.932C249.171 262.608 250.725 261.194 252.755 261.208C254.141 261.208 255.387 261.992 255.877 263.154V261.348H256.885V268.446H255.891V266.598C255.415 267.76 254.155 268.586 252.797 268.586ZM252.993 267.732C254.477 267.718 255.849 266.57 255.849 264.932C255.849 263.126 254.463 262.062 252.993 262.048C251.509 262.048 250.165 263.014 250.165 264.932C250.165 266.584 251.523 267.732 252.993 267.732ZM259.346 268.446H258.31V261.348H259.318V263.154C259.808 261.992 261.054 261.208 262.44 261.208C264.47 261.194 266.024 262.608 266.024 264.932V268.446H265.016L265.03 264.932C265.044 263.014 263.686 262.048 262.202 262.048C260.732 262.062 259.346 263.098 259.346 264.932V268.446ZM271.076 268.586C269.018 268.6 267.45 266.99 267.45 264.932C267.45 262.608 269.004 261.194 271.034 261.208C272.42 261.208 273.666 261.992 274.156 263.154V259.206H275.164V268.446H274.17V266.598C273.694 267.76 272.434 268.586 271.076 268.586ZM271.272 267.732C272.756 267.718 274.128 266.57 274.128 264.932C274.128 263.098 272.742 262.062 271.272 262.048C269.788 262.048 268.444 263.014 268.444 264.932C268.444 266.584 269.802 267.732 271.272 267.732ZM16.7244 287.286L17.3124 286.726C17.7044 287.258 18.7964 287.398 19.2584 286.46L19.6784 285.55L16.9204 279.348H17.9144L20.1824 284.724L22.7164 279.348H23.7104L20.0424 286.712C19.2444 288.322 17.5924 288.196 16.7244 287.286ZM27.8261 286.586C25.7261 286.586 24.0321 285.018 24.0181 282.932C24.0181 280.664 25.6841 279.208 27.8261 279.208C30.0101 279.208 31.6761 280.664 31.6761 282.932C31.6621 285.018 30.0241 286.586 27.8261 286.586ZM27.8121 285.732C29.3101 285.732 30.6821 284.626 30.6821 282.932C30.6821 281.182 29.3941 280.048 27.8261 280.048C26.3281 280.048 25.0121 281.112 25.0121 282.932C25.0121 284.542 26.3421 285.732 27.8121 285.732ZM36.2107 286.586C34.3067 286.6 33.1027 285.354 33.1027 283.226V279.348H34.1107V283.212C34.1107 284.794 34.9647 285.746 36.4347 285.732C37.9747 285.732 38.8427 284.472 38.8427 282.792V279.348H39.8787V286.446H38.8847V284.514C38.5347 285.886 37.3587 286.586 36.2107 286.586ZM48.3124 286.446H47.3884L45.0924 279.348H46.1004L47.9624 285.144L49.9784 279.348H50.9024L52.9324 285.144L54.9484 279.348H55.9424L53.5204 286.446H52.5824L50.4404 280.65L48.3124 286.446ZM58.0203 278.228C57.6843 278.228 57.3763 278.004 57.3763 277.696C57.3763 277.374 57.6843 277.164 58.0203 277.164C58.3563 277.164 58.6503 277.374 58.6503 277.696C58.6503 278.004 58.3563 278.228 58.0203 278.228ZM58.5103 286.446H57.5163V279.348H58.5103V286.446ZM61.0843 286.446H60.0763V277.206H61.0843V286.446ZM63.5244 286.446H62.5164V277.206H63.5244V286.446ZM71.8446 286.586C69.9406 286.6 68.7366 285.354 68.7366 283.226V279.348H69.7446V283.212C69.7446 284.794 70.5986 285.746 72.0686 285.732C73.6086 285.732 74.4766 284.472 74.4766 282.792V279.348H75.5126V286.446H74.5186V284.514C74.1686 285.886 72.9926 286.586 71.8446 286.586ZM77.9823 286.446H76.9463V279.348H77.9543V281.154C78.4443 279.992 79.6903 279.208 81.0763 279.208C83.1063 279.194 84.6603 280.608 84.6603 282.932V286.446H83.6523L83.6663 282.932C83.6803 281.014 82.3223 280.048 80.8383 280.048C79.3683 280.062 77.9823 281.098 77.9823 282.932V286.446ZM89.7116 286.586C87.6536 286.6 86.0856 284.99 86.0856 282.932C86.0856 280.608 87.6396 279.194 89.6696 279.208C91.0556 279.208 92.3016 279.992 92.7916 281.154V277.206H93.7996V286.446H92.8056V284.598C92.3296 285.76 91.0696 286.586 89.7116 286.586ZM89.9076 285.732C91.3916 285.718 92.7636 284.57 92.7636 282.932C92.7636 281.098 91.3776 280.062 89.9076 280.048C88.4236 280.048 87.0796 281.014 87.0796 282.932C87.0796 284.584 88.4376 285.732 89.9076 285.732ZM98.921 286.586C96.961 286.586 95.225 285.046 95.225 282.918C95.225 280.566 96.961 279.208 98.921 279.208C100.811 279.208 102.435 280.44 102.603 282.736V283.17L96.177 283.184C96.289 284.696 97.647 285.732 98.921 285.746C99.873 285.746 100.867 285.284 101.371 284.374L102.141 284.78C101.511 285.928 100.279 286.586 98.921 286.586ZM96.247 282.54H101.651C101.497 280.972 100.223 280.034 98.921 280.034C97.633 280.034 96.373 280.972 96.247 282.54ZM105.072 286.446H104.036V279.348H105.03V281.42C105.436 280.062 106.99 279.194 108.376 279.446L107.914 280.286C106.654 280.104 105.072 281.168 105.072 282.946V286.446ZM112.314 286.586C110.62 286.544 109.444 285.648 109.416 284.15H110.354C110.438 285.382 111.306 285.76 112.314 285.816C113.168 285.858 114.036 285.382 114.064 284.612C114.092 283.772 113.532 283.478 112.216 283.268C110.536 283.002 109.472 282.596 109.444 281.266C109.416 280.02 110.494 279.208 112.076 279.208C113.798 279.208 114.904 280.02 115.03 281.56H114.106C114.008 280.608 113.28 279.992 112.104 279.978C111.11 279.964 110.41 280.538 110.41 281.294C110.424 282.064 110.984 282.386 112.3 282.61C114.204 282.946 115.044 283.338 115.03 284.654C115.002 285.9 113.882 286.628 112.314 286.586ZM120.967 285.368L121.191 286.222C119.609 286.936 117.285 286.25 117.285 283.884V280.188H116.067V279.306C117.467 279.306 117.285 278.466 117.285 277.206H118.279L118.293 279.306H120.645V280.188H118.279V283.8C118.279 285.354 119.763 285.928 120.967 285.368ZM125.442 286.586C123.384 286.6 121.816 284.99 121.816 282.932C121.816 280.608 123.37 279.194 125.4 279.208C126.786 279.208 128.032 279.992 128.522 281.154V279.348H129.53V286.446H128.536V284.598C128.06 285.76 126.8 286.586 125.442 286.586ZM125.638 285.732C127.122 285.718 128.494 284.57 128.494 282.932C128.494 281.126 127.108 280.062 125.638 280.048C124.154 280.048 122.81 281.014 122.81 282.932C122.81 284.584 124.168 285.732 125.638 285.732ZM131.991 286.446H130.955V279.348H131.963V281.154C132.453 279.992 133.699 279.208 135.085 279.208C137.115 279.194 138.669 280.608 138.669 282.932V286.446H137.661L137.675 282.932C137.689 281.014 136.331 280.048 134.847 280.048C133.377 280.062 131.991 281.098 131.991 282.932V286.446ZM143.72 286.586C141.662 286.6 140.094 284.99 140.094 282.932C140.094 280.608 141.648 279.194 143.678 279.208C145.064 279.208 146.31 279.992 146.8 281.154V277.206H147.808V286.446H146.814V284.598C146.338 285.76 145.078 286.586 143.72 286.586ZM143.916 285.732C145.4 285.718 146.772 284.57 146.772 282.932C146.772 281.098 145.386 280.062 143.916 280.048C142.432 280.048 141.088 281.014 141.088 282.932C141.088 284.584 142.446 285.732 143.916 285.732Z" fill="#68696E"/>
<defs>
<clipPath id="clip0_1998_8143">
<rect x="8.37695" y="8.10605" width="295" height="189" rx="10" fill="white"/>
</clipPath>
<clipPath id="clip1_1998_8143">
<rect x="93.5879" y="94.1104" width="40.7345" height="40.7345" rx="20.3673" fill="white"/>
</clipPath>
</defs>
</svg>
