<svg xmlns="http://www.w3.org/2000/svg" width="127" height="27" viewBox="0 0 127 27" fill="none">
<path d="M5.12526 26.7685C4.35988 26.7679 3.60814 26.5672 2.94548 26.1868C2.28282 25.8063 1.73256 25.2593 1.34995 24.6007C0.967328 23.9422 0.765812 23.1952 0.765625 22.4348C0.765438 21.6744 0.966587 20.9274 1.34888 20.2686L11.0753 3.53289C11.6926 2.47084 12.5949 1.60022 13.6815 1.01834C14.7681 0.436454 15.9962 0.166226 17.2285 0.237853C18.4608 0.30948 19.6488 0.720139 20.6597 1.42394C21.6706 2.12774 22.4646 3.09695 22.953 4.22327L24.0162 6.67371C25.8756 6.49191 27.7458 6.89065 29.3664 7.8144C30.987 8.73815 32.2774 10.1409 33.0578 11.8275L35.9861 18.1494C36.2838 18.7902 36.4503 19.4834 36.476 20.1887C36.5018 20.894 36.3862 21.5974 36.1361 22.2579C35.8859 22.9185 35.5062 23.5231 35.0189 24.0367C34.5316 24.5502 33.9465 24.9625 33.2975 25.2495C32.6485 25.5365 31.9486 25.6926 31.2383 25.7087C30.5281 25.7248 29.8218 25.6005 29.1603 25.3431C28.4988 25.0857 27.8954 24.7003 27.3851 24.2094C26.8748 23.7184 26.4678 23.1316 26.1876 22.483L21.7062 12.152C21.6679 12.1878 21.6296 12.2236 21.5936 12.2639L8.20222 25.5052C7.38565 26.3148 6.27891 26.7692 5.12526 26.7685ZM16.8294 4.50188C16.4173 4.49913 16.012 4.606 15.6555 4.81142C15.299 5.01683 15.0044 5.3133 14.8022 5.67004L5.0757 22.4069C5.06842 22.419 5.06611 22.4334 5.06925 22.4472C5.0724 22.461 5.08076 22.473 5.0926 22.4808C5.10346 22.4887 5.11681 22.4925 5.13024 22.4914C5.14368 22.4904 5.15629 22.4846 5.1658 22.4752L18.5526 9.23046C18.9792 8.80957 19.447 8.4321 19.9492 8.1037L19.0031 5.91508C18.8346 5.51339 18.5544 5.16764 18.1954 4.91819C17.8365 4.66875 17.4135 4.52591 16.9759 4.50635C16.9274 4.503 16.879 4.50188 16.8294 4.50188ZM25.8982 11.014L30.1363 20.7923C30.1869 20.9271 30.2648 21.0501 30.3652 21.1538C30.4655 21.2575 30.5861 21.3396 30.7197 21.3952C30.8532 21.4508 30.9968 21.4786 31.1416 21.4769C31.2863 21.4752 31.4292 21.4441 31.5614 21.3855C31.6936 21.3268 31.8123 21.2418 31.9102 21.1359C32.008 21.0299 32.083 20.9051 32.1305 20.7692C32.1779 20.6333 32.1969 20.4892 32.1861 20.3458C32.1753 20.2023 32.1351 20.0626 32.0679 19.9352L29.1396 13.6133C28.842 12.958 28.3937 12.3814 27.8306 11.9299C27.2676 11.4784 26.6056 11.1647 25.8982 11.014Z" fill="#8861E0"/>
<path d="M5.12526 26.7685C4.35988 26.7679 3.60814 26.5672 2.94548 26.1868C2.28282 25.8063 1.73256 25.2593 1.34995 24.6007C0.967328 23.9422 0.765812 23.1952 0.765625 22.4348C0.765438 21.6744 0.966587 20.9274 1.34888 20.2686L11.0753 3.53289C11.6926 2.47084 12.5949 1.60022 13.6815 1.01834C14.7681 0.436454 15.9962 0.166226 17.2285 0.237853C18.4608 0.30948 19.6488 0.720139 20.6597 1.42394C21.6706 2.12774 22.4646 3.09695 22.953 4.22327L24.0162 6.67371C25.8756 6.49191 27.7458 6.89065 29.3664 7.8144C30.987 8.73815 32.2774 10.1409 33.0578 11.8275L35.9861 18.1494C36.2838 18.7902 36.4503 19.4834 36.476 20.1887C36.5018 20.894 36.3862 21.5974 36.1361 22.2579C35.8859 22.9185 35.5062 23.5231 35.0189 24.0367C34.5316 24.5502 33.9465 24.9625 33.2975 25.2495C32.6485 25.5365 31.9486 25.6926 31.2383 25.7087C30.5281 25.7248 29.8218 25.6005 29.1603 25.3431C28.4988 25.0857 27.8954 24.7003 27.3851 24.2094C26.8748 23.7184 26.4678 23.1316 26.1876 22.483L21.7062 12.152C21.6679 12.1878 21.6296 12.2236 21.5936 12.2639L8.20222 25.5052C7.38565 26.3148 6.27891 26.7692 5.12526 26.7685ZM16.8294 4.50188C16.4173 4.49913 16.012 4.606 15.6555 4.81142C15.299 5.01683 15.0044 5.3133 14.8022 5.67004L5.0757 22.4069C5.06842 22.419 5.06611 22.4334 5.06925 22.4472C5.0724 22.461 5.08076 22.473 5.0926 22.4808C5.10346 22.4887 5.11681 22.4925 5.13024 22.4914C5.14368 22.4904 5.15629 22.4846 5.1658 22.4752L18.5526 9.23046C18.9792 8.80957 19.447 8.4321 19.9492 8.1037L19.0031 5.91508C18.8346 5.51339 18.5544 5.16764 18.1954 4.91819C17.8365 4.66875 17.4135 4.52591 16.9759 4.50635C16.9274 4.503 16.879 4.50188 16.8294 4.50188ZM25.8982 11.014L30.1363 20.7923C30.1869 20.9271 30.2648 21.0501 30.3652 21.1538C30.4655 21.2575 30.5861 21.3396 30.7197 21.3952C30.8532 21.4508 30.9968 21.4786 31.1416 21.4769C31.2863 21.4752 31.4292 21.4441 31.5614 21.3855C31.6936 21.3268 31.8123 21.2418 31.9102 21.1359C32.008 21.0299 32.083 20.9051 32.1305 20.7692C32.1779 20.6333 32.1969 20.4892 32.1861 20.3458C32.1753 20.2023 32.1351 20.0626 32.0679 19.9352L29.1396 13.6133C28.842 12.958 28.3937 12.3814 27.8306 11.9299C27.2676 11.4784 26.6056 11.1647 25.8982 11.014Z" fill="url(#paint0_linear_359_9465)"/>
<g style="mix-blend-mode:color-burn" opacity="0.3">
<mask id="mask0_359_9465" style="mask-type:luminance" maskUnits="userSpaceOnUse" x="21" y="10" width="7" height="6">
<path d="M21.7129 12.152C22.2044 11.5526 22.872 11.1207 23.6225 10.9165C24.373 10.7123 25.1689 10.746 25.8992 11.0129C26.34 12.0267 26.7815 13.0404 27.2237 14.0542L23.2942 15.8288L21.7129 12.152Z" fill="white"/>
</mask>
<g mask="url(#mask0_359_9465)">
<path d="M23.332 15.8287L27.2177 14.27V15.8287H23.332Z" fill="white"/>
<path d="M23.2695 15.8289L27.2171 14.2456V14.2702L23.3315 15.8289H23.2695Z" fill="white"/>
<path d="M23.207 15.8287L27.2165 14.2197V14.2455L23.269 15.8287H23.207Z" fill="#FEFEFE"/>
<path d="M23.1484 15.8289L27.2199 14.1953V14.2199L23.2104 15.8289H23.1484Z" fill="#FDFDFD"/>
<path d="M23.0859 15.8287L27.2193 14.1704V14.195L23.1479 15.8287H23.0859Z" fill="#FCFCFC"/>
<path d="M23.0215 15.8289L27.2168 14.146V14.1706L23.0834 15.8289H23.0215Z" fill="#FBFBFB"/>
<path d="M22.9629 15.8287L27.2202 14.1201V14.1459L23.0248 15.8287H22.9629Z" fill="#FAFAFA"/>
<path d="M22.8965 15.8289L27.2169 14.0957V14.1203L22.9596 15.8289H22.8965Z" fill="#F9F9F9"/>
<path d="M22.8379 15.8286L27.2202 14.0708V14.0954L22.8998 15.8286H22.8379Z" fill="#F8F8F8"/>
<path d="M22.7754 15.8288L27.2196 14.0464V14.071L22.8373 15.8288H22.7754Z" fill="#F7F7F7"/>
<path d="M22.7129 15.8287L27.2191 14.0205V14.0462L22.7748 15.8287H22.7129Z" fill="#F6F6F6"/>
<path d="M22.6504 15.8289L27.2185 13.9961V14.0207L22.7123 15.8289H22.6504Z" fill="#F5F5F5"/>
<path d="M22.5859 15.8286L27.216 13.9712V13.9958L22.6479 15.8286H22.5859Z" fill="#F4F4F4"/>
<path d="M22.5234 15.8288L27.2155 13.9468V13.9714L22.5854 15.8288H22.5234Z" fill="#F3F3F3"/>
<path d="M22.4648 15.8287L27.2188 13.9209V13.9466L22.5268 15.8287H22.4648Z" fill="#F2F2F2"/>
<path d="M22.3984 15.8289L27.2155 13.8965V13.9211L22.4615 15.8289H22.3984Z" fill="#F1F1F1"/>
<path d="M22.3398 15.8286L27.2188 13.8716V13.8962L22.4018 15.8286H22.3398Z" fill="#F0F0F0"/>
<path d="M22.2773 15.8288L27.2183 13.8472V13.8718L22.3393 15.8288H22.2773Z" fill="#EFEFEF"/>
<path d="M22.2129 15.8286L27.2158 13.8213V13.847L22.2748 15.8286H22.2129Z" fill="#EEEEEE"/>
<path d="M22.1543 15.8288L27.2191 13.7969V13.8215L22.2162 15.8288H22.1543Z" fill="#EDEDED"/>
<path d="M22.0918 15.8286L27.2186 13.772V13.7966L22.1537 15.8286H22.0918Z" fill="#ECECEC"/>
<path d="M22.0293 15.8288L27.218 13.7476V13.7722L22.0912 15.8288H22.0293Z" fill="#EBEBEB"/>
<path d="M21.9668 15.8286L27.2186 13.7217V13.7474L22.0299 15.8286H21.9668Z" fill="#EAEAEA"/>
<path d="M21.9043 15.8288L27.218 13.6973V13.7219L21.9662 15.8288H21.9043Z" fill="#E9E9E9"/>
<path d="M21.8438 15.8285L27.2194 13.6724V13.697L21.9057 15.8285H21.8438Z" fill="#E8E8E8"/>
<path d="M21.7812 15.8289L27.2189 13.647V13.6727L21.8432 15.8289H21.7812Z" fill="#E7E7E7"/>
<path d="M21.7188 15.8286L27.2183 13.6221V13.6467L21.7807 15.8286H21.7188Z" fill="#E6E6E6"/>
<path d="M21.7129 15.8064L27.2181 13.5977V13.6223L21.7185 15.8288H21.7129V15.8064Z" fill="#E5E5E5"/>
<path d="M21.7129 15.7804L27.2181 13.5728V13.5974L21.7129 15.8061V15.7804Z" fill="#E4E4E4"/>
<path d="M21.7129 15.7561L27.2181 13.5474V13.5731L21.7129 15.7807V15.7561Z" fill="#E3E3E3"/>
<path d="M21.7129 15.7312L27.2181 13.5225V13.5471L21.7129 15.7558V15.7312Z" fill="#E2E2E2"/>
<path d="M21.7129 15.7068L27.2181 13.498V13.5227L21.7129 15.7314V15.7068Z" fill="#E1E1E1"/>
<path d="M21.7129 15.6808L27.2181 13.4731V13.4978L21.7129 15.7065V15.6808Z" fill="#E0E0E0"/>
<path d="M21.7129 15.6565L27.2181 13.4478V13.4735L21.7129 15.6811V15.6565Z" fill="#DFDFDF"/>
<path d="M21.7129 15.6316L27.2181 13.4229V13.4475L21.7129 15.6562V15.6316Z" fill="#DEDEDE"/>
<path d="M21.7129 15.6072L27.2181 13.3984V13.4231L21.7129 15.6318V15.6072Z" fill="#DDDDDD"/>
<path d="M21.7129 15.5817L27.2181 13.374V13.3986L21.7129 15.6074V15.5817Z" fill="#DCDCDC"/>
<path d="M21.7129 15.5569L27.2181 13.3481V13.3739L21.7129 15.5815V15.5569Z" fill="#DBDBDB"/>
<path d="M21.7129 15.532L27.2181 13.3232V13.3479L21.7129 15.5566V15.532Z" fill="#DADADA"/>
<path d="M21.7129 15.5076L27.2181 13.2988V13.3234L21.7129 15.5322V15.5076Z" fill="#D9D9D9"/>
<path d="M21.7129 15.4816L27.2181 13.2739V13.2985L21.7129 15.5073V15.4816Z" fill="#D8D8D8"/>
<path d="M21.7129 15.4573L27.2181 13.2485V13.2743L21.7129 15.4819V15.4573Z" fill="#D7D7D7"/>
<path d="M21.7129 15.4324L27.2181 13.2236V13.2482L21.7129 15.457V15.4324Z" fill="#D6D6D6"/>
<path d="M21.7129 15.408L27.2181 13.1992V13.2238L21.7129 15.4326V15.408Z" fill="#D5D5D5"/>
<path d="M21.7129 15.3824L27.2181 13.1748V13.1994L21.7129 15.4082V15.3824Z" fill="#D4D4D4"/>
<path d="M21.7129 15.3577L27.2181 13.1489V13.1747L21.7129 15.3823V15.3577Z" fill="#D3D3D3"/>
<path d="M21.7129 15.3328L27.2181 13.124V13.1486L21.7129 15.3574V15.3328Z" fill="#D2D2D2"/>
<path d="M21.7129 15.3072L27.2181 13.0996V13.1242L21.7129 15.333V15.3072Z" fill="#D1D1D1"/>
<path d="M21.7129 15.2828L27.2181 13.0752V13.0998L21.7129 15.3074V15.2828Z" fill="#D0D0D0"/>
<path d="M21.7129 15.2581L27.2181 13.0493V13.0751L21.7129 15.2827V15.2581Z" fill="#CFCFCF"/>
<path d="M21.7129 15.2337L27.2181 13.0249V13.0495L21.7129 15.2583V15.2337Z" fill="#CECECE"/>
<path d="M21.7129 15.2088L27.2181 13V13.0246L21.7129 15.2334V15.2088Z" fill="#CDCDCD"/>
<path d="M21.7129 15.1832L27.2181 12.9756V13.0002L21.7129 15.209V15.1832Z" fill="#CCCCCC"/>
<path d="M21.7129 15.1585L27.2181 12.9497V12.9754L21.7129 15.1831V15.1585Z" fill="#CBCBCB"/>
<path d="M21.7129 15.1341L27.2181 12.9253V12.9499L21.7129 15.1587V15.1341Z" fill="#CACACA"/>
<path d="M21.7129 15.108L27.2181 12.9004V12.925L21.7129 15.1338V15.108Z" fill="#C9C9C9"/>
<path d="M21.7129 15.0836L27.2181 12.876V12.9006L21.7129 15.1082V15.0836Z" fill="#C8C8C8"/>
<path d="M21.7129 15.0589L27.2181 12.8501V12.8758L21.7129 15.0835V15.0589Z" fill="#C7C7C7"/>
<path d="M21.7129 15.0344L27.2181 12.8257V12.8503L21.7129 15.0591V15.0344Z" fill="#C6C6C6"/>
<path d="M21.7129 15.0084L27.2181 12.8008V12.8254L21.7129 15.0342V15.0084Z" fill="#C5C5C5"/>
<path d="M21.7129 14.984L27.2181 12.7764V12.801L21.7129 15.0086V14.984Z" fill="#C4C4C4"/>
<path d="M21.7129 14.9592L27.2181 12.7505V12.7762L21.7129 14.9839V14.9592Z" fill="#C3C3C3"/>
<path d="M21.7129 14.9348L27.2181 12.7261V12.7507L21.7129 14.9594V14.9348Z" fill="#C2C2C2"/>
<path d="M21.7129 14.9088L27.2181 12.7012V12.7258L21.7129 14.9345V14.9088Z" fill="#C1C1C1"/>
<path d="M21.7129 14.8844L27.2181 12.6768V12.7014L21.7129 14.909V14.8844Z" fill="#C0C0C0"/>
<path d="M21.7129 14.8596L27.2181 12.6509V12.6766L21.7129 14.8843V14.8596Z" fill="#BFBFBF"/>
<path d="M21.7129 14.8352L27.2181 12.6265V12.6511L21.7129 14.8598V14.8352Z" fill="#BEBEBE"/>
<path d="M21.7129 14.8092L27.2181 12.6016V12.6262L21.7129 14.8349V14.8092Z" fill="#BDBDBD"/>
<path d="M21.7129 14.7848L27.2181 12.5771V12.6018L21.7129 14.8094V14.7848Z" fill="#BCBCBC"/>
<path d="M21.7129 14.76L27.2181 12.5513V12.577L21.7129 14.7846V14.76Z" fill="#BBBBBB"/>
<path d="M21.7129 14.7356L27.2181 12.5269V12.5515L21.7129 14.7602V14.7356Z" fill="#BABABA"/>
<path d="M21.7129 14.7096L27.2181 12.502V12.5266L21.7129 14.7353V14.7096Z" fill="#B9B9B9"/>
<path d="M21.7129 14.6853L27.2181 12.4766V12.5023L21.7129 14.7099V14.6853Z" fill="#B8B8B8"/>
<path d="M21.7129 14.6604L27.2181 12.4517V12.4763L21.7129 14.685V14.6604Z" fill="#B7B7B7"/>
<path d="M21.7129 14.636L27.2181 12.4272V12.4519L21.7129 14.6606V14.636Z" fill="#B6B6B6"/>
<path d="M21.7129 14.61L27.2181 12.4023V12.427L21.7129 14.6357V14.61Z" fill="#B5B5B5"/>
<path d="M21.7129 14.5857L27.2181 12.377V12.4027L21.7129 14.6103V14.5857Z" fill="#B4B4B4"/>
<path d="M21.7129 14.5608L27.2181 12.3521V12.3767L21.7129 14.5854V14.5608Z" fill="#B3B3B3"/>
<path d="M21.7129 14.5353L27.2181 12.3276V12.3523L21.7129 14.561V14.5353Z" fill="#B2B2B2"/>
<path d="M21.7129 14.5104L27.2181 12.3027V12.3274L21.7129 14.535V14.5104Z" fill="#B1B1B1"/>
<path d="M21.7129 14.4861L27.2181 12.2773V12.3031L21.7129 14.5107V14.4861Z" fill="#B0B0B0"/>
<path d="M21.7129 14.4612L27.2181 12.2524V12.2771L21.7129 14.4858V14.4612Z" fill="#AFAFAF"/>
<path d="M21.7129 14.4357L27.2181 12.228V12.2526L21.7129 14.4614V14.4357Z" fill="#AEAEAE"/>
<path d="M21.7129 14.4113L27.2181 12.2036V12.2282L21.7129 14.4359V14.4113Z" fill="#ADADAD"/>
<path d="M21.7129 14.3865L27.2181 12.1777V12.2035L21.7129 14.4111V14.3865Z" fill="#ACACAC"/>
<path d="M21.7129 14.3616L27.2181 12.1528V12.1774L21.7129 14.3862V14.3616Z" fill="#ABABAB"/>
<path d="M21.7129 14.3361L27.2181 12.1284V12.153L21.7129 14.3618V14.3361Z" fill="#AAAAAA"/>
<path d="M21.7129 14.3116L27.2181 12.104V12.1286L21.7129 14.3363V14.3116Z" fill="#A9A9A9"/>
<path d="M21.7129 14.2869L27.2181 12.0781V12.1039L21.7129 14.3115V14.2869Z" fill="#A8A8A8"/>
<path d="M21.7129 14.262L27.2181 12.0532V12.0778L21.7129 14.2866V14.262Z" fill="#A7A7A7"/>
<path d="M21.7129 14.2364L27.2181 12.0288V12.0534L21.7129 14.2622V14.2364Z" fill="#A6A6A6"/>
<path d="M21.7129 14.212L27.2181 12.0044V12.029L21.7129 14.2366V14.212Z" fill="#A5A5A5"/>
<path d="M21.7129 14.1873L27.2181 11.9785V12.0043L21.7129 14.2119V14.1873Z" fill="#A4A4A4"/>
<path d="M21.7129 14.1624L27.2181 11.9536V11.9782L21.7129 14.187V14.1624Z" fill="#A3A3A3"/>
<path d="M21.7129 14.1368L27.2181 11.9292V11.9538L21.7129 14.1626V14.1368Z" fill="#A2A2A2"/>
<path d="M21.7129 14.1124L27.2181 11.9048V11.9294L21.7129 14.137V14.1124Z" fill="#A1A1A1"/>
<path d="M21.7129 14.0877L27.2181 11.8789V11.9046L21.7129 14.1123V14.0877Z" fill="#A0A0A0"/>
<path d="M21.7129 14.0628L27.2181 11.854V11.8786L21.7129 14.0874V14.0628Z" fill="#9F9F9F"/>
<path d="M21.7129 14.0372L27.2181 11.8296V11.8542L21.7129 14.063V14.0372Z" fill="#9E9E9E"/>
<path d="M21.7129 14.0125L27.2181 11.8037V11.8294L21.7129 14.0371V14.0125Z" fill="#9D9D9D"/>
<path d="M21.7129 13.9881L27.2181 11.7793V11.8039L21.7129 14.0127V13.9881Z" fill="#9C9C9C"/>
<path d="M21.7129 13.9636L27.2181 11.7549V11.7795L21.7129 13.9883V13.9636Z" fill="#9B9B9B"/>
<path d="M21.7129 13.9376L27.2181 11.73V11.7546L21.7129 13.9634V13.9376Z" fill="#9A9A9A"/>
<path d="M21.7129 13.9129L27.2181 11.7041V11.7298L21.7129 13.9375V13.9129Z" fill="#999999"/>
<path d="M21.7129 13.8884L27.2181 11.6797V11.7043L21.7129 13.9131V13.8884Z" fill="#989898"/>
<path d="M21.7129 13.8635L27.2181 11.6548V11.6794L21.7129 13.8882V13.8635Z" fill="#979797"/>
<path d="M21.7129 13.838L27.2181 11.6304V11.655L21.7129 13.8637V13.838Z" fill="#969696"/>
<path d="M21.7129 13.8137L27.2181 11.605V11.6307L21.7129 13.8384V13.8137Z" fill="#959595"/>
<path d="M21.7129 13.7888L27.2181 11.5801V11.6047L21.7129 13.8135V13.7888Z" fill="#949494"/>
<path d="M21.7129 13.7644L27.2181 11.5557V11.5803L21.7129 13.789V13.7644Z" fill="#939393"/>
<path d="M21.7129 13.7384L27.2181 11.5308V11.5554L21.7129 13.7641V13.7384Z" fill="#929292"/>
<path d="M21.7129 13.7136L27.2181 11.5049V11.5306L21.7129 13.7383V13.7136Z" fill="#919191"/>
<path d="M21.7129 13.6892L27.2181 11.4805V11.5051L21.7129 13.7138V13.6892Z" fill="#909090"/>
<path d="M21.7129 13.6648L27.2181 11.4561V11.4807L21.7129 13.6894V13.6648Z" fill="#8F8F8F"/>
<path d="M21.7129 13.6388L27.2181 11.4312V11.4558L21.7129 13.6645V13.6388Z" fill="#8E8E8E"/>
<path d="M21.7129 13.6145L27.2181 11.4058V11.4315L21.7129 13.6391V13.6145Z" fill="#8E8E8C"/>
<path d="M21.7129 13.5896L27.2181 11.3809V11.4055L21.7129 13.6142V13.5896Z" fill="#8D8D8B"/>
<path d="M21.7129 13.5652L27.2181 11.3564V11.3811L21.7129 13.5898V13.5652Z" fill="#8C8C8A"/>
<path d="M21.7129 13.5392L27.2181 11.3315V11.3562L21.7129 13.5649V13.5392Z" fill="#8B8B89"/>
<path d="M21.7129 13.5149L27.2181 11.3062V11.3319L21.7129 13.5395V13.5149Z" fill="#8A8A88"/>
<path d="M21.7129 13.49L27.2181 11.2812V11.3059L21.7129 13.5146V13.49Z" fill="#898987"/>
<path d="M21.7129 13.4656L27.2181 11.2568V11.2815L21.7129 13.4902V13.4656Z" fill="#888886"/>
<path d="M21.7129 13.4396L27.2181 11.2319V11.2565L21.7129 13.4653V13.4396Z" fill="#878785"/>
<path d="M21.7129 13.4153L27.2181 11.2065V11.2323L21.7129 13.4399V13.4153Z" fill="#868684"/>
<path d="M21.7129 13.3909L27.2181 11.1821V11.2067L21.7129 13.4155V13.3909Z" fill="#858583"/>
<path d="M21.7129 13.3649L27.2181 11.1572V11.1818L21.7129 13.3906V13.3649Z" fill="#848482"/>
<path d="M21.7129 13.3405L27.2181 11.1328V11.1574L21.7129 13.3651V13.3405Z" fill="#838381"/>
<path d="M21.7129 13.3157L27.2181 11.1069V11.1327L21.7129 13.3403V13.3157Z" fill="#828280"/>
<path d="M21.7129 13.2908L27.2181 11.082V11.1066L21.7129 13.3154V13.2908Z" fill="#81817F"/>
<path d="M21.7129 13.2653L27.2181 11.0576V11.0822L21.7129 13.291V13.2653Z" fill="#80807E"/>
<path d="M21.7129 13.2405L27.2181 11.0317V11.0575L21.7129 13.2651V13.2405Z" fill="#7F7F7D"/>
<path d="M21.7129 13.2161L27.2181 11.0073V11.0319L21.7129 13.2407V13.2161Z" fill="#7E7E7C"/>
<path d="M21.7129 13.1917L27.2181 10.9829V11.0075L21.7129 13.2163V13.1917Z" fill="#7D7D7B"/>
<path d="M21.7129 13.1656L27.2181 10.958V10.9826L21.7129 13.1914V13.1656Z" fill="#7C7C7A"/>
<path d="M21.7129 13.1409L27.2181 10.9321V10.9579L21.7129 13.1655V13.1409Z" fill="#7B7B79"/>
<path d="M21.7129 13.1165L27.2181 10.9077V10.9323L21.7129 13.1411V13.1165Z" fill="#7A7A78"/>
<path d="M21.7129 13.0921L27.2181 10.8833V10.9079L21.7129 13.1167V13.0921Z" fill="#797977"/>
<path d="M21.7129 13.066L27.2181 10.8584V10.883L21.7129 13.0918V13.066Z" fill="#787876"/>
<path d="M21.7129 13.0416L27.2181 10.834V10.8586L21.7129 13.0662V13.0416Z" fill="#777775"/>
<path d="M21.7129 13.0169L27.2181 10.8081V10.8338L21.7129 13.0415V13.0169Z" fill="#767674"/>
<path d="M21.7129 12.9924L27.2181 10.7837V10.8083L21.7129 13.0171V12.9924Z" fill="#757573"/>
<path d="M21.7129 12.9669L27.2181 10.7593V10.7839L21.7129 12.9927V12.9669Z" fill="#747472"/>
<path d="M21.7129 12.9422L27.2181 10.7334V10.7591L21.7129 12.9668V12.9422Z" fill="#737371"/>
<path d="M21.7129 12.9173L27.2181 10.7085V10.7331L21.7129 12.9419V12.9173Z" fill="#727270"/>
<path d="M21.7129 12.8924L27.2181 10.6836V10.7082L21.7129 12.917V12.8924Z" fill="#71716F"/>
<path d="M21.7129 12.8663L27.2181 10.6587V10.6833L21.7129 12.8921V12.8663Z" fill="#70706E"/>
<path d="M21.7129 12.8421L27.2181 10.6333V10.659L21.7129 12.8667V12.8421Z" fill="#6F6F6D"/>
<path d="M21.7129 12.8181L27.2181 10.6094V10.634L21.7129 12.8427V12.8181Z" fill="#6E6E6C"/>
<path d="M21.7129 12.792L27.1663 10.6045H27.2181V10.609L21.7129 12.8177V12.792Z" fill="#6D6D6B"/>
<path d="M21.7129 12.7674L27.1043 10.6045H27.1663L21.7129 12.792V12.7674Z" fill="#6C6C6A"/>
<path d="M21.7129 12.7428L27.0424 10.6045H27.1043L21.7129 12.7674V12.7428Z" fill="#6B6B69"/>
<path d="M21.7129 12.7181L26.9804 10.6045H27.0424L21.7129 12.7428V12.7181Z" fill="#6A6A68"/>
<path d="M21.7129 12.6924L26.9185 10.6045H26.9804L21.7129 12.7181V12.6924Z" fill="#696967"/>
<path d="M21.7129 12.6678L26.8566 10.6045H26.9185L21.7129 12.6924V12.6678Z" fill="#686866"/>
<path d="M21.7129 12.6432L26.7946 10.6045H26.8566L21.7129 12.6678V12.6432Z" fill="#676765"/>
<path d="M21.7129 12.6186L26.7315 10.6045H26.7946L21.7129 12.6432V12.6186Z" fill="#666664"/>
<path d="M21.7129 12.5928L26.6696 10.6045H26.7315L21.7129 12.6186V12.5928Z" fill="#656563"/>
<path d="M21.7129 12.5682L26.6077 10.6045H26.6696L21.7129 12.5928V12.5682Z" fill="#646462"/>
<path d="M21.7129 12.5436L26.5457 10.6045H26.6077L21.7129 12.5682V12.5436Z" fill="#636361"/>
<path d="M21.7129 12.519L26.4838 10.6045H26.5457L21.7129 12.5436V12.519Z" fill="#626260"/>
<path d="M21.7129 12.4932L26.4218 10.6045H26.4838L21.7129 12.519V12.4932Z" fill="#61615F"/>
<path d="M21.7129 12.4686L26.3599 10.6045H26.4218L21.7129 12.4932V12.4686Z" fill="#60605E"/>
<path d="M21.7129 12.444L26.2979 10.6045H26.3599L21.7129 12.4686V12.444Z" fill="#5F5F5D"/>
<path d="M21.7129 12.4194L26.2349 10.6045H26.2979L21.7129 12.444V12.4194Z" fill="#5E5E5C"/>
<path d="M21.7129 12.3937L26.1729 10.6045H26.2349L21.7129 12.4194V12.3937Z" fill="#5D5D5B"/>
<path d="M21.7129 12.369L26.111 10.6045H26.1729L21.7129 12.3937V12.369Z" fill="#5C5C5A"/>
<path d="M21.7129 12.3444L26.049 10.6045H26.111L21.7129 12.369V12.3444Z" fill="#5B5B59"/>
<path d="M21.7129 12.3198L25.9871 10.6045H26.049L21.7129 12.3444V12.3198Z" fill="#5A5A58"/>
<path d="M21.7129 12.2941L25.9251 10.6045H25.9871L21.7129 12.3198V12.2941Z" fill="#595957"/>
<path d="M21.7129 12.2695L25.8632 10.6045H25.9251L21.7129 12.2941V12.2695Z" fill="#585856"/>
<path d="M21.7129 12.2448L25.8001 10.6045H25.8632L21.7129 12.2695V12.2448Z" fill="#575755"/>
<path d="M21.7129 12.2202L25.7382 10.6045H25.8001L21.7129 12.2448V12.2202Z" fill="#565654"/>
<path d="M21.7129 12.1945L25.6762 10.6045H25.7382L21.7129 12.2202V12.1945Z" fill="#555553"/>
<path d="M21.7129 12.1699L25.6143 10.6045H25.6762L21.7129 12.1945V12.1699Z" fill="#545452"/>
<path d="M21.7129 12.1453L25.5523 10.6045H25.6143L21.7129 12.1699V12.1453Z" fill="#535351"/>
<path d="M21.7129 12.1206L25.4904 10.6045H25.5523L21.7129 12.1453V12.1206Z" fill="#525250"/>
<path d="M21.7129 12.0949L25.4285 10.6045H25.4904L21.7129 12.1206V12.0949Z" fill="#51514F"/>
<path d="M21.7129 12.0703L25.3654 10.6045H25.4285L21.7129 12.0949V12.0703Z" fill="#50504E"/>
<path d="M21.7129 12.0457L25.3034 10.6045H25.3654L21.7129 12.0703V12.0457Z" fill="#4F4F4D"/>
<path d="M21.7129 12.0211L25.2415 10.6045H25.3034L21.7129 12.0457V12.0211Z" fill="#4E4E4C"/>
<path d="M21.7129 11.9953L25.1795 10.6045H25.2415L21.7129 12.0211V11.9953Z" fill="#4D4D4B"/>
<path d="M21.7129 11.9707L25.1176 10.6045H25.1795L21.7129 11.9953V11.9707Z" fill="#4C4C4A"/>
<path d="M21.7129 11.9461L25.0557 10.6045H25.1176L21.7129 11.9707V11.9461Z" fill="#4B4B49"/>
<path d="M21.7129 11.9215L24.9937 10.6045H25.0557L21.7129 11.9461V11.9215Z" fill="#4A4A48"/>
<path d="M21.7129 11.8957L24.9318 10.6045H24.9937L21.7129 11.9215V11.8957Z" fill="#494947"/>
<path d="M21.7129 11.8711L24.8687 10.6045H24.9318L21.7129 11.8957V11.8711Z" fill="#484846"/>
<path d="M21.7129 11.8465L24.8068 10.6045H24.8687L21.7129 11.8711V11.8465Z" fill="#474745"/>
<path d="M21.7129 11.8219L24.7448 10.6045H24.8067L21.7129 11.8465V11.8219Z" fill="#464644"/>
<path d="M21.7129 11.7961L24.6829 10.6045H24.7448L21.7129 11.8219V11.7961Z" fill="#454543"/>
<path d="M21.7129 11.7715L24.6209 10.6045H24.6829L21.7129 11.7961V11.7715Z" fill="#444442"/>
<path d="M21.7129 11.7469L24.559 10.6045H24.6209L21.7129 11.7715V11.7469Z" fill="#434341"/>
<path d="M21.7129 11.7223L24.497 10.6045H24.559L21.7129 11.7469V11.7223Z" fill="#424240"/>
<path d="M21.7129 11.6966L24.4351 10.6045H24.497L21.7129 11.7223V11.6966Z" fill="#41413F"/>
<path d="M21.7129 11.6719L24.3731 10.6045H24.4351L21.7129 11.6966V11.6719Z" fill="#40403E"/>
<path d="M21.7129 11.6473L24.3101 10.6045H24.3731L21.7129 11.6719V11.6473Z" fill="#3F3F3D"/>
<path d="M21.7129 11.6216L24.2481 10.6045H24.3101L21.7129 11.6473V11.6216Z" fill="#3E3E3C"/>
<path d="M21.7129 11.597L24.1862 10.6045H24.2481L21.7129 11.6216V11.597Z" fill="#3D3D3B"/>
<path d="M21.7129 11.5724L24.1242 10.6045H24.1862L21.7129 11.597V11.5724Z" fill="#3C3C3A"/>
<path d="M21.7129 11.5477L24.0623 10.6045H24.1242L21.7129 11.5724V11.5477Z" fill="#3B3B39"/>
<path d="M21.7129 11.522L24.0003 10.6045H24.0623L21.7129 11.5477V11.522Z" fill="#3A3A38"/>
<path d="M21.7129 11.4974L23.9384 10.6045H24.0003L21.7129 11.522V11.4974Z" fill="#393937"/>
<path d="M21.7129 11.4728L23.8753 10.6045H23.9384L21.7129 11.4974V11.4728Z" fill="#383836"/>
<path d="M21.7129 11.4482L23.8134 10.6045H23.8753L21.7129 11.4728V11.4482Z" fill="#373735"/>
<path d="M21.7129 11.4224L23.7514 10.6045H23.8134L21.7129 11.4482V11.4224Z" fill="#363634"/>
<path d="M21.7129 11.3978L23.6895 10.6045H23.7514L21.7129 11.4224V11.3978Z" fill="#353533"/>
<path d="M21.7129 11.3732L23.6275 10.6045H23.6895L21.7129 11.3978V11.3732Z" fill="#343432"/>
<path d="M21.7129 11.3486L23.5656 10.6045H23.6275L21.7129 11.3732V11.3486Z" fill="#333331"/>
<path d="M21.7129 11.3228L23.5037 10.6045H23.5656L21.7129 11.3486V11.3228Z" fill="#323230"/>
<path d="M21.7129 11.2982L23.4406 10.6045H23.5037L21.7129 11.3228V11.2982Z" fill="#31312F"/>
<path d="M21.7129 11.2736L23.3786 10.6045H23.4406L21.7129 11.2982V11.2736Z" fill="#30302E"/>
<path d="M21.7129 11.249L23.3167 10.6045H23.3786L21.7129 11.2736V11.249Z" fill="#2F2F2D"/>
<path d="M21.7129 11.2242L23.2548 10.6045H23.3167L21.7129 11.25V11.2242Z" fill="#2E2E2C"/>
<path d="M21.7129 11.1996L23.1928 10.6045H23.2548L21.7129 11.2242V11.1996Z" fill="#2D2D2B"/>
<path d="M21.7129 11.1749L23.1309 10.6045H23.1928L21.7129 11.1996V11.1749Z" fill="#2C2C2A"/>
<path d="M21.7129 11.1502L23.0689 10.6045H23.1309L21.7129 11.1749V11.1502Z" fill="#2B2B29"/>
<path d="M21.7129 11.1245L23.0079 10.6045H23.0699L21.7129 11.1502V11.1245Z" fill="#2A2A28"/>
<path d="M21.7129 11.0998L22.9448 10.6045H23.0079L21.7129 11.1245V11.0998Z" fill="#292927"/>
<path d="M21.7129 11.0752L22.8828 10.6045H22.9448L21.7129 11.0998V11.0752Z" fill="#282826"/>
<path d="M21.7129 11.0494L22.8208 10.6045H22.8828L21.7129 11.0752V11.0494Z" fill="#272725"/>
<path d="M21.7129 11.0247L22.7588 10.6045H22.8208L21.7129 11.0494V11.0247Z" fill="#262624"/>
<path d="M21.7129 11.0001L22.6968 10.6045H22.7588L21.7129 11.0247V11.0001Z" fill="#252523"/>
<path d="M21.7129 10.9754L22.6348 10.6045H22.6968L21.7129 11.0001V10.9754Z" fill="#242422"/>
<path d="M21.7129 10.9497L22.5728 10.6045H22.6348L21.7129 10.9754V10.9497Z" fill="#232321"/>
<path d="M21.7129 10.925L22.5109 10.6045H22.5728L21.7129 10.9497V10.925Z" fill="#222220"/>
<path d="M21.7129 10.9003L22.4477 10.6045H22.5109L21.7129 10.925V10.9003Z" fill="#21211F"/>
<path d="M21.7129 10.8757L22.3858 10.6045H22.4477L21.7129 10.9003V10.8757Z" fill="#20201E"/>
<path d="M21.7129 10.8499L22.3238 10.6045H22.3858L21.7129 10.8757V10.8499Z" fill="#1F1F1D"/>
<path d="M21.7129 10.8253L22.2618 10.6045H22.3238L21.7129 10.8499V10.8253Z" fill="#1E1E1C"/>
<path d="M21.7129 10.8006L22.1998 10.6045H22.2618L21.7129 10.8253V10.8006Z" fill="white"/>
<path d="M22.1998 10.6045L21.7129 10.8006V10.6045H22.1998Z" fill="white"/>
</g>
</g>
<path d="M48.6972 9.46443H46.2475L45.8421 10.6315H44.5469L46.7589 4.51318H48.1949L50.4057 10.6315H49.1015L48.6972 9.46443ZM48.3593 8.48313L47.4718 5.93198L46.582 8.4876L48.3593 8.48313Z" fill="white"/>
<path d="M52.1413 9.62455H54.3173V10.6316H50.7402V9.6391L52.8734 6.78584H50.7492V5.77881H54.2914V6.76794L52.1413 9.62455Z" fill="white"/>
<path d="M59.5473 8.57023H55.9804C55.9918 8.88207 56.1247 9.17733 56.3509 9.39376C56.5693 9.59251 56.8568 9.69923 57.1529 9.69139C57.3564 9.7035 57.5588 9.65393 57.7334 9.54923C57.908 9.44454 58.0464 9.28965 58.1305 9.10508H59.4606C59.3227 9.56646 59.0367 9.9704 58.6463 10.2553C58.2199 10.5632 57.7022 10.7207 57.1754 10.7029C56.7338 10.7099 56.2979 10.6027 55.9106 10.3918C55.5417 10.1881 55.2401 9.88269 55.0422 9.51237C54.8272 9.10846 54.7194 8.6567 54.7291 8.19987C54.7208 7.7414 54.8285 7.28819 55.0422 6.88177C55.2374 6.51254 55.5374 6.20831 55.9049 6.00677C56.2971 5.79723 56.737 5.69163 57.1821 5.70019C57.6138 5.69375 58.04 5.79615 58.421 5.99782C58.7824 6.19055 59.0795 6.48372 59.2759 6.84149C59.4837 7.22763 59.5884 7.66026 59.58 8.09804C59.5822 8.25607 59.5713 8.41401 59.5473 8.57023ZM58.3084 7.74782C58.3109 7.60421 58.2814 7.46183 58.222 7.33088C58.1626 7.19992 58.0748 7.08362 57.9649 6.99031C57.7363 6.79893 57.4449 6.69777 57.1461 6.7061C56.8635 6.69891 56.5885 6.79756 56.3757 6.98248C56.1582 7.18248 56.0219 7.45477 55.9928 7.74782H58.3084Z" fill="white"/>
<path d="M62.1175 5.93194C62.3848 5.78136 62.6876 5.70412 62.9949 5.70816V6.99492H62.6683C62.2808 6.99492 61.9925 7.08667 61.792 7.26682C61.5915 7.44697 61.4969 7.7625 61.4969 8.21231V10.6314H60.2637V5.77865H61.4969V6.53169C61.6494 6.28287 61.863 6.07653 62.1175 5.93194Z" fill="white"/>
<path d="M65.4942 5.91829C65.7897 5.76694 66.118 5.69009 66.4504 5.69451C66.8473 5.69046 67.2374 5.79664 67.5767 6.00109C67.9206 6.21117 68.1984 6.51273 68.3786 6.87162C68.582 7.27791 68.6832 7.7271 68.6737 8.18076C68.6823 8.63683 68.5811 9.08836 68.3786 9.49773C68.1985 9.86115 67.9211 10.1682 67.5767 10.385C67.2392 10.5947 66.8484 10.7042 66.4504 10.7006C66.1189 10.7077 65.7907 10.6344 65.4942 10.4869C65.2344 10.3539 65.0095 10.1623 64.8376 9.9274V10.6312H63.6055V4.15039H64.8444V6.49118C65.0096 6.24947 65.233 6.05255 65.4942 5.91829ZM67.2388 7.42884C67.1287 7.22374 66.9623 7.05382 66.759 6.93875C66.5649 6.82773 66.3444 6.77018 66.1204 6.77203C65.8989 6.77166 65.6813 6.83081 65.4908 6.94323C65.2898 7.06123 65.1254 7.23196 65.0156 7.43667C64.8964 7.67302 64.8343 7.93374 64.8343 8.1981C64.8343 8.46246 64.8964 8.72318 65.0156 8.95953C65.1253 9.1649 65.2897 9.33637 65.4908 9.45521C65.6816 9.56677 65.899 9.6255 66.1204 9.62529C66.3451 9.6281 66.5662 9.56883 66.759 9.45409C66.962 9.33369 67.128 9.16032 67.2388 8.95282C67.364 8.71564 67.4264 8.45073 67.4201 8.183C67.4257 7.92033 67.3633 7.66063 67.2388 7.42884Z" fill="white"/>
<path d="M69.3325 6.8821C69.5127 6.52163 69.7908 6.2185 70.1355 6.0071C70.4749 5.80265 70.865 5.69646 71.2618 5.70051C71.5944 5.6946 71.9231 5.77154 72.218 5.9243C72.4756 6.0572 72.6999 6.24569 72.8746 6.47593V5.77884H74.1135V10.6316H72.8746V9.91886C72.704 10.1563 72.4789 10.35 72.218 10.4839C71.9205 10.6373 71.5891 10.7143 71.2539 10.7077C70.8558 10.7121 70.4648 10.6025 70.1277 10.3922C69.7836 10.1749 69.5062 9.86801 69.3258 9.50486C69.1236 9.09539 69.0228 8.64387 69.0318 8.18788C69.025 7.73494 69.1281 7.28703 69.3325 6.8821ZM72.7023 7.44156C72.5937 7.23681 72.4289 7.06687 72.227 6.95147C72.0318 6.83852 71.8098 6.77942 71.5839 6.78027C71.3573 6.77822 71.1345 6.83795 70.9397 6.95297C70.7449 7.06799 70.5856 7.23388 70.4791 7.43261C70.3535 7.6652 70.291 7.92626 70.2977 8.19012C70.2923 8.45562 70.3547 8.71816 70.4791 8.95323C70.588 9.16093 70.7524 9.33477 70.9543 9.45562C71.1438 9.57087 71.3618 9.63168 71.5839 9.6313C71.8096 9.63195 72.0315 9.57328 72.227 9.46122C72.4288 9.34518 72.5936 9.17492 72.7023 8.97001C72.826 8.73405 72.8869 8.47059 72.8791 8.20467C72.887 7.93837 72.8262 7.6745 72.7023 7.4382V7.44156Z" fill="white"/>
<path d="M75.1928 4.99547C75.1244 4.92871 75.07 4.84905 75.0328 4.76115C74.9957 4.67326 74.9766 4.57889 74.9766 4.48357C74.9766 4.38824 74.9957 4.29387 75.0328 4.20598C75.07 4.11808 75.1244 4.03843 75.1928 3.97166C75.3415 3.83901 75.5342 3.76562 75.734 3.76562C75.9338 3.76562 76.1266 3.83901 76.2752 3.97166C76.3437 4.03843 76.3981 4.11808 76.4352 4.20598C76.4723 4.29387 76.4915 4.38824 76.4915 4.48357C76.4915 4.57889 76.4723 4.67326 76.4352 4.76115C76.3981 4.84905 76.3437 4.92871 76.2752 4.99547C76.1266 5.12813 75.9338 5.20151 75.734 5.20151C75.5342 5.20151 75.3415 5.12813 75.1928 4.99547ZM76.3416 5.77872V10.6315H75.1027V5.77872H76.3416Z" fill="white"/>
<path d="M78.5706 11.4235C78.5706 11.9606 78.4369 12.3474 78.1696 12.5838C77.9023 12.8203 77.5194 12.9385 77.0208 12.9385H76.4746V11.8968H76.826C76.9676 11.9106 77.1093 11.8706 77.2224 11.7849C77.2644 11.7364 77.2959 11.68 77.3153 11.619C77.3347 11.558 77.3414 11.4938 77.3351 11.4302V5.77852H78.5683L78.5706 11.4235ZM77.4117 4.99527C77.3435 4.92835 77.2893 4.84864 77.2523 4.76077C77.2154 4.67289 77.1963 4.5786 77.1963 4.48336C77.1963 4.38812 77.2154 4.29383 77.2523 4.20596C77.2893 4.11809 77.3435 4.03838 77.4117 3.97145C77.4853 3.90281 77.5719 3.84928 77.6664 3.81395C77.7609 3.77862 77.8615 3.76218 77.9624 3.76557C78.0614 3.76246 78.1601 3.77907 78.2525 3.81443C78.345 3.84979 78.4294 3.90318 78.5008 3.97145C78.6358 4.10808 78.7114 4.29189 78.7114 4.48336C78.7114 4.67483 78.6358 4.85865 78.5008 4.99527C78.4296 5.06376 78.3452 5.11728 78.2527 5.15266C78.1602 5.18803 78.0615 5.20452 77.9624 5.20115C77.8615 5.20479 77.7608 5.18846 77.6662 5.15312C77.5717 5.11778 77.4852 5.06412 77.4117 4.99527Z" fill="white"/>
<path d="M79.5451 6.8821C79.7249 6.52177 80.0027 6.21867 80.347 6.0071C80.688 5.80164 81.0802 5.69541 81.4789 5.70051C81.8115 5.6946 82.1402 5.77154 82.4351 5.9243C82.6913 6.05587 82.9148 6.24238 83.0895 6.47033V5.77884H84.3284V10.6316H83.0895V9.91886C82.9188 10.1563 82.6937 10.35 82.4329 10.4839C82.1353 10.6373 81.8039 10.7143 81.4688 10.7077C81.0707 10.7121 80.6797 10.6025 80.3425 10.3922C79.9984 10.1749 79.7211 9.86801 79.5406 9.50486C79.3384 9.09539 79.2377 8.64387 79.2466 8.18788C79.2391 7.73512 79.3415 7.28722 79.5451 6.8821ZM82.9149 7.44156C82.8063 7.23681 82.6415 7.06687 82.4396 6.95147C82.2444 6.83852 82.0224 6.77942 81.7965 6.78027C81.5699 6.77822 81.3471 6.83795 81.1523 6.95297C80.9575 7.06799 80.7981 7.23388 80.6917 7.43261C80.5661 7.6652 80.5036 7.92626 80.5103 8.19012C80.5049 8.45562 80.5673 8.71816 80.6917 8.95323C80.8006 9.16093 80.965 9.33477 81.1669 9.45562C81.3564 9.57087 81.5743 9.63168 81.7965 9.6313C82.0222 9.63195 82.2441 9.57328 82.4396 9.46122C82.6414 9.34518 82.8062 9.17492 82.9149 8.97001C83.038 8.73351 83.0981 8.46965 83.0895 8.20355C83.0979 7.93782 83.0378 7.67437 82.9149 7.4382V7.44156Z" fill="white"/>
<path d="M89.4296 6.25509C89.7878 6.61986 89.9668 7.12897 89.9668 7.78242V10.6312H88.7279V7.94579C88.7279 7.56088 88.6311 7.26548 88.4374 7.05736C88.3357 6.9529 88.2128 6.87114 88.0769 6.8175C87.9409 6.76387 87.7951 6.7396 87.649 6.7463C87.5001 6.73868 87.3512 6.76246 87.2123 6.81607C87.0733 6.86968 86.9473 6.95192 86.8426 7.05736C86.6455 7.26548 86.5475 7.56088 86.5475 7.94579V10.6312H85.3086V5.77843H86.5475V6.37929C86.7146 6.16687 86.9305 5.99728 87.1771 5.88473C87.4406 5.76348 87.728 5.70231 88.0184 5.7057C88.6003 5.70719 89.0707 5.89032 89.4296 6.25509Z" fill="white"/>
<path d="M96.5671 9.46443H94.1243L93.7132 10.6315H92.418L94.63 4.51318H96.066L98.2768 10.6315H96.9726L96.5671 9.46443ZM96.2293 8.48313L95.3429 5.93198L94.4531 8.4876L96.2293 8.48313Z" fill="white"/>
<path d="M100.738 5.93194C101.005 5.78144 101.308 5.70421 101.615 5.70815V6.99492H101.289C100.902 6.99492 100.613 7.08667 100.413 7.26681C100.212 7.44696 100.118 7.7625 100.118 8.21231V10.6314H98.8789V5.77864H100.118V6.53168C100.27 6.28286 100.484 6.07652 100.738 5.93194Z" fill="white"/>
<path d="M103.659 6.78548V9.13522C103.653 9.19935 103.661 9.26405 103.681 9.32514C103.702 9.38623 103.735 9.44237 103.779 9.48992C103.894 9.57486 104.037 9.61469 104.18 9.60181H104.752V10.6312H103.977C102.937 10.6312 102.417 10.1292 102.417 9.12515V6.78548H101.836V5.77845H102.417V4.58008H103.656V5.77845H104.748V6.78548H103.659Z" fill="white"/>
<path d="M105.505 4.99521C105.437 4.92844 105.382 4.84878 105.345 4.76089C105.308 4.67299 105.289 4.57862 105.289 4.4833C105.289 4.38798 105.308 4.29361 105.345 4.20571C105.382 4.11782 105.437 4.03816 105.505 3.97139C105.654 3.83889 105.847 3.76562 106.047 3.76562C106.247 3.76563 106.44 3.83889 106.589 3.97139C106.657 4.03831 106.711 4.11802 106.748 4.2059C106.785 4.29377 106.804 4.38806 106.804 4.4833C106.804 4.57854 106.785 4.67283 106.748 4.7607C106.711 4.84858 106.657 4.92829 106.589 4.99521C106.44 5.12771 106.247 5.20097 106.047 5.20097C105.847 5.20097 105.654 5.12771 105.505 4.99521ZM106.654 5.77846V10.6312H105.415V5.77846H106.654Z" fill="white"/>
<path d="M109.893 6.78586H109.038V10.6316H107.788V6.78586H107.232V5.77883H107.788V5.53378C107.788 4.93702 107.958 4.49953 108.298 4.22129C108.638 3.94305 109.152 3.81176 109.84 3.82742V4.86019C109.541 4.8546 109.332 4.90383 109.215 5.00901C109.098 5.11419 109.038 5.30329 109.038 5.57742V5.77883H109.893V6.78586Z" fill="white"/>
<path d="M110.556 4.99521C110.488 4.92844 110.433 4.84878 110.396 4.76089C110.359 4.67299 110.34 4.57862 110.34 4.4833C110.34 4.38798 110.359 4.29361 110.396 4.20571C110.433 4.11782 110.488 4.03816 110.556 3.97139C110.705 3.83889 110.898 3.76562 111.098 3.76563C111.298 3.76562 111.491 3.83889 111.64 3.97139C111.708 4.03831 111.762 4.11802 111.799 4.2059C111.836 4.29377 111.855 4.38806 111.855 4.4833C111.855 4.57854 111.836 4.67283 111.799 4.7607C111.762 4.84858 111.708 4.92829 111.64 4.99521C111.491 5.12771 111.298 5.20097 111.098 5.20097C110.898 5.20097 110.705 5.12771 110.556 4.99521ZM111.705 5.77846V10.6312H110.466V5.77846H111.705Z" fill="white"/>
<path d="M112.69 6.88626C112.885 6.51959 113.182 6.21599 113.545 6.01126C113.926 5.79888 114.358 5.6915 114.795 5.7002C115.4 5.7002 115.901 5.84939 116.298 6.14777C116.704 6.46369 116.986 6.91105 117.095 7.41215H115.765C115.702 7.21362 115.577 7.0403 115.408 6.91759C115.225 6.79356 115.007 6.73083 114.786 6.73856C114.626 6.73188 114.467 6.76287 114.322 6.82899C114.176 6.89511 114.049 6.99449 113.949 7.11899C113.744 7.37262 113.642 7.73291 113.642 8.19987C113.642 8.66684 113.744 9.02452 113.949 9.27292C114.049 9.39723 114.177 9.49639 114.322 9.56231C114.467 9.62823 114.626 9.65905 114.786 9.65224C115.285 9.65224 115.611 9.43069 115.765 8.9876H117.101C116.984 9.48302 116.701 9.92425 116.299 10.2386C115.899 10.5489 115.4 10.7037 114.801 10.7029C114.364 10.7111 113.932 10.6037 113.551 10.3918C113.188 10.1875 112.891 9.8843 112.696 9.51797C112.481 9.11299 112.373 8.66077 112.382 8.20323C112.371 7.7454 112.477 7.29234 112.69 6.88626Z" fill="white"/>
<path d="M117.864 4.99521C117.796 4.92829 117.741 4.84858 117.704 4.7607C117.667 4.67283 117.648 4.57854 117.648 4.4833C117.648 4.38806 117.667 4.29377 117.704 4.2059C117.741 4.11802 117.796 4.03831 117.864 3.97139C118.013 3.83889 118.206 3.76562 118.405 3.76562C118.605 3.76563 118.798 3.83889 118.947 3.97139C119.016 4.03816 119.07 4.11782 119.107 4.20571C119.144 4.29361 119.164 4.38798 119.164 4.4833C119.164 4.57862 119.144 4.67299 119.107 4.76089C119.07 4.84878 119.016 4.92844 118.947 4.99521C118.798 5.12771 118.605 5.20097 118.405 5.20097C118.206 5.20097 118.013 5.12771 117.864 4.99521ZM119.014 5.77846V10.6312H117.775V5.77846H119.014Z" fill="white"/>
<path d="M119.99 6.88209C120.169 6.52152 120.447 6.21833 120.791 6.00709C121.131 5.80264 121.521 5.69645 121.918 5.7005C122.25 5.69469 122.579 5.77162 122.874 5.92429C123.131 6.05719 123.356 6.24568 123.531 6.47592V5.77883H124.769V10.6316H123.531V9.91885C123.36 10.1563 123.135 10.3499 122.874 10.4839C122.576 10.6374 122.244 10.7144 121.909 10.7077C121.511 10.7121 121.12 10.6026 120.782 10.3922C120.438 10.1753 120.161 9.86826 119.981 9.50485C119.78 9.09456 119.681 8.64266 119.692 8.18675C119.685 7.73446 119.787 7.28697 119.99 6.88209ZM123.359 7.44155C123.251 7.2368 123.086 7.06686 122.884 6.95146C122.689 6.83866 122.467 6.77957 122.241 6.78026C122.019 6.77585 121.8 6.83073 121.607 6.93915C121.408 7.05492 121.244 7.22292 121.135 7.42477C121.01 7.65746 120.948 7.91852 120.955 8.18228C120.949 8.44844 121.011 8.71178 121.135 8.94762C121.245 9.15486 121.409 9.32854 121.61 9.45002C121.8 9.56525 122.018 9.62605 122.241 9.62569C122.467 9.62624 122.689 9.56757 122.884 9.45561C123.086 9.33957 123.251 9.16931 123.359 8.96441C123.483 8.72826 123.543 8.46493 123.536 8.19906C123.543 7.9347 123.482 7.673 123.359 7.43819V7.44155Z" fill="white"/>
<path d="M126.998 4.15039V10.6312H125.764V4.15039H126.998Z" fill="white"/>
<path d="M46.158 14.73V20.8393H44.9238V14.73H46.158Z" fill="white"/>
<path d="M51.2699 16.4667C51.6281 16.8315 51.8071 17.3406 51.8071 17.994V20.8395H50.5739V18.1607C50.5739 17.7758 50.4759 17.4804 50.2833 17.2723C50.1816 17.1679 50.0587 17.0861 49.9228 17.0325C49.7869 16.9788 49.641 16.9546 49.4949 16.9613C49.346 16.9535 49.1971 16.9772 49.0581 17.0308C48.9191 17.0844 48.7931 17.1668 48.6885 17.2723C48.4914 17.4804 48.3934 17.7758 48.3934 18.1607V20.8395H47.1602V15.99H48.3991V16.5942C48.5662 16.3818 48.782 16.2122 49.0286 16.0997C49.2921 15.9781 49.5795 15.9165 49.87 15.9195C50.4444 15.9195 50.911 16.1019 51.2699 16.4667Z" fill="white"/>
<path d="M54.1956 16.997V19.3468C54.1896 19.4108 54.197 19.4754 54.2174 19.5364C54.2377 19.5975 54.2706 19.6537 54.3139 19.7015C54.4292 19.7864 54.5719 19.8263 54.7149 19.8134H55.2881V20.8461H54.5121C53.473 20.8461 52.9534 20.3441 52.9534 19.3401V16.997H52.3711V15.99H52.9534V14.7905H54.1923V15.99H55.2848V16.997H54.1956Z" fill="white"/>
<path d="M60.4548 18.7817H56.8867C56.898 19.093 57.0305 19.3878 57.2562 19.6041C57.4743 19.8032 57.762 19.91 58.0581 19.9017C58.2615 19.9132 58.4637 19.8635 58.6383 19.7591C58.8129 19.6547 58.9518 19.5005 59.0368 19.3165H60.3658C60.2299 19.7777 59.9454 20.1818 59.556 20.4668C59.1296 20.7746 58.6119 20.9322 58.0851 20.9143C57.6435 20.9214 57.2076 20.8142 56.8203 20.6033C56.4507 20.3995 56.148 20.0941 55.9486 19.7238C55.734 19.3197 55.6262 18.8681 55.6355 18.4113C55.6251 17.9534 55.7304 17.5002 55.9418 17.0932C56.1371 16.7236 56.4375 16.4193 56.8057 16.2182C57.1954 16.0183 57.6274 15.9132 58.066 15.9116C58.5046 15.9101 58.9373 16.0121 59.3285 16.2093C59.6901 16.4017 59.9873 16.6949 60.1833 17.0529C60.3912 17.439 60.4959 17.8717 60.4874 18.3095C60.4897 18.4675 60.4787 18.6254 60.4548 18.7817ZM59.2159 17.9593C59.219 17.8161 59.1904 17.674 59.132 17.5431C59.0736 17.4121 58.9869 17.2956 58.878 17.2018C58.649 17.0104 58.3572 16.9093 58.0581 16.9175C57.7753 16.9092 57.4999 17.008 57.2877 17.1939C57.0704 17.3941 56.9342 17.6663 56.9048 17.9593H59.2159Z" fill="white"/>
<path d="M62.4038 14.3618V20.8393H61.1641V14.3618H62.4038Z" fill="white"/>
<path d="M64.6345 14.3618V20.8393H63.4004V14.3618H64.6345Z" fill="white"/>
<path d="M65.7104 15.2066C65.6419 15.1399 65.5875 15.0602 65.5504 14.9723C65.5133 14.8844 65.4941 14.79 65.4941 14.6947C65.4941 14.5994 65.5133 14.505 65.5504 14.4171C65.5875 14.3292 65.6419 14.2496 65.7104 14.1828C65.8593 14.0503 66.0522 13.9771 66.2522 13.9771C66.4521 13.9771 66.645 14.0503 66.7939 14.1828C66.8621 14.2497 66.9162 14.3294 66.9532 14.4173C66.9902 14.5052 67.0092 14.5995 67.0092 14.6947C67.0092 14.79 66.9902 14.8843 66.9532 14.9721C66.9162 15.06 66.8621 15.1397 66.7939 15.2066C66.645 15.3391 66.4521 15.4124 66.2522 15.4124C66.0522 15.4124 65.8593 15.3391 65.7104 15.2066ZM66.8592 15.9899V20.8393H65.6282V15.9899H66.8592Z" fill="white"/>
<path d="M70.7306 16.1253C70.9905 16.2559 71.2141 16.448 71.3816 16.6847V15.9932H72.6205V20.8773C72.6276 21.2945 72.5341 21.7073 72.3479 22.0813C72.1642 22.4354 71.8788 22.7275 71.528 22.9205C71.1228 23.1378 70.6671 23.2451 70.2069 23.2315C69.5131 23.2315 68.9447 23.0712 68.5017 22.7504C68.2871 22.5998 68.1084 22.4041 67.9782 22.1773C67.848 21.9506 67.7695 21.6981 67.7482 21.4379H68.9759C69.0423 21.6611 69.1922 21.8505 69.3948 21.9672C69.6315 22.1036 69.9019 22.1714 70.1753 22.163C70.3347 22.1698 70.4938 22.1452 70.6434 22.0904C70.7931 22.0357 70.9303 21.9519 71.0471 21.8441C71.2723 21.6315 71.385 21.3092 71.385 20.8773V20.1243C71.2144 20.3625 70.9899 20.5576 70.7295 20.6938C70.4349 20.8474 70.1059 20.9244 69.7733 20.9176C69.3753 20.921 68.9846 20.8116 68.647 20.6021C68.3005 20.3859 68.0213 20.0783 67.8406 19.7136C67.6374 19.3045 67.5362 18.8528 67.5455 18.3967C67.5364 17.9449 67.6377 17.4976 67.8406 17.0931C68.02 16.7329 68.2974 16.4298 68.6414 16.2181C68.9829 16.013 69.3753 15.9068 69.7744 15.9115C70.1058 15.905 70.4339 15.9783 70.7306 16.1253ZM71.2059 17.6481C71.096 17.4443 70.9315 17.2747 70.7306 17.158C70.535 17.0461 70.3132 16.9874 70.0875 16.9879C69.8607 16.9857 69.6376 17.0453 69.4426 17.1603C69.2476 17.2754 69.0881 17.4414 68.9815 17.6403C68.8563 17.8726 68.7942 18.1333 68.8013 18.3967C68.795 18.6632 68.857 18.9269 68.9815 19.1631C69.0911 19.3704 69.2554 19.544 69.4568 19.6655C69.6466 19.7809 69.865 19.8417 70.0875 19.8412C70.3132 19.8418 70.535 19.7831 70.7306 19.6711C70.9318 19.5543 71.0964 19.3843 71.2059 19.1799C71.3215 18.9409 71.3815 18.6792 71.3815 18.414C71.3815 18.1489 71.3215 17.8871 71.2059 17.6481Z" fill="white"/>
<path d="M78.1124 18.7817H74.5444C74.5561 19.0931 74.6889 19.3879 74.9149 19.6041C75.1329 19.8035 75.4207 19.9103 75.7168 19.9017C75.9203 19.9141 76.1227 19.8647 76.2973 19.7602C76.4719 19.6557 76.6104 19.501 76.6944 19.3165H78.0201C77.8834 19.7773 77.599 20.1812 77.2103 20.4668C76.7836 20.7749 76.2654 20.9324 75.7382 20.9144C75.297 20.9213 74.8615 20.8141 74.4746 20.6033C74.1044 20.3999 73.8012 20.0945 73.6017 19.7238C73.388 19.3207 73.2807 18.8702 73.2897 18.4147C73.2795 17.9555 73.3856 17.5011 73.5983 17.0932C73.7936 16.724 74.0935 16.4198 74.4611 16.2182C74.851 16.0183 75.2831 15.9132 75.722 15.9116C76.1608 15.9101 76.5937 16.0121 76.985 16.2093C77.3464 16.402 77.6435 16.6952 77.8399 17.0529C78.0474 17.4391 78.1518 17.8718 78.1428 18.3095C78.1458 18.4675 78.1357 18.6254 78.1124 18.7817ZM76.8735 17.9593C76.8767 17.8161 76.848 17.674 76.7896 17.5431C76.7313 17.4121 76.6445 17.2956 76.5356 17.2018C76.3071 17.0104 76.0156 16.9092 75.7168 16.9176C75.4337 16.9093 75.158 17.0081 74.9454 17.1939C74.7284 17.3944 74.5923 17.6664 74.5624 17.9593H76.8735Z" fill="white"/>
<path d="M82.9394 16.4667C83.2975 16.8315 83.4766 17.3406 83.4766 17.994V20.8395H82.2377V18.1608C82.2377 17.7758 82.1409 17.4804 81.9471 17.2723C81.8455 17.1679 81.7226 17.0861 81.5867 17.0325C81.4507 16.9788 81.3049 16.9546 81.1587 16.9613C81.0099 16.9537 80.861 16.9775 80.7221 17.0311C80.5831 17.0847 80.4571 17.1669 80.3523 17.2723C80.1552 17.4804 80.0573 17.7758 80.0573 18.1608V20.8395H78.8184V15.99H80.0573V16.5943C80.2244 16.3814 80.4408 16.2118 80.688 16.0997C80.9509 15.978 81.2381 15.9164 81.5282 15.9195C82.1116 15.9195 82.582 16.1019 82.9394 16.4667Z" fill="white"/>
<path d="M84.421 17.0977C84.6165 16.7309 84.913 16.427 85.2759 16.2215C85.6576 16.0101 86.089 15.9032 86.526 15.9116C87.1319 15.9116 87.6331 16.0608 88.0296 16.3592C88.4355 16.6753 88.7172 17.1226 88.8259 17.6235H87.4957C87.4344 17.4264 87.3108 17.2542 87.1432 17.1323C86.9611 17.0079 86.7436 16.9447 86.5226 16.9522C86.3616 16.9446 86.2011 16.9752 86.0544 17.0416C85.9077 17.1079 85.779 17.2081 85.6791 17.3337C85.4733 17.5874 85.3705 17.9477 85.3705 18.4146C85.3705 18.8816 85.4733 19.2389 85.6791 19.4866C85.7784 19.6111 85.9061 19.7104 86.0515 19.7766C86.1969 19.8427 86.3561 19.8737 86.5159 19.867C87.0144 19.867 87.3403 19.6454 87.4935 19.2023H88.8236C88.7072 19.6978 88.4244 20.139 88.0217 20.4533C87.623 20.7636 87.1237 20.9184 86.5238 20.9177C86.0867 20.9257 85.6553 20.8183 85.2736 20.6066C84.9108 20.4015 84.6143 20.098 84.4188 19.7316C84.2165 19.3217 84.1113 18.8712 84.1113 18.4146C84.1113 17.9581 84.2165 17.5076 84.4188 17.0977H84.421Z" fill="white"/>
<path d="M94.0116 18.7817H90.4447C90.4564 19.0931 90.5893 19.3879 90.8153 19.6041C91.0332 19.8035 91.321 19.9103 91.6172 19.9017C91.8206 19.9141 92.023 19.8647 92.1976 19.7602C92.3722 19.6557 92.5107 19.501 92.5948 19.3165H93.9249C93.787 19.7779 93.501 20.1819 93.1106 20.4668C92.6839 20.7749 92.1658 20.9324 91.6386 20.9144C91.1973 20.9213 90.7619 20.8141 90.3749 20.6033C90.005 20.3998 89.7023 20.0944 89.5032 19.7238C89.2881 19.3199 89.1803 18.8682 89.1901 18.4113C89.1828 17.9526 89.2916 17.4993 89.5065 17.0932C89.7018 16.724 90.0017 16.4198 90.3693 16.2182C90.7592 16.0183 91.1914 15.9132 91.6302 15.9116C92.069 15.9101 92.5019 16.0121 92.8932 16.2093C93.2546 16.402 93.5517 16.6952 93.7481 17.0529C93.956 17.4391 94.0607 17.8717 94.0522 18.3095C94.0518 18.4677 94.0383 18.6257 94.0116 18.7817ZM92.7727 17.9593C92.7752 17.8157 92.7457 17.6733 92.6863 17.5423C92.6269 17.4114 92.5391 17.2951 92.4292 17.2018C92.2006 17.0104 91.9092 16.9092 91.6104 16.9176C91.3273 16.9093 91.0516 17.0081 90.8389 17.1939C90.6219 17.3944 90.4858 17.6664 90.456 17.9593H92.7727Z" fill="white"/>
<path d="M97.8424 19.867H99.8697V20.8393H96.6035V14.73H97.8424V19.867Z" fill="white"/>
<path d="M100.405 17.0932C100.585 16.733 100.862 16.4299 101.206 16.2182C101.548 16.0131 101.94 15.9069 102.339 15.9116C102.671 15.9042 103 15.9792 103.295 16.1298C103.552 16.2631 103.776 16.4515 103.951 16.6815V15.99H105.19V20.8394H103.951V20.13C103.78 20.3654 103.555 20.5572 103.295 20.6894C102.997 20.8427 102.666 20.9196 102.33 20.9132C101.932 20.9176 101.541 20.8081 101.204 20.5977C100.86 20.38 100.583 20.0727 100.403 19.7093C100.2 19.3001 100.099 18.8484 100.108 18.3923C100.1 17.9418 100.202 17.4961 100.405 17.0932ZM103.775 17.6527C103.665 17.4489 103.501 17.2793 103.3 17.1626C103.104 17.0506 102.882 16.992 102.657 16.9925C102.43 16.9903 102.207 17.0499 102.012 17.1649C101.817 17.2799 101.657 17.446 101.551 17.6448C101.426 17.8771 101.363 18.1378 101.371 18.4012C101.364 18.6678 101.426 18.9315 101.551 19.1677C101.66 19.3749 101.825 19.5486 102.026 19.6701C102.216 19.7855 102.434 19.8463 102.657 19.8458C102.882 19.8463 103.104 19.7877 103.3 19.6757C103.501 19.5589 103.666 19.3888 103.775 19.1845C103.891 18.9455 103.951 18.6837 103.951 18.4186C103.951 18.1534 103.891 17.8917 103.775 17.6527Z" fill="white"/>
<path d="M108.069 16.1297C108.365 15.9803 108.693 15.9054 109.025 15.9115C109.424 15.9064 109.816 16.0127 110.157 16.2181C110.501 16.4282 110.779 16.7298 110.959 17.0886C111.162 17.4946 111.264 17.9434 111.254 18.3967C111.263 18.8527 111.162 19.3043 110.959 19.7136C110.779 20.0774 110.502 20.3848 110.157 20.6021C109.818 20.8128 109.425 20.9223 109.025 20.9176C108.694 20.9251 108.365 20.8517 108.069 20.7039C107.809 20.5712 107.584 20.3795 107.412 20.1444V20.837H106.176V14.3618H107.415V16.6993C107.582 16.4582 107.807 16.2624 108.069 16.1297ZM109.814 17.6403C109.704 17.4373 109.539 17.269 109.337 17.1547C109.143 17.0436 108.923 16.9861 108.699 16.9879C108.477 16.9877 108.26 17.0465 108.069 17.158C107.868 17.2761 107.703 17.4473 107.594 17.6526C107.475 17.8889 107.412 18.1496 107.412 18.414C107.412 18.6784 107.475 18.9391 107.594 19.1754C107.703 19.381 107.868 19.5525 108.069 19.6711C108.26 19.7827 108.477 19.8414 108.699 19.8412C108.924 19.8427 109.145 19.7818 109.337 19.6655C109.538 19.5449 109.703 19.373 109.814 19.1676C109.939 18.93 110.001 18.6647 109.994 18.3967C110 18.1333 109.938 17.8727 109.814 17.6403Z" fill="white"/>
<defs>
<linearGradient id="paint0_linear_359_9465" x1="21.6318" y1="-7.0277" x2="-9.16535" y2="7.52723" gradientUnits="userSpaceOnUse">
<stop stop-color="#FFBBAC"/>
<stop offset="1" stop-color="#696DD4"/>
</linearGradient>
</defs>
</svg>