<svg width="53" height="52" viewBox="0 0 53 52" fill="none" xmlns="http://www.w3.org/2000/svg">
<g id="hugeicons:ai-brain-03">
<g id="Group">
<path id="Vector" d="M9.16639 35.75C9.16639 37.4739 9.85121 39.1272 11.0702 40.3462C12.2892 41.5652 13.9425 42.25 15.6664 42.25C15.6664 43.6866 16.2371 45.0643 17.2529 46.0802C18.2687 47.096 19.6465 47.6667 21.0831 47.6667C22.5196 47.6667 23.8974 47.096 24.9132 46.0802C25.929 45.0643 26.4997 43.6866 26.4997 42.25C26.4997 43.6866 27.0704 45.0643 28.0862 46.0802C29.102 47.096 30.4798 47.6667 31.9164 47.6667C33.353 47.6667 34.7307 47.096 35.7465 46.0802C36.7624 45.0643 37.3331 43.6866 37.3331 42.25C38.4854 42.2501 39.6171 41.9438 40.6121 41.3626C41.6071 40.7814 42.4297 39.9461 42.9957 38.9423C43.5616 37.9385 43.8505 36.8023 43.8328 35.6501C43.8151 34.4979 43.4914 33.3711 42.8949 32.3852C44.3779 32.0986 45.7149 31.3047 46.6763 30.1398C47.6377 28.9748 48.1635 27.5115 48.1635 26.0011C48.1635 24.4906 47.6377 23.0273 46.6763 21.8624C45.7149 20.6974 44.3779 19.9035 42.8949 19.617C43.492 18.631 43.8161 17.504 43.8341 16.3515C43.8521 15.1989 43.5633 14.0624 42.9973 13.0582C42.4313 12.0541 41.6084 11.2185 40.6131 10.6372C39.6178 10.0559 38.4857 9.74966 37.3331 9.74999C37.3331 8.31341 36.7624 6.93566 35.7465 5.91983C34.7307 4.90401 33.353 4.33333 31.9164 4.33333C30.4798 4.33333 29.102 4.90401 28.0862 5.91983C27.0704 6.93566 26.4997 8.31341 26.4997 9.74999C26.4997 8.31341 25.929 6.93566 24.9132 5.91983C23.8974 4.90401 22.5196 4.33333 21.0831 4.33333C19.6465 4.33333 18.2687 4.90401 17.2529 5.91983C16.2371 6.93566 15.6664 8.31341 15.6664 9.74999C14.514 9.7499 13.3824 10.0561 12.3874 10.6374C11.3923 11.2186 10.5697 12.0539 10.0038 13.0577C9.43781 14.0615 9.14889 15.1977 9.16661 16.3499C9.18432 17.5021 9.50802 18.6289 10.1046 19.6148C8.62156 19.9014 7.28458 20.6953 6.32318 21.8602C5.36178 23.0252 4.83594 24.4885 4.83594 25.9989C4.83594 27.5093 5.36178 28.9726 6.32318 30.1376C7.28458 31.3025 8.62156 32.0964 10.1046 32.383C9.49028 33.3986 9.16582 34.5631 9.16639 35.75Z" stroke="#3EC491" stroke-width="1.5" stroke-linecap="round" stroke-linejoin="round"/>
<path id="Vector_2" d="M16.75 31.4167L20.741 19.4437C20.8412 19.1449 21.0327 18.8851 21.2885 18.7011C21.5443 18.517 21.8515 18.418 22.1667 18.418C22.4818 18.418 22.789 18.517 23.0448 18.7011C23.3006 18.8851 23.4922 19.1449 23.5923 19.4437L27.5833 31.4167M34.0833 18.4167V31.4167M18.9167 27.0833H25.4167" stroke="#3EC491" stroke-width="1.5" stroke-linecap="round" stroke-linejoin="round"/>
</g>
</g>
</svg>
