<svg width="545" height="410" viewBox="0 0 545 410" fill="none" xmlns="http://www.w3.org/2000/svg">
<path fill-rule="evenodd" clip-rule="evenodd" d="M120.836 106.766C122.408 101.324 123.251 95.5733 123.251 89.6255C123.251 55.5907 95.6604 28 61.6255 28C27.5907 28 0 55.5907 0 89.6255C0 123.66 27.5907 151.251 61.6255 151.251C81.9851 151.251 100.039 141.378 111.26 126.158L137.579 129.242L120.836 106.766Z" fill="#F5F6F9"/>
<path d="M90.8249 89.5784C91.8004 89.5784 92.5768 89.8969 93.1542 90.534C93.7415 91.1611 94.0352 92.0272 94.0352 93.1321V97.9999H91.4968V93.4756C91.4968 92.9181 91.3524 92.4851 91.0638 92.1765C90.7751 91.8679 90.3869 91.7136 89.8991 91.7136C89.4113 91.7136 89.0231 91.8679 88.7344 92.1765C88.4457 92.4851 88.3014 92.9181 88.3014 93.4756V97.9999H85.748V89.668H88.3014V90.7729C88.5602 90.4046 88.9086 90.1159 89.3466 89.9069C89.7846 89.6879 90.2774 89.5784 90.8249 89.5784Z" fill="#36373A"/>
<path d="M82.0318 88.8019C81.5839 88.8019 81.2156 88.6725 80.9269 88.4137C80.6481 88.1449 80.5088 87.8164 80.5088 87.4282C80.5088 87.03 80.6481 86.7015 80.9269 86.4427C81.2156 86.1739 81.5839 86.0396 82.0318 86.0396C82.4698 86.0396 82.8282 86.1739 83.1069 86.4427C83.3956 86.7015 83.5399 87.03 83.5399 87.4282C83.5399 87.8164 83.3956 88.1449 83.1069 88.4137C82.8282 88.6725 82.4698 88.8019 82.0318 88.8019ZM83.301 89.668V97.9999H80.7477V89.668H83.301Z" fill="#36373A"/>
<path d="M75.0415 93.6996C75.0415 93.9385 75.0266 94.1874 74.9967 94.4462H69.2181C69.2579 94.9638 69.4222 95.362 69.7108 95.6408C70.0095 95.9095 70.3728 96.0439 70.8009 96.0439C71.4379 96.0439 71.8809 95.7751 72.1298 95.2376H74.8474C74.708 95.7851 74.4542 96.2778 74.0858 96.7158C73.7275 97.1538 73.2746 97.4973 72.7271 97.7461C72.1796 97.995 71.5674 98.1194 70.8904 98.1194C70.0742 98.1194 69.3475 97.9452 68.7104 97.5968C68.0733 97.2484 67.5756 96.7507 67.2172 96.1036C66.8589 95.4566 66.6797 94.7 66.6797 93.834C66.6797 92.968 66.8539 92.2114 67.2023 91.5644C67.5607 90.9173 68.0584 90.4196 68.6955 90.0712C69.3326 89.7228 70.0642 89.5486 70.8904 89.5486C71.6968 89.5486 72.4135 89.7178 73.0406 90.0563C73.6678 90.3947 74.1555 90.8775 74.5039 91.5046C74.8623 92.1318 75.0415 92.8634 75.0415 93.6996ZM72.4284 93.0277C72.4284 92.5897 72.2791 92.2413 71.9805 91.9825C71.6818 91.7236 71.3085 91.5942 70.8606 91.5942C70.4325 91.5942 70.0692 91.7187 69.7706 91.9675C69.4819 92.2164 69.3027 92.5698 69.233 93.0277H72.4284Z" fill="#36373A"/>
<path d="M61.4146 89.5784C62.4499 89.5784 63.2711 89.8919 63.8784 90.5191C64.4956 91.1462 64.8041 92.0172 64.8041 93.1321V97.9999H62.2657V93.4756C62.2657 92.938 62.1214 92.5249 61.8327 92.2362C61.554 91.9376 61.1658 91.7883 60.668 91.7883C60.1703 91.7883 59.7771 91.9376 59.4884 92.2362C59.2097 92.5249 59.0703 92.938 59.0703 93.4756V97.9999H56.5319V93.4756C56.5319 92.938 56.3876 92.5249 56.0989 92.2362C55.8202 91.9376 55.432 91.7883 54.9342 91.7883C54.4365 91.7883 54.0433 91.9376 53.7546 92.2362C53.4759 92.5249 53.3365 92.938 53.3365 93.4756V97.9999H50.7832V89.668H53.3365V90.7132C53.5954 90.3648 53.9338 90.091 54.3519 89.8919C54.77 89.6829 55.2428 89.5784 55.7704 89.5784C56.3976 89.5784 56.955 89.7128 57.4428 89.9815C57.9405 90.2503 58.3287 90.6335 58.6075 91.1313C58.8961 90.6734 59.2893 90.3001 59.7871 90.0114C60.2848 89.7227 60.8273 89.5784 61.4146 89.5784Z" fill="#36373A"/>
<path d="M44.4713 98.1194C43.655 98.1194 42.9183 97.9452 42.2613 97.5968C41.6143 97.2484 41.1016 96.7507 40.7234 96.1036C40.3551 95.4566 40.1709 94.7 40.1709 93.834C40.1709 92.9779 40.36 92.2264 40.7383 91.5793C41.1166 90.9223 41.6342 90.4196 42.2912 90.0712C42.9482 89.7228 43.6848 89.5486 44.5011 89.5486C45.3174 89.5486 46.054 89.7228 46.711 90.0712C47.368 90.4196 47.8857 90.9223 48.2639 91.5793C48.6422 92.2264 48.8313 92.9779 48.8313 93.834C48.8313 94.6901 48.6372 95.4466 48.249 96.1036C47.8707 96.7507 47.3481 97.2484 46.6812 97.5968C46.0242 97.9452 45.2875 98.1194 44.4713 98.1194ZM44.4713 95.9095C44.959 95.9095 45.3721 95.7303 45.7106 95.372C46.059 95.0136 46.2332 94.501 46.2332 93.834C46.2332 93.1671 46.064 92.6544 45.7255 92.296C45.397 91.9377 44.9889 91.7585 44.5011 91.7585C44.0034 91.7585 43.5903 91.9377 43.2618 92.296C42.9333 92.6444 42.769 93.1571 42.769 93.834C42.769 94.501 42.9283 95.0136 43.2468 95.372C43.5753 95.7303 43.9835 95.9095 44.4713 95.9095Z" fill="#36373A"/>
<path d="M30.5332 93.834C30.5332 92.968 30.7074 92.2114 31.0558 91.5644C31.4142 90.9173 31.9069 90.4196 32.5341 90.0712C33.1712 89.7228 33.8978 89.5486 34.7141 89.5486C35.7593 89.5486 36.6303 89.8223 37.3272 90.3698C38.0339 90.9173 38.4968 91.6888 38.7158 92.6843H35.9982C35.7693 92.0472 35.3263 91.7286 34.6693 91.7286C34.2014 91.7286 33.8281 91.9128 33.5494 92.2811C33.2707 92.6395 33.1313 93.1571 33.1313 93.834C33.1313 94.5109 33.2707 95.0335 33.5494 95.4018C33.8281 95.7602 34.2014 95.9394 34.6693 95.9394C35.3263 95.9394 35.7693 95.6208 35.9982 94.9838H38.7158C38.4968 95.9593 38.0339 96.7258 37.3272 97.2832C36.6204 97.8407 35.7494 98.1194 34.7141 98.1194C33.8978 98.1194 33.1712 97.9452 32.5341 97.5968C31.9069 97.2484 31.4142 96.7507 31.0558 96.1036C30.7074 95.4566 30.5332 94.7 30.5332 93.834Z" fill="#36373A"/>
<path d="M77.8231 76.6407L76.1656 80.9262H74.5381L75.4041 76.6407H77.8231Z" fill="#36373A"/>
<path d="M73.5553 70.668L68.3292 82.9568H65.5818L67.493 78.7162L64.1035 70.668H66.9555L68.8817 75.8792L70.7929 70.668H73.5553Z" fill="#36373A"/>
<path d="M63.1001 74.6996C63.1001 74.9385 63.0851 75.1874 63.0553 75.4462H57.2767C57.3165 75.9638 57.4808 76.362 57.7694 76.6407C58.0681 76.9095 58.4314 77.0439 58.8595 77.0439C59.4965 77.0439 59.9395 76.7751 60.1884 76.2376H62.906C62.7666 76.7851 62.5128 77.2778 62.1444 77.7158C61.7861 78.1538 61.3332 78.4973 60.7857 78.7461C60.2382 78.995 59.626 79.1194 58.949 79.1194C58.1328 79.1194 57.4061 78.9452 56.769 78.5968C56.1319 78.2484 55.6342 77.7507 55.2758 77.1036C54.9175 76.4566 54.7383 75.7 54.7383 74.834C54.7383 73.968 54.9125 73.2114 55.2609 72.5644C55.6193 71.9173 56.117 71.4196 56.7541 71.0712C57.3912 70.7228 58.1228 70.5486 58.949 70.5486C59.7554 70.5486 60.4721 70.7178 61.0992 71.0563C61.7264 71.3947 62.2141 71.8775 62.5625 72.5046C62.9209 73.1318 63.1001 73.8634 63.1001 74.6996ZM60.487 74.0277C60.487 73.5897 60.3377 73.2413 60.0391 72.9825C59.7404 72.7236 59.3671 72.5942 58.9192 72.5942C58.4911 72.5942 58.1278 72.7187 57.8292 72.9675C57.5405 73.2164 57.3613 73.5698 57.2916 74.0277H60.487Z" fill="#36373A"/>
<path d="M52.8051 68.5178V78.9999H50.2518V74.6846H46.2799V78.9999H43.7266V68.5178H46.2799V72.6241H50.2518V68.5178H52.8051Z" fill="#36373A"/>
<path d="M207.948 288.225C148.882 254.906 128.01 180.014 161.329 120.948C194.648 61.8819 269.541 41.0099 328.607 74.3288L437.29 135.637C496.356 168.956 517.228 243.848 483.909 302.914C450.59 361.98 375.698 382.852 316.632 349.533L207.948 288.225Z" fill="url(#paint0_linear_126_72)"/>
<rect x="172.162" y="191.6" width="37.2518" height="37.2518" rx="18.6259" transform="rotate(-60.5728 172.162 191.6)" fill="#F9FFFF"/>
<rect x="187" y="187.545" width="12.1068" height="12.1068" rx="6.05342" transform="rotate(-60.5728 187 187.545)" fill="#262626"/>
<rect x="206.707" y="130.359" width="37.2518" height="37.2518" rx="18.6259" transform="rotate(-60.5728 206.707 130.359)" fill="#F9FFFF"/>
<rect x="224" y="126.545" width="12.1068" height="12.1068" rx="6.05342" transform="rotate(-60.5728 224 126.545)" fill="#262626"/>
<path fill-rule="evenodd" clip-rule="evenodd" d="M276.098 356.456C275.561 357.885 275.418 359.503 275.829 360.975C276.108 361.977 276.238 363.039 276.193 364.134C276.145 365.323 275.895 366.456 275.479 367.502C274.843 369.096 274.864 370.961 275.377 372.599C275.649 373.465 275.778 374.392 275.739 375.351C275.557 379.826 271.783 383.305 267.309 383.124C262.835 382.942 259.355 379.168 259.537 374.694C259.601 373.106 259.125 371.447 258.113 370.222C256.566 368.35 255.678 365.923 255.784 363.306C255.899 360.476 257.155 357.962 259.09 356.189C259.901 355.446 260.361 354.371 260.406 353.272C260.587 348.798 264.362 345.318 268.836 345.5C273.31 345.681 276.79 349.455 276.608 353.93C276.572 354.818 276.395 355.667 276.098 356.456Z" fill="#B373FF"/>
<path fill-rule="evenodd" clip-rule="evenodd" d="M276.098 11.4557C275.561 12.8853 275.418 14.5036 275.829 15.9747C276.108 16.9768 276.238 18.039 276.193 19.1345C276.145 20.3233 275.895 21.4565 275.479 22.5023C274.843 24.0965 274.864 25.9612 275.377 27.5989C275.649 28.4653 275.778 29.3923 275.739 30.3515C275.557 34.8257 271.783 38.3056 267.309 38.1239C262.835 37.9423 259.355 34.168 259.537 29.6938C259.601 28.106 259.125 26.4473 258.113 25.2222C256.566 23.3502 255.678 20.9231 255.784 18.306C255.899 15.4764 257.155 12.9625 259.09 11.1896C259.901 10.4466 260.361 9.37107 260.406 8.27207C260.587 3.79784 264.362 0.318006 268.836 0.499633C273.31 0.68126 276.79 4.45557 276.608 8.9298C276.572 9.81791 276.395 10.6668 276.098 11.4557Z" fill="#B677FF"/>
<defs>
<linearGradient id="paint0_linear_126_72" x1="262.5" y1="315" x2="363.5" y2="102" gradientUnits="userSpaceOnUse">
<stop stop-color="#B070FF"/>
<stop offset="1" stop-color="#EBB5FF"/>
</linearGradient>
</defs>
</svg>
