<svg width="53" height="52" viewBox="0 0 53 52" fill="none" xmlns="http://www.w3.org/2000/svg">
<path d="M15.6664 9.74999C14.5137 9.74966 13.3817 10.0559 12.3863 10.6372C11.391 11.2185 10.5682 12.0541 10.0021 13.0582C9.43613 14.0624 9.14732 15.1989 9.16532 16.3515C9.18331 17.504 9.50747 18.631 10.1046 19.617C8.62156 19.9035 7.28458 20.6974 6.32318 21.8624C5.36178 23.0273 4.83594 24.4906 4.83594 26.0011C4.83594 27.5115 5.36178 28.9748 6.32318 30.1398C7.28458 31.3047 8.62156 32.0986 10.1046 32.3852M15.6664 9.74999C15.6664 8.31341 16.2371 6.93566 17.2529 5.91983C18.2687 4.90401 19.6465 4.33333 21.0831 4.33333C22.5196 4.33333 23.8974 4.90401 24.9132 5.91983C25.929 6.93566 26.4997 8.31341 26.4997 9.74999M15.6664 9.74999C15.6664 11.5223 16.5179 13.0953 17.8331 14.0833M10.1046 32.3852C9.50802 33.3711 9.18432 34.4979 9.16661 35.6501C9.14889 36.8023 9.43781 37.9385 10.0038 38.9423C10.5697 39.9461 11.3923 40.7814 12.3874 41.3626C13.3824 41.9438 14.514 42.2501 15.6664 42.25C15.6664 43.6866 16.2371 45.0643 17.2529 46.0802C18.2687 47.096 19.6465 47.6667 21.0831 47.6667C22.5196 47.6667 23.8974 47.096 24.9132 46.0802C25.929 45.0643 26.4997 43.6866 26.4997 42.25M10.1046 32.3852C10.8821 31.0979 12.082 30.1201 13.4997 29.6183M26.4997 9.74999V42.25M26.4997 9.74999C26.4997 8.31341 27.0704 6.93566 28.0862 5.91983C29.102 4.90401 30.4798 4.33333 31.9164 4.33333C33.353 4.33333 34.7307 4.90401 35.7465 5.91983C36.7624 6.93566 37.3331 8.31341 37.3331 9.74999C38.4857 9.74966 39.6178 10.0559 40.6131 10.6372C41.6084 11.2185 42.4313 12.0541 42.9973 13.0582C43.5633 14.0624 43.8521 15.1989 43.8341 16.3515C43.8161 17.504 43.492 18.631 42.8949 19.617M26.4997 42.25C26.4997 43.6866 27.0704 45.0643 28.0862 46.0802C29.102 47.096 30.4798 47.6667 31.9164 47.6667C33.353 47.6667 34.7307 47.096 35.7465 46.0802C36.7624 45.0643 37.3331 43.6866 37.3331 42.25M37.3331 42.25C38.4854 42.2501 39.6171 41.9438 40.6121 41.3626C41.6071 40.7814 42.4297 39.9461 42.9957 38.9423C43.5616 37.9385 43.8505 36.8023 43.8328 35.6501C43.8151 34.4979 43.4914 33.3711 42.8949 32.3852C44.3779 32.0986 45.7149 31.3047 46.6763 30.1398C47.6377 28.9748 48.1635 27.5115 48.1635 26.0011C48.1635 24.4906 47.6377 23.0273 46.6763 21.8624C45.7149 20.6974 44.3779 19.9035 42.8949 19.617M37.3331 42.25C37.3331 40.4777 36.4816 38.9047 35.1664 37.9167M42.8949 19.617C42.1166 20.9026 40.9168 21.8789 39.4997 22.3795" stroke="#A02B37" stroke-width="1.5" stroke-linecap="round" stroke-linejoin="round"/>
</svg>
