<svg width="26" height="23" viewBox="0 0 26 23" fill="none" xmlns="http://www.w3.org/2000/svg">
<mask id="path-1-inside-1_2227_3007" fill="white">
<path fill-rule="evenodd" clip-rule="evenodd" d="M1.98163 2.2331C-0.660542 4.87527 -0.660546 9.15907 1.98163 11.8012L3.3909 13.2105L3.38867 13.2127L12.9568 22.7809L12.9591 22.7787L12.9609 22.7805L22.529 13.2123L22.5272 13.2105L23.9361 11.8017C26.5782 9.15949 26.5782 4.87568 23.9361 2.23351C21.2939 -0.408669 17.0101 -0.408673 14.3679 2.2335L12.9591 3.64236L11.5498 2.2331C8.90762 -0.409078 4.62381 -0.40908 1.98163 2.2331Z"/>
</mask>
<path d="M1.98163 11.8012L0.567416 13.2155L0.567416 13.2155L1.98163 11.8012ZM1.98163 2.2331L3.39585 3.64731L1.98163 2.2331ZM3.3909 13.2105L4.80519 14.6247L6.21925 13.2104L4.80511 11.7963L3.3909 13.2105ZM3.38867 13.2127L1.97438 11.7986L0.56032 13.2128L1.97446 14.627L3.38867 13.2127ZM12.9568 22.7809L11.5426 24.1951L12.9568 25.6093L14.371 24.1951L12.9568 22.7809ZM12.9591 22.7787L14.3736 21.3648L12.9594 19.9499L11.5448 21.3645L12.9591 22.7787ZM12.9609 22.7805L11.5463 24.1943L12.9605 25.6093L14.3751 24.1947L12.9609 22.7805ZM22.529 13.2123L23.9432 14.6265L25.3571 13.2127L23.9436 11.7985L22.529 13.2123ZM22.5272 13.2105L21.113 11.7963L19.6992 13.2101L21.1126 14.6244L22.5272 13.2105ZM23.9361 11.8017L22.5219 10.3875L22.5218 10.3875L23.9361 11.8017ZM23.9361 2.23351L22.5219 3.64772L22.5219 3.64772L23.9361 2.23351ZM14.3679 2.2335L15.7821 3.64772L15.7821 3.64772L14.3679 2.2335ZM12.9591 3.64236L11.5448 5.05657L12.9591 6.47079L14.3733 5.05657L12.9591 3.64236ZM11.5498 2.2331L12.964 0.818884L12.964 0.818883L11.5498 2.2331ZM3.39584 10.387C1.53472 8.52591 1.53472 5.50844 3.39585 3.64731L0.56742 0.818882C-2.8558 4.2421 -2.85581 9.79224 0.567416 13.2155L3.39584 10.387ZM4.80511 11.7963L3.39584 10.387L0.567416 13.2155L1.97668 14.6247L4.80511 11.7963ZM4.80296 14.6269L4.80519 14.6247L1.97661 11.7964L1.97438 11.7986L4.80296 14.6269ZM14.371 21.3667L4.80288 11.7985L1.97446 14.627L11.5426 24.1951L14.371 21.3667ZM11.5448 21.3645L11.5426 21.3667L14.371 24.1951L14.3733 24.1929L11.5448 21.3645ZM14.3755 21.3666L14.3736 21.3648L11.5445 24.1925L11.5463 24.1943L14.3755 21.3666ZM21.1148 11.7981L11.5467 21.3663L14.3751 24.1947L23.9432 14.6265L21.1148 11.7981ZM21.1126 14.6244L21.1144 14.6262L23.9436 11.7985L23.9418 11.7967L21.1126 14.6244ZM22.5218 10.3875L21.113 11.7963L23.9414 14.6247L25.3503 13.2159L22.5218 10.3875ZM22.5219 3.64772C24.383 5.50885 24.383 8.52633 22.5219 10.3875L25.3503 13.2159C28.7735 9.79266 28.7735 4.24252 25.3503 0.819292L22.5219 3.64772ZM15.7821 3.64772C17.6432 1.78659 20.6607 1.78659 22.5219 3.64772L25.3503 0.819293C21.9271 -2.60393 16.3769 -2.60394 12.9537 0.819289L15.7821 3.64772ZM14.3733 5.05657L15.7821 3.64772L12.9537 0.819288L11.5448 2.22815L14.3733 5.05657ZM10.1356 3.64731L11.5448 5.05657L14.3733 2.22815L12.964 0.818884L10.1356 3.64731ZM3.39585 3.64731C5.25697 1.78618 8.27445 1.78618 10.1356 3.64731L12.964 0.818883C9.54078 -2.60434 3.99064 -2.60434 0.56742 0.818882L3.39585 3.64731Z" fill="#9493A5" mask="url(#path-1-inside-1_2227_3007)"/>
</svg>
