<svg width="53" height="52" viewBox="0 0 53 52" fill="none" xmlns="http://www.w3.org/2000/svg">
<g id="hugeicons:ai-brain-02">
<g id="Group">
<path id="Vector" d="M26.4997 9.74992C26.4997 8.31333 25.929 6.93558 24.9132 5.91976C23.8974 4.90393 22.5196 4.33325 21.0831 4.33325C19.6465 4.33325 18.2687 4.90393 17.2529 5.91976C16.2371 6.93558 15.6664 8.31333 15.6664 9.74992C14.5137 9.74959 13.3817 10.0558 12.3863 10.6371C11.391 11.2185 10.5682 12.054 10.0021 13.0581C9.43613 14.0623 9.14732 15.1989 9.16532 16.3514C9.18331 17.5039 9.50747 18.6309 10.1046 19.6169C8.62156 19.9035 7.28458 20.6974 6.32318 21.8623C5.36178 23.0273 4.83594 24.4906 4.83594 26.001C4.83594 27.5114 5.36178 28.9747 6.32318 30.1397C7.28458 31.3046 8.62156 32.0985 10.1046 32.3851C9.50802 33.371 9.18432 34.4978 9.16661 35.65C9.14889 36.8022 9.43781 37.9384 10.0038 38.9422C10.5697 39.946 11.3923 40.7813 12.3874 41.3625C13.3824 41.9438 14.514 42.25 15.6664 42.2499C15.6667 43.6865 16.2376 45.0641 17.2537 46.0798C18.2697 47.0954 19.6475 47.6658 21.0841 47.6655C22.5207 47.6652 23.8984 47.0943 24.914 46.0782C25.9296 45.0622 26.5 43.6843 26.4997 42.2478" stroke="#E8A546" stroke-width="1.5" stroke-linecap="round" stroke-linejoin="round"/>
<path id="Vector_2" d="M26.5 42.25C26.5 43.6866 27.0707 45.0643 28.0865 46.0802C29.1023 47.096 30.4801 47.6667 31.9167 47.6667C33.3533 47.6667 34.731 47.096 35.7468 46.0802C36.7627 45.0643 37.3333 43.6866 37.3333 42.25C38.4857 42.2501 39.6173 41.9438 40.6124 41.3626C41.6074 40.7814 42.43 39.9461 42.996 38.9423C43.5619 37.9385 43.8508 36.8023 43.8331 35.6501C43.8154 34.4979 43.4917 33.3711 42.8952 32.3852C44.3782 32.0986 45.7151 31.3047 46.6765 30.1398C47.6379 28.9748 48.1638 27.5115 48.1638 26.0011C48.1638 24.4907 47.6379 23.0273 46.6765 21.8624C45.7151 20.6974 44.3782 19.9035 42.8952 19.617C43.4923 18.631 43.8164 17.504 43.8344 16.3515C43.8524 15.1989 43.5636 14.0624 42.9976 13.0582C42.4316 12.0541 41.6087 11.2185 40.6134 10.6372C39.618 10.0559 38.486 9.74967 37.3333 9.74999C37.3335 9.03867 37.1935 8.33428 36.9214 7.67704C36.6493 7.01981 36.2505 6.4226 35.7476 5.91952C35.2447 5.41643 34.6477 5.01732 33.9905 4.74498C33.3334 4.47263 32.6291 4.33239 31.9177 4.33224C30.4812 4.33196 29.1033 4.90237 28.0873 5.91798C27.0712 6.9336 26.5003 8.31124 26.5 9.74783" stroke="#E8A546" stroke-width="1.5" stroke-linecap="round" stroke-linejoin="round"/>
<path id="Vector_3" d="M23.2212 15.1688V19.4567M15.666 22.7522H20.112M33.0492 22.7522H37.4952M33.0492 29.1958H37.4952M15.666 29.1958H20.112M23.2212 32.5433V36.8333M29.7753 32.5433V36.8333M29.7559 15.1667V19.4567M22.2809 32.4328H30.8847C31.4593 32.4328 32.0104 32.2045 32.4167 31.7982C32.8231 31.3919 33.0513 30.8408 33.0513 30.2662V21.6233C33.0513 21.0487 32.8231 20.4976 32.4167 20.0913C32.0104 19.6849 31.4593 19.4567 30.8847 19.4567H22.2809C21.7062 19.4567 21.1551 19.6849 20.7488 20.0913C20.3425 20.4976 20.1142 21.0487 20.1142 21.6233V30.2662C20.1142 30.8408 20.3425 31.3919 20.7488 31.7982C21.1551 32.2045 21.7062 32.4328 22.2809 32.4328Z" stroke="#E8A546" stroke-width="1.5" stroke-linecap="round" stroke-linejoin="round"/>
</g>
</g>
</svg>
