<svg width="84" height="84" viewBox="0 0 84 84" fill="none" xmlns="http://www.w3.org/2000/svg">
<path d="M38.0272 3.20906C40.0226 1.39062 43.0744 1.39062 45.0697 3.20906C46.5894 4.59401 48.7798 4.95952 50.6668 4.14305C53.1445 3.07102 56.0309 4.06194 57.3277 6.42973C58.3153 8.23308 60.2684 9.29001 62.3183 9.1305C65.0098 8.92105 67.4181 10.7955 67.8758 13.4561C68.2243 15.4824 69.7284 17.1162 71.719 17.6309C74.3327 18.3068 76.0019 20.8616 75.5709 23.5267C75.2426 25.5564 76.1347 27.59 77.8503 28.7232C80.1029 30.2111 80.8521 33.1695 79.5791 35.5502C78.6096 37.3633 78.793 39.5764 80.0477 41.2053C81.6952 43.344 81.4431 46.3854 79.4661 48.2237C77.9604 49.6238 77.4153 51.7766 78.0731 53.7246C78.9369 56.2823 77.711 59.0771 75.2442 60.1739C73.3655 61.0092 72.1509 62.8683 72.1405 64.9244C72.127 67.624 70.0601 69.8693 67.3708 70.1057C65.3226 70.2858 63.5702 71.6497 62.8928 73.591C62.0035 76.14 59.3195 77.5925 56.6992 76.9429C54.7035 76.4482 52.6031 77.1692 51.3321 78.7854C49.6633 80.9075 46.6531 81.4098 44.3857 79.9445C42.6588 78.8286 40.4381 78.8286 38.7112 79.9445C36.4438 81.4098 33.4336 80.9075 31.7648 78.7854C30.4938 77.1692 28.3934 76.4482 26.3978 76.9429C23.7774 77.5925 21.0935 76.14 20.2041 73.591C19.5267 71.6497 17.7743 70.2858 15.7261 70.1057C13.0368 69.8693 10.9699 67.624 10.9564 64.9244C10.9461 62.8683 9.73147 61.0092 7.85272 60.1739C5.38593 59.0771 4.16003 56.2823 5.02379 53.7246C5.68165 51.7766 5.1365 49.6238 3.63078 48.2237C1.65379 46.3854 1.40177 43.344 3.04922 41.2053C4.30395 39.5764 4.48733 37.3633 3.51782 35.5502C2.24485 33.1695 2.99402 30.2111 5.24664 28.7232C6.96227 27.59 7.85431 25.5564 7.52606 23.5267C7.09508 20.8616 8.76425 18.3068 11.3779 17.6309C13.3686 17.1162 14.8726 15.4824 15.2212 13.4561C15.6789 10.7955 18.0872 8.92105 20.7787 9.1305C22.8286 9.29001 24.7816 8.23308 25.7692 6.42973C27.066 4.06194 29.9525 3.07102 32.4301 4.14305C34.3172 4.95952 36.5076 4.59401 38.0272 3.20906Z" fill="#8D83FF"/>
<path d="M35.6822 25.3433C31.7366 26.2176 29.1713 29.9709 29.6974 33.9119C29.7463 34.2789 30.1075 34.5073 30.469 34.4272L37.3569 32.901C41.5224 31.978 44.1495 27.8461 43.2246 23.6721C42.2998 19.4981 38.1732 16.8626 34.0076 17.7857L27.1197 19.3119C26.7582 19.392 26.5274 19.7516 26.638 20.1049C27.826 23.8993 31.7366 26.2176 35.6822 25.3433Z" fill="#C1D5FF"/>
<circle cx="64.2331" cy="34.582" r="3.35221" fill="#5AC7BF"/>
<circle cx="55.0146" cy="21.0842" r="4.74902" fill="white"/>
<path d="M40.2251 59.2009C40.0731 59.0225 39.8054 59.0012 39.6271 59.1532C37.9016 60.6239 36.4362 61.4898 35.2307 61.7509C34.026 62.013 33.1688 61.8397 32.654 61.2356C32.0956 60.5805 32.0599 59.6793 32.5426 58.5216C33.0253 57.3638 34.0937 56.0824 35.7453 54.6747C35.9442 54.5051 35.968 54.2064 35.7984 54.0074L30.5862 47.8923C30.399 47.6727 30.0693 47.6465 29.8497 47.8336C26.2922 50.866 24.3132 54.0299 23.9128 57.3253C23.5124 60.6208 24.4445 63.5916 26.7092 66.2378C28.641 68.5444 31.3786 70.0267 34.3578 70.3795C36.1631 70.5623 37.9831 70.3028 39.6606 69.6234C41.8024 68.7808 43.7777 67.5678 45.4967 66.0395C45.675 65.8875 45.6963 65.6198 45.5444 65.4415L40.2251 59.2009Z" fill="#FFE17B"/>
<path d="M12.2929 39.5069C12.2809 39.3215 12.3465 39.1393 12.474 39.004L19.1954 31.8697C19.3229 31.7344 19.5008 31.6581 19.6867 31.659L22.3898 31.6724C22.5596 31.6732 22.7227 31.7384 22.8462 31.8548L27.2317 35.9864C27.3552 36.1028 27.43 36.2618 27.4409 36.4311L27.6131 39.0955C27.6251 39.281 27.5595 39.4632 27.432 39.5985L20.4894 46.9676C20.4832 46.9742 20.4745 46.9779 20.4654 46.9779L17.5011 46.9632C17.3313 46.9624 17.1682 46.8972 17.0447 46.7808L12.4959 42.4953C12.4891 42.4889 12.485 42.4801 12.4844 42.4708L12.2929 39.5069Z" fill="#FF806E"/>
<path d="M12.2929 39.5069C12.2809 39.3215 12.3465 39.1393 12.474 39.004L19.1954 31.8697C19.3229 31.7344 19.5008 31.6581 19.6867 31.659L22.3898 31.6724C22.5596 31.6732 22.7227 31.7384 22.8462 31.8548L27.2317 35.9864C27.3552 36.1028 27.43 36.2618 27.4409 36.4311L27.6131 39.0955C27.6251 39.281 27.5595 39.4632 27.432 39.5985L20.4894 46.9676C20.4832 46.9742 20.4745 46.9779 20.4654 46.9779L17.5011 46.9632C17.3313 46.9624 17.1682 46.8972 17.0447 46.7808L12.4959 42.4953C12.4891 42.4889 12.485 42.4801 12.4844 42.4708L12.2929 39.5069Z" stroke="#19154A"/>
<mask id="mask0_325_4483" style="mask-type:alpha" maskUnits="userSpaceOnUse" x="1" y="1" width="81" height="80">
<path d="M38.0272 3.20906C40.0226 1.39062 43.0744 1.39062 45.0697 3.20906C46.5894 4.59401 48.7798 4.95952 50.6668 4.14305C53.1445 3.07102 56.0309 4.06194 57.3277 6.42973C58.3153 8.23308 60.2684 9.29001 62.3183 9.1305C65.0098 8.92105 67.4181 10.7955 67.8758 13.4561C68.2243 15.4824 69.7284 17.1162 71.719 17.6309C74.3327 18.3068 76.0019 20.8616 75.5709 23.5267C75.2426 25.5564 76.1347 27.59 77.8503 28.7232C80.1029 30.2111 80.8521 33.1695 79.5791 35.5502C78.6096 37.3633 78.793 39.5764 80.0477 41.2053C81.6952 43.344 81.4431 46.3854 79.4661 48.2237C77.9604 49.6238 77.4153 51.7766 78.0731 53.7246C78.9369 56.2823 77.711 59.0771 75.2442 60.1739C73.3655 61.0092 72.1509 62.8683 72.1405 64.9244C72.127 67.624 70.0601 69.8693 67.3708 70.1057C65.3226 70.2858 63.5702 71.6497 62.8928 73.591C62.0035 76.14 59.3195 77.5925 56.6992 76.9429C54.7035 76.4482 52.6031 77.1692 51.3321 78.7854C49.6633 80.9075 46.6531 81.4098 44.3857 79.9445C42.6588 78.8286 40.4381 78.8286 38.7112 79.9445C36.4438 81.4098 33.4336 80.9075 31.7648 78.7854C30.4938 77.1692 28.3934 76.4482 26.3978 76.9429C23.7774 77.5925 21.0935 76.14 20.2041 73.591C19.5267 71.6497 17.7743 70.2858 15.7261 70.1057C13.0368 69.8693 10.9699 67.624 10.9564 64.9244C10.9461 62.8683 9.73147 61.0092 7.85272 60.1739C5.38593 59.0771 4.16003 56.2823 5.02379 53.7246C5.68165 51.7766 5.1365 49.6238 3.63078 48.2237C1.65379 46.3854 1.40177 43.344 3.04922 41.2053C4.30395 39.5764 4.48733 37.3633 3.51782 35.5502C2.24485 33.1695 2.99402 30.2111 5.24664 28.7232C6.96227 27.59 7.85431 25.5564 7.52606 23.5267C7.09508 20.8616 8.76425 18.3068 11.3779 17.6309C13.3686 17.1162 14.8726 15.4824 15.2212 13.4561C15.6789 10.7955 18.0872 8.92105 20.7787 9.1305C22.8286 9.29001 24.7816 8.23308 25.7692 6.42973C27.066 4.06194 29.9525 3.07102 32.4301 4.14305C34.3172 4.95952 36.5076 4.59401 38.0272 3.20906Z" fill="#8D83FF"/>
</mask>
<g mask="url(#mask0_325_4483)">
<path d="M46.5776 57.3197L52.2281 59.0128C53.1958 59.3027 54.0269 59.931 54.5698 60.7829L72.6188 89.1031C73.8731 91.0712 76.489 91.6433 78.4504 90.3785L88.2238 84.076C90.539 82.5829 90.8199 79.3053 88.7926 77.44L65.2384 55.769C64.2068 54.8199 63.7153 53.4197 63.9274 52.0341L64.0555 51.1973C64.1923 50.303 64.0375 49.3885 63.6138 48.5891L58.6096 39.1465C58.1223 38.227 57.3117 37.5206 56.3342 37.1635L56.1564 37.0986C55.3451 36.8023 54.4623 36.7627 53.6277 36.9852L47.4338 38.6364C45.74 39.088 43.9436 38.4426 42.9244 37.0164L37.9113 30.0016C37.4861 29.4065 36.7366 29.1373 36.0299 29.3257C34.9658 29.6094 34.4223 30.7911 34.8994 31.7837L41.0238 44.524C41.4801 45.4732 41.564 46.559 41.259 47.567L40.6924 49.4396C40.2093 51.0364 40.7146 52.7679 41.9809 53.854L45.0451 56.4824C45.4918 56.8655 46.0138 57.1508 46.5776 57.3197Z" fill="#FFEBB8"/>
<path d="M59.061 61.3814L56.2607 63.4462C55.8933 63.7171 55.8087 64.2315 56.07 64.6059L56.8555 65.7308C57.1365 66.1332 57.7007 66.211 58.0801 65.8995L60.5046 63.9091C60.8041 63.6632 61.2327 63.6535 61.543 63.8855L62.1691 64.3535C62.4608 64.5716 62.8598 64.5773 63.1577 64.3677L66.7352 61.8504C67.1051 61.5901 67.2033 61.084 66.9575 60.7043L66.7504 60.3843C66.4941 59.9884 66.6129 59.4594 67.0137 59.2111L67.7788 58.737C68.2404 58.451 68.3146 57.8094 67.9305 57.4257L66.9531 56.4492C66.6617 56.1581 66.2025 56.1206 65.8676 56.3605L65.4675 56.6473C65.1382 56.8833 64.6874 56.8512 64.3948 56.571L64.0623 56.2527C63.7775 55.9799 63.3414 55.9414 63.0132 56.1601L59.2833 58.6453C58.9245 58.8844 58.8043 59.3559 59.0048 59.7376L59.3067 60.3121C59.5002 60.6803 59.3958 61.1346 59.061 61.3814Z" fill="#363739"/>
<path d="M62.0442 63.0687L60.0697 60.176C59.8068 59.791 59.9069 59.2657 60.2929 59.0042L63.067 57.1252C63.4696 56.8525 64.0189 56.9766 64.2652 57.3959L66.0597 60.4517C66.2863 60.8376 66.1714 61.3333 65.7982 61.5802L63.2041 63.2962C62.8203 63.5501 62.3037 63.4488 62.0442 63.0687Z" fill="white"/>
<path d="M62.8848 59.2119L63.1561 59.0283L63.8559 59.9747L63.8752 59.9616L63.2859 58.9405L63.4642 58.8198L64.193 59.7465L64.2124 59.7334L63.594 58.7319L63.8653 58.5483L64.7404 60.117L64.4362 60.3229L63.8924 59.6321L63.8749 59.6439L64.3141 60.4055L64.0098 60.6114L62.8848 59.2119Z" fill="#363739"/>
<path d="M62.3701 60.0912C62.1939 59.8307 62.245 59.614 62.4562 59.4711C62.6713 59.3255 62.8983 59.3602 63.0716 59.6164L63.5803 60.3681C63.7551 60.6264 63.703 60.8499 63.4879 60.9955C63.2767 61.1385 63.055 61.1032 62.8788 60.8428L62.3701 60.0912ZM62.6286 59.8885L63.1644 60.6804C63.2189 60.7608 63.2777 60.7642 63.3184 60.7367C63.361 60.7078 63.3778 60.6533 63.3233 60.5728L62.7875 59.781C62.7316 59.6984 62.6776 59.6979 62.6349 59.7268C62.5942 59.7543 62.5727 59.8059 62.6286 59.8885Z" fill="#363739"/>
<path d="M61.7485 59.9805L62.0198 59.7969L63.0227 61.2789L62.7224 61.4822L61.8796 60.6418L61.8641 60.6523L62.579 61.5793L62.3077 61.7629L61.3047 60.2808L61.6031 60.0788L62.456 60.9216L62.4715 60.9111L61.7485 59.9805Z" fill="#363739"/>
</g>
</svg>
