<svg xmlns="http://www.w3.org/2000/svg" width="144" height="41" viewBox="0 0 144 41" fill="none">
<path d="M3.18 6.2112C4.79819 6.2112 6.11 4.89939 6.11 3.2812C6.11 1.663 4.79819 0.351196 3.18 0.351196C1.56181 0.351196 0.25 1.663 0.25 3.2812C0.25 4.89939 1.56181 6.2112 3.18 6.2112Z" fill="url(#paint0_linear_514_6920)"/>
<path d="M24.8608 6.03117C23.8543 4.99223 22.6456 4.17052 21.3092 3.61671C19.9729 3.06291 18.5372 2.78876 17.0908 2.81118C15.6487 2.78693 14.217 3.06036 12.8852 3.6144C11.5535 4.16843 10.3503 4.99116 9.35085 6.03117C8.30597 7.03583 7.47977 8.24539 6.92397 9.58411C6.36818 10.9228 6.09476 12.3619 6.12085 13.8112V25.2112C6.67765 25.2112 7.229 25.1015 7.74342 24.8884C8.25784 24.6753 8.72526 24.363 9.11898 23.9693C9.5127 23.5756 9.82502 23.1082 10.0381 22.5938C10.2512 22.0793 10.3608 21.528 10.3608 20.9712V13.8412C10.3478 12.2281 10.9198 10.6649 11.9708 9.44117C12.5952 8.69195 13.3787 8.09136 14.2644 7.68311C15.1501 7.27486 16.1157 7.06922 17.0908 7.08117C17.9755 7.07986 18.8517 7.25297 19.6694 7.59059C20.4871 7.92822 21.2301 8.42374 21.8561 9.04881C22.4821 9.67388 22.9788 10.4162 23.3176 11.2334C23.6564 12.0506 23.8308 12.9265 23.8308 13.8112V25.2112C24.3877 25.2112 24.939 25.1015 25.4534 24.8884C25.9678 24.6753 26.4353 24.363 26.829 23.9693C27.2227 23.5756 27.535 23.1082 27.7481 22.5938C27.9612 22.0793 28.0708 21.528 28.0708 20.9712V13.8112C28.0936 12.3642 27.8206 10.9278 27.2686 9.58996C26.7166 8.25217 25.8973 7.04117 24.8608 6.03117Z" fill="#262626"/>
<path d="M72.3193 3.28113V14.2811C72.3291 15.1677 72.1567 16.0468 71.8126 16.8639C71.4686 17.681 70.9603 18.4187 70.3193 19.0311C69.7072 19.6726 68.9695 20.1813 68.1524 20.5253C67.3352 20.8694 66.4559 21.0416 65.5693 21.0311C64.6723 21.0312 63.7841 20.8547 62.9553 20.5115C62.1266 20.1684 61.3736 19.6653 60.7393 19.0311C60.1149 18.4054 59.6251 17.6586 59.3 16.8365C58.975 16.0145 58.8216 15.1347 58.8493 14.2511V7.52113C58.8493 6.39661 58.4025 5.31815 57.6074 4.523C56.8122 3.72784 55.7338 3.28113 54.6093 3.28113V14.2811C54.587 15.7249 54.8633 17.1576 55.4208 18.4895C55.9784 19.8215 56.8051 21.0238 57.8493 22.0211C58.8487 23.0611 60.0519 23.8839 61.3836 24.4379C62.7154 24.9919 64.1471 25.2654 65.5893 25.2411C68.0311 25.2655 70.4071 24.4499 72.3193 22.9311V28.9311C72.3325 29.8553 72.1626 30.773 71.8193 31.6311C71.476 32.4893 70.9662 33.271 70.3193 33.9311C69.7188 34.5862 68.9886 35.1092 68.1752 35.467C67.3618 35.8248 66.4829 36.0096 65.5943 36.0096C64.7056 36.0096 63.8267 35.8248 63.0133 35.467C62.1999 35.1092 61.4698 34.5862 60.8693 33.9311C60.1791 33.2627 59.6284 32.4639 59.2493 31.5811C58.9419 30.7676 58.395 30.0664 57.6809 29.5701C56.9667 29.0738 56.1189 28.8057 55.2493 28.8011C55.0243 28.7934 54.7993 28.8136 54.5793 28.8611C54.5578 30.3505 54.8412 31.8286 55.4122 33.2044C55.9831 34.5802 56.8295 35.8246 57.8993 36.8611C58.8857 37.91 60.0765 38.7458 61.3981 39.3171C62.7198 39.8884 64.1444 40.1832 65.5843 40.1832C67.0241 40.1832 68.4487 39.8884 69.7704 39.3171C71.0921 38.7458 72.2828 37.91 73.2693 36.8611C74.3035 35.8697 75.1311 34.6832 75.7044 33.3702C76.2776 32.0572 76.5852 30.6436 76.6093 29.2111V7.52113C76.6093 6.39661 76.1625 5.31815 75.3674 4.523C74.5722 3.72784 73.4938 3.28113 72.3693 3.28113H72.3193Z" fill="#262626"/>
<path d="M94.3508 5.52119C93.5407 4.67241 92.5636 4.00056 91.4811 3.54792C90.3985 3.09529 89.234 2.87169 88.0608 2.89119C86.8872 2.88321 85.7237 3.10849 84.6379 3.55394C83.5521 3.99939 82.5656 4.65613 81.7357 5.48602C80.9058 6.31591 80.249 7.30241 79.8036 8.38824C79.3581 9.47407 79.1329 10.6376 79.1408 11.8112V25.2112C79.6976 25.2112 80.249 25.1015 80.7634 24.8884C81.2778 24.6754 81.7452 24.363 82.139 23.9693C82.5327 23.5756 82.845 23.1082 83.0581 22.5938C83.2712 22.0793 83.3808 21.528 83.3808 20.9712V11.9712C83.3711 11.3186 83.4927 10.6707 83.7384 10.066C83.9841 9.46129 84.3488 8.91215 84.8108 8.45119C85.2359 8.02385 85.7428 7.68668 86.3013 7.45987C86.8597 7.23306 87.4582 7.12127 88.0608 7.13119C88.6766 7.12311 89.2876 7.24039 89.8567 7.47592C90.4257 7.71144 90.9409 8.06027 91.3708 8.50119C91.525 8.65821 91.6687 8.82524 91.8008 9.00119H96.5408C96.1022 7.68152 95.3509 6.48755 94.3508 5.52119Z" fill="#262626"/>
<path d="M52.7693 11.4912C52.2884 9.48593 51.2481 7.6584 49.7693 6.2212C48.5862 5.01444 47.1427 4.09431 45.5493 3.5312L45.0193 3.3512C43.9371 3.03906 42.8156 2.88414 41.6893 2.8912C40.1835 2.86498 38.6882 3.14684 37.2953 3.71948C35.9024 4.29213 34.6412 5.14346 33.5893 6.2212C32.5123 7.26586 31.6604 8.5198 31.086 9.90591C30.5116 11.292 30.2269 12.781 30.2493 14.2812C30.2493 14.4412 30.2493 14.6112 30.2493 14.7812C30.2493 14.9512 30.2493 15.1112 30.2493 15.2812C30.4154 17.7603 31.4327 20.1059 33.1293 21.9212L33.5393 22.3512C35.6895 24.4843 38.5955 25.6812 41.6243 25.6812C44.653 25.6812 47.5591 24.4843 49.7093 22.3512C49.8493 22.2112 49.9893 22.0612 50.1093 21.9212C50.8692 21.1036 51.4967 20.1724 51.9693 19.1612H48.3493C47.4886 19.1741 46.656 19.4692 45.9793 20.0012C45.0647 20.7369 43.9638 21.2042 42.7993 21.3512C42.664 21.3777 42.527 21.3944 42.3893 21.4012C42.1629 21.4164 41.9357 21.4164 41.7093 21.4012H41.6593C41.4262 21.4164 41.1924 21.4164 40.9593 21.4012L40.5293 21.3512C40.1917 21.308 39.8575 21.2412 39.5293 21.1512C39.3093 21.0812 39.0893 21.0112 38.8793 20.9212C38.3245 20.6942 37.8058 20.3876 37.3393 20.0112C37.1716 19.8987 37.0143 19.7716 36.8693 19.6312L36.5593 19.3312C36.3393 19.1112 36.1393 18.8812 35.9593 18.6612C35.7229 18.3452 35.5122 18.0108 35.3293 17.6612C35.2693 17.5512 35.1993 17.4212 35.1393 17.2912C35.0924 17.2092 35.0555 17.1219 35.0293 17.0312C34.9766 16.917 34.9299 16.8002 34.8893 16.6812C34.8341 16.5417 34.7906 16.3979 34.7593 16.2512C34.6567 15.925 34.583 15.5904 34.5393 15.2512H53.0493C53.0493 15.1012 53.0493 14.9512 53.0493 14.8012V14.3012C53.0669 13.3568 52.9729 12.4136 52.7693 11.4912ZM35.0793 11.4912C35.3827 10.7509 35.82 10.0729 36.3693 9.4912L36.5993 9.2412L36.9093 8.9512C37.0492 8.80508 37.2071 8.67738 37.3793 8.5712C37.661 8.33732 37.9659 8.13292 38.2893 7.9612C38.3754 7.91291 38.4657 7.87273 38.5593 7.8412C38.6687 7.77068 38.7862 7.7136 38.9093 7.6712C39.1202 7.57647 39.3374 7.49629 39.5593 7.4312C39.8862 7.33594 40.2208 7.26903 40.5593 7.2312C40.7011 7.20143 40.8447 7.18138 40.9893 7.1712C41.2193 7.1712 41.4493 7.1712 41.6893 7.1712H41.7393C41.9693 7.1712 42.1993 7.1712 42.4193 7.1712C42.5572 7.1814 42.6942 7.20145 42.8293 7.2312C43.9855 7.37982 45.0787 7.84337 45.9893 8.5712C46.1597 8.67988 46.3173 8.80734 46.4593 8.9512C46.5693 9.0412 46.6693 9.1412 46.7693 9.2412L46.9993 9.4912C47.5519 10.0703 47.9896 10.749 48.2893 11.4912H35.0793Z" fill="#262626"/>
<path d="M140.3 6.03121C138.239 3.9794 135.449 2.82751 132.54 2.82751C129.632 2.82751 126.842 3.9794 124.78 6.03121C123.739 7.03782 122.915 8.24797 122.361 9.58639C121.807 10.9248 121.535 12.3629 121.56 13.8112V25.2112C122.117 25.2112 122.668 25.1015 123.183 24.8885C123.697 24.6754 124.165 24.3631 124.558 23.9693C124.952 23.5756 125.264 23.1082 125.477 22.5938C125.691 22.0794 125.8 21.528 125.8 20.9712V13.8112C125.788 12.9228 125.959 12.0415 126.303 11.2224C126.647 10.4033 127.157 9.66409 127.8 9.05121C128.416 8.41488 129.155 7.90969 129.971 7.566C130.787 7.2223 131.665 7.04719 132.55 7.05121C134.343 7.05918 136.058 7.77857 137.32 9.05121C137.961 9.66368 138.47 10.4014 138.814 11.2185C139.158 12.0356 139.33 12.9147 139.32 13.8012V25.2012C140.445 25.2012 141.523 24.7545 142.318 23.9593C143.114 23.1642 143.56 22.0857 143.56 20.9612V13.8112C143.577 12.3605 143.297 10.9217 142.736 9.58365C142.175 8.24557 141.346 7.03656 140.3 6.03121Z" fill="#262626"/>
<path d="M116.32 6.28111C114.172 4.14867 111.268 2.95203 108.24 2.95203C105.213 2.95203 102.309 4.14867 100.16 6.28111C98.5614 7.83701 97.4733 9.84239 97.0405 12.0311C96.8902 12.7952 96.8165 13.5724 96.8205 14.3511C96.8205 14.5911 96.8205 14.8311 96.8205 15.0711C96.9993 17.9759 98.2832 20.7021 100.409 22.69C102.534 24.6779 105.34 25.7768 108.25 25.7611C109.754 25.7842 111.247 25.5009 112.638 24.9284C114.029 24.3559 115.289 23.5062 116.34 22.4311C117.418 21.3833 118.27 20.1257 118.842 18.736C119.415 17.3463 119.697 15.854 119.67 14.3511C119.693 12.8485 119.407 11.3572 118.831 9.96922C118.255 8.58125 117.4 7.32607 116.32 6.28111ZM113.32 19.4211C112.317 20.4258 111.038 21.1104 109.645 21.3883C108.253 21.6661 106.809 21.5248 105.497 20.9821C104.184 20.4394 103.062 19.5198 102.273 18.3395C101.483 17.1591 101.061 15.7712 101.06 14.3511C101.05 13.4184 101.231 12.4934 101.592 11.6334C101.953 10.7734 102.487 9.99662 103.16 9.35111C103.827 8.6823 104.618 8.15162 105.49 7.78951C106.362 7.4274 107.296 7.241 108.24 7.241C109.184 7.241 110.119 7.4274 110.991 7.78951C111.863 8.15162 112.654 8.6823 113.32 9.35111C113.988 10.0001 114.516 10.778 114.874 11.6375C115.231 12.497 115.411 13.4202 115.4 14.3511C115.417 15.2933 115.241 16.229 114.884 17.1008C114.526 17.9726 113.994 18.7622 113.32 19.4211Z" fill="#262626"/>
<defs>
<linearGradient id="paint0_linear_514_6920" x1="-32.63" y1="-28.0188" x2="67.45" y2="59.4712" gradientUnits="userSpaceOnUse">
<stop stop-color="#FFCDFF"/>
<stop offset="0.52" stop-color="#A967FF"/>
<stop offset="1" stop-color="#7F00C5"/>
</linearGradient>
</defs>
</svg>
