<svg xmlns="http://www.w3.org/2000/svg" width="144" height="41" viewBox="0 0 144 41" fill="none">
<path d="M2.93 6.08656C4.54819 6.08656 5.86 4.77476 5.86 3.15656C5.86 1.53837 4.54819 0.226562 2.93 0.226562C1.31181 0.226562 0 1.53837 0 3.15656C0 4.77476 1.31181 6.08656 2.93 6.08656Z" fill="url(#paint0_linear_344_4586)"/>
<path d="M24.6108 5.90654C23.6043 4.8676 22.3956 4.04588 21.0592 3.49208C19.7229 2.93828 18.2872 2.66413 16.8408 2.68654C15.3987 2.66229 13.967 2.93573 12.6352 3.48976C11.3035 4.0438 10.1003 4.86652 9.10085 5.90654C8.05597 6.91119 7.22977 8.12075 6.67397 9.45948C6.11818 10.7982 5.84476 12.2373 5.87085 13.6865V25.0865C6.42765 25.0865 6.979 24.9769 7.49342 24.7638C8.00784 24.5507 8.47526 24.2384 8.86898 23.8447C9.2627 23.451 9.57502 22.9835 9.7881 22.4691C10.0012 21.9547 10.1108 21.4033 10.1108 20.8465V13.7165C10.0978 12.1034 10.6698 10.5403 11.7208 9.31654C12.3452 8.56732 13.1287 7.96672 14.0144 7.55847C14.9001 7.15022 15.8657 6.94459 16.8408 6.95654C17.7255 6.95523 18.6017 7.12833 19.4194 7.46596C20.2371 7.80358 20.9801 8.2991 21.6061 8.92417C22.2321 9.54924 22.7288 10.2916 23.0676 11.1088C23.4064 11.9259 23.5808 12.8019 23.5808 13.6865V25.0865C24.1377 25.0865 24.689 24.9769 25.2034 24.7638C25.7178 24.5507 26.1853 24.2384 26.579 23.8447C26.9727 23.451 27.285 22.9835 27.4981 22.4691C27.7112 21.9547 27.8208 21.4033 27.8208 20.8465V13.6865C27.8436 12.2395 27.5706 10.8031 27.0186 9.46533C26.4666 8.12753 25.6473 6.91654 24.6108 5.90654Z" fill="white"/>
<path d="M72.0693 3.15674V14.1567C72.0791 15.0433 71.9067 15.9224 71.5626 16.7395C71.2186 17.5566 70.7103 18.2943 70.0693 18.9067C69.4572 19.5482 68.7195 20.0569 67.9024 20.401C67.0852 20.745 66.2059 20.9172 65.3193 20.9067C64.4223 20.9069 63.5341 20.7303 62.7053 20.3871C61.8766 20.044 61.1236 19.5409 60.4893 18.9067C59.8649 18.281 59.3751 17.5342 59.05 16.7122C58.725 15.8901 58.5716 15.0103 58.5993 14.1267V7.39674C58.5993 6.27222 58.1525 5.19376 57.3574 4.39861C56.5622 3.60345 55.4838 3.15674 54.3593 3.15674V14.1567C54.337 15.6005 54.6133 17.0332 55.1708 18.3652C55.7284 19.6971 56.5551 20.8994 57.5993 21.8967C58.5987 22.9368 59.8019 23.7595 61.1336 24.3135C62.4654 24.8676 63.8971 25.141 65.3393 25.1167C67.7811 25.1411 70.1571 24.3255 72.0693 22.8067V28.8067C72.0825 29.7309 71.9126 30.6486 71.5693 31.5068C71.226 32.3649 70.7162 33.1466 70.0693 33.8067C69.4688 34.4618 68.7386 34.9848 67.9252 35.3426C67.1118 35.7004 66.2329 35.8852 65.3443 35.8852C64.4556 35.8852 63.5767 35.7004 62.7633 35.3426C61.9499 34.9848 61.2198 34.4618 60.6193 33.8067C59.9291 33.1383 59.3784 32.3396 58.9993 31.4567C58.6919 30.6432 58.145 29.942 57.4309 29.4457C56.7167 28.9494 55.8689 28.6813 54.9993 28.6767C54.7743 28.669 54.5493 28.6892 54.3293 28.7367C54.3078 30.2261 54.5912 31.7042 55.1622 33.08C55.7331 34.4558 56.5795 35.7002 57.6493 36.7367C58.6357 37.7856 59.8265 38.6214 61.1481 39.1927C62.4698 39.764 63.8944 40.0588 65.3343 40.0588C66.7741 40.0588 68.1987 39.764 69.5204 39.1927C70.8421 38.6214 72.0328 37.7856 73.0193 36.7367C74.0535 35.7453 74.8811 34.5588 75.4544 33.2458C76.0276 31.9328 76.3352 30.5192 76.3593 29.0867V7.39674C76.3593 6.27222 75.9125 5.19376 75.1174 4.39861C74.3222 3.60345 73.2438 3.15674 72.1193 3.15674H72.0693Z" fill="white"/>
<path d="M94.1008 5.3968C93.2907 4.54802 92.3136 3.87617 91.2311 3.42353C90.1485 2.9709 88.984 2.7473 87.8108 2.7668C86.6372 2.75882 85.4737 2.9841 84.3879 3.42955C83.3021 3.875 82.3156 4.53174 81.4857 5.36163C80.6558 6.19152 79.999 7.17802 79.5536 8.26385C79.1081 9.34968 78.8829 10.5132 78.8908 11.6868V25.0868C79.4476 25.0868 79.999 24.9771 80.5134 24.764C81.0278 24.551 81.4952 24.2387 81.889 23.8449C82.2827 23.4512 82.595 22.9838 82.8081 22.4694C83.0212 21.955 83.1308 21.4036 83.1308 20.8468V11.8468C83.1211 11.1942 83.2427 10.5463 83.4884 9.94159C83.7341 9.3369 84.0988 8.78776 84.5608 8.3268C84.9859 7.89946 85.4928 7.56229 86.0513 7.33548C86.6097 7.10867 87.2082 6.99688 87.8108 7.0068C88.4266 6.99872 89.0376 7.116 89.6067 7.35153C90.1757 7.58705 90.6909 7.93588 91.1208 8.3768C91.275 8.53382 91.4187 8.70085 91.5508 8.8768H96.2908C95.8522 7.55713 95.1009 6.36316 94.1008 5.3968Z" fill="white"/>
<path d="M52.5193 11.3663C52.0384 9.36105 50.9981 7.53352 49.5193 6.09632C48.3362 4.88956 46.8927 3.96943 45.2993 3.40632L44.7693 3.22632C43.6871 2.91418 42.5656 2.75926 41.4393 2.76632C39.9335 2.7401 38.4382 3.02196 37.0453 3.59461C35.6524 4.16725 34.3912 5.01858 33.3393 6.09632C32.2623 7.14098 31.4104 8.39492 30.836 9.78103C30.2616 11.1671 29.9769 12.6561 29.9993 14.1563C29.9993 14.3163 29.9993 14.4863 29.9993 14.6563C29.9993 14.8263 29.9993 14.9863 29.9993 15.1563C30.1654 17.6354 31.1827 19.981 32.8793 21.7963L33.2893 22.2263C35.4395 24.3594 38.3455 25.5563 41.3743 25.5563C44.403 25.5563 47.3091 24.3594 49.4593 22.2263C49.5993 22.0863 49.7393 21.9363 49.8593 21.7963C50.6192 20.9788 51.2467 20.0475 51.7193 19.0363H48.0993C47.2386 19.0492 46.406 19.3443 45.7293 19.8763C44.8147 20.612 43.7138 21.0794 42.5493 21.2263C42.414 21.2528 42.277 21.2695 42.1393 21.2763C41.9129 21.2915 41.6857 21.2915 41.4593 21.2763H41.4093C41.1762 21.2915 40.9424 21.2915 40.7093 21.2763L40.2793 21.2263C39.9417 21.1831 39.6075 21.1163 39.2793 21.0263C39.0593 20.9563 38.8393 20.8863 38.6293 20.7963C38.0745 20.5693 37.5558 20.2627 37.0893 19.8863C36.9216 19.7739 36.7643 19.6467 36.6193 19.5063L36.3093 19.2063C36.0893 18.9863 35.8893 18.7563 35.7093 18.5363C35.4729 18.2203 35.2622 17.8859 35.0793 17.5363C35.0193 17.4263 34.9493 17.2963 34.8893 17.1663C34.8424 17.0843 34.8055 16.997 34.7793 16.9063C34.7266 16.7921 34.6799 16.6753 34.6393 16.5563C34.5841 16.4169 34.5406 16.273 34.5093 16.1263C34.4067 15.8001 34.333 15.4655 34.2893 15.1263H52.7993C52.7993 14.9763 52.7993 14.8263 52.7993 14.6763V14.1763C52.8169 13.2319 52.7229 12.2887 52.5193 11.3663ZM34.8293 11.3663C35.1327 10.6261 35.57 9.94806 36.1193 9.36632L36.3493 9.11632L36.6593 8.82632C36.7992 8.6802 36.9571 8.5525 37.1293 8.44632C37.411 8.21244 37.7159 8.00804 38.0393 7.83632C38.1254 7.78803 38.2157 7.74786 38.3093 7.71632C38.4187 7.6458 38.5362 7.58872 38.6593 7.54632C38.8702 7.4516 39.0874 7.37141 39.3093 7.30632C39.6362 7.21107 39.9708 7.14415 40.3093 7.10632C40.4511 7.07655 40.5947 7.0565 40.7393 7.04632C40.9693 7.04632 41.1993 7.04632 41.4393 7.04632H41.4893C41.7193 7.04632 41.9493 7.04632 42.1693 7.04632C42.3072 7.05652 42.4442 7.07657 42.5793 7.10632C43.7355 7.25495 44.8287 7.71849 45.7393 8.44632C45.9097 8.555 46.0673 8.68247 46.2093 8.82632C46.3193 8.91632 46.4193 9.01632 46.5193 9.11632L46.7493 9.36632C47.3019 9.94543 47.7396 10.6241 48.0393 11.3663H34.8293Z" fill="white"/>
<path d="M140.05 5.90682C137.989 3.85501 135.199 2.70313 132.29 2.70312C129.382 2.70313 126.592 3.85501 124.53 5.90682C123.489 6.91343 122.665 8.12358 122.111 9.462C121.557 10.8004 121.285 12.2385 121.31 13.6868V25.0868C121.867 25.0868 122.418 24.9771 122.933 24.7641C123.447 24.551 123.915 24.2387 124.308 23.845C124.702 23.4512 125.014 22.9838 125.227 22.4694C125.441 21.955 125.55 21.4036 125.55 20.8468V13.6868C125.538 12.7984 125.709 11.9171 126.053 11.098C126.397 10.2789 126.907 9.5397 127.55 8.92682C128.166 8.29049 128.905 7.7853 129.721 7.44161C130.537 7.09791 131.415 6.92281 132.3 6.92682C134.093 6.93479 135.808 7.65418 137.07 8.92682C137.711 9.53929 138.22 10.277 138.564 11.0941C138.908 11.9112 139.08 12.7903 139.07 13.6768V25.0768C140.195 25.0768 141.273 24.6301 142.068 23.835C142.864 23.0398 143.31 21.9613 143.31 20.8368V13.6868C143.327 12.2361 143.047 10.7973 142.486 9.45926C141.925 8.12118 141.096 6.91217 140.05 5.90682Z" fill="white"/>
<path d="M116.07 6.15672C113.922 4.02428 111.018 2.82764 107.99 2.82764C104.963 2.82764 102.059 4.02428 99.9105 6.15672C98.3114 7.71262 97.2233 9.718 96.7905 11.9067C96.6402 12.6708 96.5665 13.448 96.5705 14.2267C96.5705 14.4667 96.5705 14.7067 96.5705 14.9467C96.7493 17.8515 98.0332 20.5777 100.159 22.5656C102.284 24.5535 105.09 25.6524 108 25.6367C109.504 25.6598 110.997 25.3765 112.388 24.804C113.779 24.2315 115.039 23.3818 116.09 22.3067C117.168 21.2589 118.02 20.0013 118.592 18.6116C119.165 17.2219 119.447 15.7296 119.42 14.2267C119.443 12.7241 119.157 11.2328 118.581 9.84483C118.005 8.45686 117.15 7.20168 116.07 6.15672ZM113.07 19.2967C112.067 20.3015 110.788 20.986 109.395 21.2639C108.003 21.5417 106.559 21.4004 105.247 20.8577C103.934 20.315 102.812 19.3954 102.023 18.2151C101.233 17.0348 100.811 15.6468 100.81 14.2267C100.8 13.294 100.981 12.369 101.342 11.509C101.703 10.649 102.237 9.87223 102.91 9.22672C103.577 8.55791 104.368 8.02723 105.24 7.66512C106.112 7.30301 107.046 7.11661 107.99 7.11661C108.934 7.11661 109.869 7.30301 110.741 7.66512C111.613 8.02723 112.404 8.55791 113.07 9.22672C113.738 9.87574 114.266 10.6536 114.624 11.5131C114.981 12.3726 115.161 13.2959 115.15 14.2267C115.167 15.1689 114.991 16.1046 114.634 16.9764C114.276 17.8482 113.744 18.6378 113.07 19.2967Z" fill="white"/>
<defs>
<linearGradient id="paint0_linear_344_4586" x1="-32.88" y1="-28.1434" x2="67.2" y2="59.3466" gradientUnits="userSpaceOnUse">
<stop stop-color="#FFCDFF"/>
<stop offset="0.52" stop-color="#A967FF"/>
<stop offset="1" stop-color="#7F00C5"/>
</linearGradient>
</defs>
</svg>