<svg width="19" height="24" viewBox="0 0 19 24" fill="none" xmlns="http://www.w3.org/2000/svg">
<mask id="path-1-outside-1_1_8432" maskUnits="userSpaceOnUse" x="0.484375" y="0.397461" width="19" height="24" fill="black">
<rect fill="white" x="0.484375" y="0.397461" width="19" height="24"/>
<path fill-rule="evenodd" clip-rule="evenodd" d="M11.0936 1.39746H15.215L12.545 4.74509C12.8143 5.04098 12.9786 5.4343 12.9786 5.86598V6.8764C15.8735 8.14402 17.8961 11.0342 17.8961 14.3968C17.8961 18.9288 14.2222 22.6026 9.69022 22.6026C5.15826 22.6026 1.48438 18.9288 1.48438 14.3968C1.48438 11.0674 3.4672 8.20112 6.31641 6.9144V5.86598C6.31641 5.41042 6.4993 4.99758 6.79568 4.69688L4.16406 1.39746H8.28545L9.68954 3.15787L11.0936 1.39746ZM11.7199 5.7035H7.65916H7.59855L7.5771 5.6766C7.55015 5.7341 7.5351 5.79828 7.5351 5.86598V6.47689C8.22187 6.29046 8.94442 6.19097 9.69022 6.19097C10.4051 6.19097 11.0987 6.28239 11.7599 6.45419V5.86598C11.7599 5.80866 11.7491 5.75386 11.7294 5.7035H11.7199Z"/>
</mask>
<path fill-rule="evenodd" clip-rule="evenodd" d="M11.0936 1.39746H15.215L12.545 4.74509C12.8143 5.04098 12.9786 5.4343 12.9786 5.86598V6.8764C15.8735 8.14402 17.8961 11.0342 17.8961 14.3968C17.8961 18.9288 14.2222 22.6026 9.69022 22.6026C5.15826 22.6026 1.48438 18.9288 1.48438 14.3968C1.48438 11.0674 3.4672 8.20112 6.31641 6.9144V5.86598C6.31641 5.41042 6.4993 4.99758 6.79568 4.69688L4.16406 1.39746H8.28545L9.68954 3.15787L11.0936 1.39746ZM11.7199 5.7035H7.65916H7.59855L7.5771 5.6766C7.55015 5.7341 7.5351 5.79828 7.5351 5.86598V6.47689C8.22187 6.29046 8.94442 6.19097 9.69022 6.19097C10.4051 6.19097 11.0987 6.28239 11.7599 6.45419V5.86598C11.7599 5.80866 11.7491 5.75386 11.7294 5.7035H11.7199Z" fill="#F8F8F8"/>
<path d="M15.215 1.39746L15.9968 2.02101C16.2363 1.7207 16.2827 1.30972 16.116 0.963612C15.9494 0.617507 15.5992 0.397461 15.215 0.397461V1.39746ZM11.0936 1.39746V0.397461C10.7893 0.397461 10.5016 0.536016 10.3119 0.773911L11.0936 1.39746ZM12.545 4.74509L11.7632 4.12154C11.4569 4.50552 11.4749 5.05509 11.8055 5.41829L12.545 4.74509ZM12.9786 6.8764H11.9786C11.9786 7.27358 12.2136 7.63311 12.5775 7.79243L12.9786 6.8764ZM6.31641 6.9144L6.72799 7.82577C7.08618 7.66401 7.31641 7.30743 7.31641 6.9144H6.31641ZM6.79568 4.69688L7.50789 5.39885C7.86324 5.03831 7.89312 4.46909 7.57746 4.07333L6.79568 4.69688ZM4.16406 1.39746V0.397461C3.77992 0.397461 3.42974 0.617507 3.26308 0.963612C3.09642 1.30972 3.14275 1.7207 3.38228 2.02101L4.16406 1.39746ZM8.28545 1.39746L9.06723 0.773911C8.87749 0.536016 8.58975 0.397461 8.28545 0.397461V1.39746ZM9.68954 3.15787L8.90776 3.78142C9.09751 4.01931 9.38525 4.15787 9.68954 4.15787C9.99384 4.15787 10.2816 4.01931 10.4713 3.78142L9.68954 3.15787ZM7.59855 5.7035L6.81677 6.32704C7.00651 6.56494 7.29425 6.7035 7.59855 6.7035V5.7035ZM7.5771 5.6766L8.35888 5.05305C8.14325 4.7827 7.80325 4.64295 7.45983 4.6835C7.11641 4.72405 6.81831 4.93915 6.67158 5.25228L7.5771 5.6766ZM7.5351 6.47689H6.5351C6.5351 6.78836 6.68022 7.08204 6.92764 7.27125C7.17505 7.46045 7.49649 7.52357 7.79708 7.44197L7.5351 6.47689ZM11.7599 6.45419L11.5084 7.42205C11.808 7.49991 12.1268 7.43461 12.3716 7.24524C12.6165 7.05586 12.7599 6.76375 12.7599 6.45419H11.7599ZM11.7294 5.7035L12.6609 5.33974C12.5111 4.95606 12.1413 4.7035 11.7294 4.7035V5.7035ZM15.215 0.397461H11.0936V2.39746H15.215V0.397461ZM13.3267 5.36864L15.9968 2.02101L14.4332 0.773911L11.7632 4.12154L13.3267 5.36864ZM13.9786 5.86598C13.9786 5.17571 13.7149 4.5447 13.2844 4.07189L11.8055 5.41829C11.9138 5.53726 11.9786 5.6929 11.9786 5.86598H13.9786ZM13.9786 6.8764V5.86598H11.9786V6.8764H13.9786ZM18.8961 14.3968C18.8961 10.6229 16.6253 7.38155 13.3797 5.96037L12.5775 7.79243C15.1217 8.90649 16.8961 11.4456 16.8961 14.3968H18.8961ZM9.69022 23.6026C14.7745 23.6026 18.8961 19.4811 18.8961 14.3968H16.8961C16.8961 18.3765 13.6699 21.6026 9.69022 21.6026V23.6026ZM0.484375 14.3968C0.484375 19.4811 4.60597 23.6026 9.69022 23.6026V21.6026C5.71054 21.6026 2.48438 18.3765 2.48438 14.3968H0.484375ZM5.90483 6.00303C2.7106 7.44556 0.484375 10.6601 0.484375 14.3968H2.48438C2.48438 11.4747 4.22381 8.95667 6.72799 7.82577L5.90483 6.00303ZM5.31641 5.86598V6.9144H7.31641V5.86598H5.31641ZM6.08347 3.99492C5.61018 4.47511 5.31641 5.13723 5.31641 5.86598H7.31641C7.31641 5.68362 7.38843 5.52005 7.50789 5.39885L6.08347 3.99492ZM7.57746 4.07333L4.94585 0.773911L3.38228 2.02101L6.01389 5.32043L7.57746 4.07333ZM4.16406 2.39746H8.28545V0.397461H4.16406V2.39746ZM7.50366 2.02101L8.90776 3.78142L10.4713 2.53432L9.06723 0.773911L7.50366 2.02101ZM10.3119 0.773911L8.90776 2.53432L10.4713 3.78142L11.8754 2.02101L10.3119 0.773911ZM11.7199 4.7035H7.65916V6.7035H11.7199V4.7035ZM7.65916 4.7035H7.59855V6.7035H7.65916V4.7035ZM8.38033 5.07995L8.35888 5.05305L6.79531 6.30015L6.81677 6.32704L8.38033 5.07995ZM6.67158 5.25228C6.5837 5.43982 6.5351 5.64861 6.5351 5.86598H8.5351C8.5351 5.94796 8.5166 6.02837 8.48261 6.10091L6.67158 5.25228ZM6.5351 5.86598V6.47689H8.5351V5.86598H6.5351ZM7.79708 7.44197C8.39924 7.2785 9.03372 7.19097 9.69022 7.19097V5.19097C8.85512 5.19097 8.04449 5.30242 7.27311 5.51182L7.79708 7.44197ZM9.69022 7.19097C10.3196 7.19097 10.9286 7.27141 11.5084 7.42205L12.0114 5.48634C11.2688 5.29338 10.4907 5.19097 9.69022 5.19097V7.19097ZM12.7599 6.45419V5.86598H10.7599V6.45419H12.7599ZM12.7599 5.86598C12.7599 5.68221 12.7251 5.50416 12.6609 5.33974L10.7979 6.06725C10.7731 6.00355 10.7599 5.93511 10.7599 5.86598H12.7599ZM11.7294 4.7035H11.7199V6.7035H11.7294V4.7035Z" fill="#D2D2D2" mask="url(#path-1-outside-1_1_8432)"/>
</svg>
