<svg width="19" height="25" viewBox="0 0 19 25" fill="none" xmlns="http://www.w3.org/2000/svg">
<path d="M15.793 0.835938H11.2591L7.48089 5.57293H12.0148L15.793 0.835938Z" fill="#F1543F"/>
<path fill-rule="evenodd" clip-rule="evenodd" d="M7.84005 5.26058C7.56856 5.26058 7.34847 5.48067 7.34847 5.75215V7.71845H6.00781V5.75215C6.00781 4.74024 6.82813 3.91992 7.84005 3.91992H11.5045C12.5164 3.91992 13.3367 4.74024 13.3367 5.75215V7.71845H11.9961V5.75215C11.9961 5.48067 11.776 5.26058 11.5045 5.26058H7.84005Z" fill="#F8B64C"/>
<path d="M18.7417 15.1365C18.7417 20.122 14.7001 24.1636 9.7146 24.1636C4.72907 24.1636 0.6875 20.122 0.6875 15.1365C0.6875 10.1509 4.72907 6.10938 9.7146 6.10938C14.7001 6.10938 18.7417 10.1509 18.7417 15.1365Z" fill="#FFD15C"/>
<path d="M17.0446 15.1365C17.0446 19.1842 13.7633 22.4655 9.71565 22.4655C5.66799 22.4655 2.38672 19.1842 2.38672 15.1365C2.38672 11.0889 5.66799 7.80762 9.71565 7.80762C13.7633 7.80762 17.0446 11.0889 17.0446 15.1365Z" fill="#F8B64C"/>
<path d="M9.29834 9.93354C9.44168 9.54299 9.99405 9.54299 10.1374 9.93354L10.5451 11.0443C10.6485 11.3261 10.9949 11.4278 11.2343 11.2467L12.1777 10.5326C12.5095 10.2816 12.9742 10.5802 12.8836 10.9863L12.626 12.1411C12.5607 12.4341 12.7971 12.7069 13.0964 12.684L14.2762 12.5934C14.691 12.5615 14.9204 13.064 14.6247 13.3566L13.7837 14.1888C13.5703 14.4 13.6217 14.7573 13.8859 14.8998L14.9273 15.4614C15.2935 15.6589 15.2149 16.2056 14.8079 16.2919L13.6505 16.5374C13.3568 16.5997 13.2068 16.928 13.3521 17.1908L13.9246 18.2263C14.1258 18.5904 13.7641 19.0078 13.3751 18.8604L12.2687 18.4411C11.9879 18.3347 11.6842 18.5299 11.6644 18.8294L11.5862 20.0101C11.5587 20.4252 11.0287 20.5808 10.7811 20.2464L10.077 19.2955C9.89837 19.0542 9.53737 19.0542 9.35872 19.2955L8.65462 20.2464C8.40705 20.5808 7.87706 20.4252 7.84956 20.0101L7.77134 18.8294C7.75149 18.5299 7.4478 18.3347 7.16707 18.4411L6.06063 18.8604C5.67161 19.0078 5.30989 18.5904 5.51118 18.2263L6.08367 17.1908C6.22893 16.928 6.07896 16.5997 5.78528 16.5374L4.6278 16.2919C4.22082 16.2056 4.14221 15.6589 4.50839 15.4614L5.54983 14.8998C5.81408 14.7573 5.86545 14.4 5.65206 14.1888L4.81102 13.3566C4.51531 13.064 4.74477 12.5615 5.15957 12.5934L6.33932 12.684C6.63865 12.7069 6.87506 12.4341 6.8097 12.1411L6.55213 10.9863C6.46157 10.5802 6.92625 10.2816 7.25798 10.5326L8.20147 11.2467C8.44086 11.4278 8.78723 11.3261 8.89067 11.0443L9.29834 9.93354Z" fill="#FFD15C"/>
<path d="M3.63672 0.835938H8.17058L11.9488 5.57293H7.41494L3.63672 0.835938Z" fill="#FF7058"/>
</svg>
