<svg width="10" height="10" viewBox="0 0 10 10" fill="none" xmlns="http://www.w3.org/2000/svg">
<path fill-rule="evenodd" clip-rule="evenodd" d="M3.7722 0.393616C3.81749 0.438892 3.8483 0.496605 3.86073 0.559427C3.87315 0.622249 3.86663 0.687346 3.84199 0.746455C3.64503 1.21915 3.54399 1.72628 3.54473 2.23837C3.54473 3.26671 3.95323 4.25292 4.68038 4.98007C5.40752 5.70721 6.39374 6.11572 7.42207 6.11572C7.93416 6.11646 8.44129 6.01541 8.91399 5.81845C8.97305 5.79385 9.03809 5.78734 9.10086 5.79975C9.16363 5.81215 9.22131 5.84292 9.26657 5.88814C9.31184 5.93336 9.34266 5.991 9.35513 6.05376C9.3676 6.11651 9.36116 6.18156 9.33662 6.24065C8.99284 7.06491 8.41283 7.76901 7.66966 8.26425C6.92648 8.7595 6.05336 9.02375 5.16029 9.02372C2.66199 9.02372 0.636719 6.99889 0.636719 4.50016C0.636719 2.61835 1.78571 1.00538 3.41979 0.323824C3.47884 0.299276 3.54385 0.292804 3.60659 0.305228C3.66932 0.317652 3.72696 0.348414 3.7722 0.393616Z" fill="#E7E7E7"/>
</svg>
