<svg width="174" height="124" viewBox="0 0 174 124" fill="none" xmlns="http://www.w3.org/2000/svg">
<g clip-path="url(#clip0_162_2591)">
<g clip-path="url(#clip1_162_2591)">
<g clip-path="url(#clip2_162_2591)">
<mask id="mask0_162_2591" style="mask-type:luminance" maskUnits="userSpaceOnUse" x="0" y="0" width="174" height="124">
<path d="M173.618 0H0.90332V124H173.618V0Z" fill="white"/>
</mask>
<g mask="url(#mask0_162_2591)">
<path d="M124.171 45.7186C125.751 43.6501 127.856 42.4049 130.364 41.8174C131.926 41.4517 133.505 41.3546 135.102 41.6303C136.412 41.8577 137.524 42.4906 138.581 43.2512C139.825 44.1797 140.808 45.3806 141.913 46.453C142.026 46.5626 142.096 46.7176 142.332 46.8051C142.63 45.9626 142.529 45.1883 142.122 44.4277C141.962 44.1295 141.682 43.8789 141.735 43.4922C142.972 42.5393 144.364 42.3149 145.863 42.6445C147.108 42.9187 147.878 43.6988 148.228 44.9137C148.447 45.6743 148.52 46.4504 148.518 47.2387C148.515 47.9772 148.503 48.7168 148.519 49.4552C148.544 50.565 148.843 50.9156 149.926 51.1816C150.194 51.2466 150.465 51.3119 150.725 51.4031C153.487 52.3785 154.874 55.274 153.933 58.0603C153.54 59.2254 152.928 60.2894 152.423 61.402C152.164 61.9741 151.964 62.5575 151.906 63.1864C151.802 64.3016 152.216 65.1704 153.142 65.7911C153.648 66.1306 154.21 66.3425 154.813 66.4174C156.035 66.5698 157.198 66.9522 158.355 67.3456C158.974 67.5563 159.504 67.9316 159.989 68.3682C161.505 69.734 162.594 71.3523 162.954 73.3998C163.113 74.3047 163.065 75.1996 162.775 76.0684C162.465 77.0006 162.368 77.9623 162.339 78.9322C162.299 80.2788 163.087 81.0822 164.445 81.1446C165.076 81.1738 165.681 81.0018 166.3 80.956C168.658 80.7815 170.628 81.4509 171.95 83.5442C172.84 84.9517 173.473 86.4593 173.52 88.1395C173.602 91.1059 172.452 93.5372 170.14 95.3854C168.3 96.8568 166.131 97.634 163.864 98.1703C163.596 98.2341 163.326 98.295 163.052 98.3433C162.727 98.4017 162.641 98.5721 162.732 98.8851C162.913 99.5058 163.066 100.134 163.243 100.754C163.288 100.916 163.355 101.07 163.187 101.191C163.001 101.325 162.839 101.235 162.689 101.11C162.491 100.946 162.35 100.735 162.218 100.517C161.797 99.8232 161.499 99.0722 161.226 98.3131C160.398 96.0117 159.577 93.7092 158.746 91.4093C157.289 87.3804 155.371 83.5693 153.24 79.8644C151.799 77.3597 150.186 74.9668 148.237 72.8193C147.113 71.5837 145.849 70.5072 144.417 69.6399C142.823 68.6741 141.075 68.497 139.339 69.0096C137.572 69.5318 136.624 70.9146 136.232 72.6794C136.157 73.0163 136.143 73.3655 136.088 73.7076C136.048 73.9582 135.913 74.1427 135.643 74.1633C135.387 74.1829 135.196 74.0567 135.093 73.8223C134.902 73.3847 134.894 72.9304 134.981 72.4661C135.185 71.3759 135.669 70.4171 136.35 69.5554C136.634 69.1952 136.95 68.8572 137.274 68.483C137.026 68.2807 136.743 68.3708 136.487 68.3597C133.879 68.2475 131.287 68.0146 128.733 67.4452C128.508 67.3954 128.284 67.3385 128.061 67.2791C127.336 67.0835 127.344 67.0865 127.031 67.7253C126.858 68.0755 126.653 68.411 126.457 68.7516C126.36 68.9207 126.233 69.0675 126.015 68.9749C125.83 68.8959 125.857 68.7173 125.875 68.5564C125.924 68.1202 126.031 67.6962 126.137 67.2706C126.258 66.7872 126.209 66.7178 125.733 66.5864C125.288 66.4643 124.84 66.3536 124.394 66.2344C124.082 66.1513 123.811 65.9989 123.872 65.6262C123.93 65.2675 124.225 65.1733 124.551 65.1678C125.087 65.1593 125.603 65.2855 126.119 65.4058C126.613 65.521 126.615 65.5195 126.734 65.0652C126.863 64.5747 126.978 64.0787 127.117 63.5909C127.195 63.3196 127.136 63.1783 126.854 63.0701C123.29 61.7069 121.573 58.9387 120.983 55.3198C121.033 55.0087 120.868 54.2643 120.983 53.9942C121.097 53.724 121.164 54.1646 121.143 54.1709C121.973 54.5204 122.049 54.5769 122.319 54.8931C122.625 56.3509 123.116 57.7651 123.953 59.0121C125.269 60.9725 127.132 61.8829 129.441 61.984C129.925 62.0047 130.409 61.9755 130.881 62.1294C131.258 62.2512 131.457 62.4937 131.447 62.8956C131.438 63.3015 131.21 63.5385 130.835 63.627C130.292 63.7558 129.734 63.7975 129.186 63.699C128.68 63.6075 128.457 63.8278 128.368 64.288C128.072 65.8299 127.684 65.7468 129.464 66.1306C131.431 66.5543 133.423 66.751 135.43 66.8329C135.776 66.847 136.12 66.8647 136.461 66.93C136.946 67.0226 137.112 66.8344 137.095 66.3299C137.055 65.0874 136.964 63.8389 137.22 62.6059C137.538 61.0821 137.968 59.6037 138.977 58.3677C139.357 57.9024 139.754 57.4492 140.352 57.2484C140.763 57.2263 140.938 57.5588 141.172 57.8012C142.416 59.0925 143.992 59.0896 145.159 57.8374C146.028 56.9048 146.026 54.7559 144.575 54.0883C144.278 53.951 143.906 53.8513 143.82 53.4454C143.818 53.1793 143.937 52.9494 144.083 52.7457C144.404 52.3065 144.449 51.816 144.415 51.3008C144.376 50.7325 144.167 50.2701 143.621 50.0287C143.042 49.7741 142.544 49.99 142.087 50.3461C141.867 50.5166 141.722 50.7591 141.542 50.9669C141.309 51.2355 141.035 51.3603 140.686 51.2008C140.366 51.0554 140.223 50.7687 140.317 50.4653C140.496 49.8874 140.215 49.835 139.749 49.7988C139.34 49.7656 138.919 49.7892 138.516 49.6741C138.168 49.5593 137.974 49.2655 137.747 49.0105C136.922 48.0879 136.026 47.2856 134.698 47.2026C134.166 47.1694 133.648 47.2469 133.131 47.352C132.84 47.4118 132.552 47.5129 132.255 47.3841C130.814 46.6472 129.536 45.6909 128.48 44.4609C128.158 44.0841 127.889 44.0646 127.49 44.3443C126.737 44.8709 126.144 45.5843 125.377 46.0899C124.919 46.1456 124.469 46.1844 124.171 45.7186Z" fill="#202124"/>
<path fill-rule="evenodd" clip-rule="evenodd" d="M132.703 47.1466C132.592 47.165 132.48 47.1835 132.369 47.2034C132.233 47.2208 132.125 47.2913 132.015 47.3636C132.009 47.3673 132.003 47.371 131.998 47.3747C131.161 47.9356 130.643 48.7365 130.315 49.6605C130.15 50.1244 129.898 50.2185 129.428 50.1466C128.869 50.0602 128.723 49.6694 128.568 49.2572C128.562 49.2413 128.556 49.2251 128.55 49.2088C127.973 47.6828 126.959 46.5628 125.455 45.8985C125.275 45.8904 124.445 45.7346 124.219 45.6235C124.012 45.721 123.789 45.7523 123.568 45.7837C123.472 45.7974 123.377 45.8106 123.283 45.8295C122.453 45.9922 121.712 46.3292 121.087 46.9067C119.428 48.4408 119.058 50.7932 120.25 52.8772C120.315 52.9897 120.371 53.089 120.422 53.1776C120.701 53.6714 120.796 53.84 121.144 54.171C121.295 54.2629 121.439 54.3404 121.577 54.415C121.81 54.5408 122.027 54.6582 122.24 54.8202C123.144 55.486 124.17 55.4254 125.15 55.1616C126.872 54.6988 128.172 53.7086 128.687 51.9047C128.773 51.6091 128.909 51.3235 129.295 51.3648C129.64 51.4021 129.81 51.6438 129.881 51.9601C129.907 52.0774 129.93 52.1959 129.953 52.3144C129.991 52.5118 130.029 52.7096 130.082 52.9048C130.607 54.859 132.113 56.2278 133.922 56.392C136.187 56.5979 138.116 55.5812 138.934 53.6049C139.521 52.1852 139.549 50.7393 138.522 49.438C138.403 49.3096 138.286 49.1797 138.168 49.0498C137.902 48.7556 137.635 48.4611 137.355 48.1814C136.246 47.0735 134.922 46.6746 133.38 47.0211C133.156 47.0713 132.93 47.109 132.703 47.1466ZM121.338 51.4213C121.726 49.8141 122.353 48.3087 123.288 46.9399C123.091 46.8063 122.907 46.8879 122.722 46.9698C122.718 46.972 122.714 46.9739 122.709 46.9757C122.218 47.1909 121.801 47.5038 121.502 47.9474C120.66 49.1911 120.415 50.5282 120.92 51.97C121.066 52.1671 121.185 52.2125 121.247 51.9147C121.259 51.8586 121.254 51.7992 121.249 51.7398C121.24 51.6261 121.23 51.5128 121.338 51.4213Z" fill="#202124"/>
<path d="M125.503 70.2915C125.5 70.6686 125.24 70.8225 124.959 70.9432C124.07 71.327 123.179 71.7027 122.289 72.0813C122.077 72.1714 121.863 72.2559 121.651 72.3489C120.498 72.8563 119.486 73.569 118.593 74.4562C115.281 77.7488 112.523 81.4629 110.299 85.5652C108.969 88.0194 107.745 90.53 106.437 92.9964C105.734 94.3205 104.954 95.603 104.208 96.9035C104.162 96.9839 104.118 97.0655 104.061 97.1364C103.982 97.2349 103.873 97.2747 103.755 97.2179C103.63 97.157 103.615 97.0378 103.659 96.9241C103.759 96.6662 103.877 96.4152 103.979 96.1587C105.442 92.4668 107.027 88.8302 108.912 85.3324C110.858 81.7223 113.181 78.3795 115.883 75.2895C117.232 73.745 118.689 72.364 120.502 71.3813C121.708 70.728 123 70.3166 124.297 69.9062C124.542 69.8283 124.8 69.8338 125.051 69.8589C125.313 69.8811 125.454 70.0475 125.503 70.2915Z" fill="#202124"/>
<path d="M112.355 104.4C112.52 103.683 112.687 102.85 112.908 102.03C114.152 97.4119 115.458 92.8091 117.024 88.2886C117.867 85.8551 118.797 83.4508 119.764 81.0631C120.7 78.751 122.04 76.6504 123.409 74.5748C123.46 74.4988 123.516 74.4243 123.574 74.3523C123.736 74.1508 123.95 74.0774 124.187 74.1755C124.451 74.2862 124.559 74.5224 124.528 74.7933C124.494 75.1181 124.336 75.4011 124.161 75.6764C122.627 78.0919 121.353 80.6412 120.288 83.2947C118.925 86.6914 117.799 90.1708 116.716 93.6642C115.661 97.0709 114.726 100.51 113.791 103.95C113.712 104.237 113.618 104.522 113.512 104.801C113.398 105.102 113.206 105.324 112.839 105.26C112.545 105.21 112.349 104.902 112.355 104.4Z" fill="#202124"/>
<path d="M136.159 77.7646C136.177 77.504 136.188 77.2254 136.502 77.0881C136.822 76.9482 137.036 77.1283 137.229 77.3335C137.624 77.7561 137.948 78.2314 138.221 78.7444C139.716 81.5547 141.073 84.4373 142.663 87.1978C143.952 89.4375 145.223 91.6854 146.503 93.9303C146.594 94.0898 146.703 94.2448 146.763 94.4167C146.885 94.7577 146.788 95.0485 146.531 95.208C146.271 95.3703 145.955 95.3368 145.72 95.0722C145.537 94.867 145.396 94.6245 145.248 94.3905C143.436 91.5216 141.784 88.5629 140.195 85.5655C138.984 83.2829 137.797 80.9878 136.497 78.754C136.321 78.4517 136.184 78.1388 136.159 77.7646Z" fill="#202124"/>
<path d="M141.836 43.4827C142.018 43.7775 142.205 44.0709 142.38 44.3698C142.909 45.2725 142.907 46.1988 142.554 47.1458C142.45 47.1373 142.386 47.1514 142.368 47.1292C141.273 45.8025 140.022 44.6315 138.758 43.4716C138.69 43.4092 138.615 43.3505 138.666 43.2409C139 43.1712 139.332 43.0918 139.667 43.0309C140.451 42.8903 141.146 43.1767 141.836 43.4827Z" stroke="#202124" stroke-width="0.691964"/>
<path d="M122.319 54.8933C122.587 54.9571 122.856 55.0221 123.124 55.0855C124.945 55.5159 127.124 54.6169 128.112 53.03C128.358 52.6332 128.502 52.1989 128.616 51.7505C128.734 51.2925 128.889 51.1666 129.255 51.1736C129.724 51.1832 130.031 51.4021 130.118 51.8143C130.184 52.128 130.211 52.452 130.276 52.7657C130.859 55.5572 133.614 57.0374 136.275 56.0137C138.918 54.997 139.824 52.211 138.756 50.0145C138.676 49.8499 138.575 49.6908 138.573 49.4985C139.3 49.5358 140.024 49.6163 140.734 49.5801C140.851 49.7975 140.698 49.9189 140.646 50.0573C140.579 50.2318 140.533 50.4031 140.544 50.5913C140.56 50.8625 140.738 50.9773 140.963 51.0755C141.216 51.1847 141.352 51.0423 141.482 50.8762C141.635 50.6773 141.759 50.4518 141.931 50.2717C142.413 49.7738 142.997 49.5469 143.678 49.7709C144.371 49.9993 144.657 50.554 144.726 51.243C144.77 51.6855 144.702 52.1088 144.482 52.5044C144.304 52.8255 144.138 53.1517 143.967 53.4754C143.809 53.6843 143.573 53.6787 143.347 53.7049C141.577 53.9127 140.696 54.9043 140.723 56.6584C140.726 56.8577 140.795 57.0747 140.598 57.2323C139.315 58.0084 138.523 59.172 138.039 60.5567C137.541 61.9801 137.281 63.4474 137.34 64.9609C137.362 65.513 137.346 66.0647 137.422 66.6168C137.475 66.9958 137.386 67.0925 137.023 67.0718C134.149 66.9058 131.275 66.726 128.475 65.9846C127.885 65.8282 127.883 65.809 128.036 65.2332C128.153 64.7893 128.254 64.3413 128.357 63.8943C128.471 63.391 128.537 63.3245 129.066 63.4046C129.595 63.4862 130.121 63.4615 130.648 63.4323C130.785 63.4253 130.923 63.4046 131.056 63.3659C131.334 63.2873 131.471 63.0839 131.472 62.8016C131.473 62.5167 131.336 62.3104 131.057 62.2373C130.586 62.1126 130.099 62.1155 129.616 62.107C128.756 62.0934 127.925 61.9343 127.119 61.6395C126.08 61.2604 125.171 60.677 124.487 59.8068C123.424 58.4524 122.596 56.9751 122.34 55.2365C122.322 55.1243 122.325 55.008 122.319 54.8933Z" fill="#F1F3F4"/>
<path fill-rule="evenodd" clip-rule="evenodd" d="M20.2008 33.2798C20.2008 33.2798 15.3694 39.5607 15.0427 39.7943C14.8763 39.9766 15.0427 40.2158 15.0427 40.2158C15.0427 40.2158 21.262 47.4417 22.2987 47.9695C22.5411 48.2071 24.2344 50.0276 26.6717 49.0427C28.0812 48.092 30.0122 42.9906 30.0122 42.9906C30.0122 42.9906 28.7171 43.2726 28.3277 43.1316C27.9383 42.9906 28.3684 42.4441 28.588 42.3448C28.7995 42.1647 29.4942 41.3011 29.585 40.9627C29.6758 40.6247 29.7223 39.9161 29.585 39.7943C29.4476 39.6725 29.1649 39.0813 28.588 39.2061C28.0112 39.3308 26.6726 39.467 26.5079 39.3367C26.2635 39.3002 24.8893 38.7916 24.4049 38.1366C23.8798 37.6738 21.015 34.8981 21.015 34.8981C21.015 34.8981 20.6826 34.1413 21.0013 34.0143C21.3201 33.8874 20.2008 33.2798 20.2008 33.2798Z" fill="#DADCE0"/>
<path fill-rule="evenodd" clip-rule="evenodd" d="M37.4757 88.5537C37.0189 88.6068 45.5668 74.9871 46.7467 72.4721C47.4017 71.2811 47.9653 70.4382 48.3225 70.4696C48.6794 70.5006 48.7262 71.6303 48.1446 73.4216C47.4283 77.3977 44.0268 83.6634 44.0268 83.6634C44.0268 83.6634 43.3296 85.1119 43.7592 85.3629C44.2858 85.6375 45.4557 83.6634 45.4557 83.6634C45.4557 83.6634 47.2585 80.0301 47.3405 79.8958C47.4224 79.7615 47.5671 80.0161 47.5475 80.2959C46.8109 82.7722 45.6606 84.9126 45.6606 85.2079C45.6606 85.5035 45.6698 85.7792 46.3008 85.7131C47.108 85.2522 48.417 81.0089 48.417 81.0089C48.417 81.0089 48.9528 82.1872 48.6561 83.149C48.6506 83.1667 47.2497 86.3903 47.2497 86.3903C47.2497 86.3903 46.9448 87.2107 47.8619 87.2107C48.2675 87.1321 49.2329 84.9606 49.2329 84.9606C49.2329 84.9606 50.0596 85.9106 48.8336 87.7835C47.608 89.6564 45.1221 93.2406 44.9575 93.2435C44.8261 93.4439 37.1886 88.7293 37.4757 88.5537Z" fill="#DADCE0"/>
<path fill-rule="evenodd" clip-rule="evenodd" d="M126.729 110.189C125.307 110.661 120.589 112.829 119.848 113.154C119.104 113.406 118.812 113.735 118.12 113.084C117.429 112.432 117.171 112.071 117.171 112.071C117.171 112.071 116.951 111.743 116.811 111.671C116.712 111.555 116.541 111.472 116.252 111.759C115.92 112.1 115.423 112.464 114.895 113.154C113.915 114.388 113.166 115.645 113.166 115.645C113.166 115.645 112.197 116.868 111.959 117.249C111.63 117.663 111.565 117.564 111.725 117.946C111.86 118.282 112.219 119.483 112.396 119.645C112.573 119.806 112.902 119.758 113.077 119.182C113.317 118.613 114.042 117.727 114.042 117.727L115.322 116.302L115.791 115.85C115.791 115.85 116.379 115.335 117.071 115.645C117.763 115.955 119.071 116.453 119.071 116.453C119.071 116.453 119.848 116.928 120.356 117.082C124.106 117.082 125.953 116.973 127.169 116.302C127.213 115.856 127.364 112.833 126.729 110.189Z" fill="#F1F3F4"/>
<path fill-rule="evenodd" clip-rule="evenodd" d="M140.049 56.7525C139.873 54.8043 141.202 53.2819 143.189 53.1461C143.479 53.1269 144.535 53.3639 144.773 53.4886L144.825 53.5163C146.503 54.4367 146.923 56.6938 145.68 58.1692C144.398 59.6915 142.23 59.7093 140.789 58.2231C140.533 57.9581 140.076 57.0488 140.049 56.7525ZM145.045 57.6341C145.959 56.5487 145.637 54.8792 144.388 54.2241L144.381 54.2212C144.332 54.2023 144.132 54.1466 143.912 54.0949L143.836 54.0772C143.551 54.0134 143.293 53.9713 143.245 53.9746C141.719 54.0787 140.742 55.1977 140.876 56.6764C140.885 56.7727 141.254 57.5101 141.386 57.6455C142.491 58.7855 144.086 58.7726 145.045 57.6341Z" fill="#202124"/>
<path d="M132.422 47.2819C132.365 47.4122 132.275 47.5107 132.158 47.5908C131.276 48.2119 130.741 49.0751 130.396 50.0786C130.24 50.5332 130.227 50.4528 129.719 50.4664C128.929 50.486 128.645 50.0564 128.444 49.3954C128.077 48.1828 127.289 47.2708 126.254 46.5601C125.991 46.3796 125.677 46.2648 125.502 45.9736C126.161 45.1562 127.023 44.5713 127.838 43.9335C128.076 43.7479 128.246 43.8118 128.421 44.0265C129.533 45.3832 130.932 46.3881 132.422 47.2819Z" fill="#F1F3F4"/>
<path d="M172.413 88.1768C172.437 88.8433 172.351 89.3681 172.268 89.8929C172.227 90.1519 172.108 90.3439 171.832 90.3232C171.551 90.3021 171.465 90.0877 171.479 89.8276C171.49 89.6201 171.491 89.4087 171.529 89.2053C171.791 87.8354 171.446 86.5954 170.775 85.4233C170.604 85.1251 170.408 84.8413 170.221 84.5516C170.123 84.4 169.967 84.2512 170.146 84.066C170.347 83.8571 170.52 83.9907 170.67 84.1453C171.487 84.9849 172.067 85.9618 172.279 87.1383C172.349 87.5251 172.38 87.9177 172.413 88.1768Z" fill="white"/>
<path d="M156.04 68.5969C156.108 68.605 156.201 68.6065 156.29 68.629C158.207 69.1007 159.871 69.9808 161.047 71.6397C161.206 71.8648 161.332 72.1154 161.456 72.363C161.511 72.4708 161.485 72.5926 161.384 72.6782C161.257 72.7845 161.122 72.762 161.008 72.6642C160.922 72.59 160.844 72.4989 160.783 72.4025C159.802 70.8238 158.329 69.9181 156.635 69.3121C156.397 69.2265 156.158 69.1398 155.922 69.0475C155.793 68.997 155.644 68.9257 155.676 68.7619C155.71 68.5954 155.873 68.5954 156.04 68.5969Z" fill="white"/>
<path d="M152.756 56.6096C152.825 57.6104 152.522 58.5013 152.16 59.3756C152.085 59.5561 152.008 59.8162 151.727 59.7184C151.402 59.607 151.542 59.3483 151.607 59.1361C151.673 58.9172 151.754 58.701 151.831 58.4847C152.29 57.2015 152.262 55.9213 151.799 54.6463C151.768 54.5595 151.731 54.4754 151.696 54.3901C151.631 54.2344 151.575 54.0569 151.758 53.9631C151.989 53.8447 152.094 54.0443 152.187 54.2001C152.403 54.5566 152.568 54.9326 152.652 55.3441C152.738 55.7752 152.743 56.2103 152.756 56.6096Z" fill="white"/>
<path d="M167.58 83.2345C167.356 83.2493 167.196 83.2666 167.038 83.2666C166.88 83.2666 166.787 83.1688 166.753 83.0278C166.719 82.8843 166.784 82.7651 166.901 82.6806C167.149 82.5023 168.049 82.5614 168.277 82.7666C168.364 82.8455 168.43 82.9448 168.396 83.06C168.361 83.174 168.26 83.233 168.133 83.2345C167.926 83.2345 167.721 83.2345 167.58 83.2345Z" fill="white"/>
<path d="M151.518 61.4681C151.492 61.5855 151.465 61.829 151.378 62.0479C151.324 62.1863 151.168 62.2667 151.002 62.2154C150.855 62.1693 150.831 62.0346 150.828 61.8992C150.826 61.6567 150.854 61.4179 150.953 61.1928C151.025 61.0293 151.157 60.9621 151.314 60.9924C151.493 61.0253 151.53 61.1795 151.518 61.4681Z" fill="white"/>
<path d="M161.9 74.0882C161.907 74.5067 161.79 74.7229 161.582 74.6809C161.254 74.6133 161.37 74.338 161.355 74.1325C161.339 73.914 161.378 73.7033 161.659 73.718C161.907 73.7302 161.893 73.942 161.9 74.0882Z" fill="white"/>
<path d="M136.809 48.9762C137.445 49.532 137.961 50.1693 138.158 51.0052C138.471 52.3242 137.804 54.0786 136.455 54.7573C135.652 55.1618 134.82 55.4113 133.912 55.2721C132.225 55.0112 131.111 53.7229 131.042 51.9736C130.997 50.8248 131.372 49.8065 132.071 48.9057C132.533 48.3086 133.174 48.0174 133.932 47.9761C134.954 48.1373 135.889 48.5348 136.809 48.9762Z" fill="#F1F3F4"/>
<path d="M126.761 48.294C128.178 49.6769 127.838 51.8129 126.911 52.9093C125.782 54.2449 123.763 54.604 122.207 53.719C121.849 53.1666 122.178 52.6016 122.216 52.0535C122.263 51.3745 122.45 50.701 122.7 50.057C122.717 49.9902 122.742 49.9245 122.771 49.8606C122.811 49.7687 122.857 49.6783 122.903 49.5894C122.929 49.5296 122.96 49.4724 122.99 49.4141C123.175 49.0746 123.333 48.721 123.502 48.3734C123.898 47.8711 124.05 47.178 124.687 46.8691C125.213 46.9289 125.621 47.2046 125.977 47.5773C126.112 47.7486 126.592 48.1047 126.623 48.1575L126.635 48.1675C126.69 48.2007 126.73 48.2424 126.761 48.294Z" fill="#F1F3F4"/>
<path d="M124.672 46.8344C124.32 47.351 123.969 47.8681 123.617 48.3851C123.329 48.7025 123.19 49.0959 123.059 49.493L123.063 49.4834C122.956 49.5535 122.975 49.6786 122.932 49.7764L122.937 49.7639C122.378 50.8075 122.38 51.9815 122.159 53.1048C122.118 53.3111 122.213 53.6274 121.809 53.4691C121.39 53.2466 121.105 52.9358 121.12 52.4228C121.032 52.0955 121.094 51.7685 121.116 51.4412C121.453 50.058 121.895 48.7191 122.663 47.5064C122.81 47.2743 122.94 47.0296 123.225 46.9399C123.755 46.5085 124.073 46.4849 124.672 46.8344Z" fill="#202124"/>
<path d="M136.851 48.9448C135.819 48.7802 134.873 48.3757 133.944 47.9159C134.068 47.7428 134.256 47.7243 134.443 47.7074C135.38 47.6251 136.449 48.1757 136.851 48.9448Z" fill="#202124"/>
<path d="M127.942 55.6082C127.774 56.3349 128.916 55.8415 129.248 55.8791C129.559 55.9142 129.664 56.0979 129.532 56.3489C129.288 56.8169 128.252 57.118 127.647 56.8991C127.058 56.6858 126.77 56.0839 126.931 55.4207C127.037 54.9805 127.31 54.6461 127.72 54.5151C128.313 54.3243 128.495 53.9051 128.548 53.3618C128.559 53.2459 128.553 53.129 128.573 53.0149C128.622 52.7304 128.787 52.5315 129.084 52.544C129.364 52.5551 129.558 52.7278 129.595 53.023C129.681 53.6711 129.528 54.3081 129.447 54.9532C129.396 55.3488 129.161 55.093 128.807 55.1056C128.584 55.1126 128.116 55.3126 127.942 55.6082Z" fill="#202124"/>
<path d="M128.762 59.3239C127.925 59.3354 127.717 59.1826 127.717 58.7084C127.717 58.353 127.842 58.1946 128.183 58.154C128.339 58.136 128.5 58.1596 128.658 58.1456C129.123 58.1064 129.542 57.9581 129.869 57.5957C129.946 57.5104 130.022 57.4222 130.108 57.348C130.413 57.0809 130.702 57.0344 130.897 57.2318C131.146 57.4853 131.018 57.744 130.879 57.9931C130.367 58.9113 129.561 59.2933 128.762 59.3239Z" fill="#202124"/>
<path d="M142.801 52.9582C142.539 52.9497 142.346 52.7574 142.394 52.502C142.469 52.0954 142.722 51.7905 143.113 51.6226C143.474 51.4676 143.791 51.7023 143.769 52.0802C143.748 52.4622 143.187 52.9689 142.801 52.9582Z" fill="#202124"/>
<path d="M143.713 54.4815C144.247 54.4616 144.956 54.948 145.111 55.406C145.176 55.595 145.186 55.7898 145.015 55.9194C144.852 56.0419 144.653 56.029 144.514 55.888C144.189 55.561 143.88 55.2196 143.471 54.9993C143.363 54.9421 143.332 54.8115 143.373 54.6904C143.435 54.497 143.613 54.51 143.713 54.4815Z" fill="white"/>
<path d="M133.667 51.1779C133.663 51.741 133.125 52.2747 132.57 52.2666C132.157 52.261 131.87 51.9868 131.868 51.5953C131.866 51.0457 132.408 50.477 132.945 50.4674C133.397 50.4597 133.671 50.7295 133.667 51.1779Z" fill="#202124"/>
<path d="M135.19 50.424C135.14 50.9181 135.003 51.3643 134.819 51.7961C134.758 51.94 134.646 52.0194 134.491 51.9799C134.355 51.9459 134.335 51.823 134.331 51.7031C134.314 51.0916 134.274 50.4875 134.1 49.8944C134.043 49.7051 134.137 49.5246 134.318 49.4202C134.537 49.2928 134.718 49.3862 134.879 49.5372C135.137 49.7844 135.14 50.1247 135.19 50.424Z" fill="#202124"/>
<path d="M125.371 47.8808C125.817 47.7435 126.11 47.9509 126.346 48.2897L126.35 48.3022C126.467 48.4214 126.371 48.5986 126.471 48.7233C126.463 49.2861 126.518 49.857 126.217 50.3774C126.057 50.6556 125.895 50.6778 125.689 50.4541C125.261 49.9888 125.072 48.4642 125.371 47.8808Z" fill="#202124"/>
<path d="M124.948 49.8131C124.928 50.4781 124.368 51.0468 123.761 51.0202C123.318 51.0003 123.075 50.7209 123.17 50.2818C123.286 49.7496 123.608 49.351 124.102 49.1421C124.569 48.9425 124.964 49.2739 124.948 49.8131Z" fill="#202124"/>
<path d="M126.748 110.222C126.569 110.268 126.476 110.28 126.393 110.316C124.129 111.293 121.863 112.266 119.604 113.254C118.833 113.591 118.536 113.563 117.945 112.956C117.672 112.675 117.416 112.375 117.171 112.07C116.649 111.421 116.649 111.411 116.013 111.983C115.254 112.666 114.611 113.449 114.037 114.292C113.309 115.358 112.701 116.509 111.792 117.444C111.637 117.604 111.645 117.758 111.726 117.946C111.897 118.349 112.051 118.761 112.216 119.167C112.303 119.383 112.362 119.603 112.357 119.839C112.35 120.141 112.167 120.3 111.907 120.381C111.669 120.454 111.434 120.422 111.291 120.199C111.155 119.987 111.041 119.758 110.944 119.526C110.051 117.399 109.171 115.266 108.274 113.142C106.186 108.191 103.519 103.554 100.602 99.0531C99.8296 97.8614 98.9163 96.8056 97.9006 95.8232C97.5604 95.4947 97.2046 95.3423 96.7341 95.3379C90.1148 95.2895 83.4985 95.04 76.8797 95.0873C73.9734 95.108 71.0701 95.2438 68.1694 95.4113C67.2033 95.467 66.2319 95.4323 65.2717 95.5918C65.1816 95.6069 65.0875 95.5929 64.9949 95.5973C64.7262 95.6069 64.5491 95.4862 64.4882 95.2246C64.4203 94.9308 64.5546 94.7101 64.8177 94.6145C65.2506 94.4595 65.699 94.3403 66.164 94.3167C68.8352 94.1839 71.506 94.0521 74.1783 93.9178C74.9145 93.8801 75.6508 93.8303 76.3881 93.7916C76.7036 93.775 77.1103 93.7916 77.5506 93.7916C77.9905 93.7916 94.391 93.9536 94.4353 94.1573C94.8645 94.1573 95.3169 94.1905 95.7624 94.1518C97.422 94.0038 98.6812 94.6577 99.7566 95.9088C101.861 98.3604 103.491 101.119 105.093 103.899C107.238 107.624 109.085 111.494 110.697 115.479C110.823 115.79 110.906 116.129 111.17 116.41C111.681 115.867 112.04 115.248 112.413 114.645C113.158 113.444 113.988 112.311 114.997 111.318C115.328 110.992 115.684 110.7 116.094 110.484C116.73 110.15 117.286 110.208 117.817 110.686C118.074 110.916 118.306 111.177 118.533 111.437C118.994 111.969 119.066 111.997 119.711 111.738C121.206 111.135 122.701 110.524 124.197 109.92C124.774 109.687 125.36 109.472 125.934 109.234C126.453 109.018 126.508 108.935 126.397 108.398C126.318 108.012 126.267 107.624 126.24 107.234C126.218 106.923 126.269 106.623 126.645 106.53C126.971 106.45 127.188 106.604 127.329 107.044C127.42 107.33 127.481 107.624 127.546 107.918C127.664 108.454 127.708 108.486 128.23 108.283C128.809 108.057 129.381 107.808 129.959 107.58C133.368 106.233 136.839 105.049 140.261 103.741C143.147 102.638 146.017 101.498 148.892 100.371C149.558 100.11 150.233 99.879 150.925 99.6948C151.036 99.6657 151.155 99.6144 151.259 99.6336C151.417 99.6616 151.568 99.7432 151.63 99.9107C151.703 100.112 151.631 100.282 151.462 100.393C151.271 100.521 151.068 100.631 150.862 100.734C149.147 101.589 147.348 102.245 145.578 102.968C140.626 104.991 135.555 106.69 130.573 108.631C129.864 108.907 129.165 109.208 128.451 109.467C128.098 109.594 128 109.785 128.083 110.147C128.259 110.911 128.396 111.681 128.482 112.463C128.703 114.448 128.581 116.43 128.44 118.41C128.353 119.63 128.238 120.848 128.136 122.067C128.126 122.182 128.113 122.297 128.095 122.411C128.054 122.666 127.924 122.833 127.644 122.846C127.379 122.858 127.193 122.727 127.11 122.491C127.049 122.321 127.027 122.131 127.02 121.949C126.968 120.609 127.004 119.271 127.089 117.934C127.19 116.343 127.272 114.752 127.172 113.158C127.109 112.19 126.948 111.238 126.748 110.222Z" fill="#202124"/>
<path d="M119.321 117.657C118.72 117.595 118.161 117.394 117.611 117.157C116.864 116.835 116.729 116.863 116.213 117.513C115.642 118.232 114.996 118.881 114.342 119.523C114.227 119.634 114.108 119.745 113.977 119.834C113.766 119.978 113.547 119.974 113.332 119.83C113.096 119.671 112.989 119.449 113.078 119.181C113.14 118.989 113.246 118.807 113.36 118.638C114.05 117.606 114.874 116.687 115.791 115.849C116.142 115.528 116.501 115.421 116.978 115.594C117.843 115.907 118.675 116.292 119.507 116.679C119.549 116.698 119.589 116.721 119.628 116.745C119.857 116.883 120.04 117.05 119.937 117.353C119.835 117.652 119.592 117.683 119.321 117.657Z" fill="#202124"/>
<path d="M28.1585 42.987C28.0921 42.6478 28.3645 42.5013 28.5885 42.3452C29.0821 41.999 29.36 41.4956 29.5854 40.9631C29.7665 40.5358 29.714 40.1069 29.4762 39.7043C29.255 39.3308 28.9355 39.1441 28.4973 39.2005C28.2926 39.2271 28.0894 39.2755 27.8875 39.3157C26.7813 39.5327 25.7706 39.3212 24.9092 38.5809C23.6137 37.4701 22.4093 36.2611 21.2244 35.0341C21.0792 34.8847 20.9575 34.7159 20.8857 34.5168C20.8165 34.3259 20.84 34.1405 21.0018 34.0146C21.1373 33.9081 21.3115 33.9164 21.4609 33.9966C21.5798 34.0616 21.6862 34.1543 21.7899 34.2456C22.9113 35.2375 24.0589 36.2044 25.1443 37.235C25.9739 38.0236 26.91 38.3156 27.9926 38.0303C29.4886 37.6376 31.3428 38.7566 30.9073 40.9395C30.7952 41.5012 30.9086 41.8318 31.3124 42.1968C32.3037 43.0921 33.2868 44.0022 34.1441 45.0315C35.4604 46.6125 35.9761 48.4068 35.5571 50.4487C35.3843 51.2883 35 52.0046 34.4109 52.6176C33.6753 53.3841 32.8941 54.0964 31.9996 54.6802C31.5364 54.9818 31.5377 55.0109 31.6857 55.5268C32.2374 57.4551 33.0891 59.2354 34.3902 60.771C34.863 61.3297 35.094 62.0077 35.4534 62.6207C35.6 62.8709 35.4936 63.1587 35.3954 63.423C35.0525 64.3537 34.404 65.0206 33.5703 65.5173C33.1181 65.7871 32.6439 66.0181 32.1848 66.2643C32.1447 66.4953 32.3355 66.5451 32.4503 66.6322C33.2813 67.2559 34.1496 67.8176 35.094 68.2605C35.4479 68.4262 35.7922 68.6159 36.1227 68.8247C36.3619 68.9757 36.4379 69.2178 36.3273 69.4901C36.2277 69.7363 36.019 69.8178 35.7715 69.8178C35.5378 69.8178 35.3207 69.7448 35.1023 69.6684C34.0666 69.3104 33.1555 68.7321 32.2692 68.104C32.0894 67.9767 31.9014 67.8593 31.6635 67.7002C31.6635 68.1678 31.6622 68.5509 31.6635 68.9325C31.6677 69.8082 31.6857 70.6855 31.5087 71.5487C31.3663 72.2403 31.1949 72.3853 30.4993 72.4558C30.0126 72.5045 29.5287 72.4366 29.0572 72.3425C26.3417 71.8029 23.7022 70.9981 21.1166 70.0131C20.8815 69.923 20.6589 69.7957 20.4363 69.6754C20.2123 69.5551 20.0782 69.3724 20.1667 69.1082C20.2524 68.855 20.4708 68.7542 20.7142 68.7804C20.9866 68.8096 21.2576 68.8771 21.5217 68.9535C23.0025 69.3835 24.4806 69.8178 25.9587 70.2577C27.2183 70.6342 28.5069 70.8914 29.79 71.1638C30.238 71.2593 30.2698 71.2302 30.3154 70.8028C30.4358 69.6769 30.4814 68.5494 30.339 67.422C30.2698 66.8798 30.2588 66.8603 29.7513 66.9171C27.1754 67.2076 24.7032 66.7496 22.2877 65.8893C21.3115 65.5406 20.3506 65.1534 19.3841 64.7785C18.2558 64.3412 17.6599 63.5403 17.646 62.3022C17.6267 60.4529 17.0819 58.7169 16.4501 57.0016C16.3519 56.7329 16.2316 56.6639 15.9399 56.7137C14.047 57.0403 12.2785 56.6321 10.6069 55.7383C7.43505 54.041 5.25734 51.5027 4.1125 48.0802C3.70738 46.8697 3.73088 45.6939 4.19408 44.499C4.67247 43.2634 5.26151 42.1042 6.12844 41.093C6.27362 40.9229 6.58609 40.7236 6.30266 40.4594C5.98739 40.1649 5.81179 40.5136 5.6348 40.6919C5.09558 41.2329 4.68077 41.8665 4.3116 42.533C4.20375 42.7283 4.14154 42.9674 3.89127 43.0877C3.41425 42.7475 3.07135 42.2813 2.84736 41.7514C1.61125 38.8326 1.76611 36.0495 3.71291 33.4613C3.94934 33.1473 4.23694 32.8803 4.53836 32.6285C5.55324 31.7805 6.71744 31.479 8.01992 31.6547C8.40708 31.7072 8.79975 31.7252 9.19105 31.7473C9.38185 31.7584 9.59202 31.7211 9.62243 31.497C9.65978 31.2203 9.43577 31.1636 9.21869 31.1359C9.01682 31.1096 8.80252 31.1497 8.61585 31.0294C8.62969 30.7942 8.83016 30.7375 8.96844 30.6393C10.6484 29.4372 12.4763 28.6473 14.5738 28.52C15.9205 28.4384 17.0446 27.8449 17.9184 26.7978C18.2268 26.4271 18.5379 26.0646 18.9236 25.7589C19.4172 25.3674 19.9289 25.3384 20.475 25.5459C20.8843 25.7008 21.2603 25.9332 21.606 26.2057C22.1314 26.6179 22.3914 27.1547 22.3679 27.8284C22.3361 28.74 22.0734 29.599 21.7595 30.4415C21.3807 31.4623 20.8456 32.4016 20.2012 33.2801C18.6748 35.362 17.1428 37.4383 15.4006 39.35C15.3384 39.4179 15.2775 39.4869 15.2181 39.5589C14.8517 39.9947 14.8531 39.9933 15.2347 40.4487C16.8911 42.4293 18.578 44.3812 20.4017 46.2128C21.2161 47.0303 22.0748 47.7982 22.9638 48.5312C24.0091 49.3944 25.1982 49.4054 26.4316 49.1124C26.7039 49.0471 26.9044 48.8342 27.1007 48.6363C27.911 47.8204 28.4738 46.8505 28.8678 45.777C29.0987 45.1518 30.0278 43.0283 30.0237 43.0313C30.0196 43.0338 30.0126 42.991 30.0126 42.991C30.0126 42.991 29.9739 43.0106 29.9712 43.0132C29.9366 43.0338 29.902 43.049 29.8661 43.0645C29.7983 43.0921 28.2332 43.3686 28.1585 42.987Z" fill="#202124"/>
<path d="M34.9687 88.5945C34.2446 88.0941 33.5066 87.6173 32.7825 87.1179C32.5555 86.9618 32.3397 86.7806 32.1461 86.5858C31.9317 86.3688 31.8704 86.1115 32.0682 85.8366C32.2603 85.5709 32.5124 85.513 32.8674 85.6761C33.0136 85.744 33.1473 85.8392 33.2838 85.9263C34.0413 86.4186 34.7974 86.9105 35.5535 87.4043C36.2205 87.8398 36.2929 87.8313 36.7747 87.1718C38.7269 84.4981 40.3492 81.6254 41.9099 78.7169C43.2957 76.1358 44.5793 73.5008 46.1569 71.0249C46.4928 70.4994 46.8242 69.9712 47.2766 69.5332C48.1498 68.687 49.1104 68.8874 49.5784 70.013C49.9223 70.8422 49.7983 71.6895 49.6647 72.5332C49.4042 74.1795 48.8222 75.7376 48.3 77.3123C47.4925 79.751 46.4481 82.0804 45.0753 84.2578C44.8664 84.5881 44.6224 84.8977 44.3829 85.2074C44.2217 85.4163 43.9847 85.4561 43.7592 85.3624C43.5559 85.2779 43.5795 85.0583 43.585 84.8756C43.595 84.5202 43.7467 84.2095 43.9098 83.901C44.7689 82.2683 45.6307 80.6356 46.3186 78.9214C47.1692 76.802 47.8837 74.6356 48.3838 72.4084C48.527 71.7711 48.679 71.105 48.3225 70.4691C48.0398 70.4857 47.9841 70.7193 47.8686 70.8728C46.7127 72.414 45.8661 74.1352 44.9583 75.8192C43.3164 78.8635 41.7361 81.942 39.9023 84.8826C39.217 85.9802 38.4623 87.0294 37.7035 88.076C37.3665 88.5406 37.3651 88.5613 37.8582 88.8709C40.0706 90.2659 42.2875 91.6554 44.5069 93.0404C44.9553 93.3198 44.9819 93.3168 45.2797 92.8814C46.3201 91.3553 47.4815 89.9135 48.4436 88.3332C48.527 88.1948 48.6063 88.0498 48.7163 87.935C48.8794 87.7649 49.0728 87.6143 49.3293 87.7512C49.5688 87.8797 49.6175 88.0996 49.5507 88.3458C49.4363 88.7702 49.2735 89.1739 49.041 89.5511C48.2542 90.8298 47.3449 92.0259 46.4968 93.2644C45.9385 94.0789 45.9776 93.9641 46.7393 94.4162C46.9578 94.5461 47.1777 94.6775 47.3866 94.8211C47.9059 95.1779 48.0328 95.4831 47.8224 95.8345C47.6176 96.1758 47.2737 96.2353 46.7098 95.9754C46.3533 95.8123 46.0208 95.5979 45.6823 95.3975C45.2114 95.1211 35.3585 88.8639 34.9687 88.5945Z" fill="#202124"/>
<path d="M75.8905 39.0324C75.3214 36.986 74.7553 34.9381 74.1844 32.8935C73.9973 32.2245 73.6028 31.7001 72.934 31.4822C70.8161 30.791 68.9587 29.6402 67.1802 28.3429C67.0669 28.2595 66.9503 28.171 66.6879 28.2118C66.9385 29.3116 67.1322 30.425 67.4459 31.5026C68.6003 35.4761 69.6927 39.4701 71.3339 43.2853C71.514 43.7023 71.7025 44.116 71.8671 44.5382C72.5259 46.2303 73.5515 47.6095 75.1719 48.5251C75.7979 48.8793 75.9196 49.172 75.7587 49.506C75.582 49.8684 75.2133 49.8905 74.5545 49.5673C73.1828 48.893 72.1314 47.8903 71.3992 46.5488C70.2123 44.3714 69.3052 42.0796 68.5387 39.7321C67.3585 36.123 66.2506 32.4917 65.4431 28.7788C65.3538 28.3668 65.2287 27.9548 65.2988 27.5206C65.4361 26.6746 65.9539 26.3494 66.7721 26.6167C67.1562 26.7426 67.4924 26.9708 67.7892 27.2347C69.5539 28.8026 71.6922 29.6589 73.8736 30.4522C74.2837 30.6003 74.5272 30.4625 74.7586 30.1731C75.2561 29.5517 75.7466 28.9252 76.2474 28.3055C76.3898 28.1301 76.5422 27.9548 76.7205 27.822C76.9829 27.6262 77.2593 27.6722 77.5043 27.8799C77.7324 28.074 77.7616 28.3259 77.6365 28.5745C77.4977 28.8519 77.3191 29.1124 77.1563 29.3763C76.736 30.0539 76.244 30.6803 75.7362 31.2932C75.534 31.5384 75.503 31.7597 75.5975 32.0696C77.5232 38.4213 79.5024 44.7527 82.4348 50.7401C82.495 50.8644 82.526 51.0106 82.6854 51.0944C82.9341 51.0755 82.9238 50.832 82.9887 50.6703C83.2257 50.0931 83.4227 49.499 83.6748 48.9288C83.9014 48.418 84.2081 48.2664 84.5993 48.3907C84.9953 48.5166 85.1514 48.8266 85.0263 49.361C84.8838 49.9673 84.7211 50.5714 84.5255 51.1623C84.2682 51.9421 83.9748 52.7097 83.6885 53.481C83.3954 54.2693 82.9186 54.528 82.1573 54.2095C80.1419 53.367 78.3 52.2417 76.6932 50.7556C76.4359 50.5172 76.1872 50.2599 76.4481 49.8769C76.6622 49.5621 76.9866 49.5093 77.4272 49.785C78.0789 50.192 78.7067 50.6397 79.3392 51.0755C79.8489 51.428 80.3803 51.7343 81.1572 52.0443C80.3117 50.1714 79.5503 48.4793 78.7871 46.7872L78.8351 46.7514L78.782 46.7802C78.7561 46.7444 78.7288 46.7086 78.7015 46.6747C78.3738 46.5233 78.3258 46.1964 78.2195 45.9104C77.5077 44.002 76.815 42.0867 76.0879 40.185C75.9455 39.8122 75.803 39.4428 75.8905 39.0324Z" fill="#202124"/>
<path d="M79.9651 23.9924C79.7404 24.6642 79.5211 25.336 79.2898 26.0045C79.2252 26.1903 79.1488 26.3796 79.0414 26.5416C78.9226 26.7189 78.7354 26.7786 78.5177 26.7155C78.307 26.6541 78.1505 26.5228 78.1487 26.3029C78.1468 26.0215 78.1553 25.7299 78.2269 25.4605C78.5908 24.0913 78.8716 22.6965 79.3374 21.3562C79.7031 20.3042 80.0382 20.1285 81.1317 20.4303C82.9581 20.9333 84.7863 21.4261 86.5652 22.0877C87.3084 22.364 88.0413 22.6675 88.737 23.0511C89.6231 23.5422 90.2014 24.2857 90.5007 25.2491C90.8373 26.3353 91.0483 27.447 91.1417 28.5809C91.1436 28.6099 91.1469 28.6372 91.1502 28.6662C91.1827 29.0004 91.1469 29.3227 90.7505 29.3909C90.4191 29.4472 90.225 29.2238 90.1316 28.9254C90.0058 28.5196 89.8833 28.112 89.7814 27.6994C89.7065 27.3976 89.6589 27.0872 89.608 26.7803C89.3747 25.3753 88.5993 24.3675 87.2948 23.8508C85.4787 23.133 83.6028 22.5873 81.7166 22.0843C81.6723 22.0724 81.6148 22.1116 81.5587 22.1303C81.4376 22.3316 81.5823 22.5021 81.6369 22.6794C83.3696 28.2876 85.2148 33.8567 87.283 39.3507C87.4428 39.7754 87.5941 40.2065 87.8033 40.6058C88.2713 41.5007 89.0057 42.0122 90.0383 42.0414C90.4597 41.8384 90.8 42.1063 91.1554 42.2495C92.443 42.7662 93.6553 43.4412 94.9104 44.0228C95.3001 44.2036 95.8205 44.5583 96.1467 44.1915C96.4191 43.8848 95.9412 43.4873 95.7489 43.1618C94.4938 41.042 93.2541 38.9159 92.1843 36.694C91.9429 36.191 91.6215 35.7051 91.6706 35.1031C91.4174 34.2659 91.1624 33.4287 90.9122 32.5897C90.8306 32.3169 90.7848 32.0373 90.8188 31.7508C90.8443 31.5377 90.9376 31.3723 91.1587 31.3126C91.4089 31.2461 91.6078 31.3228 91.7285 31.5564C91.8067 31.7065 91.8746 31.8634 91.9274 32.0254C93.1298 35.659 94.9481 38.9875 96.9701 42.2137C97.317 42.7662 97.6554 43.3238 97.8373 43.9597C98.2219 45.2982 97.4838 46.1456 96.1043 45.9496C94.5466 45.7278 93.0991 45.1702 91.6861 44.5018C90.7387 44.0553 89.7866 43.6154 88.7761 43.3253C87.9716 43.095 87.8646 43.1482 87.5822 43.9239C87.2438 44.8565 86.9224 45.7946 86.584 46.7272C86.5076 46.9386 86.4157 47.1516 86.2913 47.3357C86.1282 47.5815 85.8699 47.5985 85.6078 47.5184C85.358 47.4417 85.2558 47.2439 85.2491 46.9984C85.2388 46.6811 85.334 46.381 85.4292 46.0843C85.8016 44.9233 86.1725 43.7619 86.5482 42.6023C86.6726 42.2189 86.7286 41.8606 86.5331 41.4598C85.2558 38.8288 84.2966 36.0717 83.3341 33.3161C83.2781 33.1576 83.1895 33.0092 83.1164 32.8575C82.8784 32.7142 82.795 32.4704 82.7134 32.2283C82.1521 30.5623 81.6096 28.8896 81.0516 27.222C80.9601 26.9491 80.9173 26.6712 80.9733 26.3847C80.8951 25.7299 80.6538 25.1178 80.4751 24.4886C80.2559 24.3164 80.5006 24.0026 80.2762 23.8321L80.2744 23.8287C80.067 23.6854 80.0448 23.8918 79.9651 23.9924Z" fill="#202124"/>
<path d="M91.7809 35.2441C93.1165 38.2323 94.7665 41.0493 96.4796 43.8345C96.539 43.9308 96.5955 44.0289 96.6394 44.1323C96.7774 44.4537 96.6394 44.6143 96.3165 44.6482C95.9677 44.6836 95.636 44.5722 95.3278 44.4467C94.7259 44.2031 94.1373 43.9256 93.5553 43.6363C92.4426 43.0798 91.3233 42.5417 90.146 42.1306C89.9231 41.215 90.0611 40.4115 90.8402 39.7838C91.114 39.5638 91.1465 39.2693 90.973 38.9531C90.8383 38.7077 90.7261 38.4504 90.6055 38.1984C90.4217 37.816 90.3025 37.4167 90.2789 36.9901C90.2176 35.9649 90.5678 35.5589 91.7809 35.2441Z" fill="#20BEFF"/>
<path d="M75.9727 39.1191C76.9292 41.7121 77.884 44.3068 78.8409 46.8998C78.7044 47.0869 78.5715 47.2758 78.4331 47.4596C77.9522 48.0959 77.2983 48.2169 76.5654 48.042C75.8221 47.8634 75.2977 47.281 75.2065 46.527C75.1471 46.0399 75.1593 45.5461 75.2837 45.0678C75.4796 44.3205 75.3519 43.7452 74.6367 43.2912C73.785 42.7502 73.5052 41.849 73.4473 40.9009C73.3916 39.9894 73.9337 39.3686 74.8515 39.218C75.2172 39.1557 75.5966 39.1487 75.9727 39.1191Z" fill="#20BEFF"/>
<path d="M81.0431 26.3867C81.6207 27.7663 82.0112 29.2068 82.4917 30.6176C82.7603 31.4057 83.0113 32.199 83.2692 32.9888C82.354 33.8656 81.3151 34.4641 79.9829 34.4101C79.202 34.3788 78.5606 34.0918 78.0959 33.4585C77.6527 32.8549 77.6051 32.2303 78.0129 31.5971C78.3786 31.0299 78.8045 30.508 79.4511 30.2332C80.0766 29.967 80.3205 29.4955 80.2991 28.8553C80.287 28.4796 80.2744 28.1038 80.2692 27.728C80.2585 27.133 80.4652 26.6546 81.0431 26.3867Z" fill="#20BEFF"/>
<path d="M78.9082 46.7956L78.933 46.7847L78.9111 46.8011L78.8848 46.815L78.9082 46.7956Z" fill="#202124"/>
<path d="M94.0628 41.0282C94.0695 41.291 94.0233 41.4884 93.7798 41.5781C93.5244 41.6722 93.3443 41.5467 93.2089 41.3703C92.732 40.7474 92.4062 40.0628 92.1645 39.3487C92.1061 39.1771 92.0873 39.0021 92.3065 38.8929C92.5143 38.7914 92.701 38.8527 92.8453 38.987C93.4764 39.5834 93.8122 40.3141 94.0628 41.0282Z" fill="white"/>
<path d="M74.2739 40.9992C74.2662 40.587 74.3518 40.3257 74.5097 40.0969C74.5909 39.9799 74.705 39.9205 74.8404 39.9629C74.998 40.012 75.1486 40.1426 75.1046 40.3139C74.9364 40.9531 75.1936 41.4601 75.449 41.9775C75.5405 42.1639 75.5615 42.3658 75.3918 42.5101C75.219 42.6559 75.0688 42.5422 74.9186 42.4234C74.4345 42.0488 74.3145 41.4856 74.2739 40.9992Z" fill="white"/>
<path d="M80.3634 31.2815C79.9309 31.6563 79.5368 32.0522 79.3906 32.7479C79.2751 33.2995 79.2445 33.2899 78.8411 32.8267C78.8289 31.9157 79.2094 31.2777 79.7759 30.8087C80.1106 30.532 80.2811 30.6934 80.3634 31.2815Z" fill="white"/>
<path d="M64.951 7.10391C65.161 6.78203 65.4691 6.78878 65.7898 6.86418C66.5305 7.03818 67.1513 7.80562 67.1878 8.58047C67.2572 10.0941 66.0541 11.3829 64.5428 11.4022C63.6992 11.4127 63.0847 11.018 62.6895 10.2758C62.605 10.1165 62.55 9.94336 62.4732 9.78028C62.3961 9.6172 62.2691 9.55435 62.0879 9.5976C60.8815 9.88701 59.6481 9.91572 58.4174 9.97787C57.8741 10.0062 57.862 10.0129 57.8291 10.561C57.7675 11.6013 57.4578 12.5485 56.8386 13.3854C56.2607 14.166 55.5141 14.7206 54.5922 15.0273C53.791 15.2947 53.002 15.2205 52.1768 14.8444C51.4933 16.6342 50.8836 18.4199 50.1197 20.1416C49.789 20.4714 49.5086 20.4499 49.2842 20.0212C49.4776 18.8809 50.0086 17.8548 50.3707 16.7723C50.5843 16.1343 50.8257 15.5043 51.0877 14.8847C51.2623 14.4717 51.2756 14.154 50.9058 13.8138C50.5094 13.4494 50.2437 12.9672 50.0249 12.4682C49.0893 10.3381 50.0533 8.42591 51.2113 7.38553C51.4295 7.18924 51.6723 7.03047 51.9845 7.03165C52.5702 7.15495 52.6621 7.38158 52.2646 7.81138C51.9745 8.12651 51.6874 8.44079 51.4387 8.78802C50.2201 10.4922 50.9578 12.9104 52.9152 13.6724C53.5659 13.9257 54.1593 13.7727 54.7291 13.4778C56.1348 12.7503 56.8319 10.8236 56.2714 9.34263C56.0385 8.72573 55.5425 8.39809 55.0439 8.04129C54.4272 7.59903 54.4582 7.20263 55.1026 6.83942C56.1267 6.91286 56.8002 7.53773 57.2335 8.37882C57.5313 8.95605 57.869 9.0616 58.4606 8.96775C59.5171 8.80116 60.5922 8.77954 61.6524 8.60612C62.1717 8.52146 62.5662 8.35768 62.7718 7.80484C62.9426 7.34896 63.0962 7.32899 63.6929 7.41295C63.8464 7.65387 63.7523 7.89246 63.6859 8.12783C63.6357 8.30088 63.5715 8.4699 63.5446 8.64827C63.4331 9.35577 63.8306 10.0389 64.4037 10.1278C65.0897 10.234 65.8699 9.6172 65.9378 8.91959C65.9784 8.50017 65.723 8.26261 65.4326 8.02771C65.1414 7.79451 64.7709 7.58714 64.951 7.10391Z" fill="#202124"/>
<path d="M41.0117 19.3941C41.3575 18.9839 41.4509 18.9421 41.8487 19.1307C42.6466 19.5104 43.1979 20.101 43.3917 20.9962C43.5201 21.5889 43.5297 21.5916 44.1372 21.6705C44.7638 21.7518 45.3923 21.808 46.016 21.9017C46.3607 21.9537 46.5603 21.8658 46.6895 21.5217C46.9032 20.9545 47.3088 20.5393 47.8169 20.2116C48.1314 20.0086 48.4274 19.9356 48.7529 20.165C48.847 20.5071 48.6384 20.7259 48.4303 20.933C48.0863 21.2737 47.8679 21.6942 47.6856 22.1333C47.3287 22.9931 47.6346 23.9698 48.3805 24.3995C49.1418 24.8384 50.4261 24.6354 50.9358 23.9965C51.4532 23.3463 51.3432 22.375 50.6693 21.6573C50.0847 21.0344 50.0648 20.8811 50.4977 20.3663C51.3236 20.2793 51.8377 20.7467 52.154 21.421C53.2608 23.7791 51.9676 25.8108 49.6688 25.9735C49.2381 26.0041 48.8123 25.9785 48.3916 25.8778C47.3102 25.6176 46.6692 24.9253 46.4334 23.8451C46.2267 22.8965 46.3998 23.0042 45.365 22.8959C44.9387 22.8517 44.5151 22.7808 44.0896 22.7263C43.5386 22.6549 43.5153 22.6494 43.3636 23.1693C43.1105 24.0357 42.5329 24.6017 41.7756 25.0189C40.009 25.993 37.7408 24.9588 37.2844 22.9705C36.9814 21.6518 37.8294 19.913 39.0432 19.3777C39.3359 19.248 39.64 19.1175 39.8964 19.4587C39.9618 19.8359 39.6957 20.0433 39.4761 20.2628C39.1698 20.571 38.9026 20.8981 38.7081 21.2921C38.2365 22.2454 38.3332 22.916 39.0642 23.6425C39.6012 24.176 40.4076 24.301 41.0685 23.9524C42.0015 23.4622 42.4355 22.6565 42.2506 21.7281C42.138 21.1575 41.9118 20.6498 41.4428 20.2641C41.2073 20.0701 40.9279 19.8645 40.9944 19.4804C40.9973 19.4549 41.0036 19.4299 41.0095 19.4049L41.0117 19.3941Z" fill="#202124"/>
<path d="M41.0446 19.4476L41.0721 19.4617L41.0428 19.4554L41.0205 19.4409L41.0446 19.4476Z" fill="#202124"/>
<path d="M53.839 12.6927C53.6541 12.7624 53.4681 12.7389 53.2869 12.6709C52.7927 12.4831 52.4126 12.1534 52.148 11.6747C52.0461 11.4914 52.0376 11.3069 52.0505 11.1085C52.0653 10.8833 52.1738 10.7529 52.3761 10.6955C52.5543 10.6459 52.7241 10.6843 52.8241 10.8461C53.0743 11.2524 53.4341 11.5074 53.829 11.729C53.919 11.7796 54.0054 11.8549 54.0692 11.9388C54.3054 12.2491 54.2025 12.5788 53.839 12.6927Z" fill="#202124"/>
<path d="M39.4316 21.9814C39.5829 21.8953 39.7121 21.9345 39.7999 22.0455C40.0605 22.3779 40.3225 22.7099 40.5535 23.0633C40.6864 23.2651 40.576 23.409 40.3409 23.3873C39.9516 23.3529 39.3537 22.8837 39.229 22.5213C39.1415 22.2693 39.2057 22.0876 39.4316 21.9814Z" fill="#202124"/>
<path d="M48.2262 23.0659C48.2882 23.0782 48.3885 23.0754 48.4583 23.1162C48.6288 23.2149 48.803 23.3165 48.9451 23.4461C49.0975 23.5859 49.3388 23.7373 49.1787 23.9773C48.9982 24.2469 48.7192 24.1253 48.4904 24.0495C48.1948 23.9508 48.0106 23.7457 47.9697 23.4453C47.9479 23.282 48.0165 23.1543 48.2262 23.0659Z" fill="#202124"/>
<path d="M64.655 9.33224C64.6809 9.49288 64.827 9.68822 64.5509 9.77502C64.3232 9.84621 64.0003 9.62024 63.938 9.36069C63.8863 9.14185 63.9391 8.92732 64.1819 8.87964C64.524 8.81103 64.5664 9.10966 64.655 9.33224Z" fill="#202124"/>
<path d="M36.1982 63.8913C36.3942 63.8872 36.5405 63.9669 36.666 64.0607C38.2407 65.2398 40.0583 65.969 41.8083 66.8222C42.2818 67.0533 42.7453 67.3079 43.1996 67.5751C43.6203 67.8238 43.9543 68.1722 44.1931 68.5999C44.2732 68.7431 44.309 68.904 44.1861 69.0472C44.0842 69.1657 43.9322 69.1602 43.8012 69.1365C43.6687 69.1133 43.5392 69.0553 43.4163 68.9948C41.4703 68.0154 39.4966 67.0905 37.5894 66.0351C36.978 65.6966 36.4798 65.2291 36.0036 64.7323C35.8518 64.574 35.7773 64.388 35.856 64.168C35.918 63.9946 36.0643 63.9341 36.1982 63.8913Z" fill="#202124"/>
<path d="M60.0408 89.6544C60.0308 89.8367 60.0127 90.033 59.8197 90.1205C59.5976 90.2209 59.3684 90.2113 59.1628 90.0574C58.8975 89.8588 58.7395 89.5776 58.5731 89.3034C57.6534 87.773 53.8415 79.3133 52.7569 77.8858C52.4941 77.5389 52.2159 77.2016 51.949 76.8573C51.8509 76.7311 51.752 76.6037 51.6708 76.4665C51.57 76.2949 51.5756 76.1155 51.7014 75.955C51.8553 75.759 52.076 75.7686 52.2716 75.8413C52.417 75.8944 52.5414 76.0151 52.6591 76.1221C53.306 76.7159 53.8847 77.3703 54.3726 78.0943C55.2432 79.386 58.9897 87.6165 59.7806 88.9576C59.9079 89.1742 60.0618 89.3828 60.0408 89.6544Z" fill="#202124"/>
<path d="M48.4148 80.8604C48.3081 81.6827 48.0391 82.4673 47.7321 83.2378C47.4508 83.9446 47.1124 84.6236 46.722 85.2761C46.6138 85.4554 46.502 85.6282 46.3013 85.713C45.9341 85.8673 45.5805 85.6031 45.661 85.2078C45.7156 84.9395 45.8329 84.6834 45.937 84.4276C46.4515 83.171 47.0549 81.951 47.4128 80.6309C47.4372 80.5419 47.4741 80.4556 47.5151 80.3748C47.6188 80.1733 47.7811 80.0548 48.0107 80.0895C48.2753 80.1301 48.3886 80.3205 48.4133 80.5752C48.4214 80.6671 48.4148 80.7601 48.4148 80.8604Z" fill="#202124"/>
<path d="M49.5245 83.6263C49.2928 84.8497 48.9842 86.0232 48.1959 86.9916C47.9387 87.3075 47.6841 87.3518 47.4305 87.1828C47.1287 86.9806 47.1235 86.6909 47.2501 86.3905C47.6785 85.3774 48.1207 84.3718 48.5491 83.3587C48.6621 83.0901 48.8348 82.9461 49.1204 83.0015C49.461 83.0709 49.4732 83.3698 49.5245 83.6263Z" fill="#202124"/>
<path d="M3.55798 44.1808C3.91717 44.8115 3.5777 45.3906 3.396 45.9736C3.35233 46.1157 3.16922 46.1966 2.98892 46.1733C2.76074 46.1445 2.62692 46.012 2.53818 45.8065C2.37902 45.4426 2.54522 45.1005 2.59171 44.7499C2.62129 44.6993 2.64664 44.6462 2.66777 44.5912C2.69312 44.4694 2.7227 44.3502 2.78609 44.241C3.02695 44.0343 3.29176 44.0959 3.55798 44.1808Z" fill="#202124"/>
<path d="M2.3302 44.5284C2.21145 44.5992 2.09829 44.6826 1.97395 44.7398C1.73366 44.8498 1.51154 44.7845 1.34389 44.5992C1.16228 44.3992 1.21397 44.1752 1.33691 43.9582C1.45286 43.7523 1.61072 43.5843 1.80072 43.4507C2.26733 43.1252 2.54115 43.2363 2.74791 43.829C2.66409 44.0944 2.67526 44.4173 2.3302 44.5284Z" fill="#202124"/>
<path d="M17.144 51.5887C16.5721 51.8913 15.9932 52.17 15.3907 52.4128C14.2593 52.8708 12.9266 52.1674 12.463 51.192C12.2548 50.7536 12.1104 50.286 12.0451 49.8047C11.7827 47.8761 13.5791 46.3279 15.4962 46.8247C16.4082 47.0605 17.1037 47.6111 17.6965 48.319C18.5613 49.3497 19.2652 50.4915 20.0051 51.6098C20.4257 52.2464 20.8671 52.8693 21.385 53.431C22.6274 54.781 24.1655 55.5512 25.9854 55.759C27.2626 55.9047 28.5258 55.8077 29.7808 55.5456C29.939 55.5121 30.0973 55.4733 30.2569 55.4512C30.4707 55.4205 30.6096 55.5039 30.6568 55.7302C30.6998 55.9339 30.7567 56.1335 30.815 56.3336C31.4091 58.3589 32.4448 60.1514 33.7344 61.8065C33.7774 61.8608 33.8205 61.9162 33.869 61.9649C34.4007 62.4974 34.4077 62.5417 34.0731 63.1746C33.7941 63.7016 33.3762 64.0928 32.8654 64.3869C31.1773 65.3553 29.3796 65.8269 27.4167 65.6564C25.7023 65.5081 24.0267 65.2014 22.4053 64.6172C21.4918 64.2884 20.5812 63.9515 19.6566 63.6588C19.0389 63.4617 18.7765 63.0942 18.7543 62.442C18.6807 60.2458 18.1754 58.1441 17.262 56.142C16.9358 55.4261 16.5526 54.7393 16.1389 54.0695C15.7877 53.5004 15.7919 53.5004 16.393 53.2409C16.84 53.0483 17.2745 52.8346 17.6132 52.4671C17.7881 52.2781 17.9353 52.0744 18.0491 51.8441C18.1518 51.636 18.163 51.4348 17.9811 51.2739C17.8048 51.1186 17.6104 51.0949 17.4355 51.292C17.3453 51.3987 17.2453 51.4946 17.144 51.5887Z" fill="#DADCE0"/>
<path d="M5.37695 45.8839C5.51022 44.9882 5.81933 44.1667 6.32301 43.4264C6.40427 43.3068 6.52421 43.2234 6.66279 43.3013C6.81336 43.385 6.75472 43.5426 6.72006 43.6677C6.62814 43.9954 6.51753 44.3176 6.42693 44.6468C6.30566 45.0845 6.19509 45.5248 6.08449 45.965C6.02987 46.1828 6.02186 46.4725 5.7274 46.4533C5.40758 46.4312 5.39961 46.1363 5.37695 45.8839Z" fill="#E8EAED"/>
<path d="M30.7946 48.1148C30.6896 48.1056 30.5736 48.1041 30.463 48.0812C30.2931 48.0465 30.1688 47.9502 30.1522 47.7734C30.1357 47.5981 30.2323 47.4738 30.3995 47.4188C30.9617 47.2368 31.5226 47.0519 32.0918 46.8925C32.2935 46.8364 32.4938 46.8711 32.6002 47.1095C32.7079 47.349 32.5905 47.4937 32.4136 47.614C31.9315 47.9447 31.3831 48.0801 30.7946 48.1148Z" fill="#E8EAED"/>
<path d="M20.2327 28.6018C20.2583 28.1136 20.1745 27.638 20.0779 27.1624C20.0438 26.9964 19.9885 26.7719 20.2256 26.6854C20.4386 26.6073 20.5735 26.7524 20.6928 26.9058C21.0534 27.3688 21.1344 28.8849 20.8206 29.3786C20.741 29.5028 20.6345 29.5906 20.4755 29.5655C20.2838 29.5348 20.1958 29.4037 20.1986 29.2238C20.2 29.016 20.2199 28.8096 20.2327 28.6018Z" fill="white"/>
<path d="M6.34597 48.3777C6.33261 48.5372 6.3742 48.7257 6.15882 48.7892C5.90636 48.8627 5.80535 48.6907 5.73704 48.5076C5.63009 48.2227 5.52465 47.9341 5.51576 47.6282C5.51129 47.4451 5.61972 47.3182 5.81428 47.2887C5.98356 47.2621 6.1024 47.3566 6.15882 47.4931C6.27618 47.7762 6.32962 48.0751 6.34597 48.3777Z" fill="white"/>
<path d="M2.61035 44.6547C2.61312 44.5495 2.63249 44.4488 2.74044 44.3779C2.75705 44.4901 2.74736 44.5946 2.61035 44.6547Z" fill="#202124"/>
<path d="M14.7568 51.85C14.4343 51.8577 14.1323 51.7839 13.8466 51.6429C13.6194 51.5311 13.5106 51.3518 13.5514 51.1093C13.5922 50.8668 13.7541 50.7229 14.0085 50.7004C14.4343 50.6624 14.8602 50.6281 15.286 50.607C15.5975 50.5912 15.8098 50.7532 15.8778 51.0366C15.9458 51.3226 15.8166 51.5496 15.5417 51.6824C15.2942 51.8013 15.0329 51.8618 14.7568 51.85Z" fill="#202124"/>
<path d="M16.627 51.2976C16.2662 51.3039 16.0427 51.13 16.0335 50.8348C16.0229 50.4728 16.319 50.1919 16.7116 50.1904C17.0315 50.189 17.2747 50.41 17.2787 50.7027C17.2827 51.0308 16.9985 51.2909 16.627 51.2976Z" fill="#202124"/>
<path d="M44.2917 121.987C44.4688 121.97 72.3559 122.006 72.5412 121.88C72.4969 121.518 72.3267 121.188 72.195 120.848C70.3697 116.13 68.4086 111.465 66.5013 106.781C65.4901 104.3 64.4778 101.819 63.5692 99.2979C63.3268 98.6248 63.1482 97.9298 62.9474 97.2427C62.9086 97.1109 62.892 96.9711 62.881 96.8334C62.8588 96.5658 62.9972 96.416 63.2423 96.316C63.4847 96.2175 63.6578 96.3075 63.7826 96.4865C63.9139 96.674 64.015 96.8847 64.1106 97.0928C64.9181 98.8595 65.5274 100.705 66.274 102.496C68.6134 108.103 70.9321 113.717 73.1564 119.371C73.3767 119.931 73.576 120.497 73.7878 121.057C74.2174 122.191 74.0329 122.049 75.1824 122.076C78.1356 122.143 81.0898 122.183 84.0425 122.271C90.0425 122.452 96.0425 122.438 102.044 122.31C108.643 122.17 156.776 122.106 163.376 122.091C163.652 122.091 163.933 122.101 164.202 122.153C164.634 122.236 164.813 122.446 164.806 122.786C164.799 123.122 164.59 123.32 164.163 123.374C163.98 123.397 163.795 123.392 163.611 123.394C154.378 123.442 103.614 123.542 94.3818 123.668C90.5507 123.721 86.7211 123.521 82.8915 123.414C79.9609 123.333 77.0303 123.327 74.0982 123.362C73.7417 123.366 45.7243 123.355 45.4361 123.331C43.0734 123.137 42.9546 122.113 44.2917 121.987Z" fill="#202124"/>
<path d="M84.5407 108.237C84.5174 107.381 84.644 106.77 85.2378 106.355C85.7626 105.989 86.1881 106.019 86.6619 106.45C86.8837 106.653 87.0601 106.89 87.2129 107.149C87.7517 108.066 88.1289 109.046 88.3507 110.082C88.4625 110.606 88.4378 111.128 88.1636 111.617C87.7695 112.321 87.045 112.531 86.3519 112.121C86.0504 111.944 85.8261 111.684 85.6249 111.402C84.9112 110.397 84.6082 109.261 84.5407 108.237Z" fill="#202124"/>
<path d="M36.3772 88.8022C36.3772 88.8022 26.6006 99.1784 21.9844 99.8737" stroke="#202124" stroke-width="1.38393" stroke-linecap="round"/>
<path d="M45.6497 93.9229C45.6497 93.9229 35.8731 111.495 31.2568 112.191" stroke="#202124" stroke-width="1.24554" stroke-linecap="round"/>
<path d="M16.8641 65.8291C16.8641 65.8291 8.59527 73.3219 6.39213 80.1031C4.91561 84.6479 3.86433 92.5164 3.21187 101.043C3.03015 103.417 2.87382 106.769 2.74805 110.115" stroke="#202124" stroke-width="1.24554" stroke-linecap="round"/>
<path fill-rule="evenodd" clip-rule="evenodd" d="M105.197 15.2354C104.794 14.9283 104.421 14.6446 104.035 14.3793C102.852 13.5661 101.894 12.5209 100.952 11.4561L100.95 11.4541C100.902 11.3993 100.851 11.3431 100.81 11.2824C100.412 10.7044 100.153 10.0934 100.473 9.39553C100.783 8.72013 101.394 8.52996 102.069 8.48202C103.223 8.39969 104.354 8.55543 105.465 8.85642C106.497 9.13498 107.521 9.43896 108.527 9.80284C109.283 10.0764 109.284 10.0665 109.395 9.23222L109.396 9.22779C109.644 7.37237 109.986 5.53492 110.486 3.73039C110.565 3.44286 110.66 3.15683 110.786 2.88728C111.514 1.33584 113.369 1.10821 114.445 2.444C115.203 3.38445 115.505 4.52406 115.744 5.67567C115.977 6.80031 116.126 7.93694 116.187 9.08704C116.217 9.65759 116.289 9.71302 116.819 9.50185C118.209 8.94776 119.616 8.4566 121.104 8.24244C122.017 8.11065 122.937 8.04776 123.834 8.36522C125.25 8.8669 125.687 10.011 124.975 11.3438C124.688 11.8799 124.277 12.3097 123.815 12.6961L123.556 12.9111C122.362 13.9063 121.164 14.9037 119.875 15.8424C119.997 16.07 120.181 16.188 120.355 16.3003C120.402 16.3306 120.449 16.3605 120.493 16.392C121.65 17.2171 122.78 18.0737 123.8 19.0696C123.942 19.2073 124.086 19.3496 124.197 19.5113C124.304 19.6686 124.298 19.8588 124.139 19.9815L124.123 19.9936C123.997 20.0916 123.852 20.2041 123.67 20.0804C123.604 20.0354 123.536 19.9913 123.47 19.9472L123.469 19.947L123.469 19.9469C123.349 19.8681 123.229 19.7889 123.113 19.7045C122.5 19.2575 121.889 18.8093 121.277 18.3611L121.276 18.3604L121.275 18.3597L121.275 18.359L121.273 18.3583L121.273 18.3576L121.272 18.3569C120.66 17.9087 120.049 17.4605 119.436 17.0134C118.837 16.5762 118.834 16.5777 118.21 17.0239C117.976 17.1915 117.743 17.3626 117.511 17.5337C117.342 17.6578 117.173 17.7818 117.004 17.9045C116.553 18.2309 116.313 18.6607 116.262 19.2238L116.25 19.3602C116.166 20.28 116.133 20.6442 116.294 20.8698C116.4 21.0176 116.589 21.106 116.901 21.2522C117.053 21.3231 117.234 21.4078 117.449 21.5195C119.316 22.4899 121.296 23.1399 123.386 23.4318C123.94 23.5082 124.479 23.5217 124.988 23.2537C125.45 23.0095 125.5 22.7939 125.209 22.3626C125.113 22.22 125.013 22.08 124.912 21.94C124.824 21.8168 124.736 21.6937 124.651 21.5689C124.524 21.3818 124.522 21.1946 124.688 21.0268C124.878 20.8352 125.094 20.8411 125.294 20.9909C125.845 21.4057 126.277 21.9179 126.441 22.6022C126.559 23.0949 126.329 23.4783 125.96 23.7808C125.2 24.4052 124.316 24.5535 123.364 24.4547C121.032 24.2136 118.859 23.4633 116.789 22.3881L116.787 22.3872C116.095 22.0272 116.093 22.0264 115.972 22.8089C115.916 23.1719 115.861 23.5349 115.806 23.8977V23.8982V23.8988L115.806 23.8994V23.8999V23.9005V23.901L115.805 23.9015V23.9021V23.9026C115.748 24.2776 115.692 24.6524 115.633 25.0267C115.618 25.1304 115.593 25.2318 115.569 25.3336C115.558 25.3774 115.548 25.4213 115.538 25.4655C115.483 25.7081 115.36 25.8863 115.083 25.8608C114.772 25.8324 114.667 25.6168 114.672 25.3382C114.676 25.0642 114.696 24.7901 114.721 24.5176C114.74 24.3266 114.757 24.1355 114.774 23.9444V23.9439L114.775 23.9432V23.9428V23.9424V23.942V23.9416V23.9412C114.828 23.3634 114.88 22.7857 114.963 22.2114C115.042 21.6633 114.827 21.3099 114.397 21.0164C113.536 20.4293 112.648 20.3035 111.75 20.8921C111.31 21.1811 110.86 21.4357 110.368 21.6154C109.857 21.8011 109.614 22.1694 109.651 22.7101C109.766 24.4277 109.898 26.1439 110.523 27.7747C110.753 28.3752 111.105 28.8724 111.679 29.1914C112.197 29.4789 112.479 29.4385 112.848 28.9832C113.123 28.6453 113.299 28.2475 113.475 27.8516L113.494 27.8076C113.594 27.58 113.699 27.3509 113.836 27.1457C113.972 26.9421 114.184 26.8642 114.426 26.9585C114.687 27.0604 114.863 27.264 114.791 27.5366C114.488 28.6882 114.056 29.7724 112.967 30.4238C112.506 30.6994 112.015 30.6844 111.532 30.4703C110.581 30.0479 109.89 29.3651 109.486 28.3962C108.903 26.999 108.642 25.5329 108.551 24.0294L108.548 23.9857C108.53 23.6767 108.511 23.3664 108.519 23.0575C108.53 22.6786 108.358 22.6487 108.057 22.755C106.977 23.1354 105.898 23.5127 104.814 23.8781C103.862 24.1986 102.887 24.3558 101.878 24.2226C100.95 24.0997 100.317 23.5921 99.986 22.734C99.6756 21.9313 100.247 21.0523 101.088 20.9834C101.239 20.9714 101.392 20.9624 101.488 21.1092C101.554 21.2116 101.505 21.2961 101.454 21.3813C101.442 21.4033 101.429 21.4253 101.418 21.4476C100.947 22.4076 101.24 22.9092 102.305 22.9766C102.906 23.0156 103.497 22.9631 104.074 22.7745C105.35 22.3566 106.609 21.8909 107.861 21.4072C108.348 21.22 108.566 20.943 108.562 20.4069C108.554 19.6596 108.609 18.9108 108.665 18.1651C108.69 17.8266 108.585 17.5975 108.302 17.4163C108.15 17.3194 108.002 17.1999 107.855 17.0807C107.557 16.8389 107.261 16.5989 106.936 16.5537C106.602 16.5068 106.308 16.7888 106.018 17.0676C105.9 17.1802 105.784 17.2923 105.665 17.3819C105.095 17.8129 104.539 18.2626 103.984 18.7125C103.765 18.8892 103.547 19.0661 103.327 19.2418C103.29 19.2719 103.254 19.3042 103.218 19.3365C103.161 19.3878 103.104 19.4391 103.041 19.4814C102.785 19.6506 102.525 19.6701 102.298 19.432C102.042 19.1609 102.188 18.9258 102.397 18.7191C103.175 17.9464 103.957 17.1782 104.82 16.4983C105.05 16.3202 105.279 16.1336 105.54 15.9194L105.54 15.9191C105.626 15.8488 105.715 15.7755 105.81 15.6986C105.596 15.5387 105.393 15.3848 105.198 15.2364L105.198 15.2361L105.198 15.2359L105.197 15.2354ZM102.864 9.69283C103.93 9.64397 104.944 9.93434 105.952 10.2232C106.012 10.2403 106.072 10.2574 106.131 10.2743C106.694 10.4344 107.246 10.6286 107.799 10.8229C108.135 10.941 108.471 11.059 108.809 11.1695C109.126 11.273 109.248 11.4253 109.288 11.8028C109.473 13.4911 108.511 14.2188 107.15 14.9906C106.944 15.1078 106.769 14.9876 106.602 14.8734C104.897 13.6951 103.251 12.4467 101.965 10.7721C101.952 10.7547 101.938 10.7372 101.924 10.7196C101.846 10.6181 101.765 10.5147 101.713 10.3992C101.564 10.0704 101.7 9.80395 102.048 9.7111C102.096 9.69892 102.146 9.69283 102.195 9.69283C102.345 9.6918 102.494 9.69213 102.642 9.6925H102.643H102.643H102.644H102.644H102.645C102.718 9.69265 102.791 9.69283 102.864 9.69283ZM114.891 10.3793C115.152 10.2624 115.262 10.0613 115.198 9.79056C115.066 8.25513 114.897 6.73746 114.526 5.25086C114.396 4.72575 114.24 4.20506 113.973 3.72581C113.689 3.21694 113.38 2.70958 112.686 2.77318C112.021 2.83383 111.83 3.36486 111.662 3.89886C111.09 5.71745 110.812 7.5917 110.535 9.46653L110.534 9.46734C110.502 9.68752 110.47 9.90773 110.436 10.1278C110.411 10.3053 110.387 10.5095 110.553 10.6026C110.662 10.6633 110.77 10.7275 110.878 10.7918C111.515 11.1716 112.159 11.5547 112.977 11.2195C113.489 11.0089 113.995 10.7816 114.5 10.5544C114.631 10.496 114.76 10.4375 114.891 10.3793ZM122.358 9.41571C122.815 9.39342 123.269 9.44243 123.697 9.59839C124.145 9.76181 124.257 10.0396 124.095 10.4822C123.963 10.8402 123.726 11.1298 123.437 11.3749C122.046 12.5587 120.601 13.6771 119.128 14.7614C118.859 14.9605 118.608 14.9976 118.287 14.8788C116.818 14.3366 116.065 12.9864 116.403 11.4967C116.48 11.1536 116.632 10.8773 116.966 10.7644C117.198 10.6857 117.429 10.6054 117.66 10.5251C119.067 10.037 120.475 9.54835 121.981 9.41571C122.064 9.40977 122.148 9.41176 122.232 9.41372C122.274 9.41472 122.316 9.41571 122.358 9.41571ZM111.31 13.4689C110.288 14.0394 109.892 14.9383 109.865 16.0552C109.869 17.5007 111.886 18.9895 113.264 18.5624C113.358 18.5341 113.452 18.4997 113.54 18.4549C114.003 18.2175 114.438 17.9308 114.837 17.5978C115.247 17.2558 115.439 16.8153 115.344 16.2777C115.304 16.0567 115.28 15.8477 115.341 15.6207C115.525 14.9383 115.269 14.4067 114.729 13.9946C114.353 13.7078 113.956 13.4629 113.515 13.2853C112.746 12.9761 112.028 13.0687 111.31 13.4689ZM111.525 19.6086C110.954 20.0101 110.434 20.2803 109.833 20.5743C109.74 19.8907 109.771 19.2966 109.813 18.6368C110.27 18.7911 110.649 19.0403 111.054 19.3066C111.206 19.4062 111.361 19.5082 111.525 19.6086ZM114.607 12.7877L114.609 12.789L114.611 12.7901L114.612 12.7912C114.784 12.8942 114.956 12.9978 115.129 13.1011L115.162 13.0832C115.207 13.059 115.252 13.035 115.299 13.012C115.226 12.8283 115.255 12.612 115.282 12.4077C115.317 12.1399 115.35 11.8926 115.148 11.7654C114.913 11.6191 114.628 11.8331 114.353 12.0399C114.255 12.114 114.158 12.1871 114.064 12.2425C114.047 12.2525 114.042 12.2871 114.034 12.3361C114.03 12.3643 114.025 12.3973 114.016 12.4333C114.21 12.5493 114.407 12.6676 114.605 12.7867L114.606 12.7872L114.607 12.7877ZM117.615 15.712C117.365 16.0148 117.113 16.1885 116.852 16.369C116.783 16.4163 116.714 16.4641 116.644 16.5148C116.481 16.1828 116.501 15.8664 116.52 15.5498C116.529 15.4117 116.537 15.2735 116.531 15.134C116.855 15.1048 117.068 15.2822 117.3 15.4739C117.398 15.5556 117.5 15.64 117.615 15.712ZM108.64 16.2663C108.693 16.2869 108.746 16.3079 108.798 16.3303C108.802 16.2863 108.807 16.2434 108.811 16.2014C108.849 15.8395 108.879 15.5482 108.802 15.2231L108.77 15.2338C108.46 15.3381 108.119 15.4523 108.112 15.789C108.105 16.0551 108.363 16.1569 108.64 16.2663ZM114.484 19.4847C114.661 19.3461 114.82 19.2211 115.052 19.1904C115.159 19.4906 115.124 19.7693 115.086 20.071L115.08 20.113C114.791 20.104 114.587 19.9605 114.331 19.7799C114.29 19.7505 114.246 19.72 114.201 19.689C114.307 19.6239 114.398 19.5526 114.484 19.4847ZM110.318 11.7172C110.222 12.0048 110.196 12.2627 110.305 12.6398C110.404 12.5822 110.503 12.5366 110.598 12.4926C110.819 12.391 111.019 12.2985 111.156 12.0883C110.916 11.8796 110.656 11.7619 110.318 11.7172Z" fill="#202124"/>
<path d="M120.608 5.81253C119.684 5.76194 118.78 5.23364 118.168 4.22471C118.08 4.0789 118.017 3.91072 117.97 3.74553C117.521 2.122 119.046 0.218692 120.742 0.278217C121.075 0.290122 121.385 0.368993 121.654 0.565425C121.826 0.690429 121.911 0.869 121.867 1.08478C121.819 1.32288 121.634 1.37943 121.421 1.39877C121.173 1.4211 120.922 1.43449 120.679 1.48508C119.775 1.66812 119.178 2.41516 119.279 3.22172C119.364 3.91072 120.21 4.55508 120.978 4.51489C121.794 4.47175 122.417 3.80805 122.458 2.936C122.462 2.83779 122.453 2.73808 122.456 2.63838C122.468 2.33183 122.602 2.12051 122.929 2.06694C123.319 2.00295 123.574 2.12944 123.699 2.49105C123.85 2.92856 123.81 3.37351 123.673 3.80654C123.338 4.87205 122.008 5.81851 120.608 5.81253Z" fill="#202124"/>
<path d="M124.351 15.833C124.392 15.3572 124.456 14.8507 124.756 14.4148C125.113 13.8944 125.608 13.6305 126.238 13.6565C126.448 13.6657 126.631 13.7686 126.694 13.9973C126.755 14.2137 126.605 14.3288 126.456 14.4286C126.18 14.6143 125.92 14.8138 125.763 15.1193C125.506 15.6197 125.563 16.1185 125.844 16.5743C126.094 16.9765 126.517 16.9965 126.931 16.9166C127.586 16.7908 127.944 15.9481 127.605 15.3618C127.554 15.2743 127.484 15.196 127.44 15.107C127.209 14.6435 127.521 14.1585 128.035 14.1815C128.486 14.1999 128.856 14.5069 129.024 14.9996C129.587 16.6496 128.13 18.4469 126.384 18.2535C125.057 18.1077 124.309 17.2297 124.351 15.833Z" fill="#202124"/>
<path fill-rule="evenodd" clip-rule="evenodd" d="M24.4768 39.3928C23.6218 38.5731 22.622 38.0535 21.4181 38.0225C21.0403 37.9823 20.6817 38.0602 20.3287 38.1635C19.5855 38.3864 19.1842 38.9145 19.1069 39.6769C19.0628 40.1132 19.0587 40.5564 19.1718 40.9896C19.7551 43.2154 21.1823 44.5823 23.3708 45.1234C24.9594 45.5164 26.1633 44.51 26.1357 42.8615C26.1122 41.4524 25.4572 40.3335 24.4768 39.3928ZM21.1465 38.8425C20.5901 38.8329 20.1108 38.9975 19.8133 39.5124C19.4731 40.163 20.1094 41.6539 20.2389 41.8654C20.6865 42.7452 21.3792 43.3933 22.2138 43.897C22.6284 44.1469 23.0773 44.3129 23.5635 44.3653C24.6832 44.4845 25.4228 43.7475 25.2905 42.6371C25.2134 41.9905 24.9958 41.3904 24.6157 40.8645C23.7618 39.684 22.6821 38.8673 21.1465 38.8425Z" fill="#202124"/>
<path d="M25.0471 32.342C26.4842 32.4049 27.6148 33.0736 28.5435 34.121C29.273 34.9441 29.7745 35.867 29.7319 37.013C29.7236 37.2329 29.7387 37.4271 29.4488 37.4544C29.1714 37.4821 29.0285 37.3658 28.9762 37.0909C28.9076 36.734 28.8416 36.3716 28.7166 36.0339C28.1465 34.5024 27.0337 33.5795 25.4387 33.2321C24.7518 33.0831 24.1185 33.172 23.6225 33.7353C23.4865 33.8899 23.3409 34.0662 23.1059 33.8899C22.9026 33.7381 22.9356 33.5248 23.0139 33.3306C23.1554 32.9751 23.4233 32.7303 23.7778 32.5895C24.1816 32.4268 24.5993 32.3147 25.0471 32.342Z" fill="#202124"/>
<path d="M27.009 36.6277C26.5249 36.6361 26.0079 36.1912 25.9982 35.7575C25.99 35.3881 26.2719 35.1111 26.6583 35.1055C27.1561 35.1 27.6403 35.5224 27.6581 35.9785C27.6733 36.3619 27.4133 36.6207 27.009 36.6277Z" fill="#202124"/>
<path d="M25.4385 35.3449C25.4743 35.7897 25.3365 35.9849 25.0583 36.0574C24.7938 36.1272 24.6147 35.978 24.51 35.7534C24.3185 35.3407 24.2785 34.9098 24.4273 34.4719C24.5017 34.2516 24.645 34.1359 24.8874 34.1372C25.1216 34.1372 25.2112 34.2864 25.2566 34.4747C25.3352 34.8108 25.3985 35.151 25.4385 35.3449Z" fill="#202124"/>
<path d="M24.4434 46.8685C24.0313 46.8817 23.8074 46.6747 23.7849 46.2577C23.7624 45.8395 23.9637 45.631 24.3983 45.6237C24.7878 45.6181 24.9998 45.8049 25.0263 46.1783C25.0555 46.5791 24.821 46.8555 24.4434 46.8685Z" fill="#202124"/>
<path d="M25.3878 47.146C25.721 47.1501 25.9975 47.4413 25.9975 47.7874C25.9975 48.1436 25.7356 48.3956 25.3718 48.3916C25.0125 48.3875 24.7462 48.12 24.752 47.7723C24.7593 47.4453 25.0678 47.142 25.3878 47.146Z" fill="#202124"/>
<path d="M26.9659 46.3467C26.9542 46.6434 26.6681 46.8785 26.3293 46.8689C25.941 46.8582 25.6914 46.6065 25.7235 46.257C25.7527 45.95 26.0286 45.743 26.3805 45.7636C26.7089 45.7824 26.9776 46.0519 26.9659 46.3467Z" fill="#202124"/>
<path d="M23.184 41.8847C22.6781 41.8806 22.2063 41.5917 22.0476 41.189C21.8336 40.6491 22.185 40.1723 22.7674 40.231C23.1925 40.2745 23.5141 40.5074 23.7522 40.8484C23.9052 41.0669 23.9959 41.3068 23.8429 41.5691C23.6955 41.8216 23.4631 41.9017 23.184 41.8847Z" fill="#202124"/>
<path d="M20.5161 41.6104C19.9752 41.1273 19.987 40.5173 20.1327 39.8751C20.6802 39.5445 20.8378 39.598 21.0072 40.1936C21.0728 40.4261 21.1306 40.6671 21.149 40.9066C21.1844 41.3735 21.0387 41.5222 20.5161 41.6104Z" fill="#202124"/>
</g>
</g>
</g>
</g>
<defs>
<clipPath id="clip0_162_2591">
<rect width="173.481" height="124" fill="white" transform="translate(0.519531)"/>
</clipPath>
<clipPath id="clip1_162_2591">
<rect width="173.481" height="124" fill="white" transform="translate(0.519531)"/>
</clipPath>
<clipPath id="clip2_162_2591">
<rect width="172.714" height="124" fill="white" transform="translate(0.90332)"/>
</clipPath>
</defs>
</svg>
