<svg width="956" height="533" viewBox="0 0 956 533" fill="none" xmlns="http://www.w3.org/2000/svg">
<path d="M286.698 248.451L223.018 266.405C215.177 268.616 206.857 268.455 199.107 265.943L146.375 248.849" stroke="#387E79" stroke-width="25.1059" stroke-linecap="round"/>
<path d="M290.105 369.953L287.059 443.641C287.015 444.709 287.058 445.778 287.187 446.839L291.307 480.692C292.967 494.336 279.783 505.017 266.781 500.562V500.562" stroke="#387E79" stroke-width="25.1059" stroke-linecap="round"/>
<rect width="257.335" height="408.867" rx="128.668" transform="matrix(-0.999748 -0.0224662 -0.0224662 0.999748 483.552 35.9893)" fill="#43A29A"/>
<path d="M391.457 388.38L388.411 462.068C388.367 463.136 388.41 464.206 388.539 465.266L392.659 499.119C394.32 512.763 381.136 523.444 368.133 518.989V518.989" stroke="#43A29A" stroke-width="25.1059" stroke-linecap="round"/>
<g clip-path="url(#clip0_343_227)">
<rect x="423.643" y="128.931" width="40.4232" height="40.4232" rx="20.2116" fill="#F9FFFF"/>
<rect x="451.683" y="142.094" width="13.1375" height="13.1375" rx="6.56877" fill="#262626"/>
</g>
<g clip-path="url(#clip1_343_227)">
<rect x="349.992" y="128.931" width="40.4232" height="40.4232" rx="20.2116" fill="#F9FFFF"/>
<rect x="378.043" y="142.094" width="13.1375" height="13.1375" rx="6.56877" fill="#262626"/>
</g>
<rect width="34.1386" height="63.4002" transform="matrix(-0.958451 0.285258 0.285258 0.958451 64.4301 231.101)" fill="#C5C5C5"/>
<path d="M60.2339 229.807L51.616 235.044L40.4594 236.026L34.763 240.394L27.5138 239.545L45.5992 300.311L78.3193 290.573L60.2339 229.807Z" fill="#D9D9D9"/>
<rect x="93.1989" y="319.217" width="41.454" height="53.6463" rx="10.9731" transform="rotate(163.426 93.1989 319.217)" fill="#C5AA98"/>
<rect x="91.2089" y="321.081" width="41.454" height="53.6463" rx="10.9731" transform="rotate(163.426 91.2089 321.081)" fill="#E5C7B1"/>
<ellipse cx="93.317" cy="304.561" rx="5.48656" ry="3.04809" transform="rotate(163.426 93.317 304.561)" fill="#C5AA98"/>
<ellipse cx="87.0551" cy="283.526" rx="5.48656" ry="3.04809" transform="rotate(163.426 87.0551 283.526)" fill="#C5AA98"/>
<ellipse cx="41.894" cy="319.864" rx="5.48656" ry="3.04809" transform="rotate(163.426 41.894 319.864)" fill="#C5AA98"/>
<ellipse cx="35.6321" cy="298.829" rx="5.48656" ry="3.04809" transform="rotate(163.426 35.6321 298.829)" fill="#C5AA98"/>
<path d="M39.6944 295.391L40.9137 299.049H39.6944V297.22L39.0848 382.567" stroke="#626262" stroke-width="0.731541"/>
<path d="M46.403 317.947L47.6222 321.605H46.403V319.776V386.224" stroke="#626262" stroke-width="0.731541"/>
<path d="M60.9173 227.837L64.7639 231.296C65.0188 228.433 65.5092 222.343 65.4316 220.882C65.3539 219.421 63.37 220.381 61.779 221.076L60.9173 227.837Z" fill="#C5C5C5"/>
<rect x="64.7646" y="231.294" width="34.1386" height="120.704" transform="rotate(-93.0416 64.7646 231.294)" fill="#C5C5C5"/>
<path fill-rule="evenodd" clip-rule="evenodd" d="M214.62 162.135C203.72 168.326 189.981 170.82 177.449 170.503C176.265 170.474 175.07 170.49 173.867 170.554C148.987 171.876 129.89 193.116 131.212 217.995C132.534 242.875 153.775 261.972 178.654 260.65C180.137 260.571 181.6 260.421 183.039 260.205C195.436 258.336 209.378 259.103 220.965 263.891C228.525 267.015 236.882 268.544 245.594 268.082C276.861 266.42 300.862 239.726 299.2 208.459C297.539 177.191 270.845 153.191 239.577 154.852C230.495 155.335 222.026 157.93 214.62 162.135Z" fill="#B89780"/>
<path fill-rule="evenodd" clip-rule="evenodd" d="M208.01 152.718C197.11 158.909 183.371 161.403 170.839 161.086C169.655 161.057 168.46 161.073 167.257 161.137C142.377 162.459 123.28 183.699 124.602 208.578C125.924 233.458 147.165 252.555 172.044 251.233C173.527 251.154 174.99 251.004 176.429 250.788C188.826 248.919 202.768 249.686 214.355 254.474C221.915 257.598 230.272 259.127 238.984 258.665C270.251 257.003 294.252 230.309 292.59 199.042C290.929 167.774 264.235 143.774 232.967 145.435C223.885 145.918 215.416 148.513 208.01 152.718Z" fill="#DEB394"/>
<circle cx="229.244" cy="201.797" r="23.1655" transform="rotate(-93.0416 229.244 201.797)" fill="#4F4E58"/>
<path d="M60.9144 227.835L65.2669 217.836L60.4234 207.105L64.9376 200.15L59.103 193.744L179.637 187.34L181.449 221.43L60.9144 227.835Z" fill="#D9D9D9"/>
<rect x="261.997" y="220.813" width="41.454" height="4.87694" transform="rotate(-93.0416 261.997 220.813)" fill="#B89780"/>
<rect x="39.0888" y="266.462" width="25.6039" height="6.09617" transform="rotate(-15.9553 39.0888 266.462)" fill="#C5C5C5"/>
<rect x="34.2148" y="250.612" width="25.6039" height="6.09617" transform="rotate(-15.9553 34.2148 250.612)" fill="#C5C5C5"/>
<rect x="73.4049" y="223.133" width="25.6039" height="6.09617" transform="rotate(-92.9326 73.4049 223.133)" fill="#C5C5C5"/>
<rect x="88.027" y="222.384" width="25.6039" height="6.09617" transform="rotate(-92.9326 88.027 222.384)" fill="#C5C5C5"/>
<rect x="102.645" y="221.635" width="25.6039" height="6.09617" transform="rotate(-92.9326 102.645 221.635)" fill="#C5C5C5"/>
<rect x="117.257" y="220.887" width="25.6039" height="6.09617" transform="rotate(-92.9326 117.257 220.887)" fill="#C5C5C5"/>
<rect x="131.875" y="220.138" width="25.6039" height="6.09617" transform="rotate(-92.9326 131.875 220.138)" fill="#C5C5C5"/>
<rect x="146.494" y="219.389" width="25.6039" height="6.09617" transform="rotate(-92.9326 146.494 219.389)" fill="#C5C5C5"/>
<rect x="161.109" y="218.64" width="25.6039" height="6.09617" transform="rotate(-92.9326 161.109 218.64)" fill="#C5C5C5"/>
<path d="M263.428 208.216C245.139 248.045 196.979 325.385 150.648 316.119C92.7348 304.536 90.2963 308.194 89.6867 307.584M89.6867 307.584C89.2862 307.183 88.5842 305.385 88.1209 304.08C87.9718 303.659 88.2008 303.202 88.6239 303.061V303.061C89.1468 302.887 89.6867 303.276 89.6867 303.827V307.584Z" stroke="#626262" stroke-width="0.731541" stroke-linecap="round" stroke-linejoin="round"/>
<path d="M262.821 197.243C260.111 224.608 255.147 281.606 256.968 290.683C259.244 302.029 259.569 311.373 255.341 324.054C251.114 336.735 251.764 349.416 252.09 352.086" stroke="#626262" stroke-width="0.731541" stroke-linecap="round" stroke-linejoin="round"/>
<path d="M261.6 186.27C263.351 224.005 266.441 300.576 264.784 304.982C262.714 310.489 261.122 343.533 262.077 348.428" stroke="#626262" stroke-width="0.731541" stroke-linecap="round" stroke-linejoin="round"/>
<path d="M264.041 217.97C258.554 247.232 228.181 301.057 175.037 305.145C136.243 308.13 96.0859 289.3 84.3118 285.267C83.8459 285.107 83.4883 284.763 83.3054 284.306L82.6024 282.549C82.4948 282.28 82.1469 282.208 81.9419 282.413V282.413C81.8337 282.521 81.7959 282.681 81.8443 282.826L82.712 285.429C82.8912 285.967 83.1933 286.456 83.5942 286.857V286.857" stroke="#626262" stroke-width="0.731541" stroke-linecap="round" stroke-linejoin="round"/>
<path d="M317.741 264.581L316.825 264.53C279.703 262.443 245.317 244.342 222.583 214.922V214.922" stroke="#53B0A8" stroke-width="25.1059" stroke-linecap="round"/>
<rect x="410.326" y="0.946289" width="6.09617" height="23.1655" transform="rotate(7.47703 410.326 0.946289)" fill="#FFDA5B"/>
<rect x="465.159" y="21.2542" width="6.09617" height="23.1655" transform="rotate(37.0505 465.159 21.2542)" fill="#FFDA5B"/>
<rect x="502.471" y="60.6887" width="6.09617" height="23.1655" transform="rotate(63.831 502.471 60.6887)" fill="#FFDA5B"/>
<path d="M647.497 284.445H633.747L610.75 250.118V284.445H597V228.793H610.75L633.747 263.278V228.793H647.497V284.445Z" fill="#D2D2D2"/>
<path d="M684.159 285C678.852 285 673.974 283.784 669.525 281.353C665.129 278.922 661.618 275.54 658.991 271.206C656.418 266.819 655.132 261.904 655.132 256.46C655.132 251.017 656.418 246.128 658.991 241.794C661.618 237.46 665.129 234.078 669.525 231.647C673.974 229.216 678.852 228 684.159 228C689.466 228 694.318 229.216 698.713 231.647C703.163 234.078 706.647 237.46 709.166 241.794C711.74 246.128 713.026 251.017 713.026 256.46C713.026 261.904 711.74 266.819 709.166 271.206C706.593 275.54 703.109 278.922 698.713 281.353C694.318 283.784 689.466 285 684.159 285ZM684.159 272.633C688.662 272.633 692.254 271.153 694.934 268.193C697.668 265.234 699.035 261.323 699.035 256.46C699.035 251.545 697.668 247.634 694.934 244.727C692.254 241.768 688.662 240.288 684.159 240.288C679.603 240.288 675.958 241.741 673.224 244.648C670.543 247.555 669.203 251.492 669.203 256.46C669.203 261.376 670.543 265.313 673.224 268.273C675.958 271.179 679.603 272.633 684.159 272.633Z" fill="#D2D2D2"/>
<path d="M758.863 228.793C764.813 228.793 770.013 229.955 774.462 232.281C778.911 234.606 782.342 237.883 784.754 242.111C787.22 246.287 788.453 251.122 788.453 256.619C788.453 262.063 787.22 266.898 784.754 271.127C782.342 275.355 778.885 278.631 774.382 280.957C769.932 283.282 764.759 284.445 758.863 284.445H737.715V228.793H758.863ZM757.978 272.712C763.178 272.712 767.225 271.312 770.12 268.51C773.015 265.709 774.462 261.745 774.462 256.619C774.462 251.492 773.015 247.502 770.12 244.648C767.225 241.794 763.178 240.367 757.978 240.367H751.465V272.712H757.978Z" fill="#D2D2D2"/>
<path d="M831.276 274.615H810.209L806.832 284.445H792.439L812.862 228.793H828.783L849.207 284.445H834.653L831.276 274.615ZM827.738 264.15L820.742 243.776L813.827 264.15H827.738Z" fill="#D2D2D2"/>
<path d="M896.03 228.793V239.654H881.073V284.445H867.324V239.654H852.368V228.793H896.03Z" fill="#D2D2D2"/>
<path d="M938.069 274.615H917.002L913.625 284.445H899.231L919.655 228.793H935.576L956 284.445H941.446L938.069 274.615ZM934.531 264.15L927.535 243.776L920.62 264.15H934.531Z" fill="#D2D2D2"/>
<defs>
<clipPath id="clip0_343_227">
<rect x="423.643" y="128.931" width="40.4232" height="40.4232" rx="20.2116" fill="white"/>
</clipPath>
<clipPath id="clip1_343_227">
<rect x="349.992" y="128.931" width="40.4232" height="40.4232" rx="20.2116" fill="white"/>
</clipPath>
</defs>
</svg>
