        <svg xmlns="http://www.w3.org/2000/svg" width="24" height="25" viewBox="0 0 24 25" fill="none">
            <path d="M21 6.56348C17.67 6.23348 14.32 6.06348 10.98 6.06348C9 6.06348 7.02 6.16348 5.04 6.36348L3 6.56348" stroke="#E76471" stroke-width="1.5" stroke-linecap="round" stroke-linejoin="round" />
            <path d="M8.5 5.5535L8.72 4.2435C8.88 3.2935 9 2.5835 10.69 2.5835H13.31C15 2.5835 15.13 3.3335 15.28 4.2535L15.5 5.5535" stroke="#E76471" stroke-width="1.5" stroke-linecap="round" stroke-linejoin="round" />
            <path d="M18.8504 9.72363L18.2004 19.7936C18.0904 21.3636 18.0004 22.5836 15.2104 22.5836H8.79039C6.00039 22.5836 5.91039 21.3636 5.80039 19.7936L5.15039 9.72363" stroke="#E76471" stroke-width="1.5" stroke-linecap="round" stroke-linejoin="round" />
            <path d="M10.3301 17.0835H13.6601" stroke="#E76471" stroke-width="1.5" stroke-linecap="round" stroke-linejoin="round" />
            <path d="M9.5 13.0835H14.5" stroke="#E76471" stroke-width="1.5" stroke-linecap="round" stroke-linejoin="round" />
        </svg>