<svg width="425" height="425" viewBox="0 0 425 425" fill="none" xmlns="http://www.w3.org/2000/svg">
<g filter="url(#filter0_d_312_5172)">
<rect x="56.623" y="53" width="312" height="311" rx="17" fill="white"/>
<g clip-path="url(#clip0_312_5172)">
<rect x="65" y="61" width="295" height="189" rx="10" fill="#C8C8C8"/>
<path d="M71.4105 -4.15644L40.5909 11.3433C53.6719 36.0519 84.2425 45.8397 109.418 33.1783L170.535 2.44186C185.095 -4.88091 196.682 0.989668 199.697 6.98466C202.712 12.9796 200.516 25.782 185.955 33.1048L130.911 60.7875C104.767 73.9362 87.7819 105.203 101.811 133.098C115.84 160.994 151.068 166.002 177.213 152.853L232.257 125.17C246.818 117.848 258.405 123.718 261.42 129.713C264.435 135.708 262.239 148.511 247.678 155.833L192.634 183.516C166.489 196.665 149.504 227.931 163.534 255.827C177.563 283.723 212.791 288.73 238.935 275.582L293.98 247.899C308.54 240.576 320.127 246.447 323.142 252.442C326.157 258.437 323.961 271.239 309.401 278.562L254.356 306.245C228.212 319.393 211.227 350.66 225.256 378.556C225.46 378.961 225.668 379.361 225.88 379.756L256.751 364.231C256.484 363.846 256.251 363.456 256.055 363.066C253.04 357.071 255.236 344.269 269.797 336.946L324.841 309.263C350.985 296.115 367.97 264.848 353.941 236.952C339.912 209.057 304.684 204.049 278.539 217.198L223.495 244.88C208.935 252.203 197.347 246.333 194.332 240.338C191.317 234.343 193.514 221.54 208.074 214.217L263.118 186.535C289.263 173.386 306.248 142.119 292.219 114.224C278.189 86.3283 242.961 81.3205 216.817 94.4691L161.773 122.152C147.212 129.475 135.625 123.604 132.61 117.609C129.595 111.614 131.791 98.8116 146.352 91.4889L201.396 63.8061C227.54 50.6575 244.525 19.3909 230.496 -8.5047C216.467 -36.4003 181.239 -41.4081 155.094 -28.2595L93.9782 2.47694C85.8137 6.58302 75.9458 3.60031 71.4105 -4.15644Z" fill="white" fill-opacity="0.22"/>
<path d="M295.559 112.406L296.639 113.242L297.999 113.125L312.023 111.924L316.764 125.246L317.22 126.526L318.421 127.164L330.879 133.775L327.694 147.57L327.389 148.89L328.052 150.071L334.978 162.407L324.875 172.28L323.905 173.228L323.827 174.583L323.014 188.714L309.214 191.531L307.879 191.804L307.08 192.907L298.798 204.341L285.682 199.222L284.41 198.725L283.137 199.222L270.021 204.341L261.74 192.907L260.94 191.804L259.605 191.531L245.805 188.714L244.992 174.583L244.914 173.228L243.944 172.28L233.841 162.407L240.767 150.071L241.43 148.89L241.126 147.57L237.94 133.775L250.398 127.164L251.599 126.526L252.055 125.246L256.796 111.924L270.82 113.125L272.181 113.242L273.261 112.406L284.41 103.782L295.559 112.406Z" fill="#CFCFCF" stroke="#939393" stroke-width="7"/>
<path d="M155.602 112.406L156.682 113.242L158.042 113.125L172.066 111.924L176.807 125.246L177.263 126.526L178.464 127.164L190.922 133.775L187.737 147.57L187.432 148.89L188.095 150.071L195.021 162.407L184.918 172.28L183.948 173.228L183.87 174.583L183.057 188.714L169.257 191.531L167.922 191.804L167.123 192.907L158.841 204.341L145.725 199.222L144.453 198.725L143.18 199.222L130.064 204.341L121.783 192.907L120.983 191.804L119.648 191.531L105.848 188.714L105.035 174.583L104.957 173.228L103.987 172.28L93.884 162.407L100.81 150.071L101.473 148.89L101.168 147.57L97.9835 133.775L110.441 127.164L111.642 126.526L112.098 125.246L116.839 111.924L130.863 113.125L132.224 113.242L133.303 112.406L144.453 103.782L155.602 112.406Z" fill="#E6E6E6" stroke="#8C8C8C" stroke-width="7"/>
<path d="M156.617 171.732H132.606V165.977L139.849 160.222C145.901 155.41 149.225 153.029 149.424 150.152C149.573 147.225 147.836 145.439 144.413 145.488C141.685 145.538 139.601 147.522 139.502 150.797H131.763C131.366 142.909 136.773 138.89 143.867 138.494C151.557 138.097 157.262 142.611 157.163 148.812C157.014 154.567 153.839 156.998 147.241 162.505L144.661 164.737H156.617V171.732Z" fill="#8C8C8C"/>
<path d="M284.061 171.96C278.21 171.96 272.111 169.233 272.111 160.406H278.805C278.805 164.522 280.987 165.365 284.061 165.365C287.284 165.365 289.07 164.026 289.07 161.596C289.07 158.82 286.888 157.877 282.97 157.877H277.367V152.373H282.871C286.937 152.373 288.97 151.629 288.97 148.605C288.97 145.927 287.235 144.836 283.962 144.836C280.541 144.836 278.855 146.324 278.706 149.745H272.012C272.061 141.415 278.458 138.241 284.309 138.241C291.599 138.241 296.706 141.415 296.706 148.357C296.706 151.729 295.02 154.307 292.838 154.952C294.921 155.795 296.805 158.175 296.805 161.795C296.805 168.687 290.557 171.96 284.061 171.96Z" fill="#939393"/>
<path d="M229.415 95.2286L230.492 96.0568L231.845 95.9416L252.328 94.1972L259.247 113.524L259.705 114.805L260.909 115.439L279.08 125.028L274.438 145.017L274.129 146.344L274.799 147.53L284.893 165.403L270.165 179.713L269.188 180.662L269.109 182.021L267.924 202.509L247.781 206.597L246.449 206.867L245.648 207.966L233.555 224.565L214.393 217.129L213.127 216.637L211.861 217.129L192.699 224.565L180.606 207.966L179.806 206.867L178.473 206.597L158.33 202.509L157.145 182.021L157.066 180.662L156.089 179.713L141.361 165.403L151.455 147.53L152.125 146.344L151.817 145.017L147.174 125.028L165.345 115.439L166.549 114.805L167.007 113.524L173.926 94.1972L194.409 95.9416L195.763 96.0568L196.84 95.2286L213.127 82.7028L229.415 95.2286Z" fill="#D9D9D9" stroke="#868686" stroke-width="7"/>
<path d="M223.991 187.515H208.857V140.656H202.26V127.656C205.364 127.656 208.663 126.007 208.76 123.485H223.797L223.991 187.515Z" fill="#878787"/>
</g>
<path d="M77.1998 279.235H74.9598L74.9758 270.627L71.7918 270.611V268.675H80.3998V270.611L77.2158 270.627L77.1998 279.235ZM84.2678 279.235H81.9318V268.675H84.1878V273.043C84.6038 271.699 85.9798 270.979 87.3238 270.963C89.5158 270.947 91.1958 272.531 91.1958 275.219V279.235H88.9558V275.203C88.9558 273.667 87.9158 272.787 86.6198 272.803C85.3398 272.819 84.2678 273.699 84.2678 275.203V279.235ZM93.944 270.371C93.32 270.371 92.728 270.019 92.728 269.459C92.728 268.915 93.32 268.563 93.944 268.563C94.552 268.563 95.144 268.915 95.144 269.459C95.144 270.019 94.552 270.371 93.944 270.371ZM95.048 279.235H92.808V271.123H95.048V279.235ZM100.233 279.395C98.3125 279.347 96.6965 278.259 96.6805 276.435H98.7285C98.8085 277.331 99.4645 277.731 100.265 277.763C100.921 277.779 101.513 277.459 101.529 276.899C101.545 276.307 101.145 276.035 100.169 275.875C98.1045 275.619 96.7285 275.139 96.6965 273.475C96.6645 271.955 98.0565 270.963 100.009 270.963C102.025 270.963 103.577 271.955 103.641 273.891H101.593C101.545 273.139 100.953 272.627 100.089 272.611C99.3525 272.595 98.8725 272.995 98.8725 273.555C98.8885 274.099 99.2885 274.419 100.345 274.611C102.633 275.011 103.689 275.363 103.673 277.043C103.673 278.627 102.201 279.443 100.233 279.395ZM111.083 270.371C110.459 270.371 109.867 270.019 109.867 269.459C109.867 268.915 110.459 268.563 111.083 268.563C111.691 268.563 112.283 268.915 112.283 269.459C112.283 270.019 111.691 270.371 111.083 270.371ZM112.187 279.235H109.947V271.123H112.187V279.235ZM117.371 279.395C115.451 279.347 113.835 278.259 113.819 276.435H115.867C115.947 277.331 116.603 277.731 117.403 277.763C118.059 277.779 118.651 277.459 118.667 276.899C118.683 276.307 118.283 276.035 117.307 275.875C115.243 275.619 113.867 275.139 113.835 273.475C113.803 271.955 115.195 270.963 117.147 270.963C119.163 270.963 120.715 271.955 120.779 273.891H118.731C118.683 273.139 118.091 272.627 117.227 272.611C116.491 272.595 116.011 272.995 116.011 273.555C116.027 274.099 116.427 274.419 117.483 274.611C119.771 275.011 120.827 275.363 120.811 277.043C120.811 278.627 119.339 279.443 117.371 279.395ZM128.221 270.371C127.597 270.371 127.005 270.019 127.005 269.459C127.005 268.915 127.597 268.563 128.221 268.563C128.829 268.563 129.421 268.915 129.421 269.459C129.421 270.019 128.829 270.371 128.221 270.371ZM129.325 279.235H127.085V271.123H129.325V279.235ZM133.294 279.235H130.958V271.123H133.214V273.043C133.63 271.699 135.006 270.979 136.35 270.963C138.542 270.947 140.222 272.531 140.222 275.219V279.235H137.982V275.203C137.982 273.667 136.942 272.787 135.646 272.803C134.366 272.819 133.294 273.699 133.294 275.203V279.235ZM145.338 279.235H143.098V274.403H141.754V272.563H143.098V271.811C143.098 268.867 146.042 267.987 148.202 268.851L147.85 270.787C146.586 270.275 145.338 270.547 145.338 271.875V272.563H147.514V274.403H145.354L145.338 279.235ZM153.407 279.395C150.959 279.395 148.879 277.715 148.863 275.219C148.847 272.611 150.863 270.963 153.407 270.963C155.999 270.963 157.999 272.611 157.983 275.219C157.967 277.683 156.063 279.395 153.407 279.395ZM153.391 277.555C154.703 277.555 155.727 276.579 155.727 275.203C155.727 273.827 154.735 272.803 153.407 272.803C152.111 272.803 151.103 273.779 151.103 275.203C151.103 276.531 152.111 277.555 153.391 277.555ZM161.871 279.235H159.519V271.123H161.775V273.187C162.223 271.443 164.335 270.643 165.999 271.411L164.815 273.251C163.743 272.579 161.871 273.475 161.871 275.203V279.235ZM169.87 279.235H167.534V271.123H169.774V273.043C170.062 271.763 171.342 270.979 172.542 270.963C173.998 270.947 175.086 271.699 175.582 273.075C176.094 271.747 177.39 270.947 178.702 270.963C180.766 270.995 182.238 272.435 182.238 275.011V279.235H179.982V275.011C179.982 273.667 179.23 272.787 177.998 272.803C176.766 272.819 176.062 273.683 176.062 275.027V279.235H173.822V275.011C173.822 273.651 173.054 272.771 171.838 272.803C170.67 272.835 169.886 273.795 169.886 274.995L169.87 279.235ZM187.767 279.395C185.463 279.411 183.767 277.555 183.767 275.219C183.767 272.531 185.447 270.947 187.655 270.963C188.999 270.979 190.375 271.699 190.791 273.043V271.123H193.031V279.235H190.791V277.283C190.407 278.547 189.095 279.379 187.767 279.395ZM188.359 277.523C189.607 277.507 190.695 276.579 190.695 275.203C190.695 273.715 189.623 272.819 188.359 272.803C187.063 272.787 186.007 273.667 186.007 275.203C186.007 276.595 187.079 277.555 188.359 277.523ZM200.452 277.107L200.804 279.027C198.66 279.907 195.796 279.011 195.796 276.083V272.963H194.564V271.027C195.972 271.011 195.796 270.211 195.796 268.675H198.036L198.052 271.027H200.228V272.963H198.036V275.795C198.036 277.139 199.188 277.603 200.452 277.107ZM203.576 270.371C202.952 270.371 202.36 270.019 202.36 269.459C202.36 268.915 202.952 268.563 203.576 268.563C204.184 268.563 204.776 268.915 204.776 269.459C204.776 270.019 204.184 270.371 203.576 270.371ZM204.68 279.235H202.44V271.123H204.68V279.235ZM210.856 279.395C208.408 279.395 206.328 277.715 206.312 275.219C206.296 272.611 208.312 270.963 210.856 270.963C213.448 270.963 215.448 272.611 215.432 275.219C215.416 277.683 213.512 279.395 210.856 279.395ZM210.84 277.555C212.152 277.555 213.176 276.579 213.176 275.203C213.176 273.827 212.184 272.803 210.856 272.803C209.56 272.803 208.552 273.779 208.552 275.203C208.552 276.531 209.56 277.555 210.84 277.555ZM219.304 279.235H216.968V271.123H219.224V273.043C219.64 271.699 221.016 270.979 222.36 270.963C224.552 270.947 226.232 272.531 226.232 275.219V279.235H223.992V275.203C223.992 273.667 222.952 272.787 221.656 272.803C220.376 272.819 219.304 273.699 219.304 275.203V279.235ZM236.404 279.395C234.1 279.411 232.404 277.555 232.404 275.219C232.404 272.531 234.084 270.947 236.292 270.963C237.636 270.979 239.012 271.699 239.428 273.043V271.123H241.668V279.235H239.428V277.283C239.044 278.547 237.732 279.379 236.404 279.395ZM236.996 277.523C238.244 277.507 239.332 276.579 239.332 275.203C239.332 273.715 238.26 272.819 236.996 272.803C235.7 272.787 234.644 273.667 234.644 275.203C234.644 276.595 235.716 277.555 236.996 277.523ZM248.465 279.395C247.137 279.379 245.841 278.547 245.441 277.283V279.235H243.201V268.675H245.457V273.043C245.873 271.699 247.249 270.979 248.593 270.963C250.785 270.947 252.465 272.531 252.465 275.219C252.465 277.555 250.785 279.411 248.465 279.395ZM247.889 277.523C249.153 277.555 250.225 276.595 250.225 275.203C250.225 273.667 249.185 272.787 247.889 272.803C246.609 272.819 245.537 273.699 245.537 275.203C245.537 276.579 246.625 277.507 247.889 277.523ZM258.541 279.395C256.093 279.395 254.013 277.715 253.997 275.219C253.981 272.611 255.997 270.963 258.541 270.963C261.133 270.963 263.133 272.611 263.117 275.219C263.101 277.683 261.197 279.395 258.541 279.395ZM258.525 277.555C259.837 277.555 260.861 276.579 260.861 275.203C260.861 273.827 259.869 272.803 258.541 272.803C257.245 272.803 256.237 273.779 256.237 275.203C256.237 276.531 257.245 277.555 258.525 277.555ZM268.268 279.395C266.14 279.411 264.652 277.923 264.652 275.347V271.123H266.908V275.347C266.908 276.707 267.676 277.571 268.956 277.555C270.268 277.523 271.052 276.531 271.052 275.107V271.123H273.388V279.235H271.132V277.235C270.812 278.707 269.468 279.379 268.268 279.395ZM280.805 277.107L281.157 279.027C279.013 279.907 276.149 279.011 276.149 276.083V272.963H274.917V271.027C276.325 271.011 276.149 270.211 276.149 268.675H278.389L278.405 271.027H280.581V272.963H278.389V275.795C278.389 277.139 279.541 277.603 280.805 277.107ZM76.3358 295.395C73.8878 295.395 71.8078 293.715 71.7918 291.219C71.7758 288.611 73.7918 286.963 76.3358 286.963C78.9278 286.963 80.9278 288.611 80.9118 291.219C80.8958 293.683 78.9918 295.395 76.3358 295.395ZM76.3198 293.555C77.6318 293.555 78.6558 292.579 78.6558 291.203C78.6558 289.827 77.6638 288.803 76.3358 288.803C75.0398 288.803 74.0318 289.779 74.0318 291.203C74.0318 292.531 75.0398 293.555 76.3198 293.555ZM86.0634 295.395C83.9354 295.411 82.4474 293.923 82.4474 291.347V287.123H84.7034V291.347C84.7034 292.707 85.4714 293.571 86.7514 293.555C88.0634 293.523 88.8474 292.531 88.8474 291.107V287.123H91.1834V295.235H88.9274V293.235C88.6074 294.707 87.2634 295.379 86.0634 295.395ZM95.0644 295.235H92.7124V287.123H94.9684V289.187C95.4164 287.443 97.5284 286.643 99.1924 287.411L98.0084 289.251C96.9364 288.579 95.0644 289.475 95.0644 291.203V295.235ZM109.911 295.395C107.463 295.395 105.383 293.731 105.367 291.219C105.351 288.611 107.367 286.963 109.911 286.963C111.847 286.963 113.479 287.923 114.119 289.411L112.039 290.179C111.671 289.347 110.855 288.803 109.911 288.803C108.615 288.803 107.607 289.811 107.607 291.203C107.607 292.547 108.615 293.555 109.895 293.555C110.887 293.555 111.687 292.979 112.055 292.163L114.135 292.931C113.463 294.419 111.895 295.395 109.911 295.395ZM120.208 295.395C117.76 295.395 115.68 293.715 115.664 291.219C115.648 288.611 117.664 286.963 120.208 286.963C122.8 286.963 124.8 288.611 124.784 291.219C124.768 293.683 122.864 295.395 120.208 295.395ZM120.192 293.555C121.504 293.555 122.528 292.579 122.528 291.203C122.528 289.827 121.536 288.803 120.208 288.803C118.912 288.803 117.904 289.779 117.904 291.203C117.904 292.531 118.912 293.555 120.192 293.555ZM129.935 295.395C127.807 295.411 126.319 293.923 126.319 291.347V287.123H128.575V291.347C128.575 292.707 129.343 293.571 130.623 293.555C131.935 293.523 132.719 292.531 132.719 291.107V287.123H135.055V295.235H132.799V293.235C132.479 294.707 131.135 295.379 129.935 295.395ZM138.936 295.235H136.584V287.123H138.84V289.187C139.288 287.443 141.4 286.643 143.064 287.411L141.88 289.251C140.808 288.579 138.936 289.475 138.936 291.203V295.235ZM147.526 295.395C145.606 295.347 143.99 294.259 143.974 292.435H146.022C146.102 293.331 146.758 293.731 147.558 293.763C148.214 293.779 148.806 293.459 148.822 292.899C148.838 292.307 148.438 292.035 147.462 291.875C145.398 291.619 144.022 291.139 143.99 289.475C143.958 287.955 145.35 286.963 147.302 286.963C149.318 286.963 150.87 287.955 150.934 289.891H148.886C148.838 289.139 148.246 288.627 147.382 288.611C146.646 288.595 146.166 288.995 146.166 289.555C146.182 290.099 146.582 290.419 147.638 290.611C149.926 291.011 150.982 291.363 150.966 293.043C150.966 294.627 149.494 295.443 147.526 295.395ZM156.889 295.395C154.617 295.395 152.521 293.763 152.521 291.203C152.521 288.403 154.617 286.963 156.889 286.963C159.129 286.963 160.905 288.387 161.145 290.819C161.177 291.075 161.177 291.395 161.145 291.667H154.649C154.809 292.819 155.833 293.555 156.889 293.555C157.737 293.571 158.537 293.203 158.937 292.515L160.617 293.363C159.881 294.627 158.489 295.395 156.889 295.395ZM154.809 290.435L159.033 290.419C158.825 289.395 157.865 288.755 156.889 288.771C155.945 288.771 155.017 289.395 154.809 290.435ZM166.244 295.395C164.324 295.347 162.708 294.259 162.692 292.435H164.74C164.82 293.331 165.476 293.731 166.276 293.763C166.932 293.779 167.524 293.459 167.54 292.899C167.556 292.307 167.156 292.035 166.18 291.875C164.116 291.619 162.74 291.139 162.708 289.475C162.676 287.955 164.068 286.963 166.02 286.963C168.036 286.963 169.588 287.955 169.652 289.891H167.604C167.556 289.139 166.964 288.627 166.1 288.611C165.364 288.595 164.884 288.995 164.884 289.555C164.9 290.099 165.3 290.419 166.356 290.611C168.644 291.011 169.7 291.363 169.684 293.043C169.684 294.627 168.212 295.443 166.244 295.395Z" fill="#36373A"/>
<path d="M74.3554 321.34H73.3474V312.1H74.4954L77.7854 319.604L81.1594 312.1H82.2934V321.34H81.2994V313.906L78.1074 321.34H77.4494L74.3554 313.906V321.34ZM87.5253 321.48C85.4253 321.48 83.7313 319.912 83.7173 317.826C83.7173 315.558 85.3833 314.102 87.5253 314.102C89.7093 314.102 91.3753 315.558 91.3753 317.826C91.3613 319.912 89.7233 321.48 87.5253 321.48ZM87.5113 320.626C89.0093 320.626 90.3813 319.52 90.3813 317.826C90.3813 316.076 89.0933 314.942 87.5253 314.942C86.0273 314.942 84.7113 316.006 84.7113 317.826C84.7113 319.436 86.0413 320.626 87.5113 320.626ZM93.838 321.34H92.802V314.242H93.796V316.314C94.202 314.956 95.756 314.088 97.142 314.34L96.68 315.18C95.42 314.998 93.838 316.062 93.838 317.84V321.34ZM100.948 321.48C98.9879 321.48 97.2519 319.94 97.2519 317.812C97.2519 315.46 98.9879 314.102 100.948 314.102C102.838 314.102 104.462 315.334 104.63 317.63V318.064L98.2039 318.078C98.3159 319.59 99.6739 320.626 100.948 320.64C101.9 320.64 102.894 320.178 103.398 319.268L104.168 319.674C103.538 320.822 102.306 321.48 100.948 321.48ZM98.2739 317.434H103.678C103.524 315.866 102.25 314.928 100.948 314.928C99.6599 314.928 98.3999 315.866 98.2739 317.434ZM113.469 321.48C111.411 321.494 109.843 319.884 109.843 317.826C109.843 315.502 111.397 314.088 113.427 314.102C114.813 314.102 116.059 314.886 116.549 316.048V312.1H117.557V321.34H116.563V319.492C116.087 320.654 114.827 321.48 113.469 321.48ZM113.665 320.626C115.149 320.612 116.521 319.464 116.521 317.826C116.521 315.992 115.135 314.956 113.665 314.942C112.181 314.942 110.837 315.908 110.837 317.826C110.837 319.478 112.195 320.626 113.665 320.626ZM122.679 321.48C120.719 321.48 118.983 319.94 118.983 317.812C118.983 315.46 120.719 314.102 122.679 314.102C124.569 314.102 126.193 315.334 126.361 317.63V318.064L119.935 318.078C120.047 319.59 121.405 320.626 122.679 320.64C123.631 320.64 124.625 320.178 125.129 319.268L125.899 319.674C125.269 320.822 124.037 321.48 122.679 321.48ZM120.005 317.434H125.409C125.255 315.866 123.981 314.928 122.679 314.928C121.391 314.928 120.131 315.866 120.005 317.434ZM131.709 320.262L131.933 321.116C130.351 321.83 128.027 321.144 128.027 318.778V315.082H126.809V314.2C128.209 314.2 128.027 313.36 128.027 312.1H129.021L129.035 314.2H131.387V315.082H129.021V318.694C129.021 320.248 130.505 320.822 131.709 320.262ZM136.184 321.48C134.126 321.494 132.558 319.884 132.558 317.826C132.558 315.502 134.112 314.088 136.142 314.102C137.528 314.102 138.774 314.886 139.264 316.048V314.242H140.272V321.34H139.278V319.492C138.802 320.654 137.542 321.48 136.184 321.48ZM136.38 320.626C137.864 320.612 139.236 319.464 139.236 317.826C139.236 316.02 137.85 314.956 136.38 314.942C134.896 314.942 133.552 315.908 133.552 317.826C133.552 319.478 134.91 320.626 136.38 320.626ZM142.342 313.122C142.006 313.122 141.698 312.898 141.698 312.59C141.698 312.268 142.006 312.058 142.342 312.058C142.678 312.058 142.972 312.268 142.972 312.59C142.972 312.898 142.678 313.122 142.342 313.122ZM142.832 321.34H141.838V314.242H142.832V321.34ZM145.405 321.34H144.397V312.1H145.405V321.34ZM150.534 321.48C148.574 321.48 146.838 319.94 146.838 317.812C146.838 315.46 148.574 314.102 150.534 314.102C152.424 314.102 154.048 315.334 154.216 317.63V318.064L147.79 318.078C147.902 319.59 149.26 320.626 150.534 320.64C151.486 320.64 152.48 320.178 152.984 319.268L153.754 319.674C153.124 320.822 151.892 321.48 150.534 321.48ZM147.86 317.434H153.264C153.11 315.866 151.836 314.928 150.534 314.928C149.246 314.928 147.986 315.866 147.86 317.434ZM159.275 321.48C157.217 321.494 155.649 319.884 155.649 317.826C155.649 315.502 157.203 314.088 159.233 314.102C160.619 314.102 161.865 314.886 162.355 316.048V312.1H163.363V321.34H162.369V319.492C161.893 320.654 160.633 321.48 159.275 321.48ZM159.471 320.626C160.955 320.612 162.327 319.464 162.327 317.826C162.327 315.992 160.941 314.956 159.471 314.942C157.987 314.942 156.643 315.908 156.643 317.826C156.643 319.478 158.001 320.626 159.471 320.626ZM169.212 313.122C168.876 313.122 168.568 312.898 168.568 312.59C168.568 312.268 168.876 312.058 169.212 312.058C169.548 312.058 169.842 312.268 169.842 312.59C169.842 312.898 169.548 313.122 169.212 313.122ZM169.702 321.34H168.708V314.242H169.702V321.34ZM172.304 321.34H171.268V314.242H172.276V316.048C172.766 314.886 174.012 314.102 175.398 314.102C177.428 314.088 178.982 315.502 178.982 317.826V321.34H177.974L177.988 317.826C178.002 315.908 176.644 314.942 175.16 314.942C173.69 314.956 172.304 315.992 172.304 317.826V321.34ZM182.662 321.34H181.668V316.412H180.408V315.572H181.668V314.578C181.668 312.212 184.02 311.526 185.602 312.24L185.378 313.094C184.174 312.534 182.662 313.038 182.662 314.592V315.572H185.028V316.412H182.676L182.662 321.34ZM189.855 321.48C187.755 321.48 186.061 319.912 186.047 317.826C186.047 315.558 187.713 314.102 189.855 314.102C192.039 314.102 193.705 315.558 193.705 317.826C193.691 319.912 192.053 321.48 189.855 321.48ZM189.841 320.626C191.339 320.626 192.711 319.52 192.711 317.826C192.711 316.076 191.423 314.942 189.855 314.942C188.357 314.942 187.041 316.006 187.041 317.826C187.041 319.436 188.371 320.626 189.841 320.626ZM196.168 321.34H195.132V314.242H196.126V316.314C196.532 314.956 198.086 314.088 199.472 314.34L199.01 315.18C197.75 314.998 196.168 316.062 196.168 317.84V321.34ZM201.93 321.34H200.908V314.242H201.902V316.048C202.154 314.998 203.232 314.116 204.366 314.102C205.696 314.088 206.718 314.816 207.068 316.118C207.418 314.9 208.482 314.088 209.714 314.102C211.52 314.116 212.682 315.334 212.682 317.462V321.34H211.674V317.476C211.674 315.908 210.848 314.942 209.462 314.942C208.174 314.956 207.32 315.964 207.32 317.49V321.34H206.34V317.476C206.34 315.894 205.486 314.914 204.128 314.942C202.84 314.97 201.958 316.174 201.958 317.448L201.93 321.34ZM217.734 321.48C215.676 321.494 214.108 319.884 214.108 317.826C214.108 315.502 215.662 314.088 217.692 314.102C219.078 314.102 220.324 314.886 220.814 316.048V314.242H221.822V321.34H220.828V319.492C220.352 320.654 219.092 321.48 217.734 321.48ZM217.93 320.626C219.414 320.612 220.786 319.464 220.786 317.826C220.786 316.02 219.4 314.956 217.93 314.942C216.446 314.942 215.102 315.908 215.102 317.826C215.102 319.478 216.46 320.626 217.93 320.626ZM228.147 320.262L228.371 321.116C226.789 321.83 224.465 321.144 224.465 318.778V315.082H223.247V314.2C224.647 314.2 224.465 313.36 224.465 312.1H225.459L225.473 314.2H227.825V315.082H225.459V318.694C225.459 320.248 226.943 320.822 228.147 320.262ZM230.446 313.122C230.11 313.122 229.802 312.898 229.802 312.59C229.802 312.268 230.11 312.058 230.446 312.058C230.782 312.058 231.076 312.268 231.076 312.59C231.076 312.898 230.782 313.122 230.446 313.122ZM230.936 321.34H229.942V314.242H230.936V321.34ZM236.31 321.48C234.21 321.48 232.516 319.912 232.502 317.826C232.502 315.558 234.168 314.102 236.31 314.102C238.494 314.102 240.16 315.558 240.16 317.826C240.146 319.912 238.508 321.48 236.31 321.48ZM236.296 320.626C237.794 320.626 239.166 319.52 239.166 317.826C239.166 316.076 237.878 314.942 236.31 314.942C234.812 314.942 233.496 316.006 233.496 317.826C233.496 319.436 234.826 320.626 236.296 320.626ZM242.623 321.34H241.587V314.242H242.595V316.048C243.085 314.886 244.331 314.102 245.717 314.102C247.747 314.088 249.301 315.502 249.301 317.826V321.34H248.293L248.307 317.826C248.321 315.908 246.963 314.942 245.479 314.942C244.009 314.956 242.623 315.992 242.623 317.826V321.34ZM251.37 322.544L250.726 322.096C251.174 321.466 251.342 320.962 251.258 320.024H252.224C252.224 321.158 252.056 321.718 251.37 322.544ZM258.475 321.34H257.439V314.242H258.433V316.314C258.839 314.956 260.393 314.088 261.779 314.34L261.317 315.18C260.057 314.998 258.475 316.062 258.475 317.84V321.34ZM265.585 321.48C263.625 321.48 261.889 319.94 261.889 317.812C261.889 315.46 263.625 314.102 265.585 314.102C267.475 314.102 269.099 315.334 269.267 317.63V318.064L262.841 318.078C262.953 319.59 264.311 320.626 265.585 320.64C266.537 320.64 267.531 320.178 268.035 319.268L268.805 319.674C268.175 320.822 266.943 321.48 265.585 321.48ZM262.911 317.434H268.315C268.161 315.866 266.887 314.928 265.585 314.928C264.297 314.928 263.037 315.866 262.911 317.434ZM274.326 321.48C272.268 321.494 270.7 319.884 270.7 317.826C270.7 315.502 272.254 314.088 274.284 314.102C275.67 314.102 276.916 314.886 277.406 316.048V314.242H278.414V321.34H277.42V319.492C276.944 320.654 275.684 321.48 274.326 321.48ZM274.522 320.626C276.006 320.612 277.378 319.464 277.378 317.826C277.378 316.02 275.992 314.956 274.522 314.942C273.038 314.942 271.694 315.908 271.694 317.826C271.694 319.478 273.052 320.626 274.522 320.626ZM283.465 321.48C281.407 321.494 279.839 319.884 279.839 317.826C279.839 315.502 281.393 314.088 283.423 314.102C284.809 314.102 286.055 314.886 286.545 316.048V312.1H287.553V321.34H286.559V319.492C286.083 320.654 284.823 321.48 283.465 321.48ZM283.661 320.626C285.145 320.612 286.517 319.464 286.517 317.826C286.517 315.992 285.131 314.956 283.661 314.942C282.177 314.942 280.833 315.908 280.833 317.826C280.833 319.478 282.191 320.626 283.661 320.626ZM293.403 313.122C293.067 313.122 292.759 312.898 292.759 312.59C292.759 312.268 293.067 312.058 293.403 312.058C293.739 312.058 294.033 312.268 294.033 312.59C294.033 312.898 293.739 313.122 293.403 313.122ZM293.893 321.34H292.899V314.242H293.893V321.34ZM300.359 320.262L300.583 321.116C299.001 321.83 296.677 321.144 296.677 318.778V315.082H295.459V314.2C296.859 314.2 296.677 313.36 296.677 312.1H297.671L297.685 314.2H300.037V315.082H297.671V318.694C297.671 320.248 299.155 320.822 300.359 320.262ZM309.42 321.48C307.362 321.494 305.794 319.884 305.794 317.826C305.794 315.502 307.348 314.088 309.378 314.102C310.764 314.102 312.01 314.886 312.5 316.048V314.242H313.508V321.34H312.514V319.492C312.038 320.654 310.778 321.48 309.42 321.48ZM309.616 320.626C311.1 320.612 312.472 319.464 312.472 317.826C312.472 316.02 311.086 314.956 309.616 314.942C308.132 314.942 306.788 315.908 306.788 317.826C306.788 319.478 308.146 320.626 309.616 320.626ZM315.969 321.34H314.933V314.242H315.941V316.048C316.431 314.886 317.677 314.102 319.063 314.102C321.093 314.088 322.647 315.502 322.647 317.826V321.34H321.639L321.653 317.826C321.667 315.908 320.309 314.942 318.825 314.942C317.355 314.956 315.969 315.992 315.969 317.826V321.34ZM327.699 321.48C325.641 321.494 324.073 319.884 324.073 317.826C324.073 315.502 325.627 314.088 327.657 314.102C329.043 314.102 330.289 314.886 330.779 316.048V312.1H331.787V321.34H330.793V319.492C330.317 320.654 329.057 321.48 327.699 321.48ZM327.895 320.626C329.379 320.612 330.751 319.464 330.751 317.826C330.751 315.992 329.365 314.956 327.895 314.942C326.411 314.942 325.067 315.908 325.067 317.826C325.067 319.478 326.425 320.626 327.895 320.626ZM73.3474 340.18L73.9354 339.62C74.3274 340.152 75.4194 340.292 75.8814 339.354L76.3014 338.444L73.5434 332.242H74.5374L76.8054 337.618L79.3394 332.242H80.3334L76.6654 339.606C75.8674 341.216 74.2154 341.09 73.3474 340.18ZM84.4491 339.48C82.3491 339.48 80.6551 337.912 80.6411 335.826C80.6411 333.558 82.3071 332.102 84.4491 332.102C86.6331 332.102 88.2991 333.558 88.2991 335.826C88.2851 337.912 86.6471 339.48 84.4491 339.48ZM84.4351 338.626C85.9331 338.626 87.3051 337.52 87.3051 335.826C87.3051 334.076 86.0171 332.942 84.4491 332.942C82.9511 332.942 81.6351 334.006 81.6351 335.826C81.6351 337.436 82.9651 338.626 84.4351 338.626ZM92.8338 339.48C90.9298 339.494 89.7258 338.248 89.7258 336.12V332.242H90.7338V336.106C90.7338 337.688 91.5878 338.64 93.0578 338.626C94.5978 338.626 95.4658 337.366 95.4658 335.686V332.242H96.5018V339.34H95.5078V337.408C95.1578 338.78 93.9818 339.48 92.8338 339.48ZM104.935 339.34H104.011L101.715 332.242H102.723L104.585 338.038L106.601 332.242H107.525L109.555 338.038L111.571 332.242H112.565L110.143 339.34H109.205L107.063 333.544L104.935 339.34ZM114.643 331.122C114.307 331.122 113.999 330.898 113.999 330.59C113.999 330.268 114.307 330.058 114.643 330.058C114.979 330.058 115.273 330.268 115.273 330.59C115.273 330.898 114.979 331.122 114.643 331.122ZM115.133 339.34H114.139V332.242H115.133V339.34ZM117.707 339.34H116.699V330.1H117.707V339.34ZM120.147 339.34H119.139V330.1H120.147V339.34ZM128.468 339.48C126.564 339.494 125.36 338.248 125.36 336.12V332.242H126.368V336.106C126.368 337.688 127.222 338.64 128.692 338.626C130.232 338.626 131.1 337.366 131.1 335.686V332.242H132.136V339.34H131.142V337.408C130.792 338.78 129.616 339.48 128.468 339.48ZM134.605 339.34H133.569V332.242H134.577V334.048C135.067 332.886 136.313 332.102 137.699 332.102C139.729 332.088 141.283 333.502 141.283 335.826V339.34H140.275L140.289 335.826C140.303 333.908 138.945 332.942 137.461 332.942C135.991 332.956 134.605 333.992 134.605 335.826V339.34ZM146.335 339.48C144.277 339.494 142.709 337.884 142.709 335.826C142.709 333.502 144.263 332.088 146.293 332.102C147.679 332.102 148.925 332.886 149.415 334.048V330.1H150.423V339.34H149.429V337.492C148.953 338.654 147.693 339.48 146.335 339.48ZM146.531 338.626C148.015 338.612 149.387 337.464 149.387 335.826C149.387 333.992 148.001 332.956 146.531 332.942C145.047 332.942 143.703 333.908 143.703 335.826C143.703 337.478 145.061 338.626 146.531 338.626ZM155.544 339.48C153.584 339.48 151.848 337.94 151.848 335.812C151.848 333.46 153.584 332.102 155.544 332.102C157.434 332.102 159.058 333.334 159.226 335.63V336.064L152.8 336.078C152.912 337.59 154.27 338.626 155.544 338.64C156.496 338.64 157.49 338.178 157.994 337.268L158.764 337.674C158.134 338.822 156.902 339.48 155.544 339.48ZM152.87 335.434H158.274C158.12 333.866 156.846 332.928 155.544 332.928C154.256 332.928 152.996 333.866 152.87 335.434ZM161.695 339.34H160.659V332.242H161.653V334.314C162.059 332.956 163.613 332.088 164.999 332.34L164.537 333.18C163.277 332.998 161.695 334.062 161.695 335.84V339.34ZM168.937 339.48C167.243 339.438 166.067 338.542 166.039 337.044H166.977C167.061 338.276 167.929 338.654 168.937 338.71C169.791 338.752 170.659 338.276 170.687 337.506C170.715 336.666 170.155 336.372 168.839 336.162C167.159 335.896 166.095 335.49 166.067 334.16C166.039 332.914 167.117 332.102 168.699 332.102C170.421 332.102 171.527 332.914 171.653 334.454H170.729C170.631 333.502 169.903 332.886 168.727 332.872C167.733 332.858 167.033 333.432 167.033 334.188C167.047 334.958 167.607 335.28 168.923 335.504C170.827 335.84 171.667 336.232 171.653 337.548C171.625 338.794 170.505 339.522 168.937 339.48ZM177.59 338.262L177.814 339.116C176.232 339.83 173.908 339.144 173.908 336.778V333.082H172.69V332.2C174.09 332.2 173.908 331.36 173.908 330.1H174.902L174.916 332.2H177.268V333.082H174.902V336.694C174.902 338.248 176.386 338.822 177.59 338.262ZM182.065 339.48C180.007 339.494 178.439 337.884 178.439 335.826C178.439 333.502 179.993 332.088 182.023 332.102C183.409 332.102 184.655 332.886 185.145 334.048V332.242H186.153V339.34H185.159V337.492C184.683 338.654 183.423 339.48 182.065 339.48ZM182.261 338.626C183.745 338.612 185.117 337.464 185.117 335.826C185.117 334.02 183.731 332.956 182.261 332.942C180.777 332.942 179.433 333.908 179.433 335.826C179.433 337.478 180.791 338.626 182.261 338.626ZM188.614 339.34H187.578V332.242H188.586V334.048C189.076 332.886 190.322 332.102 191.708 332.102C193.738 332.088 195.292 333.502 195.292 335.826V339.34H194.284L194.298 335.826C194.312 333.908 192.954 332.942 191.47 332.942C190 332.956 188.614 333.992 188.614 335.826V339.34ZM200.344 339.48C198.286 339.494 196.718 337.884 196.718 335.826C196.718 333.502 198.272 332.088 200.302 332.102C201.688 332.102 202.934 332.886 203.424 334.048V330.1H204.432V339.34H203.438V337.492C202.962 338.654 201.702 339.48 200.344 339.48ZM200.54 338.626C202.024 338.612 203.396 337.464 203.396 335.826C203.396 333.992 202.01 332.956 200.54 332.942C199.056 332.942 197.712 333.908 197.712 335.826C197.712 337.478 199.07 338.626 200.54 338.626Z" fill="#68696E"/>
<rect x="77" y="71" width="54.7422" height="23.9823" rx="10.4271" fill="#FFE500"/>
<path d="M93.4274 86.3252C92.0609 86.2951 90.8249 85.4209 90.7345 83.9538H92.4427C92.5231 84.5868 93.0255 84.8783 93.4576 84.8883C93.9198 84.8983 94.3418 84.6974 94.3519 84.2553C94.3519 83.783 93.8595 83.6724 93.2667 83.6021C91.8097 83.4514 90.644 82.8485 90.644 81.4819C90.6541 80.2158 91.89 79.4923 93.2164 79.4923C94.583 79.4923 95.8893 80.3163 95.9496 81.7834H94.2313C94.1509 81.1503 93.749 80.9292 93.2164 80.9292C92.7743 80.9292 92.4427 81.1905 92.4427 81.5221C92.4327 81.8637 92.7442 82.0647 93.4676 82.1652C95.1558 82.3863 96.1907 82.9992 96.1405 84.4361C96.0903 85.7726 94.7438 86.3554 93.4274 86.3252ZM100.28 86.3252C98.3909 86.3252 96.7028 84.9988 96.7229 82.9188C96.7531 80.7584 98.4311 79.4923 100.28 79.4923C102.179 79.4923 103.777 80.8087 103.757 82.9188C103.737 84.9486 102.219 86.3252 100.28 86.3252ZM100.27 84.7074C101.235 84.7074 101.868 83.9839 101.878 82.9188C101.868 81.8235 101.235 81.1101 100.27 81.1101C99.3053 81.1101 98.612 81.8336 98.602 82.9188C98.612 83.9739 99.3053 84.7074 100.27 84.7074ZM107.9 86.3252C106.01 86.3252 104.322 84.9988 104.342 82.9188C104.373 80.7584 106.051 79.4923 107.9 79.4923C109.799 79.4923 111.396 80.8087 111.376 82.9188C111.356 84.9486 109.839 86.3252 107.9 86.3252ZM107.889 84.7074C108.854 84.7074 109.487 83.9839 109.497 82.9188C109.487 81.8235 108.854 81.1101 107.889 81.1101C106.925 81.1101 106.231 81.8336 106.221 82.9188C106.231 83.9739 106.925 84.7074 107.889 84.7074ZM113.841 86.2247H111.962V79.5928H113.56L115.82 83.0494V79.5928H117.7V86.2247H116.132L113.841 82.8987V86.2247Z" fill="#816039"/>
</g>
<defs>
<filter id="filter0_d_312_5172" x="0.523048" y="0.900002" width="424.2" height="423.2" filterUnits="userSpaceOnUse" color-interpolation-filters="sRGB">
<feFlood flood-opacity="0" result="BackgroundImageFix"/>
<feColorMatrix in="SourceAlpha" type="matrix" values="0 0 0 0 0 0 0 0 0 0 0 0 0 0 0 0 0 0 127 0" result="hardAlpha"/>
<feOffset dy="4"/>
<feGaussianBlur stdDeviation="28.05"/>
<feComposite in2="hardAlpha" operator="out"/>
<feColorMatrix type="matrix" values="0 0 0 0 0.551229 0 0 0 0 0.586279 0 0 0 0 0.710547 0 0 0 0.24 0"/>
<feBlend mode="normal" in2="BackgroundImageFix" result="effect1_dropShadow_312_5172"/>
<feBlend mode="normal" in="SourceGraphic" in2="effect1_dropShadow_312_5172" result="shape"/>
</filter>
<clipPath id="clip0_312_5172">
<rect x="65" y="61" width="295" height="189" rx="10" fill="white"/>
</clipPath>
</defs>
</svg>
