<svg width="84" height="84" viewBox="0 0 84 84" fill="none" xmlns="http://www.w3.org/2000/svg">
<g id="Group 294">
<path id="Figure 28" d="M38.0272 3.20906C40.0226 1.39062 43.0744 1.39062 45.0697 3.20906C46.5894 4.59401 48.7798 4.95952 50.6668 4.14305C53.1445 3.07102 56.0309 4.06194 57.3277 6.42973C58.3153 8.23308 60.2684 9.29001 62.3183 9.1305C65.0098 8.92105 67.4181 10.7955 67.8758 13.4561C68.2243 15.4824 69.7284 17.1162 71.719 17.6309C74.3327 18.3068 76.0019 20.8616 75.5709 23.5267C75.2426 25.5564 76.1347 27.59 77.8503 28.7232C80.1029 30.2111 80.8521 33.1695 79.5791 35.5502C78.6096 37.3633 78.793 39.5764 80.0477 41.2053C81.6952 43.344 81.4431 46.3854 79.4661 48.2237C77.9604 49.6238 77.4153 51.7766 78.0731 53.7246C78.9369 56.2823 77.711 59.0771 75.2442 60.1739C73.3655 61.0092 72.1509 62.8683 72.1405 64.9244C72.127 67.624 70.0601 69.8693 67.3708 70.1057C65.3226 70.2858 63.5702 71.6497 62.8928 73.591C62.0035 76.14 59.3195 77.5925 56.6992 76.9429C54.7035 76.4482 52.6031 77.1692 51.3321 78.7854C49.6633 80.9075 46.6531 81.4098 44.3857 79.9445C42.6588 78.8286 40.4381 78.8286 38.7112 79.9445C36.4438 81.4098 33.4336 80.9075 31.7648 78.7854C30.4938 77.1692 28.3934 76.4482 26.3978 76.9429C23.7774 77.5925 21.0935 76.14 20.2041 73.591C19.5267 71.6497 17.7743 70.2858 15.7261 70.1057C13.0368 69.8693 10.9699 67.624 10.9564 64.9244C10.9461 62.8683 9.73147 61.0092 7.85272 60.1739C5.38593 59.0771 4.16003 56.2823 5.02379 53.7246C5.68165 51.7766 5.1365 49.6238 3.63078 48.2237C1.65379 46.3854 1.40177 43.344 3.04922 41.2053C4.30395 39.5764 4.48733 37.3633 3.51782 35.5502C2.24485 33.1695 2.99402 30.2111 5.24664 28.7232C6.96227 27.59 7.85431 25.5564 7.52606 23.5267C7.09508 20.8616 8.76425 18.3068 11.3779 17.6309C13.3686 17.1162 14.8726 15.4824 15.2212 13.4561C15.6789 10.7955 18.0872 8.92105 20.7787 9.1305C22.8286 9.29001 24.7816 8.23308 25.7692 6.42973C27.066 4.06194 29.9525 3.07102 32.4301 4.14305C34.3172 4.95952 36.5076 4.59401 38.0272 3.20906Z" fill="#636F86"/>
<g id="Mask group">
<mask id="mask0_325_4482" style="mask-type:alpha" maskUnits="userSpaceOnUse" x="1" y="1" width="81" height="80">
<path id="Figure 29" d="M38.0272 3.20906C40.0226 1.39062 43.0744 1.39062 45.0697 3.20906C46.5894 4.59401 48.7798 4.95952 50.6668 4.14305C53.1445 3.07102 56.0309 4.06194 57.3277 6.42973C58.3153 8.23308 60.2684 9.29001 62.3183 9.1305C65.0098 8.92105 67.4181 10.7955 67.8758 13.4561C68.2243 15.4824 69.7284 17.1162 71.719 17.6309C74.3327 18.3068 76.0019 20.8616 75.5709 23.5267C75.2426 25.5564 76.1347 27.59 77.8503 28.7232C80.1029 30.2111 80.8521 33.1695 79.5791 35.5502C78.6096 37.3633 78.793 39.5764 80.0477 41.2053C81.6952 43.344 81.4431 46.3854 79.4661 48.2237C77.9604 49.6238 77.4153 51.7766 78.0731 53.7246C78.9369 56.2823 77.711 59.0771 75.2442 60.1739C73.3655 61.0092 72.1509 62.8683 72.1405 64.9244C72.127 67.624 70.0601 69.8693 67.3708 70.1057C65.3226 70.2858 63.5702 71.6497 62.8928 73.591C62.0035 76.14 59.3195 77.5925 56.6992 76.9429C54.7035 76.4482 52.6031 77.1692 51.3321 78.7854C49.6633 80.9075 46.6531 81.4098 44.3857 79.9445C42.6588 78.8286 40.4381 78.8286 38.7112 79.9445C36.4438 81.4098 33.4336 80.9075 31.7648 78.7854C30.4938 77.1692 28.3934 76.4482 26.3978 76.9429C23.7774 77.5925 21.0935 76.14 20.2041 73.591C19.5267 71.6497 17.7743 70.2858 15.7261 70.1057C13.0368 69.8693 10.9699 67.624 10.9564 64.9244C10.9461 62.8683 9.73147 61.0092 7.85272 60.1739C5.38593 59.0771 4.16003 56.2823 5.02379 53.7246C5.68165 51.7766 5.1365 49.6238 3.63078 48.2237C1.65379 46.3854 1.40177 43.344 3.04922 41.2053C4.30395 39.5764 4.48733 37.3633 3.51782 35.5502C2.24485 33.1695 2.99402 30.2111 5.24664 28.7232C6.96227 27.59 7.85431 25.5564 7.52606 23.5267C7.09508 20.8616 8.76425 18.3068 11.3779 17.6309C13.3686 17.1162 14.8726 15.4824 15.2212 13.4561C15.6789 10.7955 18.0872 8.92105 20.7787 9.1305C22.8286 9.29001 24.7816 8.23308 25.7692 6.42973C27.066 4.06194 29.9525 3.07102 32.4301 4.14305C34.3172 4.95952 36.5076 4.59401 38.0272 3.20906Z" fill="#595959"/>
</mask>
<g mask="url(#mask0_325_4482)">
<g id="Group 282">
<path id="Union" fill-rule="evenodd" clip-rule="evenodd" d="M29.3571 36.4183C29.4556 32.8496 32.4284 30.0365 35.9971 30.135L36.9518 30.1613C40.451 30.2579 43.2376 33.1224 43.2376 36.623V48.7904C43.2376 50.3335 42.6977 51.7478 41.7982 52.8575C40.6245 54.3053 39.0214 55.4045 37.4254 56.3671C35.8994 57.2874 34.3511 58.2485 33.2159 59.6221C25.5442 68.9046 15.0752 74.7714 5.16142 78.3978C-3.29277 81.4902 -11.7633 83.1124 -18.6594 83.7838C-22.7083 84.178 -26.0117 80.8686 -26.0117 76.8006C-26.0117 72.7326 -22.7065 69.4387 -18.6656 68.9701C-13.1804 68.334 -6.52137 66.9851 0.100746 64.5628C7.97024 61.6842 15.2891 57.4789 20.66 51.613C21.6402 50.5424 21.9029 49.0428 21.9029 47.5912C21.9029 43.3821 24.4422 39.7661 28.0724 38.1915C28.7969 37.8773 29.3353 37.2078 29.3571 36.4183Z" fill="#5AC7BF"/>
<g id="Group 280">
<path id="Union_2" fill-rule="evenodd" clip-rule="evenodd" d="M46.4532 30.9546C46.3193 30.0573 45.5527 29.3976 44.6445 29.398C43.5896 29.3985 42.7389 30.2808 42.7766 31.3353L43.4362 49.8015C43.4519 50.2415 43.424 50.6817 43.3961 51.1219C43.3737 51.4741 43.3514 51.8263 43.3514 52.1786C43.3514 55.1811 45.7486 57.6152 48.7058 57.6152C48.7402 57.6152 48.7739 57.6253 48.8024 57.6447L70.1256 72.1559C72.4641 73.7473 75.6366 73.2489 77.3744 71.017L77.5085 70.8448C79.48 68.3128 78.8015 64.6278 76.0574 62.964L54.2527 49.744C53.5083 49.2926 52.8962 48.658 52.3768 47.9594C51.9511 47.3869 51.484 46.8278 51.017 46.2688C49.6616 44.6464 48.3064 43.0242 47.9636 41.0755L46.4532 30.9546Z" fill="#FFEBB8"/>
<path id="Vector 8" d="M55.7166 51.5631C54.2102 54.1272 51.8471 57.8068 50.9145 59.2493C50.7004 59.5804 50.8173 60.0215 51.1658 60.2059L52.7097 61.023C53.0339 61.1945 53.4357 61.0737 53.6116 60.7518L57.9103 52.8827C58.0891 52.5555 58.5005 52.437 58.8259 52.619L59.3224 52.8967C59.6881 53.1012 60.1497 52.9239 60.2844 52.5272L60.3945 52.2031C60.3993 52.1888 60.4011 52.1735 60.3995 52.1585C60.3412 51.5938 60.172 51.0462 59.9018 50.5469L59.887 50.5196C59.8807 50.508 59.8725 50.4977 59.8625 50.4891C59.1918 49.9155 58.1611 49.4262 57.1377 48.8904C56.4267 48.5182 55.5604 48.8166 54.8889 49.1924C54.4953 49.4127 54.5045 49.9578 54.8718 50.2196L55.5263 50.6859C55.8072 50.8861 55.8914 51.2656 55.7166 51.5631Z" fill="#363739"/>
</g>
<g id="Group 281">
<path id="Vector 11" d="M40.6716 19.6544L40.6719 14.3428" stroke="#FED33D" stroke-width="2.01113" stroke-linecap="round"/>
<path id="Vector 14" d="M32.3327 20.69L29.8398 15.9996" stroke="#FED33D" stroke-width="2.01113" stroke-linecap="round"/>
<path id="Vector 15" d="M48.7377 20.7741L51.5684 16.2795" stroke="#FED33D" stroke-width="2.01113" stroke-linecap="round"/>
<path id="Vector 12" d="M25.2367 26.2802L22.084 23.1281" stroke="#FED33D" stroke-width="2.01113" stroke-linecap="round"/>
<path id="Vector 13" d="M56.1097 26.2807L59.2617 23.128" stroke="#FED33D" stroke-width="2.01113" stroke-linecap="round"/>
</g>
</g>
</g>
</g>
</g>
</svg>
