<svg width="172" height="162" viewBox="0 0 172 162" fill="none" xmlns="http://www.w3.org/2000/svg">
<path d="M38.3719 17.1976C35.5201 16.2634 32.3984 17.185 30.4493 19.4668L15.5136 36.9514C13.3762 39.4535 13.0985 43.0365 14.8769 45.8053C23.2717 58.8754 47.7831 95.9296 65.0209 110.654C82.0592 125.209 117.926 141.033 131.102 146.585C134.086 147.843 137.509 146.992 139.612 144.53L154.615 126.966C156.597 124.646 156.998 121.385 155.561 118.693C148.704 105.849 127.913 68.6111 109.639 53.4479C109.551 53.3751 109.476 53.3159 109.384 53.248C107.234 51.6556 77.677 30.0731 38.3719 17.1976Z" fill="#454545"/>
<path d="M40.419 50.3235C37.8927 48.1655 37.1638 44.4747 39.5783 41.7026C42.0751 38.8613 45.7521 39.0736 48.2247 41.1857C49.9716 42.678 50.765 44.7968 50.2797 46.9158L47.2668 46.0621C47.5143 45.0649 47.2347 44.059 46.3881 43.3358C45.098 42.2338 43.3443 42.4093 42.0912 43.8491C40.8763 45.2985 40.9636 47.0466 42.2537 48.1485C43.1675 48.9291 43.9905 49.3533 44.9903 48.8359L45.4724 48.2715L44.1689 47.1581L45.512 45.5858L49.0193 48.5818L46.7235 51.2694C44.6702 52.2582 42.3138 51.9421 40.419 50.3235ZM49.0763 57.7187C47.1681 56.0887 46.4291 53.2261 48.3346 50.9954C50.4008 48.5765 53.2175 49.0069 55.1257 50.6369C57.0473 52.2784 57.477 54.7141 56.041 56.8578C55.8517 57.161 55.5533 57.5104 55.2719 57.7581L50.2864 53.4994C49.9082 54.2688 50.1761 55.1252 50.8096 55.6896C51.3894 56.2081 52.0434 56.3949 52.6316 56.2233L53.6691 58.7366C52.1786 59.2298 50.447 58.8896 49.0763 57.7187ZM51.6244 52.3413L54.0701 54.4304C54.2474 53.8148 53.9893 53.083 53.4268 52.6258C52.9296 52.201 52.1914 52.0585 51.6244 52.3413ZM56.218 63.5869L53.5976 61.3485L59.4174 54.5354L61.9303 56.682L60.6217 58.2139C61.8662 57.3013 63.4312 57.7549 64.4371 58.5909C66.2338 60.0792 66.4796 62.567 64.5281 64.8514L61.6469 68.2244L59.134 66.0778L62.0267 62.6914C62.8303 61.7508 62.7421 60.6295 61.8591 59.9217C61.0145 59.2235 59.9142 59.2598 59.1107 60.2005L56.218 63.5869ZM66.057 72.2239C64.1488 70.5939 63.4097 67.7312 65.3152 65.5005C67.3815 63.0817 70.1982 63.5121 72.1064 65.1421C74.028 66.7836 74.4577 69.2193 73.0217 71.363C72.8324 71.6662 72.5339 72.0155 72.2526 72.2633L67.2671 68.0046C66.8888 68.7739 67.1567 69.6304 67.7903 70.1948C68.3701 70.7133 69.0241 70.9001 69.6123 70.7285L70.6497 73.2417C69.1592 73.735 67.4276 73.3948 66.057 72.2239ZM68.6051 66.8464L71.0508 68.9356C71.228 68.32 70.9699 67.5881 70.4075 67.1309C69.9103 66.7062 69.172 66.5637 68.6051 66.8464ZM73.2255 78.115L70.5782 75.8536L76.3981 69.0406L78.9244 71.1986L77.5814 72.7709C79.2872 71.5086 81.7562 72.6181 82.4001 74.7487L79.3095 75.6185C79.3244 74.2133 77.2317 73.4252 76.1412 74.7018L73.2255 78.115ZM79.8249 83.9847C77.8803 82.3701 77.8527 79.627 79.5286 77.6651C81.48 75.3806 83.9756 75.2346 85.7399 76.7881C86.7094 77.6395 87.4154 79.1259 86.695 80.4862L88.0036 78.9543L90.5165 81.1008L84.6967 87.9139L82.1972 85.7788L83.5173 84.2334C82.3896 85.0366 80.8173 84.8092 79.8249 83.9847ZM82.2914 82.5122C83.1092 83.1875 84.2343 83.1492 84.969 82.2891C85.7725 81.3485 85.6365 80.256 84.8148 79.5309C83.9777 78.7694 82.8565 78.8575 82.053 79.7982C81.2953 80.6851 81.4219 81.8159 82.2914 82.5122ZM92.5417 90.6406L91.0678 93.1006C88.3998 92.1696 86.5737 89.1918 88.7776 86.6118L90.488 84.6095L89.5474 83.806L91.3955 81.6425C92.4705 82.5608 92.8412 81.8547 93.9891 80.5109L96.502 82.6575L94.8625 84.604L96.3944 85.9126L94.5463 88.0761L93.0009 86.7561L91.589 88.4089C90.8314 89.2958 91.2488 90.1405 92.5417 90.6406ZM99.1351 87.8819C98.4767 87.3195 98.155 86.4171 98.6371 85.8527C99.1307 85.2749 100.061 85.465 100.719 86.0275C101.364 86.5785 101.697 87.4674 101.204 88.0452C100.722 88.6096 99.7802 88.4329 99.1351 87.8819ZM94.2781 96.0985L91.7652 93.9519L97.585 87.1389L100.098 89.2854L94.2781 96.0985ZM100.346 101.281L97.9401 99.2267L100.898 89.9686L103.411 92.1152L101.34 97.6682L106.501 94.7553L109.014 96.9019L100.346 101.281ZM106.619 106.872C104.71 105.242 103.971 102.38 105.877 100.149C107.943 97.7302 110.76 98.1606 112.668 99.7906C114.59 101.432 115.019 103.868 113.583 106.011C113.394 106.315 113.096 106.664 112.814 106.912L107.829 102.653C107.45 103.422 107.718 104.279 108.352 104.843C108.932 105.362 109.586 105.549 110.174 105.377L111.211 107.89C109.721 108.383 107.989 108.043 106.619 106.872ZM109.167 101.495L111.612 103.584C111.79 102.968 111.532 102.237 110.969 101.779C110.472 101.355 109.734 101.212 109.167 101.495ZM117.402 115.851L114.768 113.601L126.282 108.096L128.674 110.139L125.062 122.394L122.441 120.156L123.358 116.988L120.375 114.439L117.402 115.851ZM124.713 112.381L122.899 113.225L124.162 114.304L124.713 112.381ZM128.242 125.111L125.85 123.068L133.426 114.199L135.818 116.242L128.242 125.111Z" fill="white"/>
</svg>
