<svg width="98" height="98" viewBox="0 0 98 98" fill="none" xmlns="http://www.w3.org/2000/svg">
<path d="M44.3807 2.97786C47.0019 1.183 50.4571 1.183 53.0783 2.97786C54.9488 4.2587 57.2891 4.64973 59.4743 4.04631C62.5352 3.20112 65.8035 4.32639 67.6989 6.87399C69.0523 8.69297 71.1403 9.82547 73.4032 9.96538C76.5724 10.1613 79.2983 12.2889 80.2646 15.3135C80.9548 17.4738 82.5627 19.2249 84.6578 20.0932C87.5922 21.3092 89.4802 24.2067 89.4135 27.3824C89.3659 29.6508 90.3187 31.8292 92.0188 33.3317C94.4004 35.4366 95.2472 38.7888 94.1536 41.7732C93.3728 43.9042 93.5683 46.2733 94.689 48.2469C96.2589 51.0117 95.9741 54.457 93.9707 56.9259C92.5409 58.6881 91.9591 60.9931 92.379 63.2232C92.9668 66.3457 91.5808 69.5138 88.886 71.1972C86.9621 72.399 85.6641 74.3911 85.3383 76.636C84.8822 79.7787 82.5435 82.3262 79.4495 83.0419C77.2404 83.553 75.3667 85.0148 74.3309 87.0319C72.8804 89.8564 69.8417 91.5055 66.6837 91.1763C64.4288 90.9414 62.1839 91.7136 60.5498 93.2849C58.2605 95.4863 54.8521 96.0568 51.9719 94.7185C49.9158 93.7632 47.5431 93.7632 45.4871 94.7185C42.6068 96.0568 39.1985 95.4863 36.9092 93.2849C35.2751 91.7136 33.0301 90.9414 30.7753 91.1763C27.6173 91.5055 24.5786 89.8564 23.1281 87.0319C22.0923 85.0148 20.2186 83.553 18.0094 83.0419C14.9155 82.3262 12.5767 79.7787 12.1206 76.636C11.7949 74.3911 10.4968 72.399 8.57298 71.1972C5.8782 69.5138 4.49216 66.3457 5.08003 63.2232C5.49989 60.9931 4.91812 58.6881 3.48826 56.9259C1.4849 54.457 1.20009 51.0117 2.77 48.2469C3.89067 46.2733 4.08623 43.9042 3.30536 41.7732C2.21183 38.7888 3.05861 35.4366 5.44021 33.3317C7.14027 31.8292 8.09305 29.6508 8.04545 27.3824C7.9788 24.2067 9.86675 21.3092 12.8011 20.0932C14.8963 19.2249 16.5041 17.4738 17.1944 15.3135C18.1607 12.2889 20.8866 10.1613 24.0558 9.96538C26.3187 9.82547 28.4067 8.69297 29.76 6.87399C31.6555 4.32639 34.9238 3.20112 37.9846 4.04631C40.1699 4.64972 42.5102 4.2587 44.3807 2.97786Z" fill="#8D83FF"/>
<path d="M44.3807 2.97786C47.0019 1.183 50.4571 1.183 53.0783 2.97786C54.9488 4.2587 57.2891 4.64973 59.4743 4.04631C62.5352 3.20112 65.8035 4.32639 67.6989 6.87399C69.0523 8.69297 71.1403 9.82547 73.4032 9.96538C76.5724 10.1613 79.2983 12.2889 80.2646 15.3135C80.9548 17.4738 82.5627 19.2249 84.6578 20.0932C87.5922 21.3092 89.4802 24.2067 89.4135 27.3824C89.3659 29.6508 90.3187 31.8292 92.0188 33.3317C94.4004 35.4366 95.2472 38.7888 94.1536 41.7732C93.3728 43.9042 93.5683 46.2733 94.689 48.2469C96.2589 51.0117 95.9741 54.457 93.9707 56.9259C92.5409 58.6881 91.9591 60.9931 92.379 63.2232C92.9668 66.3457 91.5808 69.5138 88.886 71.1972C86.9621 72.399 85.6641 74.3911 85.3383 76.636C84.8822 79.7787 82.5435 82.3262 79.4495 83.0419C77.2404 83.553 75.3667 85.0148 74.3309 87.0319C72.8804 89.8564 69.8417 91.5055 66.6837 91.1763C64.4288 90.9414 62.1839 91.7136 60.5498 93.2849C58.2605 95.4863 54.8521 96.0568 51.9719 94.7185C49.9158 93.7632 47.5431 93.7632 45.4871 94.7185C42.6068 96.0568 39.1985 95.4863 36.9092 93.2849C35.2751 91.7136 33.0301 90.9414 30.7753 91.1763C27.6173 91.5055 24.5786 89.8564 23.1281 87.0319C22.0923 85.0148 20.2186 83.553 18.0094 83.0419C14.9155 82.3262 12.5767 79.7787 12.1206 76.636C11.7949 74.3911 10.4968 72.399 8.57298 71.1972C5.8782 69.5138 4.49216 66.3457 5.08003 63.2232C5.49989 60.9931 4.91812 58.6881 3.48826 56.9259C1.4849 54.457 1.20009 51.0117 2.77 48.2469C3.89067 46.2733 4.08623 43.9042 3.30536 41.7732C2.21183 38.7888 3.05861 35.4366 5.44021 33.3317C7.14027 31.8292 8.09305 29.6508 8.04545 27.3824C7.9788 24.2067 9.86675 21.3092 12.8011 20.0932C14.8963 19.2249 16.5041 17.4738 17.1944 15.3135C18.1607 12.2889 20.8866 10.1613 24.0558 9.96538C26.3187 9.82547 28.4067 8.69297 29.76 6.87399C31.6555 4.32639 34.9238 3.20112 37.9846 4.04631C40.1699 4.64972 42.5102 4.2587 44.3807 2.97786Z" stroke="#26103D"/>
<path d="M47.8124 66.6114L45.2311 70.838L34.8576 55.8277L37.2018 51.9893L55.3192 54.3199L52.7511 58.5249L48.0711 57.9465L45.1474 62.7337L47.8124 66.6114ZM41.2614 57.074L42.8635 59.444L44.1015 57.417L41.2614 57.074ZM58.5548 49.0219L56.0921 53.0544L41.8598 44.3623L43.9538 40.9337L54.335 40.6121L46.917 36.0817L49.3797 32.0493L63.612 40.7413L61.5575 44.1053L51.4171 44.6627L58.5548 49.0219ZM66.725 35.6441L64.3808 39.4825L50.1485 30.7905L52.4928 26.9521L66.725 35.6441Z" fill="#FED33D"/>
</svg>
