<svg width="37" height="37" viewBox="0 0 37 37" fill="none" xmlns="http://www.w3.org/2000/svg">
<path id="Figure 21" d="M23.2653 35.1205C23.9666 33.8001 25.5266 33.1851 26.9393 33.6747C29.415 34.5326 31.7408 32.0603 30.7334 29.6416L29.2575 26.0978C28.2765 23.7424 29.3298 21.0325 31.644 19.958L35.1261 18.3411C37.5025 17.2377 37.457 13.8436 35.0519 12.8042C33.6795 12.2112 32.9444 10.7042 33.3188 9.25677C33.9629 6.76704 31.4229 4.64318 29.0904 5.72623L26.3455 7.00074C24.0402 8.0712 21.3071 7.00888 20.3299 4.66246L19.1664 1.86879C18.1776 -0.505222 14.87 -0.654285 13.6635 1.61683C12.9621 2.93713 11.4023 3.55205 9.9896 3.06259C7.51391 2.20481 5.18816 4.6772 6.19552 7.0959L7.67158 10.64C8.65259 12.9954 7.59929 15.7052 5.28504 16.7798L1.8032 18.3965C-0.573191 19.4999 -0.527622 22.894 1.87753 23.9333C3.25001 24.5263 3.98518 26.0334 3.61066 27.4808C2.96648 29.9705 5.50642 32.0945 7.8389 31.0114L10.5837 29.7369C12.889 28.6665 15.6219 29.7288 16.5991 32.0751L17.7626 34.8687C18.7513 37.2427 22.0589 37.3917 23.2653 35.1205Z" fill="#D879B7"/>
</svg>
