<svg width="425" height="425" viewBox="0 0 425 425" fill="none" xmlns="http://www.w3.org/2000/svg">
<g filter="url(#filter0_d_594_7479)">
<rect x="56.623" y="53" width="312" height="311" rx="17" fill="white"/>
<g clip-path="url(#clip0_594_7479)">
<rect x="65" y="61" width="295" height="189" rx="10" fill="#FFDE8A"/>
<path d="M204.524 138.286L113.33 142.109L128.074 154.85L283.887 145.931L303 134.827L204.524 138.286Z" fill="#345E5B"/>
<path fill-rule="evenodd" clip-rule="evenodd" d="M298.45 94.9877C297.553 96.396 297.035 98.0953 297.142 99.7618C297.215 100.897 297.114 102.063 296.819 103.225C296.499 104.487 295.976 105.643 295.294 106.668C294.254 108.23 293.856 110.23 294.035 112.098C294.13 113.086 294.059 114.107 293.801 115.124C292.597 119.871 287.773 122.742 283.027 121.538C278.281 120.334 275.409 115.51 276.613 110.764C277.041 109.079 276.906 107.196 276.099 105.656C274.868 103.305 274.465 100.508 275.169 97.7328C275.931 94.7313 277.842 92.3251 280.312 90.8648C281.347 90.2528 282.083 89.206 282.378 88.0403C283.582 83.2941 288.406 80.4226 293.152 81.6266C297.898 82.8307 300.77 87.6543 299.566 92.4005C299.327 93.3425 298.945 94.2106 298.45 94.9877Z" fill="#5EB1AB"/>
<path d="M293.789 103.221C351.277 112.998 405.553 118.389 410.913 173.14C414.81 212.946 372.526 245.998 345.949 256.288" stroke="#5EB1AB" stroke-width="23.9315"/>
<path fill-rule="evenodd" clip-rule="evenodd" d="M241.615 133.35C230.448 129.917 218.611 136.186 215.177 147.353C211.744 158.52 218.013 170.357 229.18 173.79C229.912 174.015 230.647 174.199 231.383 174.342C234.318 177.716 238.202 180.338 242.792 181.749C245.252 182.506 247.739 182.86 250.183 182.851C252.2 184.232 254.457 185.336 256.916 186.092C259.562 186.906 262.24 187.255 264.862 187.186C266.992 188.716 269.403 189.932 272.049 190.745C277.981 192.569 284.074 192.058 289.34 189.736C298.417 191.007 307.331 185.541 310.112 176.499C312.892 167.457 308.59 157.926 300.366 153.877C297.315 148.998 292.562 145.151 286.63 143.327C283.984 142.514 281.306 142.165 278.684 142.234C276.554 140.703 274.142 139.488 271.497 138.674C269.037 137.918 266.55 137.563 264.106 137.572C262.089 136.191 259.832 135.087 257.373 134.331C252.735 132.905 247.998 132.906 243.636 134.085C242.982 133.809 242.308 133.564 241.615 133.35Z" fill="#FF97BC"/>
<path fill-rule="evenodd" clip-rule="evenodd" d="M228.636 144.255C226.197 132.829 214.958 125.544 203.532 127.983C192.106 130.422 184.821 141.662 187.26 153.087C187.42 153.837 187.618 154.568 187.851 155.28C186.334 159.487 185.935 164.156 186.938 168.852C187.475 171.369 188.376 173.714 189.574 175.844C189.35 178.278 189.485 180.787 190.022 183.303C190.6 186.011 191.6 188.52 192.937 190.776C192.638 193.382 192.75 196.08 193.328 198.787C194.624 204.856 198.037 209.929 202.628 213.396C205.939 221.944 215.054 227.068 224.306 225.093C233.557 223.118 239.785 214.72 239.318 205.567C242.095 200.526 243.14 194.501 241.844 188.43C241.266 185.723 240.267 183.214 238.93 180.957C239.229 178.352 239.116 175.654 238.538 172.947C238.001 170.43 237.1 168.085 235.902 165.955C236.126 163.521 235.991 161.012 235.454 158.496C234.441 153.75 232.133 149.614 228.979 146.377C228.901 145.672 228.788 144.964 228.636 144.255Z" fill="#FF97BC"/>
<path fill-rule="evenodd" clip-rule="evenodd" d="M207.89 123.65C198.621 130.762 196.872 144.042 203.984 153.311C211.096 162.58 224.376 164.329 233.645 157.217C234.252 156.751 234.828 156.258 235.37 155.742C239.822 155.304 244.209 153.658 248.019 150.734C250.061 149.168 251.791 147.346 253.2 145.349C255.494 144.505 257.701 143.305 259.742 141.739C261.938 140.054 263.774 138.074 265.237 135.897C267.719 135.047 270.107 133.787 272.304 132.101C277.228 128.323 280.342 123.061 281.5 117.424C287.795 110.762 288.504 100.33 282.746 92.8251C276.987 85.3201 266.727 83.3045 258.663 87.66C252.918 87.3192 247.029 88.9647 242.105 92.7427C239.909 94.4277 238.073 96.4079 236.61 98.5849C234.128 99.4345 231.74 100.695 229.544 102.38C227.502 103.947 225.771 105.769 224.363 107.766C222.069 108.61 219.862 109.81 217.82 111.376C213.971 114.329 211.228 118.19 209.66 122.428C209.056 122.802 208.466 123.209 207.89 123.65Z" fill="#8D83FF"/>
<path d="M223.849 149.081L221.956 150.748L219.172 141.885L220.89 140.371L229.351 144.233L227.469 145.892L225.279 144.906L223.136 146.794L223.849 149.081ZM222.099 143.456L222.521 144.85L223.428 144.05L222.099 143.456ZM231.636 142.22L229.918 143.734L224.304 137.363L226.023 135.849L231.636 142.22ZM237.714 137.037C236.218 138.355 234.064 138.538 232.675 137.001C231.279 135.436 231.658 133.336 233.232 131.95C234.448 130.878 235.972 130.564 237.211 131.153L236.05 133.222C235.564 132.981 234.978 133.017 234.525 133.417C233.907 133.961 233.953 134.812 234.472 135.401C234.991 135.99 235.803 136.114 236.412 135.578C236.885 135.161 236.994 134.585 236.807 134.081L239.023 133.209C239.434 134.493 238.979 135.923 237.714 137.037ZM242.702 132.471L240.82 134.129L235.206 127.758L237.012 126.167L239.283 128.745C238.753 127.754 239.24 126.673 239.946 126.034C241.204 124.892 243.022 124.97 244.468 126.612L246.602 129.035L244.797 130.625L242.654 128.192C242.058 127.517 241.241 127.465 240.641 128.029C240.05 128.566 239.964 129.362 240.559 130.038L242.702 132.471ZM249.61 126.556C248.246 127.792 246.266 127.53 245.025 126.121C243.579 124.48 243.73 122.666 245.031 121.554C245.744 120.943 246.888 120.587 247.794 121.246L246.825 120.145L248.63 118.555L252.942 123.449L251.146 125.031L250.168 123.921C250.631 124.816 250.306 125.926 249.61 126.556ZM248.802 124.628C249.373 124.108 249.461 123.293 248.916 122.675C248.321 121.999 247.52 121.985 246.913 122.503C246.278 123.028 246.226 123.845 246.821 124.521C247.383 125.158 248.211 125.183 248.802 124.628ZM256.657 122.903L254.852 124.493L249.204 118.083L251 116.501L251.969 117.602C251.506 116.706 251.832 115.597 252.518 114.975C253.891 113.731 255.862 114.001 257.103 115.411C258.541 117.042 258.389 118.856 257.098 119.959C256.385 120.57 255.241 120.926 254.335 120.267L256.657 122.903ZM255.217 119.01C255.842 118.494 255.893 117.677 255.298 117.001C254.737 116.364 253.917 116.348 253.336 116.895C252.765 117.415 252.677 118.23 253.213 118.838C253.808 119.514 254.591 119.527 255.217 119.01ZM261.94 112.59L263.561 113.905C262.616 115.732 260.282 116.742 258.65 114.888L257.382 113.45L256.706 114.045L255.337 112.491C256.109 111.811 255.639 111.471 254.788 110.506L256.593 108.915L257.828 110.297L258.928 109.327L260.298 110.882L259.187 111.86L260.234 113.047C260.795 113.684 261.447 113.47 261.94 112.59ZM266.751 111.455C265.38 112.662 263.241 112.901 261.829 111.298C260.298 109.561 260.898 107.575 262.269 106.367C263.649 105.151 265.449 105.091 266.846 106.347C267.045 106.514 267.266 106.765 267.416 106.993L263.835 110.149C264.35 110.5 264.995 110.395 265.467 109.997C265.9 109.632 266.102 109.18 266.039 108.739L267.956 108.249C268.159 109.374 267.736 110.587 266.751 111.455ZM263.137 109.066L264.894 107.518C264.469 107.327 263.915 107.437 263.528 107.796C263.17 108.11 262.992 108.628 263.137 109.066ZM271.733 106.894L269.832 108.569L265.519 103.675L267.334 102.076L268.329 103.205C267.595 101.846 268.648 100.181 270.25 99.9356L270.559 102.252C269.548 102.097 268.765 103.524 269.573 104.442L271.733 106.894Z" fill="white"/>
<path fill-rule="evenodd" clip-rule="evenodd" d="M224.418 200.196C234.618 205.894 247.505 202.244 253.203 192.045C258.901 181.845 255.251 168.958 245.052 163.26C244.383 162.886 243.703 162.553 243.014 162.259C240.85 158.344 237.602 154.967 233.41 152.625C231.163 151.37 228.805 150.502 226.413 149.999C224.73 148.226 222.755 146.674 220.509 145.419C218.093 144.069 215.548 143.167 212.97 142.685C211.207 140.742 209.104 139.047 206.688 137.697C201.27 134.671 195.205 133.893 189.57 135.061C180.96 131.916 171.099 135.393 166.485 143.651C161.872 151.91 164.081 162.13 171.273 167.812C173.233 173.223 177.075 177.98 182.494 181.007C184.91 182.357 187.455 183.259 190.033 183.741C191.795 185.684 193.898 187.378 196.315 188.728C198.562 189.983 200.919 190.852 203.312 191.355C204.994 193.128 206.969 194.68 209.216 195.935C213.452 198.301 218.083 199.293 222.596 199.055C223.178 199.461 223.785 199.842 224.418 200.196Z" fill="#FF97BC"/>
<path fill-rule="evenodd" clip-rule="evenodd" d="M182.871 199.72C193.071 205.418 205.958 201.769 211.656 191.569C217.354 181.369 213.704 168.482 203.505 162.784C202.836 162.411 202.156 162.077 201.467 161.783C199.303 157.869 196.055 154.491 191.863 152.149C189.616 150.894 187.258 150.026 184.866 149.523C183.184 147.75 181.208 146.198 178.962 144.943C176.546 143.593 174.001 142.691 171.423 142.209C169.66 140.266 167.557 138.572 165.141 137.222C159.723 134.195 153.658 133.418 148.023 134.585C139.414 131.44 129.552 134.917 124.938 143.176C120.325 151.434 122.535 161.654 129.726 167.336C131.686 172.747 135.528 177.504 140.947 180.531C143.363 181.881 145.908 182.783 148.486 183.265C150.248 185.208 152.352 186.903 154.768 188.253C157.015 189.508 159.373 190.376 161.765 190.879C163.447 192.652 165.423 194.204 167.669 195.459C171.905 197.825 176.537 198.817 181.049 198.579C181.631 198.985 182.238 199.367 182.871 199.72Z" fill="#FF97BC"/>
<path fill-rule="evenodd" clip-rule="evenodd" d="M113.083 141.852C90.939 165.794 77.4062 197.817 77.4062 233.001V369.45C77.4062 443.606 137.521 503.721 211.677 503.721C285.832 503.721 345.947 443.606 345.947 369.45V233.001C345.947 194.184 329.476 159.214 303.14 134.7L215.058 144.498C210.454 145.01 205.817 145.184 201.187 145.018L113.083 141.852Z" fill="#5EB1AB"/>
<g clip-path="url(#clip1_594_7479)">
<rect x="150.211" y="147.004" width="40.7345" height="40.7345" rx="20.3673" fill="#F9FFFF"/>
<rect x="168.805" y="147.004" width="13.2387" height="13.2387" rx="6.61936" fill="#262626"/>
</g>
<rect x="227.096" y="147.004" width="40.7345" height="40.7345" rx="20.3673" fill="#F9FFFF"/>
<rect x="245.689" y="147.004" width="13.2387" height="13.2387" rx="6.61936" fill="#262626"/>
<rect x="130.75" y="192.824" width="141.731" height="67.7172" fill="#5EB1AB"/>
<path fill-rule="evenodd" clip-rule="evenodd" d="M9.81905 111.941C39.7516 136.898 77.338 146.619 113.159 141.958L45.8906 81.4841C43.1288 79.0012 40.1835 76.7303 37.08 74.6906L-37.3969 25.7436C-33.274 58.238 -17.3231 89.3115 9.81905 111.941Z" fill="#5EB1AB"/>
</g>
<path d="M77.1998 279.235H74.9598L74.9758 270.627L71.7918 270.611V268.675H80.3998V270.611L77.2158 270.627L77.1998 279.235ZM84.2678 279.235H81.9318V268.675H84.1878V273.043C84.6038 271.699 85.9798 270.979 87.3238 270.963C89.5158 270.947 91.1958 272.531 91.1958 275.219V279.235H88.9558V275.203C88.9558 273.667 87.9158 272.787 86.6198 272.803C85.3398 272.819 84.2678 273.699 84.2678 275.203V279.235ZM93.944 270.371C93.32 270.371 92.728 270.019 92.728 269.459C92.728 268.915 93.32 268.563 93.944 268.563C94.552 268.563 95.144 268.915 95.144 269.459C95.144 270.019 94.552 270.371 93.944 270.371ZM95.048 279.235H92.808V271.123H95.048V279.235ZM100.233 279.395C98.3125 279.347 96.6965 278.259 96.6805 276.435H98.7285C98.8085 277.331 99.4645 277.731 100.265 277.763C100.921 277.779 101.513 277.459 101.529 276.899C101.545 276.307 101.145 276.035 100.169 275.875C98.1045 275.619 96.7285 275.139 96.6965 273.475C96.6645 271.955 98.0565 270.963 100.009 270.963C102.025 270.963 103.577 271.955 103.641 273.891H101.593C101.545 273.139 100.953 272.627 100.089 272.611C99.3525 272.595 98.8725 272.995 98.8725 273.555C98.8885 274.099 99.2885 274.419 100.345 274.611C102.633 275.011 103.689 275.363 103.673 277.043C103.673 278.627 102.201 279.443 100.233 279.395ZM111.083 270.371C110.459 270.371 109.867 270.019 109.867 269.459C109.867 268.915 110.459 268.563 111.083 268.563C111.691 268.563 112.283 268.915 112.283 269.459C112.283 270.019 111.691 270.371 111.083 270.371ZM112.187 279.235H109.947V271.123H112.187V279.235ZM117.371 279.395C115.451 279.347 113.835 278.259 113.819 276.435H115.867C115.947 277.331 116.603 277.731 117.403 277.763C118.059 277.779 118.651 277.459 118.667 276.899C118.683 276.307 118.283 276.035 117.307 275.875C115.243 275.619 113.867 275.139 113.835 273.475C113.803 271.955 115.195 270.963 117.147 270.963C119.163 270.963 120.715 271.955 120.779 273.891H118.731C118.683 273.139 118.091 272.627 117.227 272.611C116.491 272.595 116.011 272.995 116.011 273.555C116.027 274.099 116.427 274.419 117.483 274.611C119.771 275.011 120.827 275.363 120.811 277.043C120.811 278.627 119.339 279.443 117.371 279.395ZM128.221 270.371C127.597 270.371 127.005 270.019 127.005 269.459C127.005 268.915 127.597 268.563 128.221 268.563C128.829 268.563 129.421 268.915 129.421 269.459C129.421 270.019 128.829 270.371 128.221 270.371ZM129.325 279.235H127.085V271.123H129.325V279.235ZM133.294 279.235H130.958V271.123H133.214V273.043C133.63 271.699 135.006 270.979 136.35 270.963C138.542 270.947 140.222 272.531 140.222 275.219V279.235H137.982V275.203C137.982 273.667 136.942 272.787 135.646 272.803C134.366 272.819 133.294 273.699 133.294 275.203V279.235ZM145.338 279.235H143.098V274.403H141.754V272.563H143.098V271.811C143.098 268.867 146.042 267.987 148.202 268.851L147.85 270.787C146.586 270.275 145.338 270.547 145.338 271.875V272.563H147.514V274.403H145.354L145.338 279.235ZM153.407 279.395C150.959 279.395 148.879 277.715 148.863 275.219C148.847 272.611 150.863 270.963 153.407 270.963C155.999 270.963 157.999 272.611 157.983 275.219C157.967 277.683 156.063 279.395 153.407 279.395ZM153.391 277.555C154.703 277.555 155.727 276.579 155.727 275.203C155.727 273.827 154.735 272.803 153.407 272.803C152.111 272.803 151.103 273.779 151.103 275.203C151.103 276.531 152.111 277.555 153.391 277.555ZM161.871 279.235H159.519V271.123H161.775V273.187C162.223 271.443 164.335 270.643 165.999 271.411L164.815 273.251C163.743 272.579 161.871 273.475 161.871 275.203V279.235ZM169.87 279.235H167.534V271.123H169.774V273.043C170.062 271.763 171.342 270.979 172.542 270.963C173.998 270.947 175.086 271.699 175.582 273.075C176.094 271.747 177.39 270.947 178.702 270.963C180.766 270.995 182.238 272.435 182.238 275.011V279.235H179.982V275.011C179.982 273.667 179.23 272.787 177.998 272.803C176.766 272.819 176.062 273.683 176.062 275.027V279.235H173.822V275.011C173.822 273.651 173.054 272.771 171.838 272.803C170.67 272.835 169.886 273.795 169.886 274.995L169.87 279.235ZM187.767 279.395C185.463 279.411 183.767 277.555 183.767 275.219C183.767 272.531 185.447 270.947 187.655 270.963C188.999 270.979 190.375 271.699 190.791 273.043V271.123H193.031V279.235H190.791V277.283C190.407 278.547 189.095 279.379 187.767 279.395ZM188.359 277.523C189.607 277.507 190.695 276.579 190.695 275.203C190.695 273.715 189.623 272.819 188.359 272.803C187.063 272.787 186.007 273.667 186.007 275.203C186.007 276.595 187.079 277.555 188.359 277.523ZM200.452 277.107L200.804 279.027C198.66 279.907 195.796 279.011 195.796 276.083V272.963H194.564V271.027C195.972 271.011 195.796 270.211 195.796 268.675H198.036L198.052 271.027H200.228V272.963H198.036V275.795C198.036 277.139 199.188 277.603 200.452 277.107ZM203.576 270.371C202.952 270.371 202.36 270.019 202.36 269.459C202.36 268.915 202.952 268.563 203.576 268.563C204.184 268.563 204.776 268.915 204.776 269.459C204.776 270.019 204.184 270.371 203.576 270.371ZM204.68 279.235H202.44V271.123H204.68V279.235ZM210.856 279.395C208.408 279.395 206.328 277.715 206.312 275.219C206.296 272.611 208.312 270.963 210.856 270.963C213.448 270.963 215.448 272.611 215.432 275.219C215.416 277.683 213.512 279.395 210.856 279.395ZM210.84 277.555C212.152 277.555 213.176 276.579 213.176 275.203C213.176 273.827 212.184 272.803 210.856 272.803C209.56 272.803 208.552 273.779 208.552 275.203C208.552 276.531 209.56 277.555 210.84 277.555ZM219.304 279.235H216.968V271.123H219.224V273.043C219.64 271.699 221.016 270.979 222.36 270.963C224.552 270.947 226.232 272.531 226.232 275.219V279.235H223.992V275.203C223.992 273.667 222.952 272.787 221.656 272.803C220.376 272.819 219.304 273.699 219.304 275.203V279.235ZM236.404 279.395C234.1 279.411 232.404 277.555 232.404 275.219C232.404 272.531 234.084 270.947 236.292 270.963C237.636 270.979 239.012 271.699 239.428 273.043V271.123H241.668V279.235H239.428V277.283C239.044 278.547 237.732 279.379 236.404 279.395ZM236.996 277.523C238.244 277.507 239.332 276.579 239.332 275.203C239.332 273.715 238.26 272.819 236.996 272.803C235.7 272.787 234.644 273.667 234.644 275.203C234.644 276.595 235.716 277.555 236.996 277.523ZM248.465 279.395C247.137 279.379 245.841 278.547 245.441 277.283V279.235H243.201V268.675H245.457V273.043C245.873 271.699 247.249 270.979 248.593 270.963C250.785 270.947 252.465 272.531 252.465 275.219C252.465 277.555 250.785 279.411 248.465 279.395ZM247.889 277.523C249.153 277.555 250.225 276.595 250.225 275.203C250.225 273.667 249.185 272.787 247.889 272.803C246.609 272.819 245.537 273.699 245.537 275.203C245.537 276.579 246.625 277.507 247.889 277.523ZM258.541 279.395C256.093 279.395 254.013 277.715 253.997 275.219C253.981 272.611 255.997 270.963 258.541 270.963C261.133 270.963 263.133 272.611 263.117 275.219C263.101 277.683 261.197 279.395 258.541 279.395ZM258.525 277.555C259.837 277.555 260.861 276.579 260.861 275.203C260.861 273.827 259.869 272.803 258.541 272.803C257.245 272.803 256.237 273.779 256.237 275.203C256.237 276.531 257.245 277.555 258.525 277.555ZM268.268 279.395C266.14 279.411 264.652 277.923 264.652 275.347V271.123H266.908V275.347C266.908 276.707 267.676 277.571 268.956 277.555C270.268 277.523 271.052 276.531 271.052 275.107V271.123H273.388V279.235H271.132V277.235C270.812 278.707 269.468 279.379 268.268 279.395ZM280.805 277.107L281.157 279.027C279.013 279.907 276.149 279.011 276.149 276.083V272.963H274.917V271.027C276.325 271.011 276.149 270.211 276.149 268.675H278.389L278.405 271.027H280.581V272.963H278.389V275.795C278.389 277.139 279.541 277.603 280.805 277.107ZM76.3358 295.395C73.8878 295.395 71.8078 293.715 71.7918 291.219C71.7758 288.611 73.7918 286.963 76.3358 286.963C78.9278 286.963 80.9278 288.611 80.9118 291.219C80.8958 293.683 78.9918 295.395 76.3358 295.395ZM76.3198 293.555C77.6318 293.555 78.6558 292.579 78.6558 291.203C78.6558 289.827 77.6638 288.803 76.3358 288.803C75.0398 288.803 74.0318 289.779 74.0318 291.203C74.0318 292.531 75.0398 293.555 76.3198 293.555ZM86.0634 295.395C83.9354 295.411 82.4474 293.923 82.4474 291.347V287.123H84.7034V291.347C84.7034 292.707 85.4714 293.571 86.7514 293.555C88.0634 293.523 88.8474 292.531 88.8474 291.107V287.123H91.1834V295.235H88.9274V293.235C88.6074 294.707 87.2634 295.379 86.0634 295.395ZM95.0644 295.235H92.7124V287.123H94.9684V289.187C95.4164 287.443 97.5284 286.643 99.1924 287.411L98.0084 289.251C96.9364 288.579 95.0644 289.475 95.0644 291.203V295.235ZM109.911 295.395C107.463 295.395 105.383 293.731 105.367 291.219C105.351 288.611 107.367 286.963 109.911 286.963C111.847 286.963 113.479 287.923 114.119 289.411L112.039 290.179C111.671 289.347 110.855 288.803 109.911 288.803C108.615 288.803 107.607 289.811 107.607 291.203C107.607 292.547 108.615 293.555 109.895 293.555C110.887 293.555 111.687 292.979 112.055 292.163L114.135 292.931C113.463 294.419 111.895 295.395 109.911 295.395ZM120.208 295.395C117.76 295.395 115.68 293.715 115.664 291.219C115.648 288.611 117.664 286.963 120.208 286.963C122.8 286.963 124.8 288.611 124.784 291.219C124.768 293.683 122.864 295.395 120.208 295.395ZM120.192 293.555C121.504 293.555 122.528 292.579 122.528 291.203C122.528 289.827 121.536 288.803 120.208 288.803C118.912 288.803 117.904 289.779 117.904 291.203C117.904 292.531 118.912 293.555 120.192 293.555ZM129.935 295.395C127.807 295.411 126.319 293.923 126.319 291.347V287.123H128.575V291.347C128.575 292.707 129.343 293.571 130.623 293.555C131.935 293.523 132.719 292.531 132.719 291.107V287.123H135.055V295.235H132.799V293.235C132.479 294.707 131.135 295.379 129.935 295.395ZM138.936 295.235H136.584V287.123H138.84V289.187C139.288 287.443 141.4 286.643 143.064 287.411L141.88 289.251C140.808 288.579 138.936 289.475 138.936 291.203V295.235ZM147.526 295.395C145.606 295.347 143.99 294.259 143.974 292.435H146.022C146.102 293.331 146.758 293.731 147.558 293.763C148.214 293.779 148.806 293.459 148.822 292.899C148.838 292.307 148.438 292.035 147.462 291.875C145.398 291.619 144.022 291.139 143.99 289.475C143.958 287.955 145.35 286.963 147.302 286.963C149.318 286.963 150.87 287.955 150.934 289.891H148.886C148.838 289.139 148.246 288.627 147.382 288.611C146.646 288.595 146.166 288.995 146.166 289.555C146.182 290.099 146.582 290.419 147.638 290.611C149.926 291.011 150.982 291.363 150.966 293.043C150.966 294.627 149.494 295.443 147.526 295.395ZM156.889 295.395C154.617 295.395 152.521 293.763 152.521 291.203C152.521 288.403 154.617 286.963 156.889 286.963C159.129 286.963 160.905 288.387 161.145 290.819C161.177 291.075 161.177 291.395 161.145 291.667H154.649C154.809 292.819 155.833 293.555 156.889 293.555C157.737 293.571 158.537 293.203 158.937 292.515L160.617 293.363C159.881 294.627 158.489 295.395 156.889 295.395ZM154.809 290.435L159.033 290.419C158.825 289.395 157.865 288.755 156.889 288.771C155.945 288.771 155.017 289.395 154.809 290.435ZM166.244 295.395C164.324 295.347 162.708 294.259 162.692 292.435H164.74C164.82 293.331 165.476 293.731 166.276 293.763C166.932 293.779 167.524 293.459 167.54 292.899C167.556 292.307 167.156 292.035 166.18 291.875C164.116 291.619 162.74 291.139 162.708 289.475C162.676 287.955 164.068 286.963 166.02 286.963C168.036 286.963 169.588 287.955 169.652 289.891H167.604C167.556 289.139 166.964 288.627 166.1 288.611C165.364 288.595 164.884 288.995 164.884 289.555C164.9 290.099 165.3 290.419 166.356 290.611C168.644 291.011 169.7 291.363 169.684 293.043C169.684 294.627 168.212 295.443 166.244 295.395Z" fill="#36373A"/>
<path d="M74.3554 321.34H73.3474V312.1H74.4954L77.7854 319.604L81.1594 312.1H82.2934V321.34H81.2994V313.906L78.1074 321.34H77.4494L74.3554 313.906V321.34ZM87.5253 321.48C85.4253 321.48 83.7313 319.912 83.7173 317.826C83.7173 315.558 85.3833 314.102 87.5253 314.102C89.7093 314.102 91.3753 315.558 91.3753 317.826C91.3613 319.912 89.7233 321.48 87.5253 321.48ZM87.5113 320.626C89.0093 320.626 90.3813 319.52 90.3813 317.826C90.3813 316.076 89.0933 314.942 87.5253 314.942C86.0273 314.942 84.7113 316.006 84.7113 317.826C84.7113 319.436 86.0413 320.626 87.5113 320.626ZM93.838 321.34H92.802V314.242H93.796V316.314C94.202 314.956 95.756 314.088 97.142 314.34L96.68 315.18C95.42 314.998 93.838 316.062 93.838 317.84V321.34ZM100.948 321.48C98.9879 321.48 97.2519 319.94 97.2519 317.812C97.2519 315.46 98.9879 314.102 100.948 314.102C102.838 314.102 104.462 315.334 104.63 317.63V318.064L98.2039 318.078C98.3159 319.59 99.6739 320.626 100.948 320.64C101.9 320.64 102.894 320.178 103.398 319.268L104.168 319.674C103.538 320.822 102.306 321.48 100.948 321.48ZM98.2739 317.434H103.678C103.524 315.866 102.25 314.928 100.948 314.928C99.6599 314.928 98.3999 315.866 98.2739 317.434ZM113.469 321.48C111.411 321.494 109.843 319.884 109.843 317.826C109.843 315.502 111.397 314.088 113.427 314.102C114.813 314.102 116.059 314.886 116.549 316.048V312.1H117.557V321.34H116.563V319.492C116.087 320.654 114.827 321.48 113.469 321.48ZM113.665 320.626C115.149 320.612 116.521 319.464 116.521 317.826C116.521 315.992 115.135 314.956 113.665 314.942C112.181 314.942 110.837 315.908 110.837 317.826C110.837 319.478 112.195 320.626 113.665 320.626ZM122.679 321.48C120.719 321.48 118.983 319.94 118.983 317.812C118.983 315.46 120.719 314.102 122.679 314.102C124.569 314.102 126.193 315.334 126.361 317.63V318.064L119.935 318.078C120.047 319.59 121.405 320.626 122.679 320.64C123.631 320.64 124.625 320.178 125.129 319.268L125.899 319.674C125.269 320.822 124.037 321.48 122.679 321.48ZM120.005 317.434H125.409C125.255 315.866 123.981 314.928 122.679 314.928C121.391 314.928 120.131 315.866 120.005 317.434ZM131.709 320.262L131.933 321.116C130.351 321.83 128.027 321.144 128.027 318.778V315.082H126.809V314.2C128.209 314.2 128.027 313.36 128.027 312.1H129.021L129.035 314.2H131.387V315.082H129.021V318.694C129.021 320.248 130.505 320.822 131.709 320.262ZM136.184 321.48C134.126 321.494 132.558 319.884 132.558 317.826C132.558 315.502 134.112 314.088 136.142 314.102C137.528 314.102 138.774 314.886 139.264 316.048V314.242H140.272V321.34H139.278V319.492C138.802 320.654 137.542 321.48 136.184 321.48ZM136.38 320.626C137.864 320.612 139.236 319.464 139.236 317.826C139.236 316.02 137.85 314.956 136.38 314.942C134.896 314.942 133.552 315.908 133.552 317.826C133.552 319.478 134.91 320.626 136.38 320.626ZM142.342 313.122C142.006 313.122 141.698 312.898 141.698 312.59C141.698 312.268 142.006 312.058 142.342 312.058C142.678 312.058 142.972 312.268 142.972 312.59C142.972 312.898 142.678 313.122 142.342 313.122ZM142.832 321.34H141.838V314.242H142.832V321.34ZM145.405 321.34H144.397V312.1H145.405V321.34ZM150.534 321.48C148.574 321.48 146.838 319.94 146.838 317.812C146.838 315.46 148.574 314.102 150.534 314.102C152.424 314.102 154.048 315.334 154.216 317.63V318.064L147.79 318.078C147.902 319.59 149.26 320.626 150.534 320.64C151.486 320.64 152.48 320.178 152.984 319.268L153.754 319.674C153.124 320.822 151.892 321.48 150.534 321.48ZM147.86 317.434H153.264C153.11 315.866 151.836 314.928 150.534 314.928C149.246 314.928 147.986 315.866 147.86 317.434ZM159.275 321.48C157.217 321.494 155.649 319.884 155.649 317.826C155.649 315.502 157.203 314.088 159.233 314.102C160.619 314.102 161.865 314.886 162.355 316.048V312.1H163.363V321.34H162.369V319.492C161.893 320.654 160.633 321.48 159.275 321.48ZM159.471 320.626C160.955 320.612 162.327 319.464 162.327 317.826C162.327 315.992 160.941 314.956 159.471 314.942C157.987 314.942 156.643 315.908 156.643 317.826C156.643 319.478 158.001 320.626 159.471 320.626ZM169.212 313.122C168.876 313.122 168.568 312.898 168.568 312.59C168.568 312.268 168.876 312.058 169.212 312.058C169.548 312.058 169.842 312.268 169.842 312.59C169.842 312.898 169.548 313.122 169.212 313.122ZM169.702 321.34H168.708V314.242H169.702V321.34ZM172.304 321.34H171.268V314.242H172.276V316.048C172.766 314.886 174.012 314.102 175.398 314.102C177.428 314.088 178.982 315.502 178.982 317.826V321.34H177.974L177.988 317.826C178.002 315.908 176.644 314.942 175.16 314.942C173.69 314.956 172.304 315.992 172.304 317.826V321.34ZM182.662 321.34H181.668V316.412H180.408V315.572H181.668V314.578C181.668 312.212 184.02 311.526 185.602 312.24L185.378 313.094C184.174 312.534 182.662 313.038 182.662 314.592V315.572H185.028V316.412H182.676L182.662 321.34ZM189.855 321.48C187.755 321.48 186.061 319.912 186.047 317.826C186.047 315.558 187.713 314.102 189.855 314.102C192.039 314.102 193.705 315.558 193.705 317.826C193.691 319.912 192.053 321.48 189.855 321.48ZM189.841 320.626C191.339 320.626 192.711 319.52 192.711 317.826C192.711 316.076 191.423 314.942 189.855 314.942C188.357 314.942 187.041 316.006 187.041 317.826C187.041 319.436 188.371 320.626 189.841 320.626ZM196.168 321.34H195.132V314.242H196.126V316.314C196.532 314.956 198.086 314.088 199.472 314.34L199.01 315.18C197.75 314.998 196.168 316.062 196.168 317.84V321.34ZM201.93 321.34H200.908V314.242H201.902V316.048C202.154 314.998 203.232 314.116 204.366 314.102C205.696 314.088 206.718 314.816 207.068 316.118C207.418 314.9 208.482 314.088 209.714 314.102C211.52 314.116 212.682 315.334 212.682 317.462V321.34H211.674V317.476C211.674 315.908 210.848 314.942 209.462 314.942C208.174 314.956 207.32 315.964 207.32 317.49V321.34H206.34V317.476C206.34 315.894 205.486 314.914 204.128 314.942C202.84 314.97 201.958 316.174 201.958 317.448L201.93 321.34ZM217.734 321.48C215.676 321.494 214.108 319.884 214.108 317.826C214.108 315.502 215.662 314.088 217.692 314.102C219.078 314.102 220.324 314.886 220.814 316.048V314.242H221.822V321.34H220.828V319.492C220.352 320.654 219.092 321.48 217.734 321.48ZM217.93 320.626C219.414 320.612 220.786 319.464 220.786 317.826C220.786 316.02 219.4 314.956 217.93 314.942C216.446 314.942 215.102 315.908 215.102 317.826C215.102 319.478 216.46 320.626 217.93 320.626ZM228.147 320.262L228.371 321.116C226.789 321.83 224.465 321.144 224.465 318.778V315.082H223.247V314.2C224.647 314.2 224.465 313.36 224.465 312.1H225.459L225.473 314.2H227.825V315.082H225.459V318.694C225.459 320.248 226.943 320.822 228.147 320.262ZM230.446 313.122C230.11 313.122 229.802 312.898 229.802 312.59C229.802 312.268 230.11 312.058 230.446 312.058C230.782 312.058 231.076 312.268 231.076 312.59C231.076 312.898 230.782 313.122 230.446 313.122ZM230.936 321.34H229.942V314.242H230.936V321.34ZM236.31 321.48C234.21 321.48 232.516 319.912 232.502 317.826C232.502 315.558 234.168 314.102 236.31 314.102C238.494 314.102 240.16 315.558 240.16 317.826C240.146 319.912 238.508 321.48 236.31 321.48ZM236.296 320.626C237.794 320.626 239.166 319.52 239.166 317.826C239.166 316.076 237.878 314.942 236.31 314.942C234.812 314.942 233.496 316.006 233.496 317.826C233.496 319.436 234.826 320.626 236.296 320.626ZM242.623 321.34H241.587V314.242H242.595V316.048C243.085 314.886 244.331 314.102 245.717 314.102C247.747 314.088 249.301 315.502 249.301 317.826V321.34H248.293L248.307 317.826C248.321 315.908 246.963 314.942 245.479 314.942C244.009 314.956 242.623 315.992 242.623 317.826V321.34ZM251.37 322.544L250.726 322.096C251.174 321.466 251.342 320.962 251.258 320.024H252.224C252.224 321.158 252.056 321.718 251.37 322.544ZM258.475 321.34H257.439V314.242H258.433V316.314C258.839 314.956 260.393 314.088 261.779 314.34L261.317 315.18C260.057 314.998 258.475 316.062 258.475 317.84V321.34ZM265.585 321.48C263.625 321.48 261.889 319.94 261.889 317.812C261.889 315.46 263.625 314.102 265.585 314.102C267.475 314.102 269.099 315.334 269.267 317.63V318.064L262.841 318.078C262.953 319.59 264.311 320.626 265.585 320.64C266.537 320.64 267.531 320.178 268.035 319.268L268.805 319.674C268.175 320.822 266.943 321.48 265.585 321.48ZM262.911 317.434H268.315C268.161 315.866 266.887 314.928 265.585 314.928C264.297 314.928 263.037 315.866 262.911 317.434ZM274.326 321.48C272.268 321.494 270.7 319.884 270.7 317.826C270.7 315.502 272.254 314.088 274.284 314.102C275.67 314.102 276.916 314.886 277.406 316.048V314.242H278.414V321.34H277.42V319.492C276.944 320.654 275.684 321.48 274.326 321.48ZM274.522 320.626C276.006 320.612 277.378 319.464 277.378 317.826C277.378 316.02 275.992 314.956 274.522 314.942C273.038 314.942 271.694 315.908 271.694 317.826C271.694 319.478 273.052 320.626 274.522 320.626ZM283.465 321.48C281.407 321.494 279.839 319.884 279.839 317.826C279.839 315.502 281.393 314.088 283.423 314.102C284.809 314.102 286.055 314.886 286.545 316.048V312.1H287.553V321.34H286.559V319.492C286.083 320.654 284.823 321.48 283.465 321.48ZM283.661 320.626C285.145 320.612 286.517 319.464 286.517 317.826C286.517 315.992 285.131 314.956 283.661 314.942C282.177 314.942 280.833 315.908 280.833 317.826C280.833 319.478 282.191 320.626 283.661 320.626ZM293.403 313.122C293.067 313.122 292.759 312.898 292.759 312.59C292.759 312.268 293.067 312.058 293.403 312.058C293.739 312.058 294.033 312.268 294.033 312.59C294.033 312.898 293.739 313.122 293.403 313.122ZM293.893 321.34H292.899V314.242H293.893V321.34ZM300.359 320.262L300.583 321.116C299.001 321.83 296.677 321.144 296.677 318.778V315.082H295.459V314.2C296.859 314.2 296.677 313.36 296.677 312.1H297.671L297.685 314.2H300.037V315.082H297.671V318.694C297.671 320.248 299.155 320.822 300.359 320.262ZM309.42 321.48C307.362 321.494 305.794 319.884 305.794 317.826C305.794 315.502 307.348 314.088 309.378 314.102C310.764 314.102 312.01 314.886 312.5 316.048V314.242H313.508V321.34H312.514V319.492C312.038 320.654 310.778 321.48 309.42 321.48ZM309.616 320.626C311.1 320.612 312.472 319.464 312.472 317.826C312.472 316.02 311.086 314.956 309.616 314.942C308.132 314.942 306.788 315.908 306.788 317.826C306.788 319.478 308.146 320.626 309.616 320.626ZM315.969 321.34H314.933V314.242H315.941V316.048C316.431 314.886 317.677 314.102 319.063 314.102C321.093 314.088 322.647 315.502 322.647 317.826V321.34H321.639L321.653 317.826C321.667 315.908 320.309 314.942 318.825 314.942C317.355 314.956 315.969 315.992 315.969 317.826V321.34ZM327.699 321.48C325.641 321.494 324.073 319.884 324.073 317.826C324.073 315.502 325.627 314.088 327.657 314.102C329.043 314.102 330.289 314.886 330.779 316.048V312.1H331.787V321.34H330.793V319.492C330.317 320.654 329.057 321.48 327.699 321.48ZM327.895 320.626C329.379 320.612 330.751 319.464 330.751 317.826C330.751 315.992 329.365 314.956 327.895 314.942C326.411 314.942 325.067 315.908 325.067 317.826C325.067 319.478 326.425 320.626 327.895 320.626ZM73.3474 340.18L73.9354 339.62C74.3274 340.152 75.4194 340.292 75.8814 339.354L76.3014 338.444L73.5434 332.242H74.5374L76.8054 337.618L79.3394 332.242H80.3334L76.6654 339.606C75.8674 341.216 74.2154 341.09 73.3474 340.18ZM84.4491 339.48C82.3491 339.48 80.6551 337.912 80.6411 335.826C80.6411 333.558 82.3071 332.102 84.4491 332.102C86.6331 332.102 88.2991 333.558 88.2991 335.826C88.2851 337.912 86.6471 339.48 84.4491 339.48ZM84.4351 338.626C85.9331 338.626 87.3051 337.52 87.3051 335.826C87.3051 334.076 86.0171 332.942 84.4491 332.942C82.9511 332.942 81.6351 334.006 81.6351 335.826C81.6351 337.436 82.9651 338.626 84.4351 338.626ZM92.8338 339.48C90.9298 339.494 89.7258 338.248 89.7258 336.12V332.242H90.7338V336.106C90.7338 337.688 91.5878 338.64 93.0578 338.626C94.5978 338.626 95.4658 337.366 95.4658 335.686V332.242H96.5018V339.34H95.5078V337.408C95.1578 338.78 93.9818 339.48 92.8338 339.48ZM104.935 339.34H104.011L101.715 332.242H102.723L104.585 338.038L106.601 332.242H107.525L109.555 338.038L111.571 332.242H112.565L110.143 339.34H109.205L107.063 333.544L104.935 339.34ZM114.643 331.122C114.307 331.122 113.999 330.898 113.999 330.59C113.999 330.268 114.307 330.058 114.643 330.058C114.979 330.058 115.273 330.268 115.273 330.59C115.273 330.898 114.979 331.122 114.643 331.122ZM115.133 339.34H114.139V332.242H115.133V339.34ZM117.707 339.34H116.699V330.1H117.707V339.34ZM120.147 339.34H119.139V330.1H120.147V339.34ZM128.468 339.48C126.564 339.494 125.36 338.248 125.36 336.12V332.242H126.368V336.106C126.368 337.688 127.222 338.64 128.692 338.626C130.232 338.626 131.1 337.366 131.1 335.686V332.242H132.136V339.34H131.142V337.408C130.792 338.78 129.616 339.48 128.468 339.48ZM134.605 339.34H133.569V332.242H134.577V334.048C135.067 332.886 136.313 332.102 137.699 332.102C139.729 332.088 141.283 333.502 141.283 335.826V339.34H140.275L140.289 335.826C140.303 333.908 138.945 332.942 137.461 332.942C135.991 332.956 134.605 333.992 134.605 335.826V339.34ZM146.335 339.48C144.277 339.494 142.709 337.884 142.709 335.826C142.709 333.502 144.263 332.088 146.293 332.102C147.679 332.102 148.925 332.886 149.415 334.048V330.1H150.423V339.34H149.429V337.492C148.953 338.654 147.693 339.48 146.335 339.48ZM146.531 338.626C148.015 338.612 149.387 337.464 149.387 335.826C149.387 333.992 148.001 332.956 146.531 332.942C145.047 332.942 143.703 333.908 143.703 335.826C143.703 337.478 145.061 338.626 146.531 338.626ZM155.544 339.48C153.584 339.48 151.848 337.94 151.848 335.812C151.848 333.46 153.584 332.102 155.544 332.102C157.434 332.102 159.058 333.334 159.226 335.63V336.064L152.8 336.078C152.912 337.59 154.27 338.626 155.544 338.64C156.496 338.64 157.49 338.178 157.994 337.268L158.764 337.674C158.134 338.822 156.902 339.48 155.544 339.48ZM152.87 335.434H158.274C158.12 333.866 156.846 332.928 155.544 332.928C154.256 332.928 152.996 333.866 152.87 335.434ZM161.695 339.34H160.659V332.242H161.653V334.314C162.059 332.956 163.613 332.088 164.999 332.34L164.537 333.18C163.277 332.998 161.695 334.062 161.695 335.84V339.34ZM168.937 339.48C167.243 339.438 166.067 338.542 166.039 337.044H166.977C167.061 338.276 167.929 338.654 168.937 338.71C169.791 338.752 170.659 338.276 170.687 337.506C170.715 336.666 170.155 336.372 168.839 336.162C167.159 335.896 166.095 335.49 166.067 334.16C166.039 332.914 167.117 332.102 168.699 332.102C170.421 332.102 171.527 332.914 171.653 334.454H170.729C170.631 333.502 169.903 332.886 168.727 332.872C167.733 332.858 167.033 333.432 167.033 334.188C167.047 334.958 167.607 335.28 168.923 335.504C170.827 335.84 171.667 336.232 171.653 337.548C171.625 338.794 170.505 339.522 168.937 339.48ZM177.59 338.262L177.814 339.116C176.232 339.83 173.908 339.144 173.908 336.778V333.082H172.69V332.2C174.09 332.2 173.908 331.36 173.908 330.1H174.902L174.916 332.2H177.268V333.082H174.902V336.694C174.902 338.248 176.386 338.822 177.59 338.262ZM182.065 339.48C180.007 339.494 178.439 337.884 178.439 335.826C178.439 333.502 179.993 332.088 182.023 332.102C183.409 332.102 184.655 332.886 185.145 334.048V332.242H186.153V339.34H185.159V337.492C184.683 338.654 183.423 339.48 182.065 339.48ZM182.261 338.626C183.745 338.612 185.117 337.464 185.117 335.826C185.117 334.02 183.731 332.956 182.261 332.942C180.777 332.942 179.433 333.908 179.433 335.826C179.433 337.478 180.791 338.626 182.261 338.626ZM188.614 339.34H187.578V332.242H188.586V334.048C189.076 332.886 190.322 332.102 191.708 332.102C193.738 332.088 195.292 333.502 195.292 335.826V339.34H194.284L194.298 335.826C194.312 333.908 192.954 332.942 191.47 332.942C190 332.956 188.614 333.992 188.614 335.826V339.34ZM200.344 339.48C198.286 339.494 196.718 337.884 196.718 335.826C196.718 333.502 198.272 332.088 200.302 332.102C201.688 332.102 202.934 332.886 203.424 334.048V330.1H204.432V339.34H203.438V337.492C202.962 338.654 201.702 339.48 200.344 339.48ZM200.54 338.626C202.024 338.612 203.396 337.464 203.396 335.826C203.396 333.992 202.01 332.956 200.54 332.942C199.056 332.942 197.712 333.908 197.712 335.826C197.712 337.478 199.07 338.626 200.54 338.626Z" fill="#68696E"/>
</g>
<defs>
<filter id="filter0_d_594_7479" x="0.523048" y="0.900002" width="424.2" height="423.2" filterUnits="userSpaceOnUse" color-interpolation-filters="sRGB">
<feFlood flood-opacity="0" result="BackgroundImageFix"/>
<feColorMatrix in="SourceAlpha" type="matrix" values="0 0 0 0 0 0 0 0 0 0 0 0 0 0 0 0 0 0 127 0" result="hardAlpha"/>
<feOffset dy="4"/>
<feGaussianBlur stdDeviation="28.05"/>
<feComposite in2="hardAlpha" operator="out"/>
<feColorMatrix type="matrix" values="0 0 0 0 0.551229 0 0 0 0 0.586279 0 0 0 0 0.710547 0 0 0 0.24 0"/>
<feBlend mode="normal" in2="BackgroundImageFix" result="effect1_dropShadow_594_7479"/>
<feBlend mode="normal" in="SourceGraphic" in2="effect1_dropShadow_594_7479" result="shape"/>
</filter>
<clipPath id="clip0_594_7479">
<rect x="65" y="61" width="295" height="189" rx="10" fill="white"/>
</clipPath>
<clipPath id="clip1_594_7479">
<rect x="150.211" y="147.004" width="40.7345" height="40.7345" rx="20.3673" fill="white"/>
</clipPath>
</defs>
</svg>
