<svg width="21" height="20" viewBox="0 0 21 20" fill="none" xmlns="http://www.w3.org/2000/svg">
<g id="Other-Pay-Method">
<g id="Group 3019">
<path id="Vector" d="M20.3723 10.2281C20.3732 9.54663 20.3152 8.8664 20.1989 8.19482H10.7031V12.046H16.1419C16.0306 12.6611 15.795 13.2475 15.4494 13.7697C15.1038 14.292 14.6552 14.7393 14.1308 15.0848V17.5846H17.3767C19.2773 15.8444 20.3723 13.271 20.3723 10.2281Z" fill="#4285F4"/>
<path id="Vector_2" d="M10.6997 20C13.4169 20 15.7049 19.1139 17.3733 17.5862L14.1274 15.0864C13.2239 15.6947 12.0604 16.0419 10.6997 16.0419C8.07328 16.0419 5.84408 14.2836 5.04693 11.9143H1.70312V14.4906C2.5412 16.1467 3.82629 17.5389 5.41494 18.5118C7.00358 19.4847 8.83324 19.9999 10.6997 20Z" fill="#34A853"/>
<path id="Vector_3" d="M5.04881 11.914C4.62739 10.6724 4.62739 9.32793 5.04881 8.08639V5.51013H1.705C0.999985 6.90333 0.632812 8.44096 0.632812 10.0002C0.632812 11.5594 0.999985 13.097 1.705 14.4902L5.04881 11.914Z" fill="#FBBC04"/>
<path id="Vector_4" d="M10.6997 3.95879C12.1356 3.93549 13.5231 4.47429 14.5623 5.45872L17.4362 2.60469C15.6139 0.904883 13.1996 -0.0283412 10.6997 0.000656061C8.83324 0.000740536 7.00358 0.515984 5.41494 1.48886C3.82629 2.46174 2.5412 3.85397 1.70312 5.5101L5.04693 8.08636C5.84408 5.71704 8.07328 3.95879 10.6997 3.95879Z" fill="#EA4335"/>
</g>
</g>
</svg>
