<svg width="205" height="201" viewBox="0 0 205 201" fill="none" xmlns="http://www.w3.org/2000/svg">
<path d="M186.717 99.3849C186.406 106.472 183.166 113.112 177.771 117.718L107.777 177.486C102.383 182.092 95.3174 184.252 88.269 183.45L73.7035 181.791C67.267 181.058 61.3481 177.911 57.1414 172.985L23.4012 133.471C19.1945 128.545 17.0132 122.206 17.2976 115.734L17.9252 101.454C18.2366 94.3672 21.4766 87.7276 26.8713 83.121L105.583 15.9091C105.659 15.8442 105.759 15.8137 105.858 15.825L131.143 18.704C137.58 19.4369 143.499 22.5841 147.706 27.5106L187.708 74.3574C187.775 74.4354 187.809 74.5357 187.805 74.6381L186.717 99.3849Z" fill="#3F9672"/>
<path d="M68.3249 123.411L65.2804 126.011L56.105 115.266L59.2798 112.555L66.6769 115.613L64.8803 107.773L68.0388 105.076L77.2142 115.821L74.1697 118.42L69.9574 113.487L72.1672 120.13L70.246 121.771L64.1821 118.56L68.3249 123.411ZM82.2941 111.765C79.9938 113.785 76.7066 113.298 74.6769 110.921C72.3136 108.154 72.6118 105.14 74.8049 103.324C76.0073 102.325 77.9195 101.762 79.4105 102.882L77.8256 101.026L80.8701 98.4261L87.9185 106.68L84.8903 109.266L83.2915 107.394C84.0388 108.895 83.4687 110.733 82.2941 111.765ZM80.9998 108.534C81.9628 107.684 82.1302 106.331 81.2404 105.289C80.2673 104.149 78.9345 104.105 77.9112 104.95C76.8414 105.807 76.7344 107.166 77.7075 108.305C78.625 109.38 80.0019 109.443 80.9998 108.534ZM93.7512 101.981C91.2277 104.136 87.6396 104.385 85.3688 101.792C83.0864 99.1517 83.771 95.6675 86.4248 93.4014C88.4761 91.6498 91.0197 91.1669 93.0659 92.1785L91.0811 95.5906C90.2785 95.1781 89.3031 95.2227 88.5379 95.8761C87.4959 96.7658 87.5513 98.1824 88.3994 99.1756C89.2474 100.169 90.5961 100.396 91.6218 99.5206C92.4195 98.8394 92.6164 97.8831 92.3184 97.0396L96.0271 95.6463C96.6779 97.7932 95.8839 100.16 93.7512 101.981ZM102.168 94.5125L98.9936 97.2234L89.8182 86.4781L92.8627 83.8784L96.5745 88.2254C95.7185 86.5635 96.5578 84.777 97.7486 83.732C99.8699 81.8644 102.893 82.0419 105.256 84.8096L108.746 88.896L105.701 91.4957L102.198 87.393C101.225 86.2533 99.8665 86.1463 98.8524 87.0686C97.8569 87.9468 97.6918 89.2701 98.665 90.4097L102.168 94.5125ZM103.852 78.0977C103.055 78.7789 101.914 78.9927 101.33 78.3089C100.732 77.6089 101.136 76.5322 101.934 75.851C102.715 75.1837 103.842 74.9536 104.44 75.6536C105.024 76.3374 104.634 77.4304 103.852 78.0977ZM112.762 85.4661L109.718 88.0658L102.67 79.8115L105.714 77.2118L112.762 85.4661ZM116.906 81.9278L113.731 84.6388L106.683 76.3844L109.728 73.7847L111.312 75.6407C110.456 73.9788 111.296 72.1924 112.486 71.1474C114.608 69.2797 117.631 69.4572 119.994 72.2249L123.484 76.3114L120.439 78.9111L116.936 74.8084C115.963 73.6687 114.604 73.5617 113.59 74.484C112.595 75.3622 112.43 76.6855 113.403 77.8251L116.906 81.9278ZM129.105 71.7931C126.793 73.7672 123.228 74.1089 120.92 71.4063C118.418 68.4757 119.466 65.1873 121.778 63.2132C124.106 61.2252 127.102 61.1727 129.395 63.2971C129.721 63.581 130.083 64.0043 130.326 64.3879L124.286 69.5456C125.135 70.144 126.21 69.9858 127.005 69.3347C127.736 68.7393 128.083 67.9923 127.989 67.256L131.193 66.491C131.5 68.3679 130.765 70.3751 129.105 71.7931ZM123.154 67.7253L126.117 65.1951C125.414 64.8664 124.489 65.0365 123.836 65.6227C123.233 66.1371 122.923 66.9934 123.154 67.7253ZM87.3938 140.003L79.7419 146.537L70.5665 135.791L73.611 133.192L80.5481 141.316L85.1556 137.381L87.3938 140.003ZM92.8574 135.619C90.5455 137.593 86.9805 137.935 84.6727 135.232C82.1703 132.301 83.2191 129.013 85.531 127.039C87.8591 125.051 90.8547 124.998 93.1473 127.123C93.4742 127.407 93.8356 127.83 94.0787 128.214L88.0386 133.371C88.8874 133.97 89.9628 133.811 90.7582 133.16C91.4884 132.565 91.8358 131.818 91.742 131.082L94.9456 130.317C95.2532 132.194 94.518 134.201 92.8574 135.619ZM86.9065 131.551L89.8696 129.021C89.1666 128.692 88.2421 128.862 87.5885 129.448C86.9861 129.963 86.6757 130.819 86.9065 131.551ZM102.185 127.654C99.8845 129.675 96.5973 129.188 94.5676 126.811C92.2043 124.043 92.5025 121.03 94.6956 119.213C95.898 118.215 97.8102 117.652 99.3012 118.771L97.7163 116.915L100.761 114.316L107.809 122.57L104.781 125.156L103.182 123.283C103.929 124.785 103.359 126.623 102.185 127.654ZM100.89 124.424C101.853 123.574 102.021 122.22 101.131 121.178C100.158 120.038 98.8252 119.994 97.8019 120.84C96.7321 121.697 96.6251 123.055 97.5982 124.195C98.5157 125.269 99.8926 125.332 100.89 124.424ZM111.956 119.029L108.749 121.768L101.701 113.513L104.761 110.9L106.388 112.805C105.201 110.524 106.996 107.781 109.667 107.414L110.122 111.277C108.444 110.992 107.104 113.347 108.425 114.894L111.956 119.029ZM120.485 111.746L117.31 114.457L110.262 106.203L113.306 103.603L114.891 105.459C114.035 103.797 114.874 102.011 116.065 100.966C118.187 99.098 121.21 99.2755 123.573 102.043L127.062 106.13L124.018 108.729L120.515 104.627C119.541 103.487 118.183 103.38 117.169 104.302C116.174 105.18 116.009 106.504 116.982 107.643L120.485 111.746ZM122.169 95.3313C121.371 96.0125 120.231 96.2264 119.647 95.5426C119.049 94.8425 119.453 93.7658 120.251 93.0846C121.032 92.4173 122.159 92.1872 122.757 92.8873C123.34 93.5711 122.951 94.664 122.169 95.3313ZM131.079 102.7L128.035 105.299L120.986 97.0451L124.031 94.4455L131.079 102.7ZM135.223 99.1615L132.048 101.872L125 93.6181L128.044 91.0184L129.629 92.8744C128.773 91.2125 129.612 89.426 130.803 88.381C132.924 86.5134 135.947 86.6909 138.311 89.4586L141.8 93.545L138.756 96.1447L135.252 92.042C134.279 90.9023 132.921 90.7953 131.907 91.7176C130.911 92.5958 130.746 93.9191 131.72 95.0587L135.223 99.1615ZM150.521 93.7276C147.802 96.0493 145.187 96.2835 143.516 94.36C142.71 93.4158 142.503 92.1847 142.698 91.0611C142.401 90.977 142.067 90.7836 141.777 90.4116C141.474 90.0232 141.461 89.6122 141.457 89.0804C140.466 88.9415 139.487 88.4544 138.792 87.6403C136.998 85.5401 137.303 82.8308 139.794 80.7038C140.38 80.2033 140.922 79.8816 141.349 79.6571L144.573 76.9045L146.436 79.0861L145.312 80.0454C145.76 80.1414 146.22 80.4813 146.567 80.8883C148.333 82.956 147.989 85.5863 145.612 87.616C145.449 87.755 144.77 88.2785 144.519 88.3802C144.412 88.5844 144.428 88.7678 144.492 88.9096C144.629 89.1026 144.831 89.0426 145.336 88.6116L147.062 87.138C148.804 85.6505 151.088 84.6005 152.712 86.5356C154.589 88.7334 153.484 91.1974 150.521 93.7276ZM143.513 85.1576C144.261 84.5181 144.316 83.8239 143.816 83.2378C143.301 82.6354 142.607 82.5807 141.858 83.2202C140.963 83.9848 140.989 84.6095 141.504 85.2119C141.963 85.7491 142.617 85.9222 143.513 85.1576ZM148.397 91.7684C150.14 90.2809 150.601 89.6339 150.086 89.0315C149.641 88.5105 148.998 88.5813 148.249 89.2208L146.898 90.3747C146.116 91.042 145.878 91.5547 146.437 92.1758C146.937 92.7619 147.469 92.5609 148.397 91.7684Z" fill="#F8DCD8"/>
</svg>
