<svg width="81" height="26" viewBox="0 0 81 26" fill="none" xmlns="http://www.w3.org/2000/svg">
<path id="Union" fill-rule="evenodd" clip-rule="evenodd" d="M58.0711 43.5907C54.9569 42.5625 51.4722 42.3985 48.3515 43.4068C46.2252 44.0938 43.9569 44.465 41.6019 44.465C39.0458 44.465 36.5919 44.0277 34.3107 43.2239C30.8347 41.9991 26.8352 42.2066 23.3655 43.4496C21.5306 44.1069 19.5533 44.465 17.4923 44.465C7.87578 44.465 0.0800781 36.6693 0.0800781 27.0528C0.0800781 17.4363 7.87578 9.64057 17.4923 9.64057C20.9062 9.64057 24.4254 8.47388 26.9675 6.19515C30.8493 2.71547 35.9785 0.599121 41.6019 0.599121C47.6829 0.599121 53.1858 3.07379 57.1586 7.07098C58.8238 8.74645 61.1719 9.64057 63.5342 9.64057C73.1507 9.64057 80.9464 17.4363 80.9464 27.0528C80.9464 36.6693 73.1507 44.465 63.5342 44.465C61.6259 44.465 59.7893 44.158 58.0711 43.5907Z" fill="#5EB1AB"/>
</svg>
