<svg width="84" height="84" viewBox="0 0 84 84" fill="none" xmlns="http://www.w3.org/2000/svg">
<g id="Group 295">
<g id="Group 275">
<path id="Figure 28" d="M38.0272 3.66047C40.0226 1.84203 43.0744 1.84203 45.0697 3.66047C46.5894 5.04542 48.7798 5.41093 50.6668 4.59446C53.1445 3.52244 56.0309 4.51335 57.3277 6.88115C58.3153 8.6845 60.2684 9.74143 62.3183 9.58191C65.0098 9.37247 67.4181 11.2469 67.8758 13.9075C68.2243 15.9338 69.7284 17.5676 71.719 18.0824C74.3327 18.7582 76.0019 21.3131 75.5709 23.9781C75.2426 26.0078 76.1347 28.0414 77.8503 29.1746C80.1029 30.6625 80.8521 33.6209 79.5791 36.0016C78.6096 37.8148 78.793 40.0279 80.0477 41.6567C81.6952 43.7954 81.4431 46.8368 79.4661 48.6751C77.9604 50.0753 77.4153 52.228 78.0731 54.176C78.9369 56.7337 77.711 59.5285 75.2442 60.6253C73.3655 61.4607 72.1509 63.3197 72.1405 65.3758C72.127 68.0754 70.0601 70.3207 67.3708 70.5571C65.3226 70.7372 63.5702 72.1012 62.8928 74.0425C62.0035 76.5914 59.3195 78.0439 56.6992 77.3943C54.7035 76.8996 52.6031 77.6206 51.3321 79.2368C49.6633 81.3589 46.6531 81.8612 44.3857 80.396C42.6588 79.28 40.4381 79.28 38.7112 80.396C36.4438 81.8612 33.4336 81.3589 31.7648 79.2368C30.4938 77.6206 28.3934 76.8996 26.3978 77.3943C23.7774 78.0439 21.0935 76.5914 20.2041 74.0425C19.5267 72.1012 17.7743 70.7372 15.7261 70.5571C13.0368 70.3207 10.9699 68.0754 10.9564 65.3758C10.9461 63.3197 9.73147 61.4607 7.85272 60.6253C5.38593 59.5285 4.16003 56.7337 5.02379 54.176C5.68165 52.228 5.1365 50.0753 3.63078 48.6751C1.65379 46.8368 1.40177 43.7954 3.04922 41.6567C4.30395 40.0279 4.48733 37.8148 3.51782 36.0016C2.24485 33.6209 2.99402 30.6625 5.24664 29.1746C6.96227 28.0414 7.85431 26.0078 7.52606 23.9781C7.09508 21.3131 8.76425 18.7582 11.3779 18.0824C13.3686 17.5676 14.8726 15.9338 15.2212 13.9075C15.6789 11.2469 18.0872 9.37247 20.7787 9.58191C22.8286 9.74143 24.7816 8.6845 25.7692 6.88115C27.066 4.51335 29.9525 3.52244 32.4301 4.59446C34.3172 5.41093 36.5076 5.04542 38.0272 3.66047Z" fill="#8D83FF"/>
<path id="Figure 29" d="M35.6822 25.7947C31.7366 26.669 29.1713 30.4223 29.6974 34.3633C29.7463 34.7303 30.1075 34.9588 30.469 34.8787L37.3569 33.3524C41.5224 32.4294 44.1495 28.2975 43.2246 24.1235C42.2998 19.9495 38.1732 17.3141 34.0076 18.2371L27.1197 19.7633C26.7582 19.8434 26.5274 20.203 26.638 20.5563C27.826 24.3507 31.7366 26.669 35.6822 25.7947Z" fill="#C1D5FF"/>
<circle id="Ellipse 1349" cx="64.2331" cy="35.0334" r="3.35221" fill="#5AC7BF"/>
<circle id="Ellipse 1350" cx="55.0146" cy="21.5356" r="4.74902" fill="white"/>
<path id="Figure 30" d="M40.2251 59.6522C40.0731 59.4739 39.8054 59.4526 39.6271 59.6045C37.9016 61.0752 36.4362 61.9411 35.2307 62.2023C34.026 62.4643 33.1688 62.291 32.654 61.687C32.0956 61.0319 32.0599 60.1307 32.5426 58.9729C33.0253 57.8152 34.0937 56.5338 35.7453 55.126C35.9442 54.9565 35.968 54.6577 35.7984 54.4588L30.5862 48.3437C30.399 48.1241 30.0693 48.0978 29.8497 48.285C26.2922 51.3173 24.3132 54.4812 23.9128 57.7767C23.5124 61.0721 24.4445 64.043 26.7092 66.6891C28.641 68.9957 31.3786 70.4781 34.3578 70.8308C36.1631 71.0136 37.9831 70.7541 39.6606 70.0748C41.8024 69.2322 43.7777 68.0192 45.4967 66.4909C45.675 66.3389 45.6963 66.0711 45.5444 65.8928L40.2251 59.6522Z" fill="#FFE17B"/>
<g id="Figure 31">
<path d="M12.2929 39.9582C12.2809 39.7727 12.3465 39.5906 12.474 39.4553L19.1954 32.321C19.3229 32.1857 19.5008 32.1094 19.6867 32.1103L22.3898 32.1236C22.5596 32.1245 22.7227 32.1897 22.8462 32.3061L27.2317 36.4377C27.3552 36.5541 27.43 36.713 27.4409 36.8824L27.6131 39.5468C27.6251 39.7323 27.5595 39.9145 27.432 40.0497L20.4894 47.4188C20.4832 47.4255 20.4745 47.4292 20.4654 47.4291L17.5011 47.4145C17.3313 47.4137 17.1682 47.3485 17.0447 47.2321L12.4959 42.9465C12.4891 42.9402 12.485 42.9314 12.4844 42.9221L12.2929 39.9582Z" fill="#FF806E"/>
<path d="M12.2929 39.9582C12.2809 39.7727 12.3465 39.5906 12.474 39.4553L19.1954 32.321C19.3229 32.1857 19.5008 32.1094 19.6867 32.1103L22.3898 32.1236C22.5596 32.1245 22.7227 32.1897 22.8462 32.3061L27.2317 36.4377C27.3552 36.5541 27.43 36.713 27.4409 36.8824L27.6131 39.5468C27.6251 39.7323 27.5595 39.9145 27.432 40.0497L20.4894 47.4188C20.4832 47.4255 20.4745 47.4292 20.4654 47.4291L17.5011 47.4145C17.3313 47.4137 17.1682 47.3485 17.0447 47.2321L12.4959 42.9465C12.4891 42.9402 12.485 42.9314 12.4844 42.9221L12.2929 39.9582Z" stroke="#19154A"/>
</g>
</g>
<g id="Mask group">
<mask id="mask0_325_4483" style="mask-type:alpha" maskUnits="userSpaceOnUse" x="1" y="2" width="81" height="80">
<g id="Group 286">
<path id="Figure 28_2" d="M38.0272 3.66041C40.0226 1.84197 43.0744 1.84197 45.0697 3.66041C46.5894 5.04536 48.7798 5.41087 50.6668 4.5944C53.1445 3.52238 56.0309 4.51329 57.3277 6.88109C58.3153 8.68444 60.2684 9.74137 62.3183 9.58185C65.0098 9.37241 67.4181 11.2469 67.8758 13.9074C68.2243 15.9338 69.7284 17.5676 71.719 18.0823C74.3327 18.7581 76.0019 21.313 75.5709 23.978C75.2426 26.0077 76.1347 28.0414 77.8503 29.1746C80.1029 30.6624 80.8521 33.6209 79.5791 36.0015C78.6096 37.8147 78.793 40.0278 80.0477 41.6567C81.6952 43.7953 81.4431 46.8367 79.4661 48.6751C77.9604 50.0752 77.4153 52.2279 78.0731 54.1759C78.9369 56.7337 77.711 59.5284 75.2442 60.6252C73.3655 61.4606 72.1509 63.3197 72.1405 65.3757C72.127 68.0753 70.0601 70.3206 67.3708 70.5571C65.3226 70.7371 63.5702 72.1011 62.8928 74.0424C62.0035 76.5913 59.3195 78.0438 56.6992 77.3942C54.7035 76.8995 52.6031 77.6206 51.3321 79.2368C49.6633 81.3588 46.6531 81.8611 44.3857 80.3959C42.6588 79.28 40.4381 79.28 38.7112 80.3959C36.4438 81.8611 33.4336 81.3588 31.7648 79.2368C30.4938 77.6206 28.3934 76.8995 26.3978 77.3942C23.7774 78.0438 21.0935 76.5913 20.2041 74.0424C19.5267 72.1011 17.7743 70.7371 15.7261 70.5571C13.0368 70.3206 10.9699 68.0753 10.9564 65.3757C10.9461 63.3197 9.73147 61.4606 7.85272 60.6252C5.38593 59.5284 4.16003 56.7337 5.02379 54.1759C5.68165 52.2279 5.1365 50.0752 3.63078 48.6751C1.65379 46.8367 1.40177 43.7953 3.04922 41.6567C4.30395 40.0278 4.48733 37.8147 3.51782 36.0015C2.24485 33.6209 2.99402 30.6624 5.24664 29.1746C6.96227 28.0414 7.85431 26.0077 7.52606 23.978C7.09508 21.313 8.76425 18.7581 11.3779 18.0823C13.3686 17.5676 14.8726 15.9338 15.2212 13.9074C15.6789 11.2469 18.0872 9.37241 20.7787 9.58185C22.8286 9.74137 24.7816 8.68444 25.7692 6.88109C27.066 4.51329 29.9525 3.52238 32.4301 4.5944C34.3172 5.41087 36.5076 5.04536 38.0272 3.66041Z" fill="#8D83FF"/>
</g>
</mask>
<g mask="url(#mask0_325_4483)">
<g id="Group 285">
<path id="Vector 17" d="M46.5776 57.771L52.2281 59.4641C53.1958 59.754 54.0269 60.3823 54.5698 61.2342L72.6188 89.5544C73.8731 91.5225 76.489 92.0946 78.4504 90.8298L88.2238 84.5273C90.539 83.0342 90.8199 79.7566 88.7926 77.8913L65.2384 56.2203C64.2068 55.2712 63.7153 53.871 63.9274 52.4854L64.0555 51.6486C64.1923 50.7543 64.0375 49.8398 63.6138 49.0404L58.6096 39.5978C58.1223 38.6783 57.3117 37.9719 56.3342 37.6148L56.1564 37.5499C55.3451 37.2536 54.4623 37.214 53.6277 37.4365L47.4338 39.0877C45.74 39.5393 43.9436 38.8939 42.9244 37.4677L37.9113 30.4529C37.4861 29.8578 36.7366 29.5886 36.0299 29.777C34.9658 30.0607 34.4223 31.2424 34.8994 32.235L41.0238 44.9753C41.4801 45.9245 41.564 47.0103 41.259 48.0183L40.6924 49.8909C40.2093 51.4877 40.7146 53.2192 41.9809 54.3053L45.0451 56.9337C45.4918 57.3168 46.0138 57.6021 46.5776 57.771Z" fill="#FFEBB8"/>
<path id="Vector 18" d="M59.061 61.8327L56.2607 63.8975C55.8933 64.1684 55.8087 64.6828 56.07 65.0571L56.8555 66.1821C57.1365 66.5845 57.7007 66.6623 58.0801 66.3508L60.5046 64.3604C60.8041 64.1145 61.2327 64.1048 61.543 64.3368L62.1691 64.8048C62.4608 65.0229 62.8598 65.0286 63.1577 64.819L66.7352 62.3016C67.1051 62.0414 67.2033 61.5353 66.9575 61.1556L66.7504 60.8356C66.4941 60.4397 66.6129 59.9107 67.0137 59.6623L67.7788 59.1883C68.2404 58.9023 68.3146 58.2607 67.9305 57.877L66.9531 56.9005C66.6617 56.6094 66.2025 56.5719 65.8676 56.8118L65.4675 57.0985C65.1382 57.3346 64.6874 57.3025 64.3948 57.0223L64.0623 56.704C63.7775 56.4312 63.3414 56.3927 63.0132 56.6114L59.2833 59.0966C58.9245 59.3356 58.8043 59.8072 59.0048 60.1889L59.3067 60.7634C59.5002 61.1316 59.3958 61.5859 59.061 61.8327Z" fill="#363739"/>
<path id="Vector 19" d="M62.0442 63.5199L60.0697 60.6273C59.8068 60.2423 59.9069 59.717 60.2929 59.4555L63.067 57.5765C63.4696 57.3038 64.0189 57.4279 64.2652 57.8472L66.0597 60.903C66.2863 61.2889 66.1714 61.7846 65.7982 62.0315L63.2041 63.7475C62.8203 64.0014 62.3037 63.9 62.0442 63.5199Z" fill="white"/>
<g id="NOW">
<path id="Vector" d="M62.8848 59.6631L63.1561 59.4796L63.8559 60.426L63.8752 60.4128L63.2859 59.3917L63.4642 59.271L64.193 60.1978L64.2124 60.1847L63.594 59.1832L63.8653 58.9996L64.7404 60.5682L64.4362 60.7741L63.8924 60.0833L63.8749 60.0951L64.3141 60.8567L64.0098 61.0626L62.8848 59.6631Z" fill="#363739"/>
<path id="Vector_2" d="M62.3701 60.5423C62.1939 60.2818 62.245 60.0651 62.4562 59.9222C62.6713 59.7766 62.8983 59.8113 63.0716 60.0675L63.5803 60.8192C63.7551 61.0775 63.703 61.3011 63.4879 61.4466C63.2767 61.5896 63.055 61.5543 62.8788 61.2939L62.3701 60.5423ZM62.6286 60.3396L63.1644 61.1315C63.2189 61.2119 63.2777 61.2153 63.3184 61.1878C63.361 61.159 63.3778 61.1044 63.3233 61.0239L62.7875 60.2321C62.7316 60.1495 62.6776 60.149 62.6349 60.1779C62.5942 60.2054 62.5727 60.257 62.6286 60.3396Z" fill="#363739"/>
<path id="Vector_3" d="M61.7485 60.4316L62.0198 60.248L63.0227 61.7301L62.7224 61.9333L61.8796 61.0929L61.8641 61.1034L62.579 62.0304L62.3077 62.214L61.3047 60.7319L61.6031 60.5299L62.456 61.3727L62.4715 61.3622L61.7485 60.4316Z" fill="#363739"/>
</g>
</g>
</g>
</g>
</g>
</svg>
