<svg width="145" height="41" viewBox="0 0 145 41" fill="none" xmlns="http://www.w3.org/2000/svg">
<path d="M3.80891 6.2112C5.4271 6.2112 6.73891 4.89939 6.73891 3.2812C6.73891 1.663 5.4271 0.351196 3.80891 0.351196C2.19071 0.351196 0.878906 1.663 0.878906 3.2812C0.878906 4.89939 2.19071 6.2112 3.80891 6.2112Z" fill="url(#paint0_linear_312_3740)"/>
<path d="M25.4898 6.0312C24.4832 4.99225 23.2745 4.17054 21.9381 3.61674C20.6018 3.06293 19.1661 2.78878 17.7198 2.8112C16.2776 2.78695 14.8459 3.06038 13.5141 3.61442C12.1824 4.16845 10.9792 4.99118 9.97975 6.0312C8.93488 7.03585 8.10867 8.24541 7.55288 9.58413C6.99708 10.9229 6.72367 12.3619 6.74975 13.8112V25.2112C7.30656 25.2112 7.85791 25.1015 8.37233 24.8884C8.88675 24.6754 9.35416 24.3631 9.74788 23.9693C10.1416 23.5756 10.4539 23.1082 10.667 22.5938C10.8801 22.0794 10.9898 21.528 10.9898 20.9712V13.8412C10.9767 12.2281 11.5487 10.6649 12.5998 9.4412C13.2241 8.69197 14.0076 8.09138 14.8933 7.68313C15.779 7.27488 16.7446 7.06925 17.7198 7.0812C18.6044 7.07988 19.4806 7.25299 20.2983 7.59062C21.116 7.92824 21.859 8.42376 22.485 9.04883C23.111 9.6739 23.6077 10.4163 23.9465 11.2334C24.2853 12.0506 24.4598 12.9266 24.4598 13.8112V25.2112C25.0166 25.2112 25.5679 25.1015 26.0823 24.8884C26.5968 24.6754 27.0642 24.3631 27.4579 23.9693C27.8516 23.5756 28.1639 23.1082 28.377 22.5938C28.5901 22.0794 28.6998 21.528 28.6998 20.9712V13.8112C28.7225 12.3642 28.4495 10.9278 27.8975 9.58998C27.3455 8.25219 26.5262 7.04119 25.4898 6.0312Z" fill="#262626"/>
<path d="M72.9482 3.2812V14.2812C72.958 15.1677 72.7856 16.0468 72.4416 16.8639C72.0975 17.681 71.5892 18.4187 70.9482 19.0312C70.3361 19.6727 69.5985 20.1813 68.7813 20.5254C67.9641 20.8695 67.0848 21.0417 66.1982 21.0312C65.3012 21.0313 64.413 20.8548 63.5842 20.5116C62.7555 20.1684 62.0025 19.6654 61.3682 19.0312C60.7438 18.4055 60.254 17.6586 59.9289 16.8366C59.6039 16.0146 59.4505 15.1347 59.4782 14.2512V7.5212C59.4782 6.39668 59.0315 5.31822 58.2363 4.52306C57.4411 3.72791 56.3627 3.2812 55.2382 3.2812V14.2812C55.2159 15.7249 55.4922 17.1577 56.0497 18.4896C56.6073 19.8215 57.434 21.0239 58.4782 22.0212C59.4776 23.0612 60.6808 23.8839 62.0125 24.438C63.3443 24.992 64.776 25.2654 66.2182 25.2412C68.66 25.2655 71.036 24.45 72.9482 22.9312V28.9312C72.9614 29.8554 72.7915 30.773 72.4482 31.6312C72.1049 32.4894 71.5951 33.2711 70.9482 33.9312C70.3477 34.5862 69.6175 35.1093 68.8041 35.4671C67.9907 35.8249 67.1118 36.0096 66.2232 36.0096C65.3345 36.0096 64.4556 35.8249 63.6422 35.4671C62.8288 35.1093 62.0987 34.5862 61.4982 33.9312C60.808 33.2628 60.2573 32.464 59.8782 31.5812C59.5708 30.7677 59.0239 30.0665 58.3098 29.5702C57.5957 29.0738 56.7478 28.8057 55.8782 28.8012C55.6532 28.7935 55.4282 28.8137 55.2082 28.8612C55.1867 30.3506 55.4701 31.8287 56.0411 33.2044C56.612 34.5802 57.4584 35.8247 58.5282 36.8612C59.5146 37.91 60.7054 38.7459 62.027 39.3172C63.3487 39.8885 64.7733 40.1832 66.2132 40.1832C67.653 40.1832 69.0776 39.8885 70.3993 39.3172C71.721 38.7459 72.9117 37.91 73.8982 36.8612C74.9324 35.8697 75.76 34.6833 76.3333 33.3702C76.9065 32.0572 77.2141 30.6437 77.2382 29.2112V7.5212C77.2382 6.39668 76.7915 5.31822 75.9963 4.52306C75.2011 3.72791 74.1227 3.2812 72.9982 3.2812H72.9482Z" fill="#262626"/>
<path d="M94.9797 5.5212C94.1696 4.67242 93.1925 4.00056 92.11 3.54793C91.0274 3.0953 89.8629 2.8717 88.6897 2.8912C87.5161 2.88322 86.3526 3.1085 85.2668 3.55395C84.181 3.99939 83.1945 4.65613 82.3646 5.48603C81.5347 6.31592 80.8779 7.30242 80.4325 8.38825C79.987 9.47407 79.7618 10.6376 79.7697 11.8112V25.2112C80.3265 25.2112 80.8779 25.1015 81.3923 24.8884C81.9067 24.6754 82.3741 24.3631 82.7679 23.9693C83.1616 23.5756 83.4739 23.1082 83.687 22.5938C83.9001 22.0794 84.0097 21.528 84.0097 20.9712V11.9712C84.0001 11.3186 84.1217 10.6707 84.3673 10.066C84.613 9.4613 84.9777 8.91216 85.4397 8.4512C85.8648 8.02386 86.3717 7.68669 86.9302 7.45988C87.4886 7.23307 88.0871 7.12128 88.6897 7.1312C89.3055 7.12311 89.9165 7.2404 90.4856 7.47592C91.0546 7.71145 91.5698 8.06028 91.9997 8.5012C92.1539 8.65822 92.2976 8.82525 92.4297 9.0012H97.1697C96.7311 7.68152 95.9798 6.48756 94.9797 5.5212Z" fill="#262626"/>
<path d="M53.3982 11.4912C52.9173 9.48592 51.877 7.65839 50.3982 6.22119C49.2151 5.01443 47.7716 4.0943 46.1782 3.53119L45.6482 3.35119C44.566 3.03905 43.4445 2.88413 42.3182 2.89119C40.8124 2.86497 39.3171 3.14683 37.9242 3.71948C36.5313 4.29212 35.2701 5.14345 34.2182 6.22119C33.1412 7.26585 32.2893 8.51979 31.7149 9.9059C31.1405 11.292 30.8558 12.781 30.8782 14.2812C30.8782 14.4412 30.8782 14.6112 30.8782 14.7812C30.8782 14.9512 30.8782 15.1112 30.8782 15.2812C31.0443 17.7603 32.0616 20.1059 33.7582 21.9212L34.1682 22.3512C36.3184 24.4842 39.2244 25.6812 42.2532 25.6812C45.2819 25.6812 48.188 24.4842 50.3382 22.3512C50.4782 22.2112 50.6182 22.0612 50.7382 21.9212C51.4981 21.1036 52.1256 20.1724 52.5982 19.1612H48.9782C48.1175 19.1741 47.2849 19.4692 46.6082 20.0012C45.6936 20.7369 44.5927 21.2042 43.4282 21.3512C43.2929 21.3777 43.1559 21.3944 43.0182 21.4012C42.7918 21.4164 42.5646 21.4164 42.3382 21.4012H42.2882C42.0551 21.4164 41.8213 21.4164 41.5882 21.4012L41.1582 21.3512C40.8206 21.308 40.4864 21.2412 40.1582 21.1512C39.9382 21.0812 39.7182 21.0112 39.5082 20.9212C38.9534 20.6941 38.4347 20.3876 37.9682 20.0112C37.8005 19.8987 37.6433 19.7716 37.4982 19.6312L37.1882 19.3312C36.9682 19.1112 36.7682 18.8812 36.5882 18.6612C36.3518 18.3452 36.1411 18.0108 35.9582 17.6612C35.8982 17.5512 35.8282 17.4212 35.7682 17.2912C35.7213 17.2092 35.6844 17.1219 35.6582 17.0312C35.6055 16.917 35.5588 16.8002 35.5182 16.6812C35.463 16.5417 35.4195 16.3979 35.3882 16.2512C35.2856 15.925 35.2119 15.5904 35.1682 15.2512H53.6782C53.6782 15.1012 53.6782 14.9512 53.6782 14.8012V14.3012C53.6958 13.3568 53.6018 12.4136 53.3982 11.4912ZM35.7082 11.4912C36.0116 10.7509 36.4489 10.0729 36.9982 9.49119L37.2282 9.24119L37.5382 8.95119C37.6781 8.80507 37.836 8.67737 38.0082 8.57119C38.2899 8.33731 38.5948 8.13291 38.9182 7.96119C39.0043 7.9129 39.0947 7.87273 39.1882 7.84119C39.2976 7.77067 39.4151 7.71359 39.5382 7.67119C39.7491 7.57647 39.9663 7.49628 40.1882 7.43119C40.5152 7.33594 40.8497 7.26902 41.1882 7.23119C41.33 7.20142 41.4736 7.18138 41.6182 7.17119C41.8482 7.17119 42.0782 7.17119 42.3182 7.17119H42.3682C42.5982 7.17119 42.8282 7.17119 43.0482 7.17119C43.1861 7.18139 43.3231 7.20144 43.4582 7.23119C44.6144 7.37982 45.7076 7.84337 46.6182 8.57119C46.7886 8.67987 46.9462 8.80734 47.0882 8.95119C47.1982 9.04119 47.2982 9.14119 47.3982 9.24119L47.6282 9.49119C48.1808 10.0703 48.6185 10.749 48.9182 11.4912H35.7082Z" fill="#262626"/>
<path d="M140.929 6.03121C138.868 3.9794 136.078 2.82751 133.169 2.82751C130.261 2.82751 127.471 3.9794 125.409 6.03121C124.368 7.03782 123.544 8.24797 122.99 9.58639C122.436 10.9248 122.164 12.3629 122.189 13.8112V25.2112C122.746 25.2112 123.297 25.1015 123.812 24.8885C124.326 24.6754 124.794 24.3631 125.187 23.9693C125.581 23.5756 125.893 23.1082 126.106 22.5938C126.319 22.0794 126.429 21.528 126.429 20.9712V13.8112C126.417 12.9228 126.588 12.0415 126.932 11.2224C127.276 10.4033 127.786 9.66409 128.429 9.05121C129.045 8.41488 129.784 7.90969 130.6 7.566C131.416 7.2223 132.293 7.04719 133.179 7.05121C134.971 7.05918 136.687 7.77857 137.949 9.05121C138.59 9.66368 139.098 10.4014 139.443 11.2185C139.787 12.0356 139.959 12.9147 139.949 13.8012V25.2012C141.074 25.2012 142.152 24.7545 142.947 23.9593C143.742 23.1642 144.189 22.0857 144.189 20.9612V13.8112C144.206 12.3605 143.925 10.9217 143.365 9.58365C142.804 8.24557 141.975 7.03656 140.929 6.03121Z" fill="#262626"/>
<path d="M116.949 6.28119C114.801 4.14876 111.896 2.95211 108.869 2.95211C105.842 2.95211 102.938 4.14876 100.789 6.28119C99.1903 7.8371 98.1022 9.84247 97.6694 12.0312C97.5191 12.7953 97.4454 13.5725 97.4494 14.3512C97.4494 14.5912 97.4494 14.8312 97.4494 15.0712C97.6282 17.976 98.9122 20.7022 101.038 22.6901C103.163 24.678 105.969 25.7769 108.879 25.7612C110.383 25.7843 111.876 25.501 113.267 24.9285C114.658 24.356 115.918 23.5063 116.969 22.4312C118.047 21.3834 118.898 20.1258 119.471 18.7361C120.044 17.3464 120.326 15.8541 120.299 14.3512C120.322 12.8486 120.036 11.3573 119.46 9.9693C118.884 8.58134 118.029 7.32616 116.949 6.28119ZM113.949 19.4212C112.946 20.4259 111.667 21.1105 110.274 21.3884C108.882 21.6662 107.438 21.5249 106.126 20.9822C104.813 20.4395 103.691 19.5198 102.902 18.3395C102.112 17.1592 101.69 15.7713 101.689 14.3512C101.679 13.4185 101.86 12.4935 102.221 11.6335C102.582 10.7735 103.116 9.9967 103.789 9.3512C104.456 8.68238 105.247 8.1517 106.119 7.78959C106.991 7.42749 107.925 7.24109 108.869 7.24109C109.813 7.24109 110.748 7.42749 111.62 7.78959C112.492 8.1517 113.283 8.68238 113.949 9.3512C114.617 10.0002 115.145 10.7781 115.503 11.6376C115.86 12.4971 116.04 13.4203 116.029 14.3512C116.046 15.2934 115.87 16.2291 115.513 17.1009C115.155 17.9727 114.623 18.7623 113.949 19.4212Z" fill="#262626"/>
<defs>
<linearGradient id="paint0_linear_312_3740" x1="-32.0011" y1="-28.0188" x2="68.0789" y2="59.4712" gradientUnits="userSpaceOnUse">
<stop stop-color="#FFCDFF"/>
<stop offset="0.52" stop-color="#A967FF"/>
<stop offset="1" stop-color="#7F00C5"/>
</linearGradient>
</defs>
</svg>
