<svg xmlns="http://www.w3.org/2000/svg" width="39" height="34" viewBox="0 0 39 34" fill="none">
  <path d="M38.7597 17.6557C38.7605 17.5102 38.7235 17.367 38.6523 17.2402C38.581 17.1133 38.4781 17.0071 38.3535 16.932L38.3491 16.9294L38.333 16.92L25.1235 9.17987C25.0664 9.14192 25.0073 9.10724 24.9464 9.07601C24.6948 8.94727 24.4163 8.88013 24.1338 8.88013C23.8512 8.88013 23.5727 8.94727 23.3212 9.07601C23.2603 9.10724 23.2011 9.14191 23.1441 9.17987L9.93454 16.92L9.91847 16.9294L9.91406 16.9319C9.78826 17.0087 9.68464 17.117 9.61342 17.2459C9.54219 17.3749 9.50582 17.5202 9.5079 17.6676C9.50997 17.8149 9.55041 17.9591 9.62524 18.0861C9.70007 18.213 9.80669 18.3182 9.93459 18.3914L23.1441 26.1315C23.2011 26.1694 23.2602 26.204 23.3211 26.2353C23.5726 26.364 23.8512 26.4313 24.1338 26.4313C24.4163 26.4313 24.6948 26.3641 24.9463 26.2354C25.0072 26.2041 25.0664 26.1694 25.1235 26.1315L38.3329 18.3914C38.4632 18.3179 38.5714 18.2109 38.6464 18.0816C38.7215 17.9522 38.7606 17.8052 38.7597 17.6557Z" fill="#123B6D"/>
  <path d="M19.7443 12.5365H10.9688V20.5808H19.7443V12.5365Z" fill="#0364B8"/>
  <path d="M37.3749 4.93632V1.64548C37.371 1.2052 37.1924 0.784517 36.8783 0.47595C36.5642 0.167382 36.1404 -0.00379661 35.7001 6.39107e-05H12.2529C11.8127 -0.00379663 11.3889 0.167379 11.0748 0.475942C10.7607 0.784505 10.5821 1.20519 10.5781 1.64546V4.93632H37.3749Z" fill="#0358A7"/>
  <path d="M19.7455 4.23108H10.5781V12.6932H19.7455V4.23108Z" fill="#0078D4"/>
  <path d="M28.9134 4.23108H19.7461V12.6932H28.9134V4.23108Z" fill="#28A8EA"/>
  <path d="M37.3762 4.23108H28.9141V12.6932H37.3762V4.23108Z" fill="#50D9FF"/>
  <path d="M37.3762 12.6932H28.9141V21.1554H37.3762V12.6932Z" fill="#28A8EA"/>
  <path d="M28.9134 12.6932H19.7461V21.1554H28.9134V12.6932Z" fill="#0078D4"/>
  <path d="M28.9134 21.1554H19.7461V29.6175H28.9134V21.1554Z" fill="#0364B8"/>
  <path d="M19.7443 20.5808H10.9688V27.8938H19.7443V20.5808Z" fill="#14447D"/>
  <path d="M37.3762 21.1554H28.9141V28.9124H37.3762V21.1554Z" fill="#0078D4"/>
  <path d="M38.374 18.2975L38.3578 18.3072L38.3537 18.3092L24.9787 25.4622C24.9208 25.4973 24.861 25.5292 24.7997 25.558C24.5419 25.6778 24.261 25.7397 23.9767 25.7391C23.9605 25.7391 23.9454 25.7343 23.9292 25.7339L23.1793 25.3221C23.1177 25.2926 23.0578 25.2597 22.9999 25.2236L9.60077 17.8671L9.59664 17.865L9.5901 17.8612L9.16831 17.6295L9.16797 32.1108C9.18349 32.5866 9.3871 33.0367 9.73414 33.3625C10.0812 33.6883 10.5433 33.8632 11.0191 33.8486H36.9847C37.3769 33.8498 37.7598 33.729 38.0803 33.5029L38.0521 33.4878C38.2757 33.3337 38.459 33.1283 38.5866 32.8887C38.7142 32.649 38.7824 32.3823 38.7855 32.1108V17.6295C38.7837 17.7677 38.7445 17.9027 38.6721 18.0204C38.5996 18.138 38.4966 18.2338 38.374 18.2975Z" fill="url(#paint0_linear_514_7466)"/>
  <path d="M38.3741 18.2977L38.3578 18.307L38.3537 18.3092L24.9789 25.4621C24.9209 25.4973 24.861 25.5293 24.7996 25.558C24.5417 25.6773 24.261 25.7391 23.9768 25.7391C23.6927 25.7391 23.412 25.6773 23.1541 25.558C23.0927 25.5293 23.0328 25.4973 22.9748 25.4621L9.59996 18.3092L9.59586 18.307L9.57952 18.2983C9.45697 18.2345 9.35401 18.1381 9.28157 18.0204C9.20914 17.9028 9.16995 17.7677 9.16817 17.6295L9.16797 32.1109C9.18346 32.5866 9.38707 33.0368 9.73411 33.3626C10.0812 33.6884 10.5433 33.8632 11.0191 33.8486H36.9344C37.4102 33.8632 37.8723 33.6884 38.2194 33.3626C38.5664 33.0368 38.77 32.5866 38.7855 32.1109V17.6296C38.7837 17.7677 38.7445 17.9028 38.6721 18.0204C38.5996 18.1381 38.4967 18.2339 38.3741 18.2977Z" fill="#1490DF"/>
  <path d="M11.0224 33.8486H36.9847C37.3769 33.8498 37.7597 33.729 38.0803 33.5031L23.1791 25.322C23.1176 25.2925 23.0577 25.2596 22.9998 25.2235L9.60074 17.8671L9.59663 17.8649L9.59023 17.8613L9.16797 17.6295V32.0614C9.17704 32.5443 9.37748 33.0038 9.72522 33.3389C10.073 33.6741 10.5395 33.8574 11.0224 33.8486Z" fill="#28A8EA"/>
  <path opacity="0.5" d="M37.3749 18.0314V18.8285L24.9778 25.464C24.9214 25.4994 24.858 25.5277 24.8015 25.5559C24.5439 25.6785 24.2618 25.7411 23.9765 25.7391H23.9342L23.1798 25.3231C23.1164 25.2949 23.0599 25.2594 22.9962 25.2243L10.5781 18.4053V17.6013L23.3419 24.6039C23.4053 24.6462 23.4476 24.6672 23.4828 24.6882L24.1036 25.027C24.2404 25.0151 24.3741 24.9792 24.4985 24.921C24.5336 24.9 34.6882 19.4699 37.3749 18.0314Z" fill="#0A2767"/>
  <path opacity="0.2" d="M20.4508 8.69488V27.2692C20.4524 27.364 20.4429 27.4586 20.4226 27.5512C20.3585 27.9327 20.1609 28.279 19.8651 28.5283C19.5693 28.7776 19.1946 28.9137 18.8077 28.9123H9.16797V17.6294L9.52745 17.8271C9.51369 17.7717 9.50664 17.7148 9.50645 17.6577C9.50563 17.5115 9.54293 17.3676 9.61466 17.2402C9.68639 17.1128 9.79008 17.0063 9.91551 16.9311C9.9224 16.9242 9.92962 16.9242 9.93652 16.9174L10.9733 16.3107V12.6932H10.5783V7.05176H18.8077C19.0236 7.05138 19.2374 7.09362 19.437 7.17606C19.6365 7.2585 19.8178 7.37952 19.9704 7.53218C20.1231 7.68483 20.2441 7.86612 20.3265 8.06564C20.409 8.26516 20.4512 8.479 20.4508 8.69488Z" fill="black"/>
  <path opacity="0.1" d="M21.156 8.69486V25.8588C21.1502 26.4798 20.9009 27.0737 20.4618 27.5129C20.0226 27.952 19.4287 28.2013 18.8077 28.2071H9.16797V17.6294L9.52745 17.8271C9.51369 17.7716 9.50664 17.7147 9.50645 17.6576C9.50563 17.5114 9.54293 17.3675 9.61466 17.2401C9.68639 17.1127 9.79008 17.0062 9.91551 16.9311C9.9224 16.9242 9.92962 16.9242 9.93652 16.9173L10.9733 16.3106V12.6932H10.5783V6.34656H18.8077C19.4299 6.34873 20.0259 6.59684 20.4658 7.03676C20.9057 7.47668 21.1538 8.07272 21.156 8.69486Z" fill="black"/>
  <path opacity="0.2" d="M20.4508 8.69488V25.8588C20.4512 26.0747 20.409 26.2886 20.3265 26.4881C20.2441 26.6876 20.1231 26.8689 19.9704 27.0215C19.8178 27.1742 19.6365 27.2952 19.437 27.3777C19.2374 27.4601 19.0236 27.5023 18.8077 27.502H9.16797V17.6294L9.52745 17.8271C9.51369 17.7717 9.50664 17.7148 9.50645 17.6577C9.50563 17.5115 9.54293 17.3676 9.61466 17.2402C9.68639 17.1128 9.79008 17.0063 9.91551 16.9311C9.9224 16.9242 9.92962 16.9242 9.93652 16.9174L10.9733 16.3107V12.6932H10.5783V7.05176H18.8077C19.0236 7.05138 19.2374 7.09362 19.437 7.17606C19.6365 7.2585 19.8178 7.37952 19.9704 7.53218C20.1231 7.68483 20.2441 7.86612 20.3265 8.06564C20.409 8.26516 20.4512 8.479 20.4508 8.69488Z" fill="black"/>
  <path opacity="0.1" d="M19.7457 8.69488V25.8588C19.746 26.0747 19.7038 26.2886 19.6214 26.4881C19.5389 26.6876 19.4179 26.8689 19.2652 27.0215C19.1126 27.1742 18.9313 27.2952 18.7318 27.3777C18.5323 27.4601 18.3184 27.5023 18.1025 27.502H9.16797V17.6294L9.52745 17.8271C9.51369 17.7717 9.50664 17.7148 9.50645 17.6577C9.50563 17.5115 9.54293 17.3676 9.61466 17.2402C9.68639 17.1128 9.79008 17.0063 9.91551 16.9311C9.9224 16.9242 9.92962 16.9242 9.93652 16.9174L10.9733 16.3107V12.6932H10.5783V7.05176H18.1025C18.3184 7.05138 18.5323 7.09362 18.7318 7.17606C18.9313 7.2585 19.1126 7.37952 19.2652 7.53218C19.4179 7.68483 19.5389 7.86612 19.6214 8.06564C19.7038 8.26516 19.746 8.479 19.7457 8.69488Z" fill="black"/>
  <path d="M18.0996 7.05176H1.64542C0.736678 7.05176 0 7.78844 0 8.69717V25.1514C0 26.0601 0.736678 26.7968 1.64542 26.7968H18.0996C19.0083 26.7968 19.745 26.0601 19.745 25.1514V8.69717C19.745 7.78844 19.0083 7.05176 18.0996 7.05176Z" fill="#0F78D4"/>
  <path d="M5.45155 14.275C5.83039 13.4678 6.44194 12.7922 7.20764 12.335C8.05588 11.8495 9.02167 11.6074 9.99866 11.6355C10.9038 11.6158 11.797 11.8453 12.5805 12.299C13.3179 12.7381 13.9117 13.382 14.2897 14.1524C14.7013 15.0013 14.9064 15.9354 14.8883 16.8785C14.9084 17.8644 14.6972 18.8413 14.2717 19.7308C13.8853 20.5286 13.2735 21.1955 12.512 21.6492C11.6981 22.1171 10.7714 22.3528 9.83278 22.3307C8.90816 22.3527 7.9952 22.1207 7.19323 21.66C6.44989 21.2201 5.84899 20.5754 5.46239 19.803C5.04801 18.9664 4.84027 18.0427 4.85659 17.1093C4.83842 16.1318 5.04182 15.1628 5.45155 14.275ZM7.32303 18.8294C7.52517 19.3396 7.86774 19.7822 8.31106 20.1059C8.76259 20.4218 9.30347 20.5848 9.8544 20.571C10.4412 20.594 11.0195 20.4257 11.5023 20.0914C11.9404 19.7678 12.2739 19.3227 12.4615 18.8113C12.6722 18.2414 12.7761 17.6375 12.768 17.03C12.7746 16.417 12.6771 15.8073 12.4795 15.227C12.3051 14.7045 11.9833 14.2437 11.5528 13.9C11.0825 13.549 10.5056 13.3708 9.91931 13.3952C9.35656 13.3808 8.80369 13.5449 8.33991 13.864C7.88801 14.1886 7.53782 14.6351 7.33026 15.1513C6.87119 16.3339 6.86861 17.645 7.32303 18.8294Z" fill="white"/>
  <path opacity="0.05" d="M25.6808 25.0865L24.9784 25.4622C24.6762 25.6449 24.3295 25.7407 23.9764 25.739L23.9375 25.7383L38.0555 33.4898C38.2537 33.3487 38.4196 33.1673 38.5424 32.9573C38.6652 32.7474 38.7421 32.5138 38.768 32.2719L25.6808 25.0865Z" fill="black"/>
  <path opacity="0.05" d="M38.058 33.4912C38.257 33.3488 38.4247 33.167 38.5507 32.9572L24.9388 25.485C24.8933 25.5108 24.8472 25.5356 24.7993 25.558C24.5416 25.6778 24.2607 25.7397 23.9764 25.7391L23.9375 25.7384L38.058 33.4912Z" fill="black"/>
  <defs>
    <linearGradient id="paint0_linear_514_7466" x1="23.9767" y1="17.6295" x2="23.9767" y2="33.8486" gradientUnits="userSpaceOnUse">
      <stop stop-color="#35B8F1"/>
      <stop offset="1" stop-color="#28A8EA"/>
    </linearGradient>
  </defs>
</svg>