<svg width="307" height="171" viewBox="0 0 307 171" fill="none" xmlns="http://www.w3.org/2000/svg">
<path d="M286.409 153.382C284.138 163.06 273.59 169.144 267.634 161.185C262.15 153.857 259.293 144.964 246.537 141.971C226.375 137.239 221.801 156.709 201.635 151.977C181.468 147.244 186.042 127.774 165.88 123.042C145.718 118.311 141.144 137.781 120.982 133.05C100.82 128.318 105.389 108.847 85.2225 104.114C65.0559 99.3816 60.4908 118.854 40.3287 114.122C27.5741 111.129 24.7149 102.237 19.2314 94.9092C13.2754 86.9499 6.41059 77.3413 8.68181 67.6631L20.4481 17.5239C22.7194 7.84574 33.2667 1.76291 39.2221 9.7228C44.7042 17.0502 47.5629 25.9417 60.3199 28.9354C80.4865 33.668 85.0515 14.1956 105.214 18.9272C125.376 23.6587 120.811 43.131 140.973 47.8626C161.135 52.5941 165.704 33.1228 185.871 37.8553C206.038 42.5879 201.464 62.0582 221.626 66.7897C241.788 71.5212 246.362 52.051 266.529 56.7835C279.286 59.7775 282.143 68.6696 287.626 75.9972C293.581 83.9569 300.447 93.5647 298.175 103.243L286.409 153.382Z" fill="#F2E0D8"/>
<path d="M89.6327 78.8603L84.8112 77.7288L95.8289 63.1847L100.208 64.2123L103.654 82.1508L98.8574 81.0251L97.9446 76.3987L92.4836 75.1171L89.6327 78.8603ZM96.6458 69.6573L94.895 71.9197L97.2073 72.4623L96.6458 69.6573ZM109.477 83.5171L105.098 82.4896L108.908 66.254L113.287 67.2816L109.477 83.5171ZM124.69 87.3469C120.877 86.4521 118.134 83.2128 119.014 79.2408C119.93 75.2253 123.723 73.4421 127.732 74.383C130.832 75.1104 133.068 77.1925 133.536 79.8457L128.903 80.3418C128.735 79.2901 128.011 78.3935 126.855 78.1221C125.281 77.7527 123.972 78.7952 123.62 80.2957C123.267 81.7963 123.993 83.2383 125.543 83.602C126.748 83.8849 127.796 83.4039 128.39 82.5311L132.306 85.0854C130.719 87.2044 127.913 88.1031 124.69 87.3469ZM137.676 90.1347L132.879 89.009L136.689 72.7735L141.289 73.853L139.748 80.421C140.73 78.4455 143.016 77.9957 144.842 78.3983C148.101 79.1111 150.044 82.1106 149.063 86.2925L147.614 92.4669L143.014 91.3874L144.468 85.1884C144.873 83.4664 144.025 82.0997 142.439 81.7794C140.909 81.4461 139.535 82.2137 139.13 83.9357L137.676 90.1347ZM155.003 94.4605C151.473 93.6842 149.64 90.2172 150.483 86.6257C151.464 82.4438 154.539 80.6219 157.799 81.4389C159.589 81.8849 161.461 83.3104 161.437 85.511L162.095 82.7067L166.695 83.7862L163.769 96.2581L159.193 95.1843L159.857 92.3554C158.951 94.1153 156.804 94.8573 155.003 94.4605ZM157.171 90.9724C158.653 91.2941 160.057 90.5077 160.427 88.9333C160.831 87.2114 159.941 85.9127 158.422 85.5301C156.859 85.1115 155.493 85.9587 155.088 87.6806C154.707 89.3042 155.61 90.6579 157.171 90.9724ZM168.871 101.582L164.271 100.503L168.104 84.1686L172.679 85.2423L172.021 88.0467C172.927 86.2868 175.074 85.5448 176.851 85.9358C180.405 86.7179 182.214 90.1791 181.371 93.7706C180.395 97.9279 177.32 99.7498 174.085 98.9385C172.295 98.4925 170.423 97.0671 170.447 94.8664L168.871 101.582ZM173.462 94.8473C175 95.2602 176.367 94.413 176.771 92.6911C177.152 91.0675 176.244 89.7384 174.707 89.4297C173.225 89.1079 171.821 89.8944 171.457 91.4441C171.053 93.1661 171.924 94.4344 173.462 94.8473ZM191.39 98.3019L191.13 102.394C187.13 102.96 182.858 100.374 183.966 95.6514L184.826 91.9861L183.104 91.582L184.034 87.6215C186.002 88.0833 186.01 86.9432 186.587 84.4833L191.187 85.5628L190.38 89.1109L193.185 89.769L192.255 93.7294L189.426 93.0656L188.716 96.0913C188.335 97.7148 189.419 98.5143 191.39 98.3019ZM198.682 104.711C195.189 103.891 192.373 100.739 193.332 96.6553C194.371 92.2274 198.231 90.9273 201.725 91.7471C205.242 92.5726 207.385 95.3854 206.966 99.0504C206.925 99.5597 206.775 100.199 206.58 100.699L197.453 98.5569C197.477 99.7823 198.379 100.695 199.554 100.996C200.631 101.275 201.584 101.083 202.219 100.48L205.185 102.993C203.614 104.597 201.191 105.3 198.682 104.711ZM198.394 96.2081L202.871 97.2588C202.692 96.3604 201.885 95.5999 200.87 95.3878C199.96 95.1742 198.929 95.4772 198.394 96.2081ZM211.653 107.495L206.806 106.358L209.733 93.886L214.358 94.9713L213.683 97.8495C215.022 95.1272 218.886 94.918 221.101 97.2027L217.745 100.334C216.843 98.5392 213.667 98.91 213.119 101.247L211.653 107.495Z" fill="#FA543C"/>
</svg>
