<svg width="130" height="129" viewBox="0 0 130 129" fill="none" xmlns="http://www.w3.org/2000/svg">
<path d="M53.6926 8.7113C59.6166 4.03825 67.9435 3.93569 73.9808 8.46142C77.3056 10.9538 81.4501 12.1114 85.5856 11.7078C93.0869 10.9759 100.156 15.3846 102.783 22.4486C104.231 26.3413 107.09 29.5533 110.787 31.4461C117.494 34.8801 121.054 42.4088 119.44 49.7686C118.551 53.824 119.215 58.0654 121.301 61.655C125.088 68.1718 124.001 76.4259 118.661 81.7444C115.719 84.6744 113.98 88.6026 113.791 92.7505C113.449 100.277 108.063 106.632 100.698 108.222C96.6368 109.098 93.0431 111.465 90.6384 114.853C86.2736 121.002 78.3088 123.441 71.2457 120.8C67.3533 119.344 63.049 119.397 59.1937 120.948C52.1978 123.763 44.1753 121.52 39.6603 115.48C37.173 112.153 33.5221 109.876 29.4409 109.1C22.0389 107.692 16.4982 101.471 15.9702 93.9553C15.6793 89.8133 13.8445 85.9291 10.8311 83.0725C5.361 77.8871 4.0716 69.6623 7.69689 63.0542C9.69379 59.4143 10.253 55.1578 9.26408 51.1256C7.46931 43.8078 10.8433 36.1936 17.4634 32.5956C21.1125 30.6123 23.8918 27.3308 25.2433 23.4037C27.696 16.277 34.6542 11.6955 42.1712 12.2425C46.3155 12.5441 50.4302 11.2848 53.6926 8.7113Z" fill="#BC7AFF"/>
<path d="M58.7957 58.1128L54.7455 57.0809L64.2752 44.985L67.9534 45.9222L70.5745 61.1139L66.5449 60.0872L65.8488 56.1689L61.2613 55L58.7957 58.1128ZM64.8608 50.4597L63.3473 52.3406L65.2897 52.8356L64.8608 50.4597ZM75.4655 62.3601L71.7872 61.4229L75.2622 47.7844L78.9405 48.7216L75.4655 62.3601ZM34.948 71.8637C33.4448 71.4587 32.127 70.0667 32.1345 68.3961L31.5291 70.7725L27.6855 69.7932L31.1605 56.1547L35.0247 57.1393L33.6189 62.6567C34.4797 61.0055 36.4156 60.6625 37.9501 61.0315C40.6883 61.6851 42.2801 64.2473 41.385 67.7603C40.6163 70.7773 37.9132 72.6632 34.948 71.8637ZM34.705 68.4129C35.9756 68.7806 37.1785 68.1189 37.526 66.755C37.8946 65.3085 37.2016 64.1417 35.8686 63.846C34.5821 63.5403 33.4104 64.166 33.0418 65.6125C32.7049 66.935 33.4497 68.071 34.705 68.4129ZM46.2663 74.7475C43.3008 74.0359 41.809 71.0812 42.5777 68.0642C43.4728 64.5512 46.0966 63.0631 48.8344 63.8047C50.3377 64.2097 51.8941 65.4425 51.8391 67.299L52.4394 64.9433L56.3036 65.9279L53.6342 76.4047L49.7906 75.4254L50.3961 73.049C49.6033 74.5195 47.7801 75.1112 46.2663 74.7475ZM48.1517 71.839C49.3968 72.1342 50.5945 71.4931 50.9314 70.1706C51.3 68.7241 50.5706 67.614 49.2946 67.2669C47.9826 66.8886 46.8158 67.5816 46.4473 69.0281C46.0998 70.3919 46.8393 71.5486 48.1517 71.839ZM59.5891 78.1421C57.1251 77.4482 55.1846 75.3914 55.7852 72.9477L59.2981 73.8428C59.1758 74.5818 59.6127 75.1993 60.3307 75.4042C60.9093 75.5516 61.3805 75.4296 61.517 74.9803C61.6535 74.5309 61.4018 74.1367 60.6222 73.8281C57.9115 72.8073 56.1683 71.703 56.7062 69.4194C57.1861 67.363 59.4501 66.5095 62.0952 67.1835C64.7402 67.8574 66.6504 69.7745 65.9971 72.4248L62.5048 71.535C62.6579 70.8478 62.2523 70.1943 61.5343 69.9893C60.9403 69.816 60.51 70.0364 60.3889 70.5117C60.3043 70.9303 60.5195 71.3812 61.4486 71.794C64.37 73.1105 65.7165 73.8717 65.1321 76.1654C64.5687 78.3765 62.239 78.8833 59.5891 78.1421ZM70.3774 68.9636C69.3649 68.7056 68.5358 67.9002 68.757 67.0323C68.9834 66.1437 70.0915 65.8539 71.104 66.1119C72.0959 66.3647 72.9303 67.1494 72.7039 68.038C72.4827 68.9059 71.3693 69.2163 70.3774 68.9636ZM69.4982 80.4468L65.6339 79.4622L68.3034 68.9853L72.1676 69.9699L69.4982 80.4468ZM76.7094 82.5042C73.5064 81.6881 71.2432 78.9108 72.0496 75.5733C72.8871 72.1998 76.1158 70.7558 79.4841 71.614C82.0879 72.2774 83.9417 74.0701 84.2936 76.3164L80.3769 76.6608C80.2516 75.7706 79.6551 75.0025 78.6838 74.755C77.3613 74.418 76.2403 75.2767 75.9191 76.5373C75.5979 77.7978 76.1872 79.0262 77.489 79.3579C78.5016 79.6159 79.3929 79.2269 79.9083 78.4999L83.1722 80.7179C81.7988 82.4806 79.4165 83.1939 76.7094 82.5042ZM88.3546 85.4713C85.8907 84.7775 83.9501 82.7206 84.5507 80.2769L88.0637 81.172C87.9414 81.9111 88.3782 82.5285 89.0962 82.7334C89.6748 82.8809 90.146 82.7589 90.2825 82.3095C90.419 81.8602 90.1674 81.466 89.3878 81.1573C86.6771 80.1365 84.9339 79.0322 85.4717 76.7486C85.9516 74.6923 88.2157 73.8387 90.8607 74.5127C93.5058 75.1866 95.416 77.1037 94.7627 79.754L91.2704 78.8642C91.4235 78.177 91.0178 77.5235 90.2998 77.3186C89.7058 77.1452 89.2756 77.3657 89.1545 77.841C89.0698 78.2595 89.285 78.7105 90.2141 79.1232C93.1356 80.4397 94.4821 81.2009 93.8976 83.4947C93.3343 85.7058 91.0046 86.2125 88.3546 85.4713Z" fill="#19154A"/>
</svg>
