<svg width="219" height="275" viewBox="0 0 219 275" fill="none" xmlns="http://www.w3.org/2000/svg">
<path d="M184.302 140.403C185.16 138.162 185.679 135.836 185.877 133.453C186.915 120.953 192.541 106.275 200.123 96.2826C201.568 94.3773 202.737 92.3008 203.596 90.0601C211.862 68.4908 188.779 39.5854 152.029 25.5005C115.278 11.4156 78.7891 17.4898 70.5226 39.059C69.6638 41.2998 69.1453 43.6254 68.9473 46.0089C67.9089 58.5088 62.2833 73.1873 54.7015 83.1793C53.2558 85.0846 52.0872 87.1611 51.2284 89.4018C50.4383 91.4635 49.9344 93.5917 49.7015 95.7673C48.5219 106.788 43.8686 118.927 37.3805 127.914C36.1012 129.685 35.054 131.605 34.2629 133.669C33.4041 135.909 32.8856 138.235 32.6876 140.619C31.6492 153.118 26.0236 167.797 18.4418 177.789C16.9961 179.694 15.8275 181.771 14.9687 184.011C6.70217 205.581 29.785 234.486 66.5357 248.571C103.286 262.656 139.775 256.582 148.042 235.013C148.901 232.772 149.419 230.446 149.617 228.063C150.655 215.563 156.281 200.884 163.863 190.892C165.309 188.987 166.477 186.91 167.336 184.67C168.123 182.616 168.626 180.496 168.86 178.329C170.051 167.301 174.713 155.138 181.197 146.138C182.472 144.37 183.514 142.457 184.302 140.403Z" fill="#FA543C"/>
<path d="M88.6937 158.122L84.2313 169.128L68.7768 162.862L70.5523 158.483L82.2368 163.22L84.9237 156.594L88.6937 158.122ZM92.1564 150.255C90.6848 153.884 87.0614 156.096 83.2725 154.614C79.4462 153.09 78.2686 149.068 79.8162 145.251C81.3923 141.364 85.0289 139.321 88.8362 140.892C92.5169 142.439 93.7989 146.204 92.1564 150.255ZM88.5877 148.835C89.2048 147.313 88.4891 145.85 87.0373 145.262C85.609 144.683 83.9926 145.172 83.3754 146.694C82.7678 148.193 83.5727 149.637 85.0245 150.226C86.4529 150.805 87.9895 150.31 88.5877 148.835ZM97.1349 137.304L95.2645 141.917L83.3926 137.103L85.1776 132.701L87.9172 133.812C85.4339 132.069 85.8227 128.218 88.4214 126.382L90.9983 130.181C89.0857 130.796 88.9627 133.99 91.1873 134.892L97.1349 137.304ZM102.352 125.109C101.004 128.434 97.4553 130.731 93.5683 129.154C89.3534 127.445 88.6638 123.43 90.012 120.105C91.3697 116.757 94.4791 115.073 98.0358 116.052C98.5326 116.171 99.1415 116.418 99.6047 116.688L96.0823 125.375C97.2968 125.54 98.3373 124.79 98.8164 123.675C99.2576 122.654 99.2152 121.683 98.7166 120.963L101.656 118.419C102.999 120.218 103.321 122.721 102.352 125.109ZM93.9065 124.084L95.6345 119.822C94.7194 119.86 93.8434 120.541 93.4776 121.511C93.1263 122.377 93.2667 123.443 93.9065 124.084ZM107.083 112.769L105.231 117.336L93.3595 112.522L95.135 108.143L97.8044 109.225C96.0223 108.039 95.8642 105.74 96.5149 104.067C97.3269 101.997 98.9744 100.893 101.213 100.819C99.6909 99.1932 99.4018 96.813 100.189 95.0055C101.494 91.9899 104.546 90.5825 108.479 92.1776L114.45 94.5987L112.675 98.9775L106.681 96.5469C105.135 95.9203 103.711 96.4062 103.169 97.877C102.566 99.432 103.203 100.617 104.796 101.263L110.767 103.684L109.001 108.039L103.006 105.609C101.461 104.982 100.027 105.492 99.4854 106.962C98.9626 108.386 99.5897 109.731 101.088 110.339L107.083 112.769ZM84.865 208.969C84.3998 210.116 83.3213 210.96 82.3378 210.562C81.3309 210.153 81.1684 208.806 81.6336 207.659C82.0893 206.535 83.1444 205.681 84.1513 206.089C85.1347 206.488 85.3207 207.845 84.865 208.969ZM98.2053 211.842L96.4298 216.221L84.5579 211.407L86.3334 207.029L98.2053 211.842ZM104.269 207.579L102.493 211.958L86.9453 205.654L88.7112 201.299L91.3807 202.381C89.7814 201.214 89.379 198.979 90.0392 197.284C91.3596 193.893 95.0582 192.639 98.4769 194.025C102.434 195.629 103.761 198.948 102.46 202.02C101.744 203.72 100.047 205.35 97.8764 204.987L104.269 207.579ZM98.3221 202.005C98.9671 200.549 98.3406 199.068 96.7015 198.404C95.156 197.777 93.7029 198.469 93.1611 199.94C92.6148 201.354 93.1755 202.863 94.6507 203.461C96.2898 204.126 97.6771 203.462 98.3221 202.005ZM107.443 189.733C106.233 192.514 103.507 194.463 100.735 193.366L102.349 189.385C103.197 189.647 103.992 189.233 104.347 188.423C104.613 187.768 104.545 187.195 104.04 186.962C103.534 186.73 103.031 186.962 102.544 187.828C100.911 190.847 99.3346 192.716 96.7399 191.719C94.4027 190.826 93.7636 188.031 94.9789 185.034C96.1942 182.036 98.7511 180.101 101.758 181.293L100.153 185.25C99.3711 184.96 98.5389 185.332 98.1831 186.142C97.8844 186.812 98.0742 187.352 98.6128 187.57C99.0906 187.737 99.6545 187.557 100.288 186.532C102.302 183.313 103.412 181.854 106.011 182.908C108.516 183.924 108.738 186.741 107.443 189.733ZM112.351 177.627C111.154 180.714 107.976 182.097 104.042 180.502L98.0707 178.081L99.8461 173.702L105.841 176.133C107.386 176.759 108.82 176.25 109.371 174.756C109.922 173.262 109.272 171.907 107.679 171.262L101.802 168.878L103.653 164.312L115.525 169.126L113.75 173.505L111.034 172.403C112.923 173.66 112.992 175.979 112.351 177.627ZM117.927 163.202L116.076 167.768L104.204 162.955L105.979 158.576L108.649 159.658C106.867 158.472 106.709 156.172 107.359 154.5C108.171 152.43 109.819 151.326 112.057 151.252C110.535 149.626 110.246 147.246 111.034 145.438C112.338 142.423 115.39 141.015 119.324 142.61L125.295 145.031L123.519 149.41L117.525 146.98C115.979 146.353 114.555 146.839 114.014 148.31C113.41 149.865 114.048 151.05 115.64 151.696L121.611 154.117L119.845 158.472L113.851 156.042C112.305 155.415 110.872 155.924 110.33 157.395C109.807 158.819 110.434 160.164 111.933 160.772L117.927 163.202ZM130.977 131.691C129.666 135.059 125.958 136.336 122.539 134.95C118.558 133.336 117.232 130.017 118.541 126.922C119.258 125.222 120.955 123.592 123.125 123.954L116.873 121.419L118.649 117.041L134.103 123.307L132.337 127.662L129.645 126.57C131.244 127.737 131.646 129.972 130.977 131.691ZM127.864 129.011C128.41 127.597 127.85 126.088 126.351 125.48C124.712 124.816 123.292 125.494 122.68 126.937C122.025 128.416 122.652 129.897 124.291 130.562C125.836 131.188 127.313 130.506 127.864 129.011ZM137.658 115.213C136.186 118.842 132.563 121.054 128.774 119.572C124.948 118.048 123.77 114.026 125.318 110.209C126.894 106.322 130.53 104.28 134.338 105.851C138.018 107.398 139.3 111.162 137.658 115.213ZM134.089 113.793C134.706 112.271 133.991 110.809 132.539 110.22C131.11 109.641 129.494 110.13 128.877 111.653C128.269 113.151 129.074 114.595 130.526 115.184C131.954 115.763 133.491 115.268 134.089 113.793ZM142.541 102.496L140.766 106.875L125.311 100.609L127.087 96.2299L142.541 102.496ZM146.104 94.3818C144.633 98.0113 141.009 100.223 137.22 98.7413C133.394 97.2171 132.216 93.1951 133.764 89.3783C135.34 85.4912 138.977 83.4485 142.784 85.0195C146.465 86.5665 147.747 90.3309 146.104 94.3818ZM142.536 92.9621C143.153 91.4401 142.437 89.9775 140.985 89.3888C139.557 88.8096 137.94 89.2994 137.323 90.8214C136.716 92.3201 137.521 93.7643 138.972 94.353C140.401 94.9321 141.937 94.4373 142.536 92.9621ZM151.083 81.431L149.212 86.0439L137.34 81.2303L139.125 76.8281L141.865 77.9389C139.382 76.1958 139.771 72.3454 142.369 70.509L144.946 74.3076C143.034 74.9227 142.911 78.1174 145.135 79.0194L151.083 81.431Z" fill="#F8DCD8"/>
</svg>
