<svg width="144" height="40" viewBox="0 0 144 40" fill="none" xmlns="http://www.w3.org/2000/svg">
<path d="M2.93 5.86C4.54819 5.86 5.86 4.54819 5.86 2.93C5.86 1.31181 4.54819 0 2.93 0C1.31181 0 0 1.31181 0 2.93C0 4.54819 1.31181 5.86 2.93 5.86Z" fill="url(#paint0_linear_344_4585)"/>
<path d="M24.6108 5.67998C23.6043 4.64104 22.3956 3.81932 21.0592 3.26552C19.7229 2.71171 18.2872 2.43757 16.8408 2.45998C15.3987 2.43573 13.967 2.70916 12.6352 3.2632C11.3035 3.81723 10.1003 4.63996 9.10085 5.67998C8.05597 6.68463 7.22977 7.89419 6.67397 9.23291C6.11818 10.5716 5.84476 12.0107 5.87085 13.46V24.86C6.42765 24.86 6.979 24.7503 7.49342 24.5372C8.00784 24.3241 8.47526 24.0118 8.86898 23.6181C9.2627 23.2244 9.57502 22.757 9.7881 22.2426C10.0012 21.7281 10.1108 21.1768 10.1108 20.62V13.49C10.0978 11.8769 10.6698 10.3137 11.7208 9.08998C12.3452 8.34075 13.1287 7.74016 14.0144 7.33191C14.9001 6.92366 15.8657 6.71803 16.8408 6.72998C17.7255 6.72866 18.6017 6.90177 19.4194 7.2394C20.2371 7.57702 20.9801 8.07254 21.6061 8.69761C22.2321 9.32268 22.7288 10.065 23.0676 10.8822C23.4064 11.6994 23.5808 12.5753 23.5808 13.46V24.86C24.1377 24.86 24.689 24.7503 25.2034 24.5372C25.7178 24.3241 26.1853 24.0118 26.579 23.6181C26.9727 23.2244 27.285 22.757 27.4981 22.2426C27.7112 21.7281 27.8208 21.1768 27.8208 20.62V13.46C27.8436 12.013 27.5706 10.5766 27.0186 9.23876C26.4666 7.90097 25.6473 6.68997 24.6108 5.67998Z" fill="white"/>
<path d="M72.0693 2.93018V13.9302C72.0791 14.8167 71.9067 15.6958 71.5626 16.5129C71.2186 17.33 70.7103 18.0677 70.0693 18.6802C69.4572 19.3217 68.7195 19.8303 67.9024 20.1744C67.0852 20.5185 66.2059 20.6906 65.3193 20.6802C64.4223 20.6803 63.5341 20.5037 62.7053 20.1606C61.8766 19.8174 61.1236 19.3144 60.4893 18.6802C59.8649 18.0545 59.3751 17.3076 59.05 16.4856C58.725 15.6636 58.5716 14.7837 58.5993 13.9002V7.17018C58.5993 6.04566 58.1525 4.9672 57.3574 4.17204C56.5622 3.37689 55.4838 2.93018 54.3593 2.93018V13.9302C54.337 15.3739 54.6133 16.8067 55.1708 18.1386C55.7284 19.4705 56.5551 20.6728 57.5993 21.6702C58.5987 22.7102 59.8019 23.5329 61.1336 24.087C62.4654 24.641 63.8971 24.9144 65.3393 24.8902C67.7811 24.9145 70.1571 24.099 72.0693 22.5802V28.5802C72.0825 29.5044 71.9126 30.422 71.5693 31.2802C71.226 32.1384 70.7162 32.9201 70.0693 33.5802C69.4688 34.2352 68.7386 34.7582 67.9252 35.116C67.1118 35.4738 66.2329 35.6586 65.3443 35.6586C64.4556 35.6586 63.5767 35.4738 62.7633 35.116C61.9499 34.7582 61.2198 34.2352 60.6193 33.5802C59.9291 32.9118 59.3784 32.113 58.9993 31.2302C58.6919 30.4167 58.145 29.7155 57.4309 29.2191C56.7167 28.7228 55.8689 28.4547 54.9993 28.4502C54.7743 28.4425 54.5493 28.4626 54.3293 28.5102C54.3078 29.9996 54.5912 31.4776 55.1622 32.8534C55.7331 34.2292 56.5795 35.4736 57.6493 36.5102C58.6357 37.559 59.8265 38.3948 61.1481 38.9662C62.4698 39.5375 63.8944 39.8322 65.3343 39.8322C66.7741 39.8322 68.1987 39.5375 69.5204 38.9662C70.8421 38.3948 72.0328 37.559 73.0193 36.5102C74.0535 35.5187 74.8811 34.3322 75.4544 33.0192C76.0276 31.7062 76.3352 30.2927 76.3593 28.8602V7.17018C76.3593 6.04566 75.9125 4.9672 75.1174 4.17204C74.3222 3.37689 73.2438 2.93018 72.1193 2.93018H72.0693Z" fill="white"/>
<path d="M94.1008 5.17024C93.2907 4.32146 92.3136 3.6496 91.2311 3.19697C90.1485 2.74434 88.984 2.52074 87.8108 2.54024C86.6372 2.53226 85.4737 2.75754 84.3879 3.20299C83.3021 3.64843 82.3156 4.30517 81.4857 5.13507C80.6558 5.96496 79.999 6.95146 79.5536 8.03729C79.1081 9.12311 78.8829 10.2866 78.8908 11.4602V24.8602C79.4476 24.8602 79.999 24.7506 80.5134 24.5375C81.0278 24.3244 81.4952 24.0121 81.889 23.6184C82.2827 23.2246 82.595 22.7572 82.8081 22.2428C83.0212 21.7284 83.1308 21.177 83.1308 20.6202V11.6202C83.1211 10.9676 83.2427 10.3197 83.4884 9.71503C83.7341 9.11034 84.0988 8.5612 84.5608 8.10024C84.9859 7.6729 85.4928 7.33573 86.0513 7.10892C86.6097 6.88211 87.2082 6.77032 87.8108 6.78024C88.4266 6.77215 89.0376 6.88944 89.6067 7.12496C90.1757 7.36049 90.6909 7.70932 91.1208 8.15024C91.275 8.30726 91.4187 8.47429 91.5508 8.65024H96.2908C95.8522 7.33056 95.1009 6.1366 94.1008 5.17024Z" fill="white"/>
<path d="M52.5193 11.1398C52.0384 9.13449 50.9981 7.30696 49.5193 5.86976C48.3362 4.663 46.8927 3.74287 45.2993 3.17976L44.7693 2.99976C43.6871 2.68762 42.5656 2.5327 41.4393 2.53976C39.9335 2.51354 38.4382 2.7954 37.0453 3.36804C35.6524 3.94069 34.3912 4.79202 33.3393 5.86976C32.2623 6.91442 31.4104 8.16836 30.836 9.55447C30.2616 10.9406 29.9769 12.4295 29.9993 13.9298C29.9993 14.0898 29.9993 14.2598 29.9993 14.4298C29.9993 14.5998 29.9993 14.7598 29.9993 14.9298C30.1654 17.4089 31.1827 19.7545 32.8793 21.5698L33.2893 21.9998C35.4395 24.1328 38.3455 25.3297 41.3743 25.3297C44.403 25.3297 47.3091 24.1328 49.4593 21.9998C49.5993 21.8598 49.7393 21.7098 49.8593 21.5698C50.6192 20.7522 51.2467 19.821 51.7193 18.8098H48.0993C47.2386 18.8227 46.406 19.1178 45.7293 19.6498C44.8147 20.3855 43.7138 20.8528 42.5493 20.9998C42.414 21.0263 42.277 21.043 42.1393 21.0498C41.9129 21.065 41.6857 21.065 41.4593 21.0498H41.4093C41.1762 21.065 40.9424 21.065 40.7093 21.0498L40.2793 20.9998C39.9417 20.9566 39.6075 20.8898 39.2793 20.7998C39.0593 20.7298 38.8393 20.6598 38.6293 20.5698C38.0745 20.3427 37.5558 20.0362 37.0893 19.6598C36.9216 19.5473 36.7643 19.4201 36.6193 19.2798L36.3093 18.9798C36.0893 18.7598 35.8893 18.5298 35.7093 18.3098C35.4729 17.9938 35.2622 17.6594 35.0793 17.3098C35.0193 17.1998 34.9493 17.0698 34.8893 16.9398C34.8424 16.8578 34.8055 16.7705 34.7793 16.6798C34.7266 16.5656 34.6799 16.4488 34.6393 16.3298C34.5841 16.1903 34.5406 16.0465 34.5093 15.8998C34.4067 15.5736 34.333 15.2389 34.2893 14.8998H52.7993C52.7993 14.7498 52.7993 14.5998 52.7993 14.4498V13.9498C52.8169 13.0053 52.7229 12.0621 52.5193 11.1398ZM34.8293 11.1398C35.1327 10.3995 35.57 9.7215 36.1193 9.13976L36.3493 8.88976L36.6593 8.59976C36.7992 8.45364 36.9571 8.32594 37.1293 8.21976C37.411 7.98588 37.7159 7.78148 38.0393 7.60976C38.1254 7.56147 38.2157 7.52129 38.3093 7.48976C38.4187 7.41924 38.5362 7.36216 38.6593 7.31976C38.8702 7.22503 39.0874 7.14485 39.3093 7.07976C39.6362 6.9845 39.9708 6.91759 40.3093 6.87976C40.4511 6.84999 40.5947 6.82994 40.7393 6.81976C40.9693 6.81976 41.1993 6.81976 41.4393 6.81976H41.4893C41.7193 6.81976 41.9493 6.81976 42.1693 6.81976C42.3072 6.82996 42.4442 6.85001 42.5793 6.87976C43.7355 7.02838 44.8287 7.49193 45.7393 8.21976C45.9097 8.32844 46.0673 8.4559 46.2093 8.59976C46.3193 8.68976 46.4193 8.78976 46.5193 8.88976L46.7493 9.13976C47.3019 9.71887 47.7396 10.3975 48.0393 11.1398H34.8293Z" fill="white"/>
<path d="M140.05 5.68026C137.989 3.62845 135.199 2.47656 132.29 2.47656C129.382 2.47656 126.592 3.62845 124.53 5.68026C123.489 6.68687 122.665 7.89702 122.111 9.23544C121.557 10.5739 121.285 12.0119 121.31 13.4603V24.8603C121.867 24.8603 122.418 24.7506 122.933 24.5375C123.447 24.3244 123.915 24.0121 124.308 23.6184C124.702 23.2247 125.014 22.7573 125.227 22.2428C125.441 21.7284 125.55 21.1771 125.55 20.6203V13.4603C125.538 12.5719 125.709 11.6905 126.053 10.8714C126.397 10.0523 126.907 9.31314 127.55 8.70026C128.166 8.06393 128.905 7.55874 129.721 7.21504C130.537 6.87135 131.415 6.69624 132.3 6.70026C134.093 6.70823 135.808 7.42761 137.07 8.70026C137.711 9.31273 138.22 10.0504 138.564 10.8675C138.908 11.6846 139.08 12.5637 139.07 13.4503V24.8503C140.195 24.8503 141.273 24.4035 142.068 23.6084C142.864 22.8132 143.31 21.7348 143.31 20.6103V13.4603C143.327 12.0096 143.047 10.5708 142.486 9.2327C141.925 7.89462 141.096 6.68561 140.05 5.68026Z" fill="white"/>
<path d="M116.07 5.93016C113.922 3.79772 111.018 2.60107 107.99 2.60107C104.963 2.60107 102.059 3.79772 99.9105 5.93016C98.3114 7.48606 97.2233 9.49143 96.7905 11.6802C96.6402 12.4443 96.5665 13.2214 96.5705 14.0002C96.5705 14.2402 96.5705 14.4802 96.5705 14.7202C96.7493 17.625 98.0332 20.3511 100.159 22.3391C102.284 24.327 105.09 25.4259 108 25.4102C109.504 25.4333 110.997 25.1499 112.388 24.5774C113.779 24.0049 115.039 23.1552 116.09 22.0802C117.168 21.0323 118.02 19.7748 118.592 18.3851C119.165 16.9954 119.447 15.503 119.42 14.0002C119.443 12.4975 119.157 11.0062 118.581 9.61826C118.005 8.2303 117.15 6.97512 116.07 5.93016ZM113.07 19.0702C112.067 20.0749 110.788 20.7595 109.395 21.0373C108.003 21.3152 106.559 21.1738 105.247 20.6311C103.934 20.0885 102.812 19.1688 102.023 17.9885C101.233 16.8082 100.811 15.4202 100.81 14.0002C100.8 13.0674 100.981 12.1425 101.342 11.2825C101.703 10.4224 102.237 9.64567 102.91 9.00016C103.577 8.33135 104.368 7.80066 105.24 7.43856C106.112 7.07645 107.046 6.89005 107.99 6.89005C108.934 6.89005 109.869 7.07645 110.741 7.43856C111.613 7.80066 112.404 8.33135 113.07 9.00016C113.738 9.64917 114.266 10.4271 114.624 11.2866C114.981 12.1461 115.161 13.0693 115.15 14.0002C115.167 14.9423 114.991 15.878 114.634 16.7498C114.276 17.6216 113.744 18.4112 113.07 19.0702Z" fill="white"/>
<defs>
<linearGradient id="paint0_linear_344_4585" x1="-32.88" y1="-28.37" x2="67.2" y2="59.12" gradientUnits="userSpaceOnUse">
<stop stop-color="#FFCDFF"/>
<stop offset="0.52" stop-color="#A967FF"/>
<stop offset="1" stop-color="#7F00C5"/>
</linearGradient>
</defs>
</svg>
