<svg width="218" height="169" viewBox="0 0 218 169" fill="none" xmlns="http://www.w3.org/2000/svg">
<path fill-rule="evenodd" clip-rule="evenodd" d="M125.725 129.899C128.559 128.642 131.213 127.148 133.675 125.45C136.682 123.376 140.065 121.876 143.62 121.038C146.531 120.352 149.42 119.387 152.254 118.13C159.586 114.877 165.718 110.036 170.425 104.191C172.141 102.059 174.365 100.384 176.867 99.2744C197.84 89.9699 207.3 65.4245 197.996 44.4508C188.691 23.477 164.146 14.0173 143.172 23.3218C140.53 24.4938 137.646 25.0644 134.759 24.9281C127.429 24.5821 119.909 25.8931 112.745 29.0715C109.911 30.3285 107.257 31.8228 104.795 33.5206C101.788 35.5942 98.4054 37.0947 94.8499 37.9324C91.9389 38.6183 89.0498 39.5833 86.2162 40.8403C83.1801 42.1872 80.3497 43.8065 77.7411 45.6567C74.5356 47.9302 70.8889 49.548 67.0521 50.3986C63.9298 51.0908 60.8299 52.1024 57.7937 53.4493C48.3335 57.6461 40.871 64.4873 35.8902 72.7173C34.1566 75.5818 31.9129 78.1158 29.3845 80.3108C17.3283 90.7774 12.9428 108.263 19.7544 123.618C26.5661 138.972 42.4722 147.456 58.3227 145.542C61.6468 145.141 65.0311 145.178 68.3182 145.815C77.7623 147.646 87.8423 146.705 97.3027 142.508C100.339 141.161 103.169 139.542 105.778 137.692C108.983 135.418 112.63 133.8 116.467 132.95C119.589 132.258 122.689 131.246 125.725 129.899Z" fill="#FED33D"/>
<path d="M54.1696 115.871L49.6427 117.879L49.6468 99.6333L53.7579 97.8093L67.3346 110.03L62.8308 112.028L59.3103 108.891L54.1829 111.166L54.1696 115.871ZM54.2053 104.3L54.1752 107.161L56.3463 106.198L54.2053 104.3ZM72.8012 107.605L68.6901 109.429L61.9269 94.1849L66.038 92.3609L72.8012 107.605ZM87.2419 101.474C83.6619 103.062 79.5192 102.136 77.8232 98.4381C76.1298 94.6836 78.0768 90.9725 81.8416 89.3022C84.7517 88.0111 87.7917 88.3209 89.7659 90.1539L86.3723 93.3458C85.6031 92.609 84.4847 92.3312 83.3991 92.8129C81.921 93.4687 81.5069 95.0898 82.132 96.4987C82.757 97.9076 84.2061 98.6192 85.6612 97.9736C86.7929 97.4715 87.3375 96.4559 87.2843 95.4014L91.9486 95.0735C91.9623 97.7211 90.2675 100.132 87.2419 101.474ZM99.2775 95.8577L94.7737 97.8559L88.0105 82.6123L92.3295 80.6961L95.0655 86.8628C94.6564 84.6947 96.2071 82.9562 97.906 82.1748C100.934 80.776 104.294 81.9942 106.036 85.9206L108.608 91.7178L104.289 93.634L101.707 87.8138C100.99 86.197 99.4893 85.6188 98.0316 86.3208C96.6099 86.9792 95.9778 88.4207 96.6952 90.0374L99.2775 95.8577ZM115.703 88.8467C112.42 90.3583 108.866 88.7012 107.369 85.3291C105.627 81.4028 106.979 78.0941 110.071 76.7774C111.768 76.0524 114.12 76.0591 115.43 77.8276L114.262 75.1946L118.581 73.2783L123.776 84.9882L119.48 86.8942L118.302 84.2381C118.642 86.1881 117.378 88.0756 115.703 88.8467ZM115.326 84.757C116.701 84.1191 117.346 82.6443 116.69 81.1661C115.973 79.5494 114.48 79.0507 113.038 79.663C111.539 80.2726 110.961 81.7731 111.678 83.3898C112.355 84.9142 113.891 85.4488 115.326 84.757ZM131.058 86.1528L126.739 88.0691L119.934 72.7331L124.23 70.8271L125.399 73.4601C125.059 71.51 126.322 69.6226 127.975 68.8617C131.28 67.3399 134.812 69.0072 136.308 72.3793C138.04 76.2826 136.688 79.5913 133.619 80.8977C131.923 81.6227 129.57 81.616 128.26 79.8475L131.058 86.1528ZM130.652 78.0121C132.128 77.4127 132.706 75.9123 131.989 74.2955C131.313 72.7712 129.786 72.2596 128.375 72.9412C126.999 73.5791 126.355 75.0539 127 76.5089C127.717 78.1257 129.177 78.6115 130.652 78.0121ZM147.031 69.9438L149.294 73.3625C146.447 76.229 141.48 76.7466 139.512 72.3121L137.986 68.8707L136.369 69.588L134.719 65.8695C136.567 65.0497 135.885 64.136 134.86 61.8263L139.179 59.9101L140.678 63.2257L143.311 62.0575L144.961 65.776L142.305 66.9545L143.565 69.7953C144.241 71.3197 145.588 71.3026 147.031 69.9438ZM156.714 70.6512C153.434 72.1063 149.286 71.293 147.585 67.4589C145.74 63.3016 148.034 59.9345 151.313 58.4794C154.616 57.014 158.022 57.9629 159.901 61.1377C160.175 61.5689 160.442 62.1694 160.587 62.6852L152.019 66.4869C152.777 67.4495 154.047 67.6324 155.166 67.1637C156.193 66.7359 156.837 66.0077 156.979 65.1432L160.86 65.356C160.577 67.5828 159.069 69.606 156.714 70.6512ZM151.351 64.0466L155.554 62.1816C154.87 61.5732 153.767 61.4544 152.83 61.8977C151.975 62.2768 151.336 63.141 151.351 64.0466ZM168.735 65.0413L164.185 67.06L158.989 55.3501L163.331 53.4236L164.53 56.1259C163.955 53.147 166.91 50.6475 170.055 51.1318L169.269 55.6543C167.466 54.7681 165.158 56.9807 166.132 59.1748L168.735 65.0413Z" fill="#5C59ED"/>
</svg>
