<svg width="1253" height="278" viewBox="0 0 1253 278" fill="none" xmlns="http://www.w3.org/2000/svg">
<rect x="1253" y="278" width="1253" height="278" transform="rotate(-180 1253 278)" fill="url(#paint0_linear_144_90)"/>
<g clip-path="url(#clip0_144_90)">
<path d="M125.677 105.549C145.067 105.549 160.786 89.8299 160.786 70.4397C160.786 51.0495 145.067 35.3306 125.677 35.3306C106.287 35.3306 90.5679 51.0495 90.5679 70.4397C90.5679 89.8299 106.287 105.549 125.677 105.549Z" fill="url(#paint1_linear_144_90)" fill-opacity="0.3"/>
<path d="M385.472 103.391C373.411 90.9421 358.927 81.0958 342.914 74.4598C326.901 67.8238 309.698 64.5387 292.366 64.8073C275.085 64.5168 257.93 67.7932 241.972 74.432C226.014 81.0708 211.597 90.9293 199.621 103.391C187.1 115.43 177.2 129.924 170.54 145.965C163.881 162.006 160.604 179.25 160.917 196.616V333.219C167.589 333.219 174.196 331.904 180.36 329.351C186.524 326.798 192.125 323.055 196.842 318.338C201.56 313.62 205.303 308.019 207.856 301.855C210.409 295.691 211.723 289.084 211.723 282.412V196.976C211.567 177.647 218.421 158.916 231.015 144.252C238.496 135.275 247.885 128.078 258.498 123.186C269.111 118.294 280.681 115.83 292.366 115.973C302.967 115.957 313.466 118.032 323.264 122.077C333.062 126.123 341.966 132.061 349.467 139.551C356.968 147.041 362.919 155.936 366.979 165.728C371.04 175.52 373.129 186.016 373.129 196.616V333.219C379.801 333.219 386.408 331.904 392.572 329.351C398.736 326.798 404.337 323.055 409.055 318.338C413.773 313.62 417.515 308.019 420.068 301.855C422.622 295.691 423.936 289.084 423.936 282.412V196.616C424.208 179.277 420.937 162.065 414.323 146.035C407.709 130.005 397.891 115.494 385.472 103.391Z" fill="url(#paint2_linear_144_90)" fill-opacity="0.3"/>
</g>
<defs>
<linearGradient id="paint0_linear_144_90" x1="1253" y1="417" x2="2506" y2="417" gradientUnits="userSpaceOnUse">
<stop stop-color="#B170FF"/>
<stop offset="1" stop-color="#6A4399"/>
</linearGradient>
<linearGradient id="paint1_linear_144_90" x1="160.981" y1="92.8619" x2="81.4487" y2="48.3953" gradientUnits="userSpaceOnUse">
<stop stop-color="white"/>
<stop offset="1" stop-color="white" stop-opacity="0"/>
</linearGradient>
<linearGradient id="paint2_linear_144_90" x1="424.682" y1="284.719" x2="123.894" y2="119.916" gradientUnits="userSpaceOnUse">
<stop stop-color="white"/>
<stop offset="1" stop-color="white" stop-opacity="0"/>
</linearGradient>
<clipPath id="clip0_144_90">
<rect width="348" height="266.336" fill="white" transform="translate(85 11.2026)"/>
</clipPath>
</defs>
</svg>
