<svg width="1297" height="263" viewBox="0 0 1297 263" fill="none" xmlns="http://www.w3.org/2000/svg">
<g clip-path="url(#clip0_332_1357)">
<path d="M1297 263L1297 0L0 -5.66937e-05L-1.14961e-05 263L1297 263Z" fill="url(#paint0_linear_332_1357)"/>
<path d="M146.1 103.199C162.725 103.199 176.201 89.7234 176.201 73.099C176.201 56.476 162.725 43 146.1 43C129.476 43 116 56.476 116 73.099C116 89.7234 129.476 103.199 146.1 103.199Z" fill="url(#paint1_linear_332_1357)" fill-opacity="0.5"/>
<path d="M368.834 101.35C358.493 90.677 346.075 82.2356 332.347 76.5471C318.618 70.8571 303.87 68.0414 289.011 68.2713C274.195 68.0214 259.486 70.8314 245.806 76.5228C232.125 82.2142 219.764 90.667 209.496 101.35C198.763 111.672 190.274 124.097 184.565 137.85C178.856 151.603 176.046 166.387 176.314 181.275V298.39C182.034 298.39 187.699 297.263 192.983 295.075C198.268 292.884 203.069 289.676 207.114 285.632C211.16 281.587 214.368 276.785 216.557 271.501C218.746 266.216 219.872 260.552 219.872 254.832V181.584C219.738 165.012 225.615 148.953 236.412 136.382C242.826 128.685 250.875 122.515 259.975 118.322C269.073 114.127 278.992 112.015 289.011 112.138C298.098 112.123 307.101 113.902 315.501 117.371C323.901 120.839 331.534 125.929 337.965 132.352C344.396 138.773 349.498 146.399 352.979 154.794C356.46 163.189 358.252 172.187 358.252 181.275V298.39C363.972 298.39 369.636 297.263 374.921 295.075C380.205 292.884 385.007 289.676 389.052 285.632C393.097 281.587 396.305 276.785 398.494 271.501C400.683 266.216 401.81 260.552 401.81 254.832V181.275C402.044 166.41 399.238 151.655 393.568 137.91C387.898 124.167 379.481 111.726 368.834 101.35Z" fill="url(#paint2_linear_332_1357)" fill-opacity="0.5"/>
</g>
<defs>
<linearGradient id="paint0_linear_332_1357" x1="1297" y1="131.5" x2="-5.74805e-06" y2="131.5" gradientUnits="userSpaceOnUse">
<stop stop-color="#FFAB56"/>
<stop offset="1" stop-color="#FED33D"/>
</linearGradient>
<linearGradient id="paint1_linear_332_1357" x1="176.368" y1="92.3235" x2="108.183" y2="54.2" gradientUnits="userSpaceOnUse">
<stop stop-color="white"/>
<stop offset="1" stop-color="white" stop-opacity="0"/>
</linearGradient>
<linearGradient id="paint2_linear_332_1357" x1="402.449" y1="256.81" x2="144.573" y2="115.517" gradientUnits="userSpaceOnUse">
<stop stop-color="white"/>
<stop offset="1" stop-color="white" stop-opacity="0"/>
</linearGradient>
<clipPath id="clip0_332_1357">
<rect width="1297" height="263" fill="white" transform="translate(1297 263) rotate(-180)"/>
</clipPath>
</defs>
</svg>
