<svg width="1297" height="263" viewBox="0 0 1297 263" fill="none" xmlns="http://www.w3.org/2000/svg">
<g clip-path="url(#clip0_332_1357)">
<path d="M1297.26 284.374L1296.73 -25.7666L-0.263253 -23.0572L0.262335 287.083L1297.26 284.374Z" fill="url(#paint0_linear_332_1357)"/>
<path d="M167.1 118.199C183.725 118.199 197.201 104.723 197.201 88.099C197.201 71.476 183.725 58 167.1 58C150.476 58 137 71.476 137 88.099C137 104.723 150.476 118.199 167.1 118.199Z" fill="url(#paint1_linear_332_1357)" fill-opacity="0.5"/>
<path d="M389.834 116.35C379.493 105.677 367.075 97.2356 353.347 91.5471C339.618 85.8571 324.87 83.0414 310.011 83.2713C295.195 83.0214 280.486 85.8314 266.806 91.5228C253.125 97.2142 240.764 105.667 230.496 116.35C219.763 126.672 211.274 139.097 205.565 152.85C199.856 166.603 197.046 181.387 197.314 196.275V313.39C203.034 313.39 208.699 312.263 213.983 310.075C219.268 307.884 224.069 304.676 228.114 300.632C232.16 296.587 235.368 291.785 237.557 286.501C239.746 281.216 240.872 275.552 240.872 269.832V196.584C240.738 180.012 246.615 163.953 257.412 151.382C263.826 143.685 271.875 137.515 280.975 133.322C290.073 129.127 299.992 127.015 310.011 127.138C319.098 127.123 328.101 128.902 336.501 132.371C344.901 135.839 352.534 140.929 358.965 147.352C365.396 153.773 370.498 161.399 373.979 169.794C377.46 178.189 379.252 187.187 379.252 196.275V313.39C384.972 313.39 390.636 312.263 395.921 310.075C401.205 307.884 406.007 304.676 410.052 300.632C414.097 296.587 417.305 291.785 419.494 286.501C421.683 281.216 422.81 275.552 422.81 269.832V196.275C423.044 181.41 420.238 166.655 414.568 152.91C408.898 139.167 400.481 126.726 389.834 116.35Z" fill="url(#paint2_linear_332_1357)" fill-opacity="0.5"/>
</g>
<defs>
<linearGradient id="paint0_linear_332_1357" x1="1297" y1="129.304" x2="-0.00132574" y2="131.502" gradientUnits="userSpaceOnUse">
<stop stop-color="#B170FF"/>
<stop offset="1" stop-color="#6B449A"/>
</linearGradient>
<linearGradient id="paint1_linear_332_1357" x1="197.368" y1="107.323" x2="129.183" y2="69.2" gradientUnits="userSpaceOnUse">
<stop stop-color="white"/>
<stop offset="1" stop-color="white" stop-opacity="0"/>
</linearGradient>
<linearGradient id="paint2_linear_332_1357" x1="423.449" y1="271.81" x2="165.573" y2="130.517" gradientUnits="userSpaceOnUse">
<stop stop-color="white"/>
<stop offset="1" stop-color="white" stop-opacity="0"/>
</linearGradient>
<clipPath id="clip0_332_1357">
<rect width="1297" height="263" fill="white" transform="translate(1297 263) rotate(-180)"/>
</clipPath>
</defs>
</svg>
