<svg width="1297" height="263" viewBox="0 0 1297 263" fill="none" xmlns="http://www.w3.org/2000/svg">
<g clip-path="url(#clip0_332_1357)">
<g clip-path="url(#clip1_332_1357)">
<mask id="mask0_332_1357" style="mask-type:luminance" maskUnits="userSpaceOnUse" x="0" y="1" width="1297" height="263">
<path d="M1297 1H0V264H1297V1Z" fill="white"/>
</mask>
<g mask="url(#mask0_332_1357)">
<path d="M1297 209.607V246.068C1297 255.972 1257.41 264 1208.57 264H88.4318C39.5924 264 -2.13483e-06 255.972 0 246.068L7.85982e-06 209.607H1297Z" fill="white"/>
<path d="M0 1V264H1297V1H0Z" fill="url(#paint0_linear_332_1357)"/>
</g>
<path d="M146.1 111.199C162.725 111.199 176.201 97.7234 176.201 81.099C176.201 64.476 162.725 51 146.1 51C129.476 51 116 64.476 116 81.099C116 97.7234 129.476 111.199 146.1 111.199Z" fill="url(#paint1_linear_332_1357)" fill-opacity="0.5"/>
<path d="M368.834 109.35C358.493 98.677 346.075 90.2356 332.347 84.5471C318.618 78.8571 303.87 76.0414 289.011 76.2713C274.195 76.0214 259.486 78.8314 245.806 84.5228C232.125 90.2142 219.764 98.667 209.496 109.35C198.763 119.672 190.274 132.097 184.565 145.85C178.856 159.603 176.046 174.387 176.314 189.275V306.39C182.034 306.39 187.699 305.263 192.983 303.075C198.268 300.884 203.069 297.676 207.114 293.632C211.16 289.587 214.368 284.785 216.557 279.501C218.746 274.216 219.872 268.552 219.872 262.832V189.584C219.738 173.012 225.615 156.953 236.412 144.382C242.826 136.685 250.875 130.515 259.975 126.322C269.073 122.127 278.992 120.015 289.011 120.138C298.098 120.123 307.101 121.902 315.501 125.371C323.901 128.839 331.534 133.929 337.965 140.352C344.396 146.773 349.498 154.399 352.979 162.794C356.46 171.189 358.252 180.187 358.252 189.275V306.39C363.972 306.39 369.636 305.263 374.921 303.075C380.205 300.884 385.007 297.676 389.052 293.632C393.097 289.587 396.305 284.785 398.494 279.501C400.683 274.216 401.81 268.552 401.81 262.832V189.275C402.044 174.41 399.238 159.655 393.568 145.91C387.898 132.167 379.481 119.726 368.834 109.35Z" fill="url(#paint2_linear_332_1357)" fill-opacity="0.5"/>
</g>
</g>
<defs>
<linearGradient id="paint0_linear_332_1357" x1="0" y1="132.5" x2="1297" y2="132.5" gradientUnits="userSpaceOnUse">
<stop stop-color="#767676"/>
<stop offset="1" stop-color="#3C4343"/>
</linearGradient>
<linearGradient id="paint1_linear_332_1357" x1="176.368" y1="100.323" x2="108.183" y2="62.2" gradientUnits="userSpaceOnUse">
<stop stop-color="white"/>
<stop offset="1" stop-color="white" stop-opacity="0"/>
</linearGradient>
<linearGradient id="paint2_linear_332_1357" x1="402.449" y1="264.81" x2="144.573" y2="123.517" gradientUnits="userSpaceOnUse">
<stop stop-color="white"/>
<stop offset="1" stop-color="white" stop-opacity="0"/>
</linearGradient>
<clipPath id="clip0_332_1357">
<rect width="1297" height="263" fill="white" transform="translate(1297 263) rotate(-180)"/>
</clipPath>
<clipPath id="clip1_332_1357">
<rect width="1297" height="263" fill="white" transform="translate(0 1)"/>
</clipPath>
</defs>
</svg>
