<svg width="440" height="440" viewBox="0 0 440 440" fill="none" xmlns="http://www.w3.org/2000/svg">
<rect x="440" width="440" height="440" transform="rotate(90 440 0)" fill="url(#paint0_linear_130_90)"/>
<path d="M129.904 172.661C141.547 172.661 150.985 163.223 150.985 151.58C150.985 139.938 141.547 130.5 129.904 130.5C118.261 130.5 108.823 139.938 108.823 151.58C108.823 163.223 118.261 172.661 129.904 172.661Z" fill="url(#paint1_linear_130_90)" fill-opacity="0.5"/>
<path d="M285.896 171.366C278.654 163.891 269.957 157.979 260.342 153.995C250.727 150.01 240.398 148.038 229.992 148.199C219.615 148.024 209.314 149.992 199.733 153.978C190.151 157.964 181.494 163.884 174.303 171.366C166.786 178.595 160.841 187.297 156.842 196.929C152.844 206.561 150.876 216.915 151.064 227.342V309.364C155.07 309.364 159.037 308.575 162.738 307.042C166.439 305.508 169.802 303.261 172.635 300.429C175.468 297.596 177.715 294.233 179.248 290.532C180.781 286.831 181.57 282.864 181.57 278.858V227.558C181.476 215.952 185.592 204.705 193.154 195.901C197.646 190.51 203.283 186.189 209.656 183.252C216.028 180.314 222.975 178.835 229.992 178.921C236.356 178.911 242.661 180.157 248.544 182.586C254.427 185.015 259.773 188.58 264.277 193.078C268.781 197.575 272.354 202.916 274.792 208.796C277.23 214.675 278.485 220.977 278.485 227.342V309.364C282.491 309.364 286.458 308.575 290.159 307.042C293.86 305.508 297.223 303.261 300.056 300.429C302.889 297.596 305.136 294.233 306.669 290.532C308.202 286.831 308.991 282.864 308.991 278.858V227.342C309.155 216.931 307.19 206.597 303.219 196.971C299.248 187.346 293.353 178.633 285.896 171.366Z" fill="url(#paint2_linear_130_90)" fill-opacity="0.5"/>
<defs>
<linearGradient id="paint0_linear_130_90" x1="660" y1="0" x2="660" y2="440" gradientUnits="userSpaceOnUse">
<stop stop-color="#ECB7FF"/>
<stop offset="1" stop-color="#B06FFF"/>
</linearGradient>
<linearGradient id="paint1_linear_130_90" x1="151.102" y1="165.044" x2="103.348" y2="138.344" gradientUnits="userSpaceOnUse">
<stop stop-color="white"/>
<stop offset="1" stop-color="white" stop-opacity="0"/>
</linearGradient>
<linearGradient id="paint2_linear_130_90" x1="309.439" y1="280.243" x2="128.834" y2="181.288" gradientUnits="userSpaceOnUse">
<stop stop-color="white"/>
<stop offset="1" stop-color="white" stop-opacity="0"/>
</linearGradient>
</defs>
</svg>
