<svg width="440" height="440" viewBox="0 0 440 440" fill="none" xmlns="http://www.w3.org/2000/svg">
<path d="M440 349L440 410C440 426.569 426.569 440 410 440L30 440C13.4315 440 -3.39063e-06 426.569 -2.6664e-06 410L0 349L440 349Z" fill="white"/>
<rect y="440" width="440" height="440" transform="rotate(-90 0 440)" fill="url(#paint0_linear_131_99)"/>
<path d="M129.905 172.662C141.548 172.662 150.986 163.223 150.986 151.581C150.986 139.938 141.548 130.5 129.905 130.5C118.262 130.5 108.824 139.938 108.824 151.581C108.824 163.223 118.262 172.662 129.905 172.662Z" fill="url(#paint1_linear_131_99)" fill-opacity="0.5"/>
<path d="M285.897 171.367C278.655 163.892 269.958 157.979 260.343 153.995C250.728 150.01 240.399 148.038 229.993 148.199C219.616 148.025 209.315 149.992 199.734 153.978C190.152 157.964 181.495 163.884 174.304 171.367C166.787 178.595 160.842 187.298 156.843 196.929C152.845 206.561 150.877 216.915 151.065 227.343V309.364C155.071 309.364 159.038 308.575 162.739 307.042C166.44 305.509 169.803 303.262 172.636 300.429C175.469 297.596 177.716 294.233 179.249 290.532C180.782 286.831 181.571 282.864 181.571 278.858V227.558C181.477 215.952 185.593 204.706 193.155 195.901C197.647 190.51 203.284 186.189 209.657 183.252C216.029 180.315 222.976 178.835 229.993 178.921C236.357 178.912 242.662 180.157 248.545 182.586C254.428 185.016 259.774 188.581 264.278 193.078C268.782 197.575 272.355 202.916 274.793 208.796C277.231 214.675 278.486 220.978 278.486 227.343V309.364C282.492 309.364 286.459 308.575 290.16 307.042C293.861 305.509 297.224 303.262 300.057 300.429C302.89 297.596 305.137 294.233 306.67 290.532C308.203 286.831 308.992 282.864 308.992 278.858V227.343C309.156 216.932 307.191 206.597 303.22 196.972C299.249 187.346 293.354 178.633 285.897 171.367Z" fill="url(#paint2_linear_131_99)" fill-opacity="0.5"/>
<defs>
<linearGradient id="paint0_linear_131_99" x1="220" y1="440" x2="220" y2="880" gradientUnits="userSpaceOnUse">
<stop stop-color="#FFAB56"/>
<stop offset="1" stop-color="#FED33D"/>
</linearGradient>
<linearGradient id="paint1_linear_131_99" x1="151.103" y1="165.044" x2="103.349" y2="138.344" gradientUnits="userSpaceOnUse">
<stop stop-color="white"/>
<stop offset="1" stop-color="white" stop-opacity="0"/>
</linearGradient>
<linearGradient id="paint2_linear_131_99" x1="309.44" y1="280.243" x2="128.835" y2="181.288" gradientUnits="userSpaceOnUse">
<stop stop-color="white"/>
<stop offset="1" stop-color="white" stop-opacity="0"/>
</linearGradient>
</defs>
</svg>
